<svg width="97" height="32" viewBox="0 0 97 32" fill="none" xmlns="http://www.w3.org/2000/svg">
<path d="M51.4974 0.724149C35.976 0.607842 20.4106 3.42935 6.61328 10.201L6.90796 10.7437C13.8088 7.569 21.2155 5.53148 28.7233 4.15734C43.7815 1.46359 59.2134 1.46359 74.2716 4.15734C81.7794 5.53148 89.1904 7.569 96.0869 10.7437L96.3816 10.201C82.5843 3.42935 67.0232 0.607842 51.4974 0.724149Z" fill="#0D4221"/>
<path d="M9.74483 24.3475C9.327 24.3475 8.97516 24.3259 8.68927 24.3044V29.3142H6.61328V16.0337C7.62096 15.8902 8.63869 15.8254 9.65686 15.8399C13.3822 15.8399 15.4758 17.1322 15.4758 19.9235C15.4758 22.7149 13.1315 24.3475 9.74483 24.3475ZM9.61289 16.6842C9.26103 16.6842 8.95316 16.7057 8.68927 16.7273V23.4213C9.06312 23.4213 9.349 23.4644 9.50293 23.4644C12.0847 23.4644 13.2942 22.1247 13.2942 19.8805C13.2942 17.8688 12.1507 16.6842 9.61289 16.6842Z" fill="#0D4221"/>
<path d="M18.7615 24.3694C18.8274 26.8549 20.0194 28.5392 22.2449 28.5392C23.2097 28.5626 24.153 28.2582 24.9146 27.6777L25.4204 28.4789C24.4082 29.2487 23.1517 29.6452 21.871 29.5989C20.1513 29.5989 18.8494 29.1035 17.9698 28.13C17.0691 27.0817 16.5988 25.7428 16.6503 24.3737C16.6503 21.4833 18.6559 19.1055 21.6116 19.1055C24.4088 19.1055 25.7987 20.919 25.7987 23.5337C25.7994 23.8078 25.7774 24.0816 25.7327 24.3522L18.7615 24.3694ZM23.6787 23.5079C23.7091 23.3285 23.7239 23.1469 23.7227 22.9651C23.7227 21.3024 23.1069 19.9239 21.5236 19.9239C19.9402 19.9239 18.9198 21.4359 18.7659 23.5079H23.6787Z" fill="#0D4221"/>
<path d="M34.3054 28.7335C33.6235 29.3207 32.7414 29.6359 31.8336 29.6166C29.7181 29.6166 29.0143 28.1477 29.0143 25.5588V20.2905H27.0527V19.429H29.0143V16.7324H30.954V19.429H33.8876V20.2905H30.954V25.3003C30.954 27.4541 31.2179 28.5828 32.3878 28.5828C32.9202 28.5487 33.428 28.3513 33.8392 28.0184L34.3054 28.7335Z" fill="#0D4221"/>
<path d="M43.8055 17.0283V22.1243H44.5972C46.2949 22.1243 47.5968 22.1243 48.5028 22.0381V23.2443C47.5968 23.1753 46.3037 23.1538 44.5972 23.1538H43.8055V29.331H41.7207V16.0117H49.5892V17.2136C48.2487 17.0883 46.9025 17.0308 45.556 17.0413L43.8055 17.0283Z" fill="#0D4221"/>
<path d="M55.1795 19.123C58.3331 19.123 60.2287 21.0443 60.2287 24.3482C60.2287 27.4153 57.8932 29.6165 55.1795 29.6165C52.0743 29.6165 50.1523 27.6737 50.1523 24.3698C50.1523 21.3243 52.4922 19.123 55.1795 19.123ZM57.4051 21.2381C57.2013 20.8437 56.885 20.5158 56.4946 20.294C56.1043 20.0723 55.6566 19.9663 55.2059 19.9889C54.7519 19.9777 54.3041 20.0932 53.9146 20.3221C53.5252 20.5509 53.2104 20.8836 53.0068 21.2812C52.4779 22.2267 52.2125 23.2919 52.2371 24.3698C52.2052 25.4544 52.4469 26.5301 52.9408 27.5014C53.1626 27.8834 53.4847 28.2003 53.8736 28.4194C54.2626 28.6384 54.7042 28.7516 55.1529 28.7472C55.6015 28.7428 56.0408 28.621 56.4252 28.3944C56.8096 28.1678 57.1251 27.8446 57.3391 27.4583C57.8744 26.5073 58.1416 25.4338 58.1132 24.3482C58.1569 23.2689 57.9128 22.197 57.4051 21.2381Z" fill="#0D4221"/>
<path d="M68.5501 20.7851C68.2946 20.7404 68.0355 20.7188 67.776 20.7205C66.0167 20.7205 65.0007 21.8017 65.0007 23.9599V29.3143H62.9951V19.4067H64.3146L64.8468 21.2848C65.0998 20.6862 65.5261 20.1731 66.0731 19.8088C66.6202 19.4444 67.2641 19.2448 67.9255 19.2344C68.1412 19.2356 68.3563 19.2573 68.5677 19.299L68.5501 20.7851Z" fill="#0D4221"/>
<path d="M71.7126 24.3694C71.7786 26.8549 72.9705 28.5392 75.1961 28.5392C76.1608 28.5626 77.1042 28.2582 77.8658 27.6777L78.3716 28.4789C77.3597 29.2494 76.103 29.646 74.8222 29.5989C73.1025 29.5989 71.8006 29.1035 70.921 28.13C70.0203 27.0817 69.5499 25.7428 69.6015 24.3737C69.6015 21.4833 71.6071 19.1055 74.5627 19.1055C77.3644 19.1055 78.7498 20.919 78.7498 23.5337C78.7506 23.8078 78.7286 24.0816 78.6839 24.3522L71.7126 24.3694ZM76.6299 23.5079C76.6603 23.3285 76.675 23.1469 76.6739 22.9651C76.6739 21.3024 76.0581 19.9239 74.4747 19.9239C72.8914 19.9239 71.871 21.4359 71.717 23.5079H76.6299Z" fill="#0D4221"/>
<path d="M81.1289 27.5872C82.003 28.2208 83.0586 28.5689 84.146 28.5823C85.4655 28.5823 86.2616 28.0395 86.2616 27.0703C86.2616 26.2087 85.7339 25.8167 84.41 25.2352L83.0905 24.6494C81.6127 24.0032 80.8914 23.0943 80.8914 21.9313C80.8914 20.1824 82.4571 19.1227 84.6387 19.1227C85.7034 19.0857 86.7576 19.3408 87.6823 19.8593L87.2424 20.8285C86.4856 20.335 85.5962 20.0726 84.687 20.0747C83.4291 20.0747 82.5891 20.5916 82.5891 21.4359C82.5891 22.1897 83.0289 22.5774 84.1549 23.0943L85.7646 23.8309C87.2864 24.5201 87.9638 25.386 87.9638 26.5921C87.9638 28.4961 86.376 29.6075 84.2384 29.6075C82.9479 29.6285 81.6831 29.2518 80.623 28.5306L81.1289 27.5872Z" fill="#0D4221"/>
<path d="M96.3816 28.7335C95.7015 29.3208 94.8207 29.6361 93.9142 29.6166C91.7942 29.6166 91.0905 28.1477 91.0905 25.5588V20.2905H89.1289V19.429H91.0905V16.7324H93.0302V19.429H95.9637V20.2905H93.0302V25.3003C93.0302 27.4541 93.2941 28.5828 94.464 28.5828C94.9975 28.5482 95.5066 28.3508 95.9198 28.0184L96.3816 28.7335Z" fill="#0D4221"/>
</svg>
