<svg width="120" height="121" viewBox="0 0 120 121" fill="none" xmlns="http://www.w3.org/2000/svg">
<path d="M108 78.542V90.3588C108 91.7633 106.863 92.9 105.459 92.9H14.508C13.1036 92.9 11.9668 91.7631 11.9668 90.3588V78.542C11.9668 78.2723 12.0087 78.0046 12.0948 77.7488L24.9624 38.6621C25.3039 37.6192 26.277 36.916 27.3758 36.916H92.5915C93.6903 36.916 94.6632 37.6192 95.0049 38.6621L107.873 77.7486C107.958 78.0046 108 78.2723 108 78.542Z" fill="white"/>
<path d="M108 78.542V90.3588C108 91.7633 106.863 92.9 105.458 92.9H90.1793C90.1273 74.886 90.4051 45.1549 90.487 36.916H92.5907C93.6895 36.916 94.6624 37.6192 95.0041 38.6621L107.872 77.7486C107.958 78.0046 108 78.2723 108 78.542Z" fill="#F5F5F5"/>
<path d="M11.9658 78.542V90.3588C11.9658 91.7633 13.1026 92.9 14.507 92.9H29.7861C29.838 74.886 29.5603 45.1549 29.4784 36.916H27.3748C26.276 36.916 25.3031 37.6192 24.9614 38.6621L12.0938 77.7488C12.0079 78.0046 11.9658 78.2723 11.9658 78.542Z" fill="#F5F5F5"/>
<path d="M98.3448 77.7482L90.5091 53.9474C90.166 52.9053 89.193 52.2012 88.0957 52.2012H31.8694C30.7724 52.2012 29.7991 52.9053 29.456 53.9474L21.6205 77.7482C21.5361 78.0047 21.4932 78.2729 21.4932 78.5427V90.3598C21.4932 91.7629 22.6308 92.9005 24.0339 92.9005H95.9316C97.3348 92.9005 98.4724 91.7629 98.4724 90.3598V78.5427C98.4722 78.2729 98.4293 78.0045 98.3448 77.7482Z" fill="#EDEDED"/>
<path d="M108.001 80.9939V103.042C108.001 104.445 106.863 105.583 105.46 105.583H14.5066C13.1034 105.583 11.9658 104.445 11.9658 103.042V80.9939C11.9658 79.5907 13.1034 78.4531 14.5066 78.4531H33.266C34.2369 78.4531 35.1229 79.0065 35.5491 79.8789L39.2353 87.4266C39.6613 88.2991 40.5474 88.8524 41.5184 88.8524H78.4479C79.4188 88.8524 80.3048 88.2991 80.731 87.4266L84.4172 79.8789C84.8432 79.0065 85.7293 78.4531 86.7003 78.4531H105.46C106.863 78.4531 108.001 79.5907 108.001 80.9939Z" fill="#E0E0E0"/>
<path d="M25.0927 100.168H19.6096C18.782 100.168 18.1113 99.4975 18.1113 98.6701C18.1113 97.8427 18.7822 97.1719 19.6096 97.1719H25.0927C25.9203 97.1719 26.5909 97.8427 26.5909 98.6701C26.5909 99.4975 25.9203 100.168 25.0927 100.168Z" fill="#F5F5F5"/>
<path d="M25.0927 95.4889H19.6096C18.782 95.4889 18.1113 94.818 18.1113 93.9904C18.1113 93.1629 18.7822 92.4922 19.6096 92.4922H25.0927C25.9203 92.4922 26.5909 93.1631 26.5909 93.9904C26.5911 94.818 25.9203 95.4889 25.0927 95.4889Z" fill="#F5F5F5"/>
<path d="M59.8905 24.9798C59.8886 24.9798 59.887 24.9798 59.8851 24.9798C58.8998 24.977 58.1036 24.1757 58.1065 23.1906L58.1222 17.8783C58.125 16.8948 58.9233 16.0996 59.906 16.0996H59.9114C60.8967 16.1024 61.6929 16.9038 61.69 17.8888L61.6743 23.2012C61.6715 24.1846 60.8732 24.9798 59.8905 24.9798Z" fill="#C2C2C2"/>
<path d="M51.97 27.2451C51.3634 27.2451 50.7721 26.9357 50.4379 26.3777L47.6776 21.7694C47.1714 20.924 47.4461 19.8285 48.2912 19.3223C49.1366 18.8158 50.2319 19.0907 50.7383 19.9359L53.4986 24.5442C54.0048 25.3895 53.7301 26.485 52.885 26.9913C52.5979 27.1631 52.2819 27.2451 51.97 27.2451Z" fill="#C2C2C2"/>
<path d="M67.797 27.3177C67.4818 27.3177 67.1623 27.234 66.8731 27.0584C66.031 26.5473 65.7626 25.4499 66.2738 24.6078L69.0615 20.0148C69.5726 19.1724 70.6698 18.9043 71.5121 19.4155C72.3542 19.9266 72.6226 21.024 72.1114 21.8661L69.3237 26.4591C68.9881 27.012 68.3998 27.3177 67.797 27.3177Z" fill="#C2C2C2"/>
</svg>
