<svg width="343" height="782" viewBox="0 0 343 782" fill="none" xmlns="http://www.w3.org/2000/svg">
<g clip-path="url(#clip0_1_3)">
<mask id="mask0_1_3" style="mask-type:luminance" maskUnits="userSpaceOnUse" x="0" y="12" width="343" height="770">
<path d="M343 12H0V781.532H343V12Z" fill="white"/>
</mask>
<g mask="url(#mask0_1_3)">
<path d="M311.213 26.7852H31.0472C22.8819 26.7852 16.2627 33.4045 16.2627 41.5697V754.182C16.2627 762.347 22.8819 768.966 31.0472 768.966H311.213C319.378 768.966 325.998 762.347 325.998 754.182V41.5697C325.998 33.4045 319.378 26.7852 311.213 26.7852Z" fill="#AFC0CF"/>
<path d="M41.3967 108.84H35.4829C30.1755 108.84 25.873 113.142 25.873 118.45V124.364C25.873 129.671 30.1755 133.974 35.4829 133.974H41.3967C46.7041 133.974 51.0066 129.671 51.0066 124.364V118.45C51.0066 113.142 46.7041 108.84 41.3967 108.84Z" fill="#0D4221"/>
<path d="M41.3967 108.988H35.483C30.2572 108.988 26.0209 113.224 26.0209 118.45V124.364C26.0209 129.59 30.2572 133.826 35.483 133.826H41.3967C46.6225 133.826 50.8588 129.59 50.8588 124.364V118.45C50.8588 113.224 46.6225 108.988 41.3967 108.988Z" stroke="black" stroke-opacity="0.2" stroke-width="0.29569"/>
<path d="M38.4398 117.872C35.1616 117.846 31.874 118.472 28.96 119.974L29.0222 120.094C30.4797 119.39 32.044 118.938 33.6297 118.633C36.8101 118.036 40.0695 118.036 43.2499 118.633C44.8356 118.938 46.4008 119.39 47.8574 120.094L47.9196 119.974C45.0056 118.472 41.719 117.846 38.4398 117.872Z" fill="#FFFCF5"/>
<path d="M29.6214 123.11C29.5331 123.11 29.4588 123.105 29.3984 123.1V124.211H28.96V121.266C29.1728 121.234 29.3877 121.22 29.6028 121.223C30.3896 121.223 30.8318 121.51 30.8318 122.129C30.8318 122.748 30.3367 123.11 29.6214 123.11ZM29.5935 121.41C29.5192 121.41 29.4542 121.415 29.3984 121.42V122.904C29.4774 122.904 29.5378 122.914 29.5703 122.914C30.1156 122.914 30.371 122.617 30.371 122.119C30.371 121.673 30.1295 121.41 29.5935 121.41Z" fill="#FFFCF5"/>
<path d="M31.5258 123.113C31.5397 123.664 31.7915 124.037 32.2615 124.037C32.4653 124.043 32.6645 123.975 32.8254 123.846L32.9322 124.024C32.7184 124.195 32.4531 124.283 32.1826 124.272C31.8193 124.272 31.5444 124.163 31.3586 123.947C31.1684 123.714 31.069 123.417 31.0799 123.114C31.0799 122.473 31.5035 121.945 32.1278 121.945C32.7186 121.945 33.0121 122.347 33.0121 122.927C33.0123 122.988 33.0076 123.049 32.9982 123.109L31.5258 123.113ZM32.5644 122.922C32.5708 122.882 32.5739 122.842 32.5736 122.801C32.5736 122.433 32.4436 122.127 32.1092 122.127C31.7748 122.127 31.5592 122.462 31.5267 122.922H32.5644Z" fill="#FFFCF5"/>
<path d="M34.8082 124.083C34.6642 124.214 34.4779 124.283 34.2861 124.279C33.8393 124.279 33.6907 123.953 33.6907 123.379V122.211H33.2764V122.02H33.6907V121.422H34.1003V122.02H34.7199V122.211H34.1003V123.322C34.1003 123.8 34.1561 124.05 34.4032 124.05C34.5156 124.042 34.6229 123.999 34.7097 123.925L34.8082 124.083Z" fill="#FFFCF5"/>
<path d="M36.8153 121.487V122.617H36.9825C37.3411 122.617 37.6161 122.617 37.8074 122.598V122.866C37.6161 122.85 37.343 122.846 36.9825 122.846H36.8153V124.215H36.375V121.262H38.0369V121.528C37.7538 121.5 37.4694 121.488 37.185 121.49L36.8153 121.487Z" fill="#FFFCF5"/>
<path d="M39.217 121.953C39.8831 121.953 40.2835 122.379 40.2835 123.112C40.2835 123.792 39.7902 124.28 39.217 124.28C38.5612 124.28 38.1553 123.849 38.1553 123.117C38.1553 122.441 38.6495 121.953 39.217 121.953ZM39.6871 122.422C39.6441 122.335 39.5773 122.262 39.4948 122.213C39.4124 122.164 39.3178 122.14 39.2226 122.145C39.1267 122.143 39.0321 122.168 38.9499 122.219C38.8676 122.27 38.8011 122.344 38.7582 122.432C38.6465 122.641 38.5904 122.878 38.5956 123.117C38.5889 123.357 38.6399 123.596 38.7442 123.811C38.7911 123.896 38.8591 123.966 38.9412 124.015C39.0234 124.063 39.1167 124.088 39.2114 124.087C39.3062 124.086 39.399 124.059 39.4801 124.009C39.5613 123.959 39.628 123.887 39.6732 123.802C39.7862 123.591 39.8427 123.353 39.8367 123.112C39.8459 122.873 39.7943 122.635 39.6871 122.422Z" fill="#FFFCF5"/>
<path d="M42.0414 122.32C41.9875 122.311 41.9327 122.306 41.8779 122.306C41.5063 122.306 41.2918 122.546 41.2918 123.025V124.212H40.8682V122.015H41.1468L41.2592 122.431C41.3127 122.299 41.4027 122.185 41.5183 122.104C41.6338 122.023 41.7698 121.979 41.9095 121.977C41.9551 121.977 42.0005 121.982 42.0451 121.991L42.0414 122.32Z" fill="#FFFCF5"/>
<path d="M42.7094 123.113C42.7233 123.664 42.9751 124.037 43.4451 124.037C43.6489 124.043 43.8481 123.975 44.009 123.846L44.1158 124.024C43.9021 124.195 43.6367 124.283 43.3662 124.272C43.0029 124.272 42.728 124.163 42.5422 123.947C42.352 123.714 42.2526 123.417 42.2635 123.114C42.2635 122.473 42.6871 121.945 43.3114 121.945C43.9031 121.945 44.1957 122.347 44.1957 122.927C44.1959 122.988 44.1912 123.049 44.1818 123.109L42.7094 123.113ZM43.748 122.922C43.7544 122.882 43.7575 122.842 43.7572 122.801C43.7572 122.433 43.6272 122.127 43.2928 122.127C42.9583 122.127 42.7428 122.462 42.7103 122.922H43.748Z" fill="#FFFCF5"/>
<path d="M44.6977 123.827C44.8823 123.968 45.1052 124.045 45.3349 124.048C45.6136 124.048 45.7817 123.927 45.7817 123.713C45.7817 123.521 45.6703 123.435 45.3906 123.306L45.112 123.176C44.7998 123.032 44.6475 122.831 44.6475 122.573C44.6475 122.185 44.9782 121.95 45.4389 121.95C45.6638 121.942 45.8865 121.998 46.0818 122.113L45.9889 122.328C45.829 122.219 45.6412 122.161 45.4492 122.161C45.1835 122.161 45.0061 122.276 45.0061 122.463C45.0061 122.63 45.099 122.716 45.3368 122.831L45.6768 122.994C45.9982 123.147 46.1412 123.339 46.1412 123.606C46.1412 124.029 45.8059 124.275 45.3544 124.275C45.0818 124.28 44.8147 124.196 44.5908 124.036L44.6977 123.827Z" fill="#FFFCF5"/>
<path d="M47.9195 124.083C47.7759 124.214 47.5898 124.283 47.3984 124.279C46.9506 124.279 46.802 123.953 46.802 123.379V122.211H46.3877V122.02H46.802V121.422H47.2117V122.02H47.8313V122.211H47.2117V123.322C47.2117 123.8 47.2674 124.05 47.5145 124.05C47.6272 124.042 47.7347 123.998 47.822 123.925L47.9195 124.083Z" fill="#FFFCF5"/>
<path d="M62.5141 110.849V113.179H63.6749V113.751H62.5141V116.506H61.8384V110.849H62.5141ZM56.8227 115.206V111.403H57.4897V112.703H59.7334V111.403H60.4091V115.206H56.8227ZM57.4897 114.652H59.7334V113.24H57.4897V114.652ZM57.6976 118.377V115.951H58.3647V117.805H62.8693V118.377H57.6976ZM70.5359 110.84V118.559H69.8602V115.276H68.2576V114.704H69.8602V113.171H68.3182V112.599H69.8602V110.84H70.5359ZM64.4286 112.105V111.542H67.8158V114.279H65.1303V116.177C66.2868 116.177 67.244 116.133 68.4135 115.951L68.4741 116.523C67.244 116.714 66.2565 116.757 65.0263 116.757H64.4546V113.725H67.1487V112.105H64.4286ZM78.8521 114.652V115.198H71.8266V114.652H75.0059V113.751H72.7189V111.204H77.9772V111.75H73.3859V113.197H78.0292V113.751H75.6642V114.652H78.8521ZM72.6756 117.147C72.6712 116.268 73.6718 115.765 75.3351 115.761C76.9853 115.765 77.9772 116.268 77.9859 117.147C77.9772 118.035 76.9853 118.533 75.3351 118.542C73.6718 118.533 72.6712 118.035 72.6756 117.147ZM73.3686 117.147C73.3599 117.688 74.1006 118 75.3351 117.996C76.5565 118 77.2972 117.688 77.3015 117.147C77.2972 116.614 76.5565 116.298 75.3351 116.298C74.1006 116.298 73.3599 116.614 73.3686 117.147ZM86.51 114.098V114.652H83.3308V115.414H85.6091V117.138H81.0352V117.918H85.843V118.455H80.3595V116.627H84.9421V115.943H80.3421V115.414H82.6551V114.652H79.4932V114.098H86.51ZM80.4028 113.448V111.1H85.6004V113.448H80.4028ZM81.0785 112.902H84.9248V111.646H81.0785V112.902ZM89.7672 112.304C89.7716 113.314 90.5252 114.214 91.6557 114.583L91.3352 115.12C90.4473 114.825 89.7759 114.214 89.4424 113.439C89.1132 114.323 88.4029 115.011 87.4803 115.345L87.1338 114.799C88.2859 114.409 89.0916 113.417 89.1002 112.304V111.975H87.3417V111.412H91.4998V111.975H89.7672V112.304ZM88.156 117.104C88.1603 116.216 89.1262 115.7 90.7115 115.7C92.2924 115.7 93.2497 116.216 93.2497 117.104C93.2497 118.004 92.2924 118.524 90.7115 118.524C89.1262 118.524 88.1603 118.004 88.156 117.104ZM88.8403 117.104C88.8317 117.658 89.5507 117.983 90.7115 117.978C91.8766 117.983 92.587 117.658 92.5913 117.104C92.587 116.566 91.8766 116.246 90.7115 116.246C89.5507 116.246 88.8317 116.566 88.8403 117.104ZM92.5047 115.492V110.84H93.1804V112.807H94.3412V113.379H93.1804V115.492H92.5047ZM97.7543 111.698V114.357H95.7446V116.107C96.5675 116.103 97.3602 116.06 98.3347 115.899L98.3867 116.462C97.3255 116.64 96.4982 116.67 95.58 116.679H95.0862V113.812H97.096V112.252H95.0689V111.698H97.7543ZM98.1875 115.336V114.773H99.2183V113.413H98.1875V112.859H99.2183V110.996H99.8681V118.143H99.2183V115.336H98.1875ZM100.76 118.542V110.84H101.41V118.542H100.76ZM105.222 111.958C105.213 113.08 106.027 114.08 107.171 114.479L106.824 115.016C105.932 114.687 105.226 114.024 104.879 113.171C104.542 114.085 103.831 114.804 102.926 115.154L102.571 114.617C103.723 114.188 104.529 113.123 104.529 111.958V111.221H105.222V111.958ZM103.671 116.428V115.865H108.851V118.542H108.176V116.428H103.671ZM108.176 115.484V110.84H108.851V115.484H108.176ZM112.767 112.304C112.771 113.314 113.525 114.214 114.655 114.583L114.335 115.12C113.447 114.825 112.776 114.214 112.442 113.439C112.113 114.323 111.403 115.011 110.48 115.345L110.133 114.799C111.286 114.409 112.091 113.417 112.1 112.304V111.975H110.341V111.412H114.499V111.975H112.767V112.304ZM111.156 117.104C111.16 116.216 112.126 115.7 113.711 115.7C115.292 115.7 116.249 116.216 116.249 117.104C116.249 118.004 115.292 118.524 113.711 118.524C112.126 118.524 111.16 118.004 111.156 117.104ZM111.84 117.104C111.831 117.658 112.55 117.983 113.711 117.978C114.876 117.983 115.587 117.658 115.591 117.104C115.587 116.566 114.876 116.246 113.711 116.246C112.55 116.246 111.831 116.566 111.84 117.104ZM115.504 115.492V110.84H116.18V112.807H117.341V113.379H116.18V115.492H115.504ZM126.61 110.84V116.133H125.96V110.84H126.61ZM120.018 114.522H120.823V112.079H120.156V111.507H123.777V112.079H123.102V114.44C123.401 114.418 123.691 114.392 123.959 114.357L123.985 114.869C122.742 115.085 121.127 115.094 120.096 115.094L120.018 114.522ZM121.031 117.978C122.383 117.797 123.691 117.026 123.691 116.038V115.795H124.375V116.038C124.371 117.026 125.696 117.797 127.052 117.978L126.783 118.507C125.627 118.329 124.509 117.766 124.033 116.93C123.565 117.766 122.452 118.329 121.282 118.507L121.031 117.978ZM121.464 114.509C121.794 114.505 122.131 114.492 122.469 114.474V112.079H121.464V114.509ZM123.509 113.552V112.989H124.54V111.014H125.181V115.423H124.54V113.552H123.509ZM134.77 117.008V117.589H127.719V117.008H130.881V115.232H128.36V114.687H129.564V112.157H128.343V111.594H134.095V112.157H132.873V114.687H134.077V115.232H131.548V117.008H134.77ZM130.24 114.687H132.206V112.157H130.24V114.687ZM138.391 111.698V114.357H136.304V116.073C137.192 116.064 138.032 116.038 139.058 115.856L139.11 116.419C138.015 116.614 137.131 116.64 136.156 116.644H135.645V113.794H137.742V112.261H135.628V111.698H138.391ZM138.764 114.175V113.621H139.752V111.031H140.393V118.134H139.752V114.175H138.764ZM141.319 118.542V110.84H141.969V118.542H141.319ZM146.89 111.975C146.894 113.296 148.401 114.47 149.74 114.721L149.428 115.293C148.263 115.024 147.041 114.197 146.543 113.067C146.041 114.197 144.824 115.02 143.658 115.293L143.347 114.721C144.681 114.466 146.175 113.301 146.179 111.975V111.386H146.89V111.975ZM143.052 117.493V116.93H150.104V117.493H143.052ZM156.956 115.007V115.562H151.628V111.507H156.869V112.079H152.321V113.223H156.705V113.768H152.321V115.007H156.956ZM150.719 117.537V116.974H157.77V117.537H150.719Z" fill="black" fill-opacity="0.5"/>
<path d="M300.495 123.535H66.1611C60.6496 123.535 56.1816 128.003 56.1816 133.515V486.122C56.1816 491.634 60.6496 496.102 66.1611 496.102H300.495C306.007 496.102 310.475 491.634 310.475 486.122V133.515C310.475 128.003 306.007 123.535 300.495 123.535Z" fill="white"/>
<path d="M59.6562 128.568C59.4903 125.238 56.4806 124.264 53.9136 124.541C54.5885 125.603 56.3368 127.849 56.1799 133.495C58.1352 133.495 59.6564 130.786 59.6562 128.568Z" fill="white"/>
<mask id="mask1_1_3" style="mask-type:luminance" maskUnits="userSpaceOnUse" x="18" y="29" width="307" height="74">
<path d="M324.52 29.0039H18.4805V102.926H324.52V29.0039Z" fill="white"/>
</mask>
<g mask="url(#mask1_1_3)">
<path d="M324.52 29.0039H18.4805V102.926H324.52V29.0039Z" fill="#AFC0CF"/>
<path d="M33.5605 86.657L40.2102 93.307L40.9616 92.556L35.0633 86.657L40.9615 80.759L40.2102 80.008L33.5605 86.657Z" fill="#282A2B"/>
<path d="M49.068 81.537V90.422H47.9512V82.69H47.9021L45.7422 84.126V83.009L47.9512 81.537H49.068Z" fill="black"/>
<path fill-rule="evenodd" clip-rule="evenodd" d="M293.472 81.117H308.256V82.226H293.472V81.117ZM293.472 85.922H308.256V87.031H293.472V85.922ZM308.256 90.727H293.472V91.835H308.256V90.727Z" fill="#282A2B"/>
<path fill-rule="evenodd" clip-rule="evenodd" d="M273.251 89.128C272.407 89.784 271.345 90.175 270.193 90.175C267.437 90.175 265.203 87.941 265.203 85.185C265.203 82.429 267.437 80.195 270.193 80.195C272.949 80.195 275.183 82.429 275.183 85.185C275.183 86.337 274.793 87.397 274.137 88.241L277.985 92.089L277.098 92.975L273.251 89.128ZM274.06 85.188C274.06 87.323 272.328 89.055 270.192 89.055C268.057 89.055 266.325 87.323 266.325 85.188C266.325 83.052 268.057 81.32 270.192 81.32C272.328 81.32 274.06 83.052 274.06 85.188Z" fill="#282A2B"/>
<path d="M112.013 75.437V78.486H113.514V79.41H112.013V83.037H110.915V75.437H112.013ZM104.285 81.328V76.176H105.36V77.828H108.074V76.176H109.16V81.328H104.285ZM105.36 80.45H108.074V78.694H105.36V80.45ZM105.452 85.555V82.287H106.549V84.666H112.452V85.555H105.452ZM122.72 75.426V85.798H121.634V81.466H119.613V80.554H121.634V78.637H119.671V77.736H121.634V75.426H122.72ZM114.461 77.227V76.338H119.047V80.115H115.582V82.494C117.043 82.489 118.279 82.419 119.751 82.206L119.844 83.107C118.227 83.361 116.904 83.407 115.27 83.407H114.484V79.249H117.973V77.227H114.461ZM133.774 80.462V81.339H124.325V80.462H128.518V79.364H125.503V75.899H132.607V76.765H126.589V78.486H132.676V79.364H129.581V80.462H133.774ZM125.446 83.892C125.446 82.691 126.791 82.015 129.038 82.009C131.267 82.015 132.601 82.691 132.607 83.892C132.601 85.093 131.267 85.769 129.038 85.775C126.791 85.769 125.446 85.093 125.446 83.892ZM126.555 83.892C126.549 84.556 127.455 84.92 129.038 84.908C130.597 84.92 131.51 84.556 131.51 83.892C131.51 83.239 130.597 82.864 129.038 82.864C127.455 82.864 126.549 83.239 126.555 83.892ZM143.984 79.711V80.589H139.803V81.49H142.794V83.915H136.765V84.828H143.083V85.671H135.691V83.118H141.709V82.333H135.679V81.49H138.706V80.589H134.547V79.711H143.984ZM135.76 78.948V75.761H142.771V78.948H135.76ZM136.834 78.082H141.674V76.627H136.834V78.082ZM148.385 77.331C148.379 78.648 149.297 79.849 150.868 80.346L150.348 81.201C149.17 80.825 148.31 80.046 147.853 79.064C147.403 80.196 146.496 81.091 145.255 81.524L144.689 80.646C146.306 80.115 147.282 78.781 147.287 77.343V77.054H145.012V76.165H150.614V77.054H148.385V77.331ZM146.086 83.811C146.086 82.598 147.409 81.888 149.563 81.894C151.694 81.888 152.993 82.598 152.993 83.811C152.993 85.041 151.694 85.757 149.563 85.752C147.409 85.757 146.086 85.041 146.086 83.811ZM147.184 83.811C147.178 84.504 148.067 84.891 149.563 84.885C151.047 84.891 151.925 84.504 151.919 83.811C151.925 83.135 151.047 82.754 149.563 82.76C148.067 82.754 147.178 83.135 147.184 83.811ZM151.804 81.64V75.426H152.901V77.99H154.403V78.891H152.901V81.64H151.804ZM158.884 76.523V80.231H156.378V82.408C157.394 82.396 158.376 82.339 159.554 82.136L159.646 83.037C158.283 83.274 157.203 83.315 155.985 83.315H155.315V79.353H157.833V77.412H155.303V76.523H158.884ZM159.438 81.547V80.646H160.732V78.972H159.438V78.082H160.732V75.622H161.772V85.243H160.732V81.547H159.438ZM162.823 85.775V75.426H163.874V85.775H162.823ZM168.979 76.916C168.973 78.348 169.944 79.659 171.543 80.184L170.989 81.051C169.788 80.635 168.892 79.792 168.425 78.712C167.963 79.867 167.05 80.785 165.826 81.224L165.271 80.369C166.883 79.797 167.853 78.394 167.859 76.916V75.922H168.979V76.916ZM166.785 83.026V82.136H173.796V85.775H172.698V83.026H166.785ZM172.698 81.64V75.426H173.796V81.64H172.698ZM179.051 77.331C179.045 78.648 179.963 79.849 181.534 80.346L181.015 81.201C179.836 80.825 178.976 80.046 178.52 79.064C178.069 80.196 177.163 81.091 175.921 81.524L175.355 80.646C176.972 80.115 177.948 78.781 177.954 77.343V77.054H175.678V76.165H181.28V77.054H179.051V77.331ZM176.752 83.811C176.752 82.598 178.075 81.888 180.229 81.894C182.36 81.888 183.66 82.598 183.66 83.811C183.66 85.041 182.36 85.757 180.229 85.752C178.075 85.757 176.752 85.041 176.752 83.811ZM177.85 83.811C177.844 84.504 178.733 84.891 180.229 84.885C181.713 84.891 182.591 84.504 182.585 83.811C182.591 83.135 181.713 82.754 180.229 82.76C178.733 82.754 177.844 83.135 177.85 83.811ZM182.47 81.64V75.426H183.567V77.99H185.069V78.891H183.567V81.64H182.47ZM197.405 75.426V82.529H196.365V75.426H197.405ZM188.488 80.311C188.782 80.311 189.123 80.311 189.481 80.306V77.181H188.672V76.28H193.512V77.181H192.669V80.184C193.039 80.155 193.397 80.121 193.732 80.08L193.778 80.9C192.12 81.195 189.978 81.212 188.603 81.212L188.488 80.311ZM189.851 84.874C191.797 84.631 193.345 83.586 193.339 82.356V82.044H194.436V82.356C194.436 83.586 195.995 84.631 197.959 84.874L197.543 85.729C195.926 85.498 194.54 84.758 193.893 83.707C193.252 84.758 191.872 85.498 190.243 85.729L189.851 84.874ZM190.497 80.288C190.884 80.277 191.283 80.265 191.676 80.248V77.181H190.497V80.288ZM193.177 79.145V78.255H194.425V75.645H195.453V81.582H194.425V79.145H193.177ZM208.239 83.603V84.539H198.768V83.603H202.926V81.397H199.599V80.531H201.147V77.274H199.576V76.384H207.373V77.274H205.79V80.531H207.338V81.397H204.011V83.603H208.239ZM202.233 80.531H204.716V77.274H202.233V80.531ZM212.998 76.534V80.219H210.376V82.344C211.502 82.339 212.576 82.292 213.852 82.067L213.945 82.968C212.507 83.228 211.329 83.257 210.029 83.268H209.313V79.341H211.946V77.424H209.301V76.534H212.998ZM213.483 79.976V79.087H214.707V75.657H215.747V85.243H214.707V79.976H213.483ZM216.821 85.775V75.426H217.872V85.775H216.821ZM224.467 76.893C224.467 78.579 226.263 80.173 228.256 80.531L227.747 81.443C226.09 81.085 224.571 80 223.901 78.544C223.22 79.994 221.701 81.074 220.043 81.443L219.558 80.531C221.522 80.161 223.306 78.579 223.312 76.893V76.107H224.467V76.893ZM219.212 84.412V83.499H228.683V84.412H219.212ZM237.831 80.935V81.813H230.623V76.28H237.727V77.17H231.732V78.567H237.507V79.434H231.732V80.935H237.831ZM229.434 84.47V83.569H238.905V84.47H229.434Z" fill="black"/>
<path d="M148.294 90.521V96.793H147.506V91.335H147.471L145.947 92.349V91.561L147.506 90.521H148.294ZM152.011 96.88C150.88 96.88 150.023 96.182 149.975 95.216H150.729C150.785 95.775 151.331 96.191 152.011 96.195C152.825 96.191 153.414 95.598 153.414 94.809C153.414 93.995 152.803 93.393 151.959 93.388C151.43 93.38 151.019 93.544 150.789 93.952H150.036L150.477 90.521H153.873V91.214H151.127L150.893 93.051H150.954C151.235 92.834 151.655 92.687 152.097 92.687C153.293 92.687 154.172 93.57 154.176 94.792C154.172 96.005 153.262 96.88 152.011 96.88ZM155.458 96.793L158.334 91.257V91.214H155.017V90.521H159.14V91.249L156.273 96.793H155.458ZM160.526 96.793L163.402 91.257V91.214H160.084V90.521H164.208V91.249L161.34 96.793H160.526ZM167.924 93.319V94.004H165.178V93.319H167.924ZM171.112 96.88C169.722 96.88 168.916 95.71 168.92 93.657C168.916 91.621 169.73 90.434 171.112 90.434C172.489 90.434 173.304 91.621 173.304 93.657C173.304 95.71 172.502 96.88 171.112 96.88ZM169.674 93.657C169.678 95.281 170.202 96.187 171.112 96.187C172.017 96.187 172.546 95.281 172.541 93.657C172.546 92.033 172.013 91.115 171.112 91.11C170.211 91.115 169.678 92.033 169.674 93.657ZM176.431 90.434C177.51 90.447 178.709 91.097 178.709 93.406C178.709 95.636 177.795 96.88 176.327 96.88C175.223 96.88 174.447 96.204 174.291 95.208H175.062C175.201 95.771 175.63 96.187 176.327 96.187C177.349 96.187 177.973 95.303 177.982 93.778H177.895C177.536 94.298 176.959 94.61 176.292 94.61C175.171 94.61 174.239 93.748 174.239 92.54C174.239 91.37 175.097 90.421 176.431 90.434ZM175.002 92.531C174.997 93.306 175.586 93.926 176.405 93.926C177.224 93.926 177.86 93.25 177.86 92.514C177.86 91.795 177.258 91.119 176.431 91.119C175.612 91.119 174.993 91.756 175.002 92.531ZM181.871 90.434C182.95 90.447 184.15 91.097 184.15 93.406C184.15 95.636 183.236 96.88 181.767 96.88C180.663 96.88 179.887 96.204 179.732 95.208H180.503C180.641 95.771 181.07 96.187 181.767 96.187C182.79 96.187 183.413 95.303 183.422 93.778H183.335C182.976 94.298 182.4 94.61 181.733 94.61C180.611 94.61 179.68 93.748 179.68 92.54C179.68 91.37 180.537 90.421 181.871 90.434ZM180.442 92.531C180.438 93.306 181.027 93.926 181.845 93.926C182.664 93.926 183.301 93.25 183.301 92.514C183.301 91.795 182.699 91.119 181.871 91.119C181.053 91.119 180.433 91.756 180.442 92.531ZM187.407 96.88C186.32 96.867 185.12 96.221 185.12 93.9C185.12 91.678 186.029 90.434 187.502 90.434C188.607 90.434 189.378 91.115 189.538 92.098H188.767C188.624 91.543 188.199 91.128 187.502 91.128C186.471 91.128 185.852 92.007 185.856 93.518H185.934C186.294 92.994 186.87 92.687 187.545 92.687C188.659 92.687 189.59 93.553 189.59 94.766C189.59 95.948 188.728 96.893 187.407 96.88ZM185.96 94.783C185.964 95.52 186.566 96.191 187.407 96.195C188.217 96.191 188.832 95.554 188.836 94.775C188.832 94.004 188.243 93.376 187.424 93.371C186.601 93.376 185.969 94.043 185.96 94.783Z" fill="#555C62"/>
<path d="M195.479 94.678L193.238 91.906H197.72L195.479 94.678Z" fill="#555C62"/>
<path d="M45.7822 58.2053C43.8476 58.2053 42.7098 56.646 42.7098 53.9086C42.7098 51.1885 43.8591 49.6119 45.7822 49.6119C47.6996 49.6119 48.8489 51.1885 48.8546 53.9086C48.8489 56.646 47.7169 58.2053 45.7822 58.2053ZM43.9804 53.9086C43.9746 55.9935 44.6503 57.1081 45.7822 57.1081C46.9084 57.1081 47.5841 55.9935 47.5841 53.9086C47.5841 51.8295 46.9026 50.6918 45.7822 50.6861C44.6561 50.6918 43.9804 51.8295 43.9804 53.9086ZM53.0474 49.6119C54.5836 49.6234 56.1949 50.5474 56.2007 53.6083C56.2007 56.5421 54.9359 58.2053 52.9319 58.2053C51.39 58.2053 50.3158 57.2524 50.1136 55.8953H51.3726C51.5459 56.5998 52.0887 57.0907 52.9319 57.0965C54.2198 57.0907 54.9763 55.9703 54.9879 54.0588H54.8839C54.4335 54.7633 53.6481 55.1907 52.7471 55.1907C51.2456 55.1907 50.0443 54.0414 50.0443 52.4417C50.0443 50.8478 51.2282 49.6003 53.0474 49.6119ZM51.2802 52.4186C51.286 53.3888 52.0079 54.1569 53.0243 54.1512C54.035 54.1569 54.8146 53.3311 54.8146 52.4071C54.8146 51.5004 54.0696 50.6745 53.0474 50.6745C52.0368 50.6745 51.2744 51.4599 51.2802 52.4186ZM58.3606 57.0157C57.9101 57.0099 57.5348 56.646 57.5405 56.1956C57.5348 55.7451 57.9101 55.3755 58.3606 55.3755C58.8053 55.3755 59.1749 55.7451 59.1807 56.1956C59.1749 56.646 58.8053 57.0099 58.3606 57.0157ZM57.5405 51.6332C57.5348 51.1827 57.9101 50.8131 58.3606 50.8131C58.8053 50.8131 59.1749 51.1827 59.1807 51.6332C59.1749 52.0836 58.8053 52.4475 58.3606 52.4533C57.9101 52.4475 57.5348 52.0836 57.5405 51.6332ZM60.4743 56.4612V55.4333L64.1704 49.7274H65.7413V55.3871H66.8848V56.4612H65.7413V58.0898H64.5401V56.4612H60.4743ZM61.8142 55.3871H64.5401V51.2405H64.4477L61.8142 55.3178V55.3871ZM71.2277 49.7274V58.0898H69.9456V50.9979H69.8994L67.9012 52.3031V51.0903L69.9803 49.7274H71.2277Z" fill="black"/>
<path d="M256.017 55.5898H255.032C254.624 55.5898 254.293 55.9208 254.293 56.329V58.0497C254.293 58.458 254.624 58.7889 255.032 58.7889H256.017C256.425 58.7889 256.756 58.458 256.756 58.0497V56.329C256.756 55.9208 256.425 55.5898 256.017 55.5898Z" fill="black"/>
<path d="M259.693 54.1133H258.708C258.3 54.1133 257.969 54.4443 257.969 54.8525V58.0471C257.969 58.4553 258.3 58.7863 258.708 58.7863H259.693C260.101 58.7863 260.432 58.4553 260.432 58.0471V54.8525C260.432 54.4443 260.101 54.1133 259.693 54.1133Z" fill="black"/>
<path d="M263.417 52.1445H262.432C262.024 52.1445 261.693 52.4755 261.693 52.8837V58.0484C261.693 58.4566 262.024 58.7876 262.432 58.7876H263.417C263.825 58.7876 264.156 58.4566 264.156 58.0484V52.8837C264.156 52.4755 263.825 52.1445 263.417 52.1445Z" fill="black"/>
<path d="M267.094 50.168H266.109C265.701 50.168 265.37 50.499 265.37 50.9072V58.047C265.37 58.4553 265.701 58.7863 266.109 58.7863H267.094C267.502 58.7863 267.833 58.4553 267.833 58.047V50.9072C267.833 50.499 267.502 50.168 267.094 50.168Z" fill="black"/>
<path d="M276.934 56.724C276.8 56.8505 276.809 57.0597 276.935 57.1945L278.31 58.6718C278.456 58.8288 278.705 58.8288 278.851 58.6718L280.226 57.1949C280.352 57.0601 280.361 56.8509 280.227 56.7245C279.797 56.3189 279.218 56.0703 278.58 56.0703C277.943 56.0703 277.364 56.3187 276.934 56.724Z" fill="black"/>
<path d="M280.879 55.8983C281.041 56.0438 281.295 56.0486 281.443 55.8889L282.286 54.9835C282.419 54.8406 282.419 54.6178 282.276 54.485C281.306 53.5852 280.007 53.0352 278.58 53.0352C277.153 53.0352 275.854 53.5851 274.884 54.4847C274.741 54.6175 274.74 54.8404 274.874 54.9833L275.717 55.8888C275.865 56.0486 276.118 56.0438 276.281 55.8983C276.892 55.3528 277.697 55.0211 278.58 55.0211C279.463 55.0211 280.268 55.3528 280.879 55.8983Z" fill="black"/>
<path d="M283.013 53.6322C283.169 53.7751 283.412 53.7734 283.557 53.6186L284.354 52.7619C284.489 52.6167 284.486 52.39 284.341 52.255C282.829 50.8531 280.805 49.9961 278.58 49.9961C276.356 49.9961 274.332 50.853 272.82 52.2548C272.674 52.3897 272.671 52.6165 272.807 52.7617L273.604 53.6188C273.749 53.7736 273.992 53.7753 274.148 53.6324C275.316 52.5622 276.872 51.9091 278.581 51.9091C280.289 51.9091 281.845 52.5621 283.013 53.6322Z" fill="black"/>
<path fill-rule="evenodd" clip-rule="evenodd" d="M291.544 49.9023C290.319 49.9023 289.326 50.8952 289.326 52.12V56.837C289.326 58.0618 290.319 59.0547 291.544 59.0547H304.782C306.007 59.0547 307 58.0618 307 56.837V52.12C307 50.8952 306.007 49.9023 304.782 49.9023H291.544ZM291.774 50.6602C290.794 50.6602 290 51.4545 290 52.4343V56.5367C290 57.5166 290.794 58.3109 291.774 58.3109H304.534C305.514 58.3109 306.308 57.5166 306.308 56.5367V52.4343C306.308 51.4545 305.514 50.6602 304.534 50.6602H291.774Z" fill="black" fill-opacity="0.35"/>
<path d="M304.299 51.3984H292.03C291.336 51.3984 290.773 51.961 290.773 52.6551V56.3748C290.773 57.0688 291.336 57.6315 292.03 57.6315H304.299C304.993 57.6315 305.555 57.0688 305.555 56.3748V52.6551C305.555 51.961 304.993 51.3984 304.299 51.3984Z" fill="black"/>
<path fill-rule="evenodd" clip-rule="evenodd" d="M307.818 56.072V52.875C308.416 53.1591 308.828 53.7681 308.828 54.4735C308.828 55.1789 308.416 55.7879 307.818 56.072Z" fill="black" fill-opacity="0.45"/>
</g>
<path fill-rule="evenodd" clip-rule="evenodd" d="M60.4733 12H281.788C313.961 12 340.043 40.7734 340.043 76.267V717.265C340.043 752.759 313.961 781.532 281.788 781.532H60.4733C28.2997 781.532 2.21777 752.759 2.21777 717.265V76.267C2.21777 40.7734 28.2997 12 60.4733 12ZM60.2423 27.6016H281.945C305.828 27.6016 325.188 48.9602 325.188 75.307V717.17C325.188 743.517 305.828 764.876 281.945 764.876H60.2423C36.3597 764.876 16.999 743.517 16.999 717.17V75.307C16.999 48.9602 36.3597 27.6016 60.2423 27.6016Z" fill="white"/>
<path opacity="0.48" d="M281.223 16.8984H61.582C31.2468 16.8984 6.65234 44.0231 6.65234 77.489V716.337C6.65234 749.802 31.2468 776.935 61.582 776.935H281.223C311.558 776.935 336.153 749.802 336.153 716.337V77.489C336.153 44.0231 311.558 16.8906 281.223 16.8906V16.8984ZM333.328 716.788C333.328 748.089 310.329 773.46 281.957 773.46H60.8405C32.4684 773.46 9.46979 748.089 9.46979 716.788V77.045C9.47685 45.7525 32.4754 20.3805 60.8405 20.3805H281.964C310.337 20.3805 333.335 45.7525 333.335 77.053V716.781L333.328 716.788Z" fill="#EAEAEC"/>
<path d="M281.216 16.8906H61.582C31.2452 16.8906 6.65234 44.0214 6.65234 77.489V716.329C6.65234 749.796 31.2452 776.927 61.582 776.927H281.216C311.553 776.927 336.145 749.796 336.145 716.329V77.489C336.145 44.0214 311.553 16.8906 281.216 16.8906Z" stroke="#E0E1E6" stroke-width="0.739224" stroke-miterlimit="10"/>
<path d="M139.228 37.9751H209.099C216.724 37.9751 222.965 44.8058 222.965 53.3101C222.965 61.8143 216.724 68.645 209.099 68.645H139.228C131.603 68.645 125.362 61.8143 125.362 53.3101C125.362 44.8058 131.603 37.9751 139.228 37.9751Z" fill="#F5F5F6" stroke="#ECECEF" stroke-width="0.739224"/>
<path d="M208.618 61.9656C212.947 61.9656 216.456 58.0943 216.456 53.3187C216.456 48.5432 212.947 44.6719 208.618 44.6719C204.289 44.6719 200.78 48.5432 200.78 53.3187C200.78 58.0943 204.289 61.9656 208.618 61.9656Z" fill="#E0E1E4"/>
<path d="M208.619 58.0003C210.963 58.0003 212.863 55.9042 212.863 53.3185C212.863 50.7328 210.963 48.6367 208.619 48.6367C206.275 48.6367 204.375 50.7328 204.375 53.3185C204.375 55.9042 206.275 58.0003 208.619 58.0003Z" fill="#A8AEB8"/>
<path d="M0.642576 159.09H2.54206V188.52H0.642576C0.289512 188.52 0 188.201 0 187.811V159.799C0 159.409 0.289512 159.09 0.642576 159.09Z" fill="#EAEAEC"/>
<path d="M2.54912 159.09H0.642578V188.52H2.54912V159.09Z" fill="#E0E1E4"/>
<path d="M0.642576 214.98H2.54206V273.218H0.642576C0.289512 273.218 0 272.899 0 272.509V215.682C0 215.292 0.289512 214.98 0.642576 214.98Z" fill="#EAEAEC"/>
<path d="M2.54912 214.98H0.642578V273.218H2.54912V214.98Z" fill="#E0E1E4"/>
<path d="M0.642576 289.227H2.54206V347.464H0.642576C0.289512 347.472 0 347.153 0 346.763V289.935C0 289.546 0.289512 289.227 0.642576 289.227Z" fill="#EAEAEC"/>
<path d="M2.54912 289.227H0.642578V347.464H2.54912V289.227Z" fill="#E0E1E4"/>
<path d="M342.281 347.438H340.375V255.189H342.281C342.634 255.189 342.924 255.508 342.924 255.898V346.729C342.924 347.118 342.634 347.438 342.281 347.438Z" fill="#EAEAEC"/>
<path d="M340.367 347.438H342.273V255.189H340.367V347.438Z" fill="#E0E1E4"/>
</g>
</g>
<defs>
<clipPath id="clip0_1_3">
<rect width="343" height="810" fill="white" transform="translate(0 -28)"/>
</clipPath>
</defs>
</svg>
