<svg width="765" height="417" viewBox="0 0 765 417" fill="none" xmlns="http://www.w3.org/2000/svg">
<g opacity="0.45">
<path opacity="0.24" d="M158.553 108.909C173.09 123.523 173.09 147.168 158.553 161.782C144.017 176.397 120.498 176.397 105.961 161.782L84.7286 140.436L137.321 87.5623L158.553 108.909Z" fill="url(#paint0_linear_751_48909)"/>
<path opacity="0.24" d="M10.9024 66.2154C-3.63394 51.6012 -3.63394 27.9559 10.9024 13.3417C25.4386 -1.27243 48.958 -1.27243 63.4943 13.3417L84.7271 34.6882L32.1351 87.5619L10.9024 66.2154Z" fill="url(#paint1_linear_751_48909)"/>
<path opacity="0.24" d="M32.221 87.5605L84.813 140.434L65.8668 159.482C51.3305 174.096 27.8111 174.096 13.2748 159.482C-1.26147 144.868 -1.26147 121.222 13.2748 106.608L32.221 87.5605Z" fill="url(#paint2_linear_751_48909)"/>
<path opacity="0.24" d="M108.329 10.9606C122.865 -3.65354 146.384 -3.65354 160.921 10.9606C175.457 25.5748 175.457 49.2201 160.921 63.8343L137.319 87.5617L84.7275 34.6881L108.329 10.9606Z" fill="url(#paint3_linear_751_48909)"/>
<path opacity="0.24" d="M84.7318 34.7087L137.28 87.5381L84.7318 140.367L32.1839 87.5381L84.7318 34.7087Z" fill="url(#paint4_linear_751_48909)"/>
<path opacity="0.24" d="M762.547 377.791C763.037 376.231 763.445 374.753 763.772 373.193C763.364 374.671 763.037 376.231 762.547 377.791Z" fill="url(#paint5_linear_751_48909)"/>
<path opacity="0.24" d="M760.749 382.553C761.158 381.568 761.484 380.583 761.811 379.68C761.484 380.665 761.158 381.65 760.749 382.553Z" fill="url(#paint6_linear_751_48909)"/>
<path opacity="0.24" d="M764.67 367.533C764.751 366.466 764.833 365.316 764.915 364.167C764.833 365.316 764.751 366.384 764.67 367.533Z" fill="url(#paint7_linear_751_48909)"/>
<path opacity="0.24" d="M657.607 207.427V83.9456C657.607 54.1426 681.616 29.9225 711.342 29.9225C740.986 29.9225 764.995 54.1426 764.995 83.9456V361.532C764.995 361.779 764.995 361.943 764.995 362.189C765.159 350.202 761.321 338.051 753.317 327.953L657.607 207.427Z" fill="url(#paint8_linear_751_48909)"/>
<path opacity="0.24" d="M732.084 411.291C732.166 411.291 732.247 411.209 732.411 411.127C732.329 411.209 732.247 411.291 732.084 411.291Z" fill="url(#paint9_linear_751_48909)"/>
<path opacity="0.24" d="M741.23 406.366C741.393 406.202 741.638 406.12 741.801 405.956C741.556 406.12 741.393 406.284 741.23 406.366Z" fill="url(#paint10_linear_751_48909)"/>
<path opacity="0.24" d="M524.493 42.0764C522.124 40.188 519.593 38.4639 516.898 36.9861C519.511 38.3818 522.043 40.1059 524.493 42.0764Z" fill="url(#paint11_linear_751_48909)"/>
<path opacity="0.24" d="M530.864 48.0727C530.374 47.498 529.884 47.0054 529.394 46.4307C529.884 46.9233 530.374 47.498 530.864 48.0727Z" fill="url(#paint12_linear_751_48909)"/>
<path opacity="0.24" d="M764.832 364.165C764.832 363.508 764.914 362.852 764.914 362.195C764.996 362.852 764.914 363.508 764.832 364.165Z" fill="url(#paint13_linear_751_48909)"/>
<path opacity="0.24" d="M502.77 31.7364C502.607 31.7364 502.525 31.6543 502.362 31.6543C502.525 31.6543 502.607 31.6543 502.77 31.7364Z" fill="url(#paint14_linear_751_48909)"/>
<path opacity="0.24" d="M483.989 30.9968C483.09 31.161 482.11 31.2431 481.212 31.4073C482.11 31.2431 483.009 31.161 483.989 30.9968Z" fill="url(#paint15_linear_751_48909)"/>
<path opacity="0.24" d="M489.461 30.5C488.4 30.5 487.42 30.5821 486.358 30.6642C487.42 30.5821 488.481 30.5821 489.461 30.5Z" fill="url(#paint16_linear_751_48909)"/>
<path opacity="0.24" d="M494.686 30.5822C493.706 30.5001 492.726 30.418 491.664 30.418C492.726 30.5001 493.706 30.5822 494.686 30.5822Z" fill="url(#paint17_linear_751_48909)"/>
<path opacity="0.24" d="M478.596 32.0632C477.78 32.3095 476.881 32.4737 476.065 32.72C476.963 32.3916 477.78 32.2274 478.596 32.0632Z" fill="url(#paint18_linear_751_48909)"/>
<path opacity="0.24" d="M727.264 413.094C728.898 412.601 730.531 412.026 732.083 411.287C730.531 411.944 728.898 412.601 727.264 413.094Z" fill="url(#paint19_linear_751_48909)"/>
<path opacity="0.24" d="M744.741 403.82C743.761 404.559 742.781 405.298 741.72 405.955C742.945 405.052 744.17 404.231 745.313 403.246C745.15 403.41 744.986 403.656 744.741 403.82Z" fill="url(#paint20_linear_751_48909)"/>
<path opacity="0.24" d="M764.423 368.924C764.505 368.431 764.587 368.021 764.668 367.528C764.587 367.939 764.505 368.431 764.423 368.924Z" fill="url(#paint21_linear_751_48909)"/>
<path opacity="0.24" d="M760.75 382.553C757.566 390.271 752.421 397.249 745.643 402.996C752.176 397.496 757.402 390.517 760.75 382.553Z" fill="url(#paint22_linear_751_48909)"/>
<path opacity="0.24" d="M763.69 373.108C763.69 372.944 763.772 372.862 763.772 372.698C763.772 372.862 763.772 373.026 763.69 373.108Z" fill="url(#paint23_linear_751_48909)"/>
<path opacity="0.24" d="M761.808 379.677C762.053 379.021 762.298 378.446 762.543 377.789C762.298 378.364 762.053 379.021 761.808 379.677Z" fill="url(#paint24_linear_751_48909)"/>
<path opacity="0.24" d="M532.988 50.448C533.07 50.5301 533.151 50.6122 533.233 50.7764L657.608 207.427V361.532C657.608 391.335 681.618 415.555 711.343 415.555C716.897 415.555 722.287 414.734 727.268 413.092C706.77 419.496 683.496 413.174 669.368 395.276L545.074 238.626V84.4382C544.993 71.5482 540.501 59.7255 532.988 50.448Z" fill="url(#paint25_linear_751_48909)"/>
<path opacity="0.24" d="M473.452 33.5376C472.717 33.7839 471.9 34.1123 471.165 34.3586C471.9 34.1123 472.717 33.866 473.452 33.5376Z" fill="url(#paint26_linear_751_48909)"/>
<path opacity="0.24" d="M454.915 44.7859C454.425 45.1964 453.935 45.6069 453.526 46.0995C453.935 45.6069 454.506 45.1964 454.915 44.7859Z" fill="url(#paint27_linear_751_48909)"/>
<path opacity="0.24" d="M457.858 42.2425C458.266 41.9141 458.674 41.6678 459.083 41.3394C458.593 41.7499 458.103 42.0783 457.613 42.4888C457.613 42.4067 457.694 42.3246 457.858 42.2425Z" fill="url(#paint28_linear_751_48909)"/>
<path opacity="0.24" d="M463.655 38.2205C463.083 38.5489 462.43 38.9594 461.858 39.2878C462.43 38.8773 463.083 38.5489 463.655 38.2205Z" fill="url(#paint29_linear_751_48909)"/>
<path opacity="0.24" d="M438.256 76.3934C438.175 77.1323 438.011 77.7891 437.93 78.5281C438.011 77.8712 438.175 77.1323 438.256 76.3934Z" fill="url(#paint30_linear_751_48909)"/>
<path opacity="0.24" d="M448.79 51.5222C447.075 53.739 445.441 56.1199 444.135 58.6651C445.441 56.202 447.075 53.8211 448.79 51.5222Z" fill="url(#paint31_linear_751_48909)"/>
<path opacity="0.24" d="M468.473 35.5901C467.738 35.9185 467.085 36.2469 466.35 36.5753C467.085 36.2469 467.82 35.9185 468.473 35.5901Z" fill="url(#paint32_linear_751_48909)"/>
<path opacity="0.24" d="M437.762 80.9153C437.681 81.9005 437.599 82.9678 437.599 83.953C437.599 82.9678 437.681 81.9826 437.762 80.9153Z" fill="url(#paint33_linear_751_48909)"/>
<path opacity="0.24" d="M657.606 361.535V207.43L753.236 327.955C761.32 338.054 765.077 350.205 764.995 362.192C764.995 362.849 764.914 363.505 764.914 364.162C764.832 365.312 764.832 366.379 764.669 367.528C764.587 368.021 764.505 368.432 764.424 368.924C764.26 370.238 764.097 371.469 763.77 372.783C763.77 372.947 763.689 373.029 763.689 373.194C763.362 374.753 762.954 376.313 762.464 377.791C762.3 378.448 761.974 379.105 761.729 379.68C761.402 380.665 761.075 381.65 760.667 382.553C757.319 390.517 752.092 397.496 745.559 402.997C745.477 403.079 745.396 403.161 745.314 403.243C744.171 404.228 742.946 405.131 741.721 405.952C741.558 406.116 741.313 406.281 741.149 406.363C739.843 407.266 738.536 408.005 737.229 408.744C737.066 408.826 736.903 408.908 736.739 408.99C735.351 409.729 733.881 410.468 732.411 411.125C732.329 411.207 732.248 411.207 732.084 411.289C730.533 411.946 728.9 412.52 727.266 413.095C727.266 413.095 727.266 413.095 727.185 413.095C722.121 414.655 716.813 415.558 711.26 415.558C681.616 415.558 657.606 391.338 657.606 361.535Z" fill="url(#paint34_linear_751_48909)"/>
<path opacity="0.24" d="M484.153 415.476C470.025 413.587 457.612 406.198 449.2 395.525L449.364 395.689C458.347 407.019 470.923 413.752 484.153 415.476Z" fill="url(#paint35_linear_751_48909)"/>
<path opacity="0.24" d="M437.602 207.762V84.445C437.602 84.2808 437.602 84.1987 437.602 84.0345C437.52 96.0214 441.277 108.09 449.28 118.107L544.991 238.632V361.539C544.909 349.881 541.071 338.222 533.313 328.452L437.602 207.762Z" fill="url(#paint36_linear_751_48909)"/>
<path opacity="0.24" d="M437.928 78.6145C437.847 79.4355 437.847 80.1744 437.765 80.9955C437.847 80.1744 437.847 79.3534 437.928 78.6145Z" fill="url(#paint37_linear_751_48909)"/>
<path opacity="0.24" d="M438.745 73.2751C438.5 74.3425 438.418 75.3277 438.255 76.395C438.418 75.4098 438.581 74.3425 438.745 73.2751Z" fill="url(#paint38_linear_751_48909)"/>
<path opacity="0.24" d="M501.626 414.985C502.28 414.821 502.933 414.657 503.586 414.575C502.851 414.739 502.28 414.903 501.626 414.985Z" fill="url(#paint39_linear_751_48909)"/>
<path opacity="0.24" d="M516.489 409.729C516.979 409.482 517.469 409.154 517.959 408.908C517.469 409.154 516.979 409.4 516.489 409.729Z" fill="url(#paint40_linear_751_48909)"/>
<path opacity="0.24" d="M506.772 413.754C507.344 413.59 507.997 413.344 508.569 413.18C507.916 413.344 507.344 413.59 506.772 413.754Z" fill="url(#paint41_linear_751_48909)"/>
<path opacity="0.24" d="M491.338 416.051C491.175 416.051 491.093 416.051 490.93 416.051C491.583 416.051 492.318 415.969 492.971 415.969C492.4 415.969 491.91 416.051 491.338 416.051Z" fill="url(#paint42_linear_751_48909)"/>
<path opacity="0.24" d="M461.858 39.2869C460.878 39.9437 459.98 40.6005 459 41.3394C459.98 40.6826 460.878 39.9437 461.858 39.2869Z" fill="url(#paint43_linear_751_48909)"/>
<path opacity="0.24" d="M457.53 42.4871C456.631 43.226 455.733 44.047 454.917 44.7859C455.815 43.9649 456.631 43.226 457.53 42.4871Z" fill="url(#paint44_linear_751_48909)"/>
<path opacity="0.24" d="M466.43 36.6574C465.532 37.15 464.634 37.7247 463.735 38.2173C464.552 37.6426 465.45 37.15 466.43 36.6574Z" fill="url(#paint45_linear_751_48909)"/>
<path opacity="0.24" d="M502.362 31.5692C501.3 31.3229 500.32 31.2408 499.259 31.0766C500.32 31.2408 501.382 31.405 502.362 31.5692Z" fill="url(#paint46_linear_751_48909)"/>
<path opacity="0.24" d="M516.899 36.989C512.407 34.526 507.671 32.8018 502.771 31.7345C507.752 32.8018 512.489 34.6081 516.899 36.989Z" fill="url(#paint47_linear_751_48909)"/>
<path opacity="0.24" d="M491.338 30.418C491.502 30.418 491.583 30.418 491.747 30.418C491.012 30.418 490.277 30.5001 489.46 30.5001C490.113 30.5001 490.685 30.418 491.338 30.418Z" fill="url(#paint48_linear_751_48909)"/>
<path opacity="0.24" d="M476.067 32.6323C475.169 32.8786 474.27 33.207 473.454 33.5354C474.352 33.2891 475.25 32.9607 476.067 32.6323Z" fill="url(#paint49_linear_751_48909)"/>
<path opacity="0.24" d="M444.135 58.6581C441.685 63.1737 439.97 68.0178 438.909 73.026C439.889 67.9357 441.685 63.0916 444.135 58.6581Z" fill="url(#paint50_linear_751_48909)"/>
<path opacity="0.24" d="M471.167 34.4443C470.268 34.7727 469.37 35.2653 468.472 35.6758C469.37 35.1832 470.268 34.7727 471.167 34.4443Z" fill="url(#paint51_linear_751_48909)"/>
<path opacity="0.24" d="M453.526 46.1021C452.873 46.7589 452.219 47.4978 451.566 48.2367C452.219 47.4978 452.791 46.7589 453.526 46.1021Z" fill="url(#paint52_linear_751_48909)"/>
<path opacity="0.24" d="M486.358 30.6682C485.541 30.7503 484.725 30.8324 483.908 30.9966C484.806 30.9145 485.541 30.7503 486.358 30.6682Z" fill="url(#paint53_linear_751_48909)"/>
<path opacity="0.24" d="M437.602 84.0282C437.602 82.9609 437.683 81.9757 437.765 80.9904C437.847 80.1694 437.847 79.4305 437.928 78.6095C438.01 77.8706 438.173 77.1317 438.255 76.4748C438.418 75.4075 438.5 74.3402 438.745 73.355C438.745 73.2729 438.827 73.1908 438.827 73.1087C439.888 68.1004 441.685 63.2564 444.053 58.7408C445.442 56.1957 446.993 53.8968 448.708 51.598C449.117 51.1054 449.443 50.6127 449.852 50.1201C450.341 49.4633 450.913 48.8886 451.485 48.3139C452.138 47.575 452.791 46.836 453.445 46.1792C453.935 45.6866 454.425 45.3582 454.833 44.8656C455.65 44.0446 456.548 43.3057 457.446 42.5667C457.936 42.1562 458.426 41.8278 458.916 41.4173C459.815 40.6784 460.795 40.0216 461.775 39.3648C462.346 38.9543 463 38.6259 463.571 38.2974C464.469 37.7227 465.368 37.2301 466.266 36.7375C466.919 36.4091 467.654 36.0807 468.389 35.7523C469.288 35.3418 470.186 34.9313 471.084 34.5208C471.819 34.1923 472.636 33.946 473.371 33.6997C474.269 33.3713 475.086 33.0429 475.984 32.7966C476.801 32.5503 477.617 32.3861 478.516 32.1398C479.332 31.8935 480.231 31.7293 481.047 31.5651C481.946 31.4009 482.926 31.2367 483.824 31.1546C484.641 31.0725 485.457 30.9083 486.274 30.8262C487.254 30.7441 488.316 30.7441 489.377 30.662C490.112 30.662 490.847 30.5799 491.664 30.5799C492.644 30.5799 493.624 30.662 494.685 30.7441C495.502 30.662 496.319 30.662 497.135 30.7441C497.87 30.8262 498.524 30.9904 499.259 31.0725C500.32 31.2367 501.382 31.3188 502.362 31.5651C502.525 31.5651 502.607 31.6472 502.77 31.6472C507.67 32.7145 512.407 34.4387 516.898 36.9017C519.593 38.3795 522.125 40.1037 524.493 41.992C524.82 42.2383 525.146 42.4846 525.473 42.7309C526.208 43.3057 526.861 43.9625 527.515 44.6193C528.168 45.2761 528.821 45.7687 529.393 46.4255C529.883 46.9181 530.373 47.4929 530.863 48.0676C531.598 48.8886 532.333 49.6275 532.986 50.5306C540.499 59.8082 544.991 71.6308 544.991 84.5208V238.708L449.362 118.183C441.358 108.002 437.52 95.933 437.602 84.0282Z" fill="url(#paint54_linear_751_48909)"/>
<path opacity="0.24" d="M492.975 415.966C494.118 415.966 495.179 415.883 496.323 415.801C495.179 415.883 494.118 415.883 492.975 415.966Z" fill="url(#paint55_linear_751_48909)"/>
<path opacity="0.24" d="M488.07 415.89C489.05 415.972 489.948 416.054 490.928 416.054C489.948 415.972 488.968 415.972 488.07 415.89Z" fill="url(#paint56_linear_751_48909)"/>
<path opacity="0.24" d="M498.363 415.558C499.424 415.394 500.568 415.23 501.629 415.065C500.486 415.23 499.424 415.394 498.363 415.558Z" fill="url(#paint57_linear_751_48909)"/>
<path opacity="0.24" d="M484.155 415.481C484.563 415.563 484.971 415.645 485.461 415.645C485.053 415.645 484.645 415.563 484.155 415.481Z" fill="url(#paint58_linear_751_48909)"/>
<path opacity="0.24" d="M544.988 362.032V361.457C545.151 377.056 538.536 392.574 525.797 403.329C537.556 393.477 544.988 378.616 544.988 362.032Z" fill="url(#paint59_linear_751_48909)"/>
<path opacity="0.24" d="M524.818 404.227C524.001 404.884 523.103 405.459 522.286 406.116C523.348 405.377 524.409 404.638 525.389 403.735C525.226 403.899 525.063 404.063 524.818 404.227Z" fill="url(#paint60_linear_751_48909)"/>
<path opacity="0.24" d="M503.507 414.57C504.569 414.324 505.63 414.077 506.692 413.749C505.712 414.077 504.65 414.324 503.507 414.57Z" fill="url(#paint61_linear_751_48909)"/>
<path opacity="0.24" d="M237.852 42.6554C261.045 24.1004 294.854 27.8771 313.31 51.194L437.603 207.762V362.032C437.603 374.676 441.932 386.334 449.2 395.53L229.359 118.518C210.903 95.2828 214.741 61.2926 237.852 42.6554Z" fill="url(#paint62_linear_751_48909)"/>
<path opacity="0.24" d="M517.96 408.83C519.021 408.256 520.083 407.599 521.063 406.942C520.083 407.681 519.021 408.256 517.96 408.83Z" fill="url(#paint63_linear_751_48909)"/>
<path opacity="0.24" d="M508.568 413.174C509.629 412.846 510.691 412.435 511.752 412.025C510.691 412.435 509.629 412.764 508.568 413.174Z" fill="url(#paint64_linear_751_48909)"/>
<path opacity="0.24" d="M437.602 207.758L533.313 328.366C541.071 338.136 544.909 349.876 544.991 361.453V362.027C544.991 378.612 537.559 393.473 525.8 403.325C525.636 403.407 525.555 403.571 525.391 403.653C524.411 404.474 523.35 405.213 522.288 406.034C521.88 406.28 521.471 406.609 521.063 406.937C520.083 407.594 519.021 408.251 517.96 408.826C517.47 409.072 516.98 409.4 516.49 409.647C515.428 410.221 514.367 410.714 513.305 411.207C512.733 411.453 512.243 411.699 511.672 411.945C510.61 412.356 509.548 412.766 508.487 413.095C507.915 413.341 507.262 413.505 506.69 413.67C505.628 413.998 504.567 414.244 503.505 414.491C502.852 414.655 502.199 414.819 501.545 414.901C500.484 415.147 499.34 415.23 498.279 415.394C497.625 415.476 496.972 415.558 496.237 415.64C495.175 415.722 494.032 415.804 492.889 415.804C492.235 415.804 491.5 415.886 490.847 415.886C489.867 415.886 488.969 415.804 487.989 415.722C487.091 415.64 486.274 415.64 485.376 415.558C484.967 415.476 484.559 415.394 484.069 415.394C470.839 413.587 458.263 406.937 449.28 395.607L449.117 395.443C441.848 386.248 437.52 374.589 437.52 361.945V207.758H437.602Z" fill="url(#paint65_linear_751_48909)"/>
</g>
<defs>
<linearGradient id="paint0_linear_751_48909" x1="84.0982" y1="156.518" x2="169.603" y2="153.31" gradientUnits="userSpaceOnUse">
<stop stop-color="#257E9E"/>
<stop offset="1" stop-color="#55B799"/>
</linearGradient>
<linearGradient id="paint1_linear_751_48909" x1="-0.630278" y1="71.337" x2="84.874" y2="68.1284" gradientUnits="userSpaceOnUse">
<stop stop-color="#257E9E"/>
<stop offset="1" stop-color="#55B799"/>
</linearGradient>
<linearGradient id="paint2_linear_751_48909" x1="1.7592" y1="154.655" x2="84.956" y2="151.533" gradientUnits="userSpaceOnUse">
<stop stop-color="#257E9E"/>
<stop offset="1" stop-color="#55B799"/>
</linearGradient>
<linearGradient id="paint3_linear_751_48909" x1="84.0794" y1="70.8833" x2="171.974" y2="67.5851" gradientUnits="userSpaceOnUse">
<stop stop-color="#257E9E"/>
<stop offset="1" stop-color="#55B799"/>
</linearGradient>
<linearGradient id="paint4_linear_751_48909" x1="41.802" y1="77.0823" x2="97.1036" y2="128.09" gradientUnits="userSpaceOnUse">
<stop stop-color="#257E9E"/>
<stop offset="1" stop-color="#55B799"/>
</linearGradient>
<linearGradient id="paint5_linear_751_48909" x1="762.538" y1="376.915" x2="763.776" y2="376.903" gradientUnits="userSpaceOnUse">
<stop stop-color="#257E9E"/>
<stop offset="1" stop-color="#55B799"/>
</linearGradient>
<linearGradient id="paint6_linear_751_48909" x1="760.741" y1="382.006" x2="761.814" y2="381.991" gradientUnits="userSpaceOnUse">
<stop stop-color="#257E9E"/>
<stop offset="1" stop-color="#55B799"/>
</linearGradient>
<linearGradient id="paint7_linear_751_48909" x1="764.668" y1="366.892" x2="764.915" y2="366.891" gradientUnits="userSpaceOnUse">
<stop stop-color="#257E9E"/>
<stop offset="1" stop-color="#55B799"/>
</linearGradient>
<linearGradient id="paint8_linear_751_48909" x1="656.808" y1="298.9" x2="765.323" y2="297.577" gradientUnits="userSpaceOnUse">
<stop stop-color="#257E9E"/>
<stop offset="1" stop-color="#55B799"/>
</linearGradient>
<linearGradient id="paint9_linear_751_48909" x1="732.082" y1="411.26" x2="732.41" y2="411.235" gradientUnits="userSpaceOnUse">
<stop stop-color="#257E9E"/>
<stop offset="1" stop-color="#55B799"/>
</linearGradient>
<linearGradient id="paint10_linear_751_48909" x1="741.225" y1="406.288" x2="741.801" y2="406.258" gradientUnits="userSpaceOnUse">
<stop stop-color="#257E9E"/>
<stop offset="1" stop-color="#55B799"/>
</linearGradient>
<linearGradient id="paint11_linear_751_48909" x1="516.841" y1="41.1068" x2="524.492" y2="40.6761" gradientUnits="userSpaceOnUse">
<stop stop-color="#257E9E"/>
<stop offset="1" stop-color="#55B799"/>
</linearGradient>
<linearGradient id="paint12_linear_751_48909" x1="529.383" y1="47.7599" x2="530.867" y2="47.7098" gradientUnits="userSpaceOnUse">
<stop stop-color="#257E9E"/>
<stop offset="1" stop-color="#55B799"/>
</linearGradient>
<linearGradient id="paint13_linear_751_48909" x1="764.831" y1="363.79" x2="764.948" y2="363.79" gradientUnits="userSpaceOnUse">
<stop stop-color="#257E9E"/>
<stop offset="1" stop-color="#55B799"/>
</linearGradient>
<linearGradient id="paint14_linear_751_48909" x1="502.359" y1="31.7208" x2="502.757" y2="31.646" gradientUnits="userSpaceOnUse">
<stop stop-color="#257E9E"/>
<stop offset="1" stop-color="#55B799"/>
</linearGradient>
<linearGradient id="paint15_linear_751_48909" x1="481.192" y1="31.3291" x2="483.826" y2="30.6569" gradientUnits="userSpaceOnUse">
<stop stop-color="#257E9E"/>
<stop offset="1" stop-color="#55B799"/>
</linearGradient>
<linearGradient id="paint16_linear_751_48909" x1="486.335" y1="30.6329" x2="488.414" y2="29.1505" gradientUnits="userSpaceOnUse">
<stop stop-color="#257E9E"/>
<stop offset="1" stop-color="#55B799"/>
</linearGradient>
<linearGradient id="paint17_linear_751_48909" x1="491.642" y1="30.5509" x2="493.703" y2="29.1204" gradientUnits="userSpaceOnUse">
<stop stop-color="#257E9E"/>
<stop offset="1" stop-color="#55B799"/>
</linearGradient>
<linearGradient id="paint18_linear_751_48909" x1="476.046" y1="32.5949" x2="478.551" y2="32.2306" gradientUnits="userSpaceOnUse">
<stop stop-color="#257E9E"/>
<stop offset="1" stop-color="#55B799"/>
</linearGradient>
<linearGradient id="paint19_linear_751_48909" x1="727.228" y1="412.75" x2="732.049" y2="412.265" gradientUnits="userSpaceOnUse">
<stop stop-color="#257E9E"/>
<stop offset="1" stop-color="#55B799"/>
</linearGradient>
<linearGradient id="paint20_linear_751_48909" x1="741.693" y1="405.439" x2="745.315" y2="405.258" gradientUnits="userSpaceOnUse">
<stop stop-color="#257E9E"/>
<stop offset="1" stop-color="#55B799"/>
</linearGradient>
<linearGradient id="paint21_linear_751_48909" x1="764.422" y1="368.658" x2="764.669" y2="368.657" gradientUnits="userSpaceOnUse">
<stop stop-color="#257E9E"/>
<stop offset="1" stop-color="#55B799"/>
</linearGradient>
<linearGradient id="paint22_linear_751_48909" x1="745.53" y1="399.102" x2="760.786" y2="398.677" gradientUnits="userSpaceOnUse">
<stop stop-color="#257E9E"/>
<stop offset="1" stop-color="#55B799"/>
</linearGradient>
<linearGradient id="paint23_linear_751_48909" x1="763.69" y1="373.03" x2="763.772" y2="373.03" gradientUnits="userSpaceOnUse">
<stop stop-color="#257E9E"/>
<stop offset="1" stop-color="#55B799"/>
</linearGradient>
<linearGradient id="paint24_linear_751_48909" x1="761.803" y1="379.318" x2="762.546" y2="379.307" gradientUnits="userSpaceOnUse">
<stop stop-color="#257E9E"/>
<stop offset="1" stop-color="#55B799"/>
</linearGradient>
<linearGradient id="paint25_linear_751_48909" x1="531.543" y1="346.011" x2="727.802" y2="342.071" gradientUnits="userSpaceOnUse">
<stop stop-color="#257E9E"/>
<stop offset="1" stop-color="#55B799"/>
</linearGradient>
<linearGradient id="paint26_linear_751_48909" x1="471.148" y1="34.2022" x2="473.434" y2="33.9621" gradientUnits="userSpaceOnUse">
<stop stop-color="#257E9E"/>
<stop offset="1" stop-color="#55B799"/>
</linearGradient>
<linearGradient id="paint27_linear_751_48909" x1="453.516" y1="45.8493" x2="454.917" y2="45.7935" gradientUnits="userSpaceOnUse">
<stop stop-color="#257E9E"/>
<stop offset="1" stop-color="#55B799"/>
</linearGradient>
<linearGradient id="paint28_linear_751_48909" x1="457.602" y1="42.2698" x2="459.084" y2="42.1983" gradientUnits="userSpaceOnUse">
<stop stop-color="#257E9E"/>
<stop offset="1" stop-color="#55B799"/>
</linearGradient>
<linearGradient id="paint29_linear_751_48909" x1="461.845" y1="39.0845" x2="463.653" y2="38.9697" gradientUnits="userSpaceOnUse">
<stop stop-color="#257E9E"/>
<stop offset="1" stop-color="#55B799"/>
</linearGradient>
<linearGradient id="paint30_linear_751_48909" x1="437.927" y1="78.1215" x2="438.257" y2="78.1196" gradientUnits="userSpaceOnUse">
<stop stop-color="#257E9E"/>
<stop offset="1" stop-color="#55B799"/>
</linearGradient>
<linearGradient id="paint31_linear_751_48909" x1="444.1" y1="57.3045" x2="448.801" y2="57.189" gradientUnits="userSpaceOnUse">
<stop stop-color="#257E9E"/>
<stop offset="1" stop-color="#55B799"/>
</linearGradient>
<linearGradient id="paint32_linear_751_48909" x1="466.334" y1="36.3876" x2="468.466" y2="36.2143" gradientUnits="userSpaceOnUse">
<stop stop-color="#257E9E"/>
<stop offset="1" stop-color="#55B799"/>
</linearGradient>
<linearGradient id="paint33_linear_751_48909" x1="437.598" y1="83.3744" x2="437.763" y2="83.3741" gradientUnits="userSpaceOnUse">
<stop stop-color="#257E9E"/>
<stop offset="1" stop-color="#55B799"/>
</linearGradient>
<linearGradient id="paint34_linear_751_48909" x1="656.807" y1="375.915" x2="765.294" y2="373.803" gradientUnits="userSpaceOnUse">
<stop stop-color="#257E9E"/>
<stop offset="1" stop-color="#55B799"/>
</linearGradient>
<linearGradient id="paint35_linear_751_48909" x1="448.94" y1="411.676" x2="484.109" y2="409.351" gradientUnits="userSpaceOnUse">
<stop stop-color="#257E9E"/>
<stop offset="1" stop-color="#55B799"/>
</linearGradient>
<linearGradient id="paint36_linear_751_48909" x1="436.801" y1="308.681" x2="545.306" y2="307.097" gradientUnits="userSpaceOnUse">
<stop stop-color="#257E9E"/>
<stop offset="1" stop-color="#55B799"/>
</linearGradient>
<linearGradient id="paint37_linear_751_48909" x1="437.764" y1="80.5419" x2="437.929" y2="80.5415" gradientUnits="userSpaceOnUse">
<stop stop-color="#257E9E"/>
<stop offset="1" stop-color="#55B799"/>
</linearGradient>
<linearGradient id="paint38_linear_751_48909" x1="438.251" y1="75.8008" x2="438.746" y2="75.7978" gradientUnits="userSpaceOnUse">
<stop stop-color="#257E9E"/>
<stop offset="1" stop-color="#55B799"/>
</linearGradient>
<linearGradient id="paint39_linear_751_48909" x1="501.612" y1="414.907" x2="503.53" y2="414.561" gradientUnits="userSpaceOnUse">
<stop stop-color="#257E9E"/>
<stop offset="1" stop-color="#55B799"/>
</linearGradient>
<linearGradient id="paint40_linear_751_48909" x1="516.479" y1="409.572" x2="517.957" y2="409.472" gradientUnits="userSpaceOnUse">
<stop stop-color="#257E9E"/>
<stop offset="1" stop-color="#55B799"/>
</linearGradient>
<linearGradient id="paint41_linear_751_48909" x1="506.759" y1="413.645" x2="508.55" y2="413.434" gradientUnits="userSpaceOnUse">
<stop stop-color="#257E9E"/>
<stop offset="1" stop-color="#55B799"/>
</linearGradient>
<linearGradient id="paint42_linear_751_48909" x1="490.914" y1="416.035" x2="492.012" y2="415.005" gradientUnits="userSpaceOnUse">
<stop stop-color="#257E9E"/>
<stop offset="1" stop-color="#55B799"/>
</linearGradient>
<linearGradient id="paint43_linear_751_48909" x1="458.978" y1="40.9485" x2="461.859" y2="40.7971" gradientUnits="userSpaceOnUse">
<stop stop-color="#257E9E"/>
<stop offset="1" stop-color="#55B799"/>
</linearGradient>
<linearGradient id="paint44_linear_751_48909" x1="454.897" y1="44.348" x2="457.533" y2="44.235" gradientUnits="userSpaceOnUse">
<stop stop-color="#257E9E"/>
<stop offset="1" stop-color="#55B799"/>
</linearGradient>
<linearGradient id="paint45_linear_751_48909" x1="463.715" y1="37.9202" x2="466.427" y2="37.7434" gradientUnits="userSpaceOnUse">
<stop stop-color="#257E9E"/>
<stop offset="1" stop-color="#55B799"/>
</linearGradient>
<linearGradient id="paint46_linear_751_48909" x1="499.235" y1="31.4754" x2="502.204" y2="30.7699" gradientUnits="userSpaceOnUse">
<stop stop-color="#257E9E"/>
<stop offset="1" stop-color="#55B799"/>
</linearGradient>
<linearGradient id="paint47_linear_751_48909" x1="502.666" y1="35.9882" x2="516.798" y2="34.5547" gradientUnits="userSpaceOnUse">
<stop stop-color="#257E9E"/>
<stop offset="1" stop-color="#55B799"/>
</linearGradient>
<linearGradient id="paint48_linear_751_48909" x1="489.443" y1="30.4844" x2="490.541" y2="29.3304" gradientUnits="userSpaceOnUse">
<stop stop-color="#257E9E"/>
<stop offset="1" stop-color="#55B799"/>
</linearGradient>
<linearGradient id="paint49_linear_751_48909" x1="473.434" y1="33.3634" x2="476.044" y2="33.0785" gradientUnits="userSpaceOnUse">
<stop stop-color="#257E9E"/>
<stop offset="1" stop-color="#55B799"/>
</linearGradient>
<linearGradient id="paint50_linear_751_48909" x1="438.87" y1="70.2893" x2="444.151" y2="70.2168" gradientUnits="userSpaceOnUse">
<stop stop-color="#257E9E"/>
<stop offset="1" stop-color="#55B799"/>
</linearGradient>
<linearGradient id="paint51_linear_751_48909" x1="468.452" y1="35.4413" x2="471.157" y2="35.2179" gradientUnits="userSpaceOnUse">
<stop stop-color="#257E9E"/>
<stop offset="1" stop-color="#55B799"/>
</linearGradient>
<linearGradient id="paint52_linear_751_48909" x1="451.551" y1="47.8301" x2="453.53" y2="47.7616" gradientUnits="userSpaceOnUse">
<stop stop-color="#257E9E"/>
<stop offset="1" stop-color="#55B799"/>
</linearGradient>
<linearGradient id="paint53_linear_751_48909" x1="483.89" y1="30.9341" x2="486.184" y2="30.2884" gradientUnits="userSpaceOnUse">
<stop stop-color="#257E9E"/>
<stop offset="1" stop-color="#55B799"/>
</linearGradient>
<linearGradient id="paint54_linear_751_48909" x1="436.802" y1="199.065" x2="545.288" y2="196.953" gradientUnits="userSpaceOnUse">
<stop stop-color="#257E9E"/>
<stop offset="1" stop-color="#55B799"/>
</linearGradient>
<linearGradient id="paint55_linear_751_48909" x1="492.95" y1="415.934" x2="495.075" y2="414.299" gradientUnits="userSpaceOnUse">
<stop stop-color="#257E9E"/>
<stop offset="1" stop-color="#55B799"/>
</linearGradient>
<linearGradient id="paint56_linear_751_48909" x1="488.049" y1="416.023" x2="490.067" y2="414.697" gradientUnits="userSpaceOnUse">
<stop stop-color="#257E9E"/>
<stop offset="1" stop-color="#55B799"/>
</linearGradient>
<linearGradient id="paint57_linear_751_48909" x1="498.338" y1="415.464" x2="501.445" y2="414.687" gradientUnits="userSpaceOnUse">
<stop stop-color="#257E9E"/>
<stop offset="1" stop-color="#55B799"/>
</linearGradient>
<linearGradient id="paint58_linear_751_48909" x1="484.145" y1="415.614" x2="485.356" y2="415.25" gradientUnits="userSpaceOnUse">
<stop stop-color="#257E9E"/>
<stop offset="1" stop-color="#55B799"/>
</linearGradient>
<linearGradient id="paint59_linear_751_48909" x1="525.654" y1="395.353" x2="545.045" y2="395.018" gradientUnits="userSpaceOnUse">
<stop stop-color="#257E9E"/>
<stop offset="1" stop-color="#55B799"/>
</linearGradient>
<linearGradient id="paint60_linear_751_48909" x1="522.263" y1="405.662" x2="525.391" y2="405.508" gradientUnits="userSpaceOnUse">
<stop stop-color="#257E9E"/>
<stop offset="1" stop-color="#55B799"/>
</linearGradient>
<linearGradient id="paint61_linear_751_48909" x1="503.483" y1="414.414" x2="506.634" y2="413.952" gradientUnits="userSpaceOnUse">
<stop stop-color="#257E9E"/>
<stop offset="1" stop-color="#55B799"/>
</linearGradient>
<linearGradient id="paint62_linear_751_48909" x1="215.953" y1="326.073" x2="449.796" y2="320.472" gradientUnits="userSpaceOnUse">
<stop stop-color="#257E9E"/>
<stop offset="1" stop-color="#55B799"/>
</linearGradient>
<linearGradient id="paint63_linear_751_48909" x1="517.937" y1="408.471" x2="521.061" y2="408.277" gradientUnits="userSpaceOnUse">
<stop stop-color="#257E9E"/>
<stop offset="1" stop-color="#55B799"/>
</linearGradient>
<linearGradient id="paint64_linear_751_48909" x1="508.544" y1="412.955" x2="511.728" y2="412.623" gradientUnits="userSpaceOnUse">
<stop stop-color="#257E9E"/>
<stop offset="1" stop-color="#55B799"/>
</linearGradient>
<linearGradient id="paint65_linear_751_48909" x1="436.721" y1="376.243" x2="545.289" y2="374.128" gradientUnits="userSpaceOnUse">
<stop stop-color="#257E9E"/>
<stop offset="1" stop-color="#55B799"/>
</linearGradient>
</defs>
</svg>
