<svg width="1040" height="574" viewBox="0 0 1040 574" fill="none" xmlns="http://www.w3.org/2000/svg">
<g opacity="0.76">
<path d="M824.807 227.588C805.239 207.916 805.239 176.085 824.807 156.413L853.318 127.749L924.111 198.921L895.596 227.588C876.029 247.259 844.373 247.259 824.807 227.588Z" fill="#E2E8F0" stroke="#E2E8F0"/>
<path d="M1024.82 26.494C1044.39 46.1666 1044.39 77.9968 1024.82 97.6694L996.313 126.333L925.521 55.1615L954.035 26.494C973.602 6.82295 1005.26 6.82295 1024.82 26.494Z" fill="#E2E8F0" stroke="#E2E8F0"/>
<path d="M950.813 224.463L925.406 198.921L996.199 127.749L1021.6 153.288C1041.17 172.96 1041.17 204.79 1021.6 224.463C1002.03 244.134 970.379 244.134 950.813 224.463Z" fill="#FBFCFD" stroke="#E2E8F0"/>
<path d="M821.587 23.2533C841.153 3.58223 872.809 3.58223 892.376 23.2533L924.11 55.1577L853.318 126.329L821.587 94.4287C802.019 74.7561 802.019 42.9259 821.587 23.2533Z" fill="#FBFCFD" stroke="#E2E8F0"/>
<path d="M924.811 55.1835L853.373 127.004L924.811 198.824L996.249 127.004L924.811 55.1835Z" fill="#F8FAFC"/>
<path d="M924.811 55.1835L853.373 127.004L924.811 198.824L996.249 127.004L924.811 55.1835Z" stroke="#E2E8F0"/>
<path d="M3.33573 521.601C2.6696 519.48 2.11449 517.471 1.67041 515.35C2.22552 517.359 2.6696 519.48 3.33573 521.601Z" fill="#257E9E"/>
<path d="M5.77873 528.07C5.22362 526.731 4.77953 525.391 4.33545 524.164C4.77953 525.503 5.22362 526.842 5.77873 528.07Z" fill="#257E9E"/>
<path d="M0.452448 507.652C0.341427 506.201 0.230406 504.638 0.119385 503.076C0.230406 504.638 0.341427 506.089 0.452448 507.652Z" fill="#257E9E"/>
<path d="M15.491 453.534C7.46624 463.66 2.50074 475.294 0.506795 487.242V122.122C0.506795 81.8785 32.9267 49.1792 72.9477 49.1792C113.08 49.1792 145.5 81.879 145.5 122.122V289.818L15.4913 453.534L15.491 453.534Z" fill="#FBFCFD" stroke="#E2E8F0"/>
<path d="M44.7488 567.143C44.6378 567.143 44.5267 567.032 44.3047 566.92C44.4157 567.032 44.5267 567.143 44.7488 567.143Z" fill="#257E9E"/>
<path d="M32.3167 560.444C32.0947 560.221 31.7616 560.109 31.5396 559.886C31.8726 560.109 32.0947 560.333 32.3167 560.444Z" fill="#257E9E"/>
<path d="M326.962 65.2009C330.182 62.6338 333.624 60.2898 337.287 58.2808C333.735 60.1782 330.293 62.5222 326.962 65.2009Z" fill="#55B799"/>
<path d="M318.303 73.3554C318.969 72.5741 319.635 71.9044 320.301 71.123C319.635 71.7927 318.969 72.5741 318.303 73.3554Z" fill="#55B799"/>
<path d="M0.228297 503.073C0.228297 502.18 0.117276 501.287 0.117276 500.395C0.00625434 501.287 0.117276 502.18 0.228297 503.073Z" fill="#55B799"/>
<path d="M356.498 51.1453C356.72 51.1453 356.831 51.0337 357.053 51.0337C356.831 51.0337 356.72 51.0337 356.498 51.1453Z" fill="#55B799"/>
<path d="M382.032 50.1401C383.253 50.3634 384.585 50.475 385.806 50.6982C384.585 50.475 383.364 50.3634 382.032 50.1401Z" fill="#55B799"/>
<path d="M374.592 49.4648C376.035 49.4648 377.367 49.5765 378.811 49.6881C377.367 49.5765 375.924 49.5765 374.592 49.4648Z" fill="#55B799"/>
<path d="M367.485 49.5777C368.817 49.4661 370.149 49.3545 371.593 49.3545C370.149 49.4661 368.817 49.5777 367.485 49.5777Z" fill="#55B799"/>
<path d="M389.36 51.5884C390.471 51.9232 391.692 52.1465 392.802 52.4813C391.581 52.0348 390.471 51.8116 389.36 51.5884Z" fill="#55B799"/>
<path d="M51.3002 569.594C49.0798 568.924 46.8594 568.143 44.75 567.138C46.8594 568.031 49.0798 568.924 51.3002 569.594Z" fill="#55B799"/>
<path d="M27.5408 556.988C28.8731 557.992 30.2053 558.997 31.6486 559.89C29.9833 558.662 28.318 557.546 26.7637 556.207C26.9857 556.43 27.2078 556.765 27.5408 556.988Z" fill="#55B799"/>
<path d="M0.782527 509.544C0.671505 508.874 0.560484 508.316 0.449463 507.646C0.560484 508.205 0.671505 508.874 0.782527 509.544Z" fill="#55B799"/>
<path d="M5.77856 528.074C10.1084 538.566 17.1027 548.053 26.3175 555.867C17.4358 548.388 10.3304 538.901 5.77856 528.074Z" fill="#55B799"/>
<path d="M1.78021 515.233C1.78021 515.01 1.66919 514.898 1.66919 514.675C1.66919 514.898 1.66919 515.121 1.78021 515.233Z" fill="#55B799"/>
<path d="M4.33879 524.163C4.00573 523.27 3.67266 522.489 3.3396 521.596C3.67266 522.377 4.00573 523.27 4.33879 524.163Z" fill="#55B799"/>
<path d="M146.5 290.166L307.764 87.0544C301.913 97.6415 298.569 109.821 298.487 122.788V122.791V332.232L137.218 535.483C143.132 524.828 146.5 512.552 146.5 499.495V290.166Z" fill="#E2E8F0" stroke="#E2E8F0"/>
<path d="M396.351 53.5942C397.35 53.9291 398.46 54.3755 399.46 54.7104C398.46 54.3755 397.35 54.0407 396.351 53.5942Z" fill="#55B799"/>
<path d="M421.554 68.8838C422.22 69.4419 422.886 70 423.441 70.6696C422.886 70 422.109 69.4419 421.554 68.8838Z" fill="#55B799"/>
<path d="M417.556 65.4299C417.001 64.9835 416.446 64.6486 415.891 64.2021C416.557 64.7602 417.223 65.2067 417.889 65.7648C417.889 65.6532 417.778 65.5415 417.556 65.4299Z" fill="#55B799"/>
<path d="M409.673 59.9624C410.45 60.4089 411.338 60.9669 412.115 61.4134C411.338 60.8553 410.45 60.4089 409.673 59.9624Z" fill="#55B799"/>
<path d="M444.204 111.856C444.315 112.861 444.537 113.753 444.648 114.758C444.537 113.865 444.315 112.861 444.204 111.856Z" fill="#55B799"/>
<path d="M429.882 78.0435C432.214 81.0571 434.434 84.2939 436.211 87.754C434.434 84.4056 432.214 81.1687 429.882 78.0435Z" fill="#55B799"/>
<path d="M403.124 56.3853C404.123 56.8317 405.011 57.2782 406.01 57.7246C405.011 57.2782 404.012 56.8317 403.124 56.3853Z" fill="#55B799"/>
<path d="M444.871 118.001C444.982 119.34 445.093 120.791 445.093 122.131C445.093 120.791 444.982 119.452 444.871 118.001Z" fill="#55B799"/>
<path d="M145.999 499.5V289.997L15.9927 453.849C5.00163 467.578 -0.105344 484.097 0.00567706 500.393C0.00567706 501.286 0.116698 502.179 0.116698 503.072C0.227719 504.634 0.227719 506.085 0.449762 507.648C0.560783 508.318 0.671804 508.876 0.782825 509.545C1.00487 511.331 1.22691 513.005 1.671 514.791C1.671 515.015 1.78202 515.126 1.78202 515.349C2.2261 517.47 2.78121 519.591 3.44733 521.6C3.66938 522.493 4.11346 523.386 4.44653 524.167C4.89061 525.506 5.33469 526.846 5.8898 528.074C10.4417 538.9 17.547 548.388 26.4287 555.866C26.5397 555.978 26.6508 556.089 26.7618 556.201C28.3161 557.54 29.9814 558.768 31.6467 559.884C31.8688 560.107 32.2018 560.331 32.4239 560.442C34.2002 561.67 35.9765 562.675 37.7529 563.679C37.9749 563.791 38.197 563.902 38.419 564.014C40.3064 565.018 42.3048 566.023 44.3031 566.916C44.4142 567.028 44.5252 567.028 44.7472 567.139C46.8566 568.032 49.0771 568.813 51.2975 569.595C51.2975 569.595 51.2975 569.595 51.4085 569.595C58.2918 571.715 65.5082 572.943 73.0576 572.943C113.358 572.943 145.999 540.016 145.999 499.5Z" fill="#F8FAFC"/>
<path d="M381.807 572.831C401.013 570.264 417.889 560.219 429.324 545.708L429.102 545.932C416.889 561.335 399.792 570.487 381.807 572.831Z" fill="#257E9E"/>
<path d="M444.648 114.873C444.759 115.989 444.759 116.994 444.87 118.11C444.759 116.994 444.759 115.878 444.648 114.873Z" fill="#257E9E"/>
<path d="M443.535 107.616C443.868 109.067 443.979 110.407 444.201 111.858C443.979 110.518 443.757 109.067 443.535 107.616Z" fill="#257E9E"/>
<path d="M358.052 572.164C357.164 571.941 356.275 571.718 355.387 571.606C356.386 571.83 357.164 572.053 358.052 572.164Z" fill="#257E9E"/>
<path d="M337.844 565.019C337.177 564.684 336.511 564.237 335.845 563.902C336.511 564.237 337.177 564.572 337.844 565.019Z" fill="#257E9E"/>
<path d="M351.053 570.49C350.276 570.267 349.388 569.932 348.611 569.708C349.499 569.932 350.276 570.267 351.053 570.49Z" fill="#257E9E"/>
<path d="M372.037 573.613C372.259 573.613 372.37 573.613 372.592 573.613C371.704 573.613 370.705 573.501 369.817 573.501C370.594 573.501 371.26 573.613 372.037 573.613Z" fill="#257E9E"/>
<path d="M412.118 61.4082C413.45 62.3011 414.671 63.1941 416.003 64.1986C414.671 63.3057 413.45 62.3011 412.118 61.4082Z" fill="#257E9E"/>
<path d="M418 65.7612C419.221 66.7658 420.442 67.8819 421.553 68.8865C420.331 67.7703 419.221 66.7658 418 65.7612Z" fill="#257E9E"/>
<path d="M405.899 57.834C407.12 58.5037 408.341 59.285 409.563 59.9547C408.452 59.1734 407.231 58.5037 405.899 57.834Z" fill="#257E9E"/>
<path d="M357.051 50.9177C358.495 50.5829 359.827 50.4713 361.27 50.248C359.827 50.4713 358.384 50.6945 357.051 50.9177Z" fill="#257E9E"/>
<path d="M337.286 58.285C343.392 54.9365 349.831 52.5926 356.492 51.1416C349.72 52.5926 343.281 55.0482 337.286 58.285Z" fill="#257E9E"/>
<path d="M372.038 49.3545C371.815 49.3545 371.704 49.3545 371.482 49.3545C372.482 49.3545 373.481 49.4661 374.591 49.4661C373.703 49.4661 372.926 49.3545 372.038 49.3545Z" fill="#257E9E"/>
<path d="M392.796 52.3643C394.018 52.6991 395.239 53.1456 396.349 53.592C395.128 53.2572 393.907 52.8107 392.796 52.3643Z" fill="#257E9E"/>
<path d="M436.208 87.7427C439.539 93.8815 441.871 100.467 443.314 107.275C441.982 100.355 439.539 93.7699 436.208 87.7427Z" fill="#257E9E"/>
<path d="M399.46 54.8267C400.682 55.2731 401.903 55.9428 403.124 56.5009C401.903 55.8312 400.682 55.2731 399.46 54.8267Z" fill="#257E9E"/>
<path d="M423.441 70.6763C424.329 71.5692 425.217 72.5737 426.105 73.5783C425.217 72.5737 424.44 71.5692 423.441 70.6763Z" fill="#257E9E"/>
<path d="M378.811 49.6934C379.921 49.805 381.031 49.9166 382.141 50.1398C380.92 50.0282 379.921 49.805 378.811 49.6934Z" fill="#257E9E"/>
<path d="M369.817 573.496C368.262 573.496 366.819 573.385 365.265 573.273C366.819 573.385 368.262 573.385 369.817 573.496Z" fill="#55B799"/>
<path d="M376.479 573.394C375.147 573.505 373.926 573.617 372.593 573.617C373.926 573.505 375.258 573.505 376.479 573.394Z" fill="#55B799"/>
<path d="M362.49 572.941C361.046 572.718 359.492 572.495 358.049 572.271C359.603 572.495 361.046 572.718 362.49 572.941Z" fill="#55B799"/>
<path d="M381.808 572.836C381.252 572.948 380.697 573.06 380.031 573.06C380.586 573.06 381.141 572.948 381.808 572.836Z" fill="#55B799"/>
<path d="M299.1 500.177V499.396C298.878 520.603 307.87 541.698 325.19 556.32C309.203 542.926 299.1 522.723 299.1 500.177Z" fill="#55B799"/>
<path d="M326.522 557.541C327.632 558.434 328.854 559.216 329.964 560.108C328.521 559.104 327.077 558.099 325.745 556.872C325.967 557.095 326.189 557.318 326.522 557.541Z" fill="#55B799"/>
<path d="M355.493 571.601C354.05 571.266 352.607 570.931 351.164 570.484C352.496 570.931 353.939 571.266 355.493 571.601Z" fill="#55B799"/>
<path d="M727.801 168.814L436.36 536.046C442.244 525.423 445.589 513.18 445.589 500.177V290.625L614.455 77.9103L614.455 77.9098C639.373 46.429 685.02 41.3292 716.334 66.3818C747.539 91.5472 752.72 137.443 727.801 168.813L728.176 169.111L727.801 168.814Z" fill="#E2E8F0" stroke="#E2E8F0"/>
<path d="M335.845 563.794C334.402 563.012 332.959 562.119 331.626 561.227C332.959 562.231 334.402 563.012 335.845 563.794Z" fill="#55B799"/>
<path d="M348.614 569.702C347.171 569.256 345.728 568.698 344.285 568.14C345.728 568.698 347.171 569.144 348.614 569.702Z" fill="#55B799"/>
<path d="M444.973 290.659V123.012C444.973 122.788 444.973 122.677 444.973 122.454C445.084 138.75 439.977 155.157 429.097 168.774L298.98 332.626V499.715C299.091 483.866 304.309 468.016 314.856 454.734L444.973 290.659Z" fill="#FBFCFD"/>
<path d="M318.302 73.3469C318.968 72.5656 319.635 71.7843 320.301 71.1146C320.761 70.5863 321.259 70.1361 321.774 69.6716C322.129 69.3511 322.492 69.0237 322.854 68.6591C323.742 67.7661 324.631 66.8732 325.63 66.0919L326.962 65.0874C330.182 62.5202 333.623 60.1763 337.287 58.1672C343.393 54.8187 349.832 52.4748 356.494 51.0238L318.302 73.3469ZM318.302 73.3469C318.058 73.6202 317.813 73.8868 317.57 74.1517M318.302 73.3469L317.57 74.1517M317.57 74.1517C316.821 74.9684 316.087 75.7683 315.416 76.6954L317.57 74.1517ZM444.589 122.235L444.589 122.238C444.699 138.312 439.517 154.609 428.708 168.358L299.596 331.084V122.904C299.596 105.499 305.66 89.5365 315.804 77.0101L315.813 76.9995L315.821 76.9885C316.473 76.087 317.18 75.3166 317.924 74.5053C318.171 74.2369 318.421 73.964 318.675 73.6804L318.675 73.6805L318.683 73.6713C319.352 72.8867 320.005 72.1208 320.655 71.4672L320.667 71.4554L320.678 71.4429C321.046 71.0197 321.444 70.6454 321.872 70.257C321.949 70.1873 322.027 70.1171 322.105 70.0459C322.461 69.7249 322.836 69.3867 323.209 69.0117C324.099 68.1162 324.965 67.2468 325.934 66.4884L326.597 65.9889L327.263 65.4866L327.263 65.4867L327.274 65.4783C330.474 62.9268 333.892 60.5994 337.527 58.6056C343.576 55.2888 349.954 52.9641 356.555 51.5221C356.719 51.5131 356.845 51.4707 356.921 51.4452L356.93 51.442C357.013 51.4142 357.027 51.4121 357.049 51.4121H357.111L357.171 51.3971C358.049 51.1763 358.958 51.0584 359.915 50.9342C360.376 50.8744 360.848 50.8131 361.334 50.7382C361.845 50.6806 362.327 50.5951 362.792 50.5127L362.798 50.5115C363.271 50.4276 363.727 50.3469 364.207 50.2932C365.283 50.1852 366.359 50.1853 367.435 50.2935L367.479 50.2979L367.523 50.2945C367.626 50.2866 367.727 50.2787 367.828 50.2708C369.158 50.1674 370.376 50.0728 371.593 50.0728C372.132 50.0728 372.647 50.0999 373.161 50.1278L373.207 50.1303C373.696 50.1569 374.188 50.1837 374.682 50.1844C375.393 50.2389 376.102 50.2668 376.788 50.2938L376.832 50.2956C377.541 50.3235 378.222 50.351 378.874 50.4055C379.413 50.4599 379.955 50.5414 380.511 50.6252L380.517 50.6261C381.068 50.7093 381.633 50.7945 382.201 50.8516L382.205 50.852C383.401 50.9613 384.714 51.1807 385.931 51.4032C386.089 51.435 386.249 51.4666 386.409 51.4984C387.387 51.6924 388.395 51.8923 389.323 52.1722L389.323 52.1723L389.335 52.1757C389.868 52.3219 390.381 52.4472 390.874 52.5678C390.954 52.5872 391.032 52.6064 391.11 52.6255C391.679 52.7649 392.223 52.9018 392.764 53.0651L392.764 53.0652L392.776 53.0686C393.714 53.3257 394.58 53.6484 395.508 53.9945C395.763 54.0894 396.023 54.1862 396.29 54.2838L396.29 54.2839L396.302 54.2882C396.507 54.3567 396.713 54.4244 396.92 54.4924C397.747 54.7637 398.589 55.0396 399.364 55.3859C399.365 55.3862 399.365 55.3865 399.366 55.3868L401.194 56.2222L403.026 57.0593L403.03 57.061C404.028 57.5073 405.014 57.9477 405.888 58.3867C407.108 59.056 408.312 59.7167 409.514 60.4858L409.524 60.4922L409.535 60.4982C409.753 60.6237 409.974 60.7459 410.194 60.8679C410.791 61.1987 411.387 61.5285 411.935 61.9218L411.941 61.9265L411.948 61.931C413.283 62.8259 414.594 63.705 415.793 64.6907C416.135 64.9773 416.476 65.2345 416.806 65.4831L416.81 65.4866C417.145 65.7388 417.468 65.9824 417.789 66.2519L417.793 66.2548C419.012 67.2573 420.208 68.2416 421.293 69.3309C421.593 69.6901 421.919 69.9857 422.236 70.2633C422.296 70.3152 422.354 70.3664 422.413 70.4173C422.679 70.6476 422.936 70.8712 423.196 71.1324C424.072 72.013 424.95 73.0061 425.84 74.013L425.85 74.024L425.86 74.0344C426.642 74.8197 427.393 75.5765 428.035 76.4363L428.042 76.4465L428.05 76.4564C428.319 76.7799 428.561 77.1046 428.812 77.4408L428.815 77.4452C429.06 77.774 429.314 78.114 429.596 78.4554C431.915 81.564 434.007 84.665 435.877 88.0932C439.071 94.1828 441.493 100.712 442.927 107.459C442.935 107.537 442.955 107.602 442.972 107.648C442.992 107.702 443.016 107.75 443.029 107.775L443.031 107.78C443.032 107.782 443.033 107.785 443.035 107.787L443.049 107.845C443.269 108.729 443.386 109.643 443.51 110.606C443.569 111.07 443.63 111.546 443.705 112.035C443.757 112.449 443.831 112.885 443.906 113.32L443.93 113.459C444.013 113.946 444.093 114.435 444.147 114.919C444.201 115.463 444.228 115.982 444.256 116.513L444.256 116.517C444.284 117.043 444.312 117.582 444.369 118.15C444.48 119.49 444.589 120.809 444.589 122.235Z" fill="#F8FAFC" stroke="#E2E8F0"/>
<path d="M315.365 454.718L444.701 291.738V500.058C444.701 517.121 438.864 532.853 429.061 545.265L428.86 545.468L428.84 545.488L428.822 545.51C416.701 560.798 399.736 569.775 381.884 572.22C381.189 572.224 380.607 572.34 380.071 572.448C379.482 572.501 378.918 572.528 378.342 572.556L378.339 572.556C377.759 572.584 377.168 572.612 376.547 572.669C376.453 572.676 376.36 572.684 376.267 572.692C375.04 572.796 373.919 572.89 372.704 572.89C372.278 572.89 371.821 572.863 371.346 572.835L371.338 572.835C370.871 572.807 370.387 572.778 369.929 572.778C368.399 572.778 366.865 572.669 365.424 572.557C364.435 572.447 363.554 572.336 362.67 572.225C362.141 572.143 361.616 572.078 361.095 572.013C360.137 571.894 359.194 571.777 358.273 571.563L358.248 571.558L358.223 571.554C357.37 571.447 356.511 571.232 355.618 571.007L355.609 571.005C354.163 570.67 352.737 570.339 351.314 569.899L351.304 569.896C351.158 569.854 351.011 569.812 350.863 569.771C350.199 569.585 349.526 569.396 348.921 569.136L348.897 569.125L348.871 569.117C347.45 568.678 346.026 568.127 344.583 567.569C344.205 567.406 343.853 567.243 343.494 567.077L343.49 567.075C343.133 566.909 342.769 566.74 342.377 566.571C340.934 565.902 339.507 565.239 338.082 564.467L338.075 564.464L338.068 564.46C337.752 564.301 337.433 564.115 337.097 563.918L337.091 563.914C336.764 563.723 336.422 563.522 336.076 563.348C334.659 562.58 333.238 561.701 331.923 560.821C331.387 560.39 330.819 559.933 330.244 559.583C329.71 559.17 329.184 558.778 328.667 558.394C327.77 557.725 326.901 557.077 326.063 556.376L326.019 556.339L325.967 556.312C325.94 556.299 325.911 556.275 325.819 556.183L325.808 556.172C325.739 556.102 325.625 555.988 325.471 555.898C309.615 542.596 299.597 522.546 299.597 500.17V499.39C299.708 483.761 304.89 467.91 315.365 454.718L315.365 454.718Z" fill="#F8FAFC" stroke="#E2E8F0"/>
</g>
</svg>
