<svg width="665" height="417" viewBox="0 0 665 417" fill="none" xmlns="http://www.w3.org/2000/svg">
<g opacity="0.45">
<path opacity="0.24" d="M477.777 108.909C460.647 123.523 460.647 147.168 477.777 161.782C494.906 176.397 522.621 176.397 539.751 161.782L564.772 140.436L502.797 87.5623L477.777 108.909Z" fill="url(#paint0_linear_752_64405)"/>
<path opacity="0.24" d="M651.768 66.2154C668.898 51.6012 668.898 27.9559 651.768 13.3417C634.639 -1.27243 606.924 -1.27243 589.794 13.3417L564.773 34.6882L626.748 87.5619L651.768 66.2154Z" fill="url(#paint1_linear_752_64405)"/>
<path opacity="0.24" d="M626.646 87.5605L564.672 140.434L586.998 159.482C604.127 174.096 631.843 174.096 648.972 159.482C666.102 144.868 666.102 121.222 648.972 106.608L626.646 87.5605Z" fill="url(#paint2_linear_752_64405)"/>
<path opacity="0.24" d="M536.962 10.9606C519.832 -3.65354 492.117 -3.65354 474.988 10.9606C457.858 25.5748 457.858 49.2201 474.988 63.8343L502.799 87.5617L564.773 34.6881L536.962 10.9606Z" fill="url(#paint3_linear_752_64405)"/>
<path opacity="0.24" d="M564.768 34.7087L502.846 87.5381L564.768 140.367L626.69 87.5381L564.768 34.7087Z" fill="url(#paint4_linear_752_64405)"/>
<path opacity="0.24" d="M46.5566 42.0764C49.3474 40.1881 52.3306 38.4639 55.5063 36.9861C52.4268 38.3818 49.4436 40.106 46.5566 42.0764Z" fill="url(#paint5_linear_752_64405)"/>
<path opacity="0.24" d="M39.0488 48.0727C39.6262 47.498 40.2036 47.0054 40.781 46.4307C40.2036 46.9233 39.6262 47.498 39.0488 48.0727Z" fill="url(#paint6_linear_752_64405)"/>
<path opacity="0.24" d="M72.1543 31.7364C72.3468 31.7364 72.443 31.6543 72.6355 31.6543C72.443 31.6543 72.3468 31.6543 72.1543 31.7364Z" fill="url(#paint7_linear_752_64405)"/>
<path opacity="0.24" d="M94.2852 30.9968C95.3437 31.161 96.4985 31.2431 97.5571 31.4073C96.4985 31.2431 95.44 31.161 94.2852 30.9968Z" fill="url(#paint8_linear_752_64405)"/>
<path opacity="0.24" d="M87.8359 30.5C89.087 30.5 90.2417 30.5821 91.4928 30.6642C90.2417 30.5821 88.9907 30.5821 87.8359 30.5Z" fill="url(#paint9_linear_752_64405)"/>
<path opacity="0.24" d="M81.6797 30.5822C82.8345 30.5001 83.9893 30.418 85.2404 30.418C83.9893 30.5001 82.8345 30.5822 81.6797 30.5822Z" fill="url(#paint10_linear_752_64405)"/>
<path opacity="0.24" d="M100.641 32.0632C101.603 32.3095 102.662 32.4737 103.624 32.72C102.565 32.3916 101.603 32.2274 100.641 32.0632Z" fill="url(#paint11_linear_752_64405)"/>
<path opacity="0.24" d="M36.5443 50.448C36.448 50.5301 36.3518 50.6122 36.2555 50.7764L-110.308 207.427V361.532C-110.308 391.335 -138.6 415.555 -173.629 415.555C-180.173 415.555 -186.524 414.734 -192.395 413.092C-168.24 419.496 -140.814 413.174 -124.165 395.276L22.3017 238.626V84.4382C22.398 71.5482 27.6908 59.7255 36.5443 50.448Z" fill="url(#paint12_linear_752_64405)"/>
<path opacity="0.24" d="M106.703 33.5376C107.569 33.7839 108.532 34.1123 109.398 34.3586C108.532 34.1123 107.569 33.866 106.703 33.5376Z" fill="url(#paint13_linear_752_64405)"/>
<path opacity="0.24" d="M128.547 44.7859C129.124 45.1964 129.702 45.6069 130.183 46.0995C129.702 45.6069 129.028 45.1964 128.547 44.7859Z" fill="url(#paint14_linear_752_64405)"/>
<path opacity="0.24" d="M125.078 42.2425C124.597 41.9141 124.116 41.6678 123.635 41.3394C124.212 41.7499 124.79 42.0783 125.367 42.4888C125.367 42.4067 125.271 42.3246 125.078 42.2425Z" fill="url(#paint15_linear_752_64405)"/>
<path opacity="0.24" d="M118.246 38.2205C118.92 38.5489 119.69 38.9594 120.363 39.2878C119.69 38.8773 118.92 38.5489 118.246 38.2205Z" fill="url(#paint16_linear_752_64405)"/>
<path opacity="0.24" d="M148.176 76.3933C148.272 77.1322 148.464 77.789 148.561 78.528C148.464 77.8711 148.272 77.1322 148.176 76.3933Z" fill="url(#paint17_linear_752_64405)"/>
<path opacity="0.24" d="M135.764 51.5222C137.785 53.739 139.709 56.1199 141.249 58.6651C139.709 56.202 137.785 53.8211 135.764 51.5222Z" fill="url(#paint18_linear_752_64405)"/>
<path opacity="0.24" d="M112.568 35.5901C113.434 35.9185 114.204 36.2469 115.07 36.5753C114.204 36.2469 113.338 35.9185 112.568 35.5901Z" fill="url(#paint19_linear_752_64405)"/>
<path opacity="0.24" d="M148.758 80.9153C148.854 81.9005 148.95 82.9678 148.95 83.953C148.95 82.9678 148.854 81.9826 148.758 80.9153Z" fill="url(#paint20_linear_752_64405)"/>
<path opacity="0.24" d="M94.0918 415.476C110.74 413.587 125.368 406.198 135.28 395.525L135.087 395.689C124.502 407.019 109.682 413.752 94.0918 415.476Z" fill="url(#paint21_linear_752_64405)"/>
<path opacity="0.24" d="M148.947 207.762V84.4449C148.947 84.2807 148.947 84.1986 148.947 84.0344C149.043 96.0213 144.617 108.09 135.186 118.107L22.4004 238.632V361.539C22.4966 349.88 27.0196 338.222 36.1617 328.452L148.947 207.762Z" fill="url(#paint22_linear_752_64405)"/>
<path opacity="0.24" d="M148.562 78.6145C148.659 79.4355 148.659 80.1744 148.755 80.9955C148.659 80.1744 148.659 79.3534 148.562 78.6145Z" fill="url(#paint23_linear_752_64405)"/>
<path opacity="0.24" d="M147.602 73.2751C147.89 74.3425 147.986 75.3277 148.179 76.395C147.986 75.4098 147.794 74.3425 147.602 73.2751Z" fill="url(#paint24_linear_752_64405)"/>
<path opacity="0.24" d="M73.501 414.985C72.7311 414.821 71.9613 414.657 71.1914 414.575C72.0575 414.739 72.7311 414.903 73.501 414.985Z" fill="url(#paint25_linear_752_64405)"/>
<path opacity="0.24" d="M55.9861 409.729C55.4087 409.482 54.8313 409.154 54.2539 408.908C54.8313 409.154 55.4087 409.4 55.9861 409.729Z" fill="url(#paint26_linear_752_64405)"/>
<path opacity="0.24" d="M67.4375 413.754C66.7638 413.59 65.994 413.344 65.3203 413.18C66.0902 413.344 66.7638 413.59 67.4375 413.754Z" fill="url(#paint27_linear_752_64405)"/>
<path opacity="0.24" d="M85.6258 416.051C85.8183 416.051 85.9145 416.051 86.107 416.051C85.3371 416.051 84.471 415.969 83.7012 415.969C84.3748 415.969 84.9522 416.051 85.6258 416.051Z" fill="url(#paint28_linear_752_64405)"/>
<path opacity="0.24" d="M120.365 39.2869C121.52 39.9437 122.579 40.6005 123.733 41.3394C122.579 40.6826 121.52 39.9437 120.365 39.2869Z" fill="url(#paint29_linear_752_64405)"/>
<path opacity="0.24" d="M125.465 42.4871C126.523 43.226 127.582 44.047 128.544 44.7859C127.486 43.9649 126.523 43.226 125.465 42.4871Z" fill="url(#paint30_linear_752_64405)"/>
<path opacity="0.24" d="M114.977 36.6574C116.035 37.15 117.094 37.7247 118.152 38.2173C117.19 37.6426 116.131 37.15 114.977 36.6574Z" fill="url(#paint31_linear_752_64405)"/>
<path opacity="0.24" d="M72.6348 31.5693C73.8858 31.323 75.0406 31.2409 76.2916 31.0767C75.0406 31.2409 73.7896 31.4051 72.6348 31.5693Z" fill="url(#paint32_linear_752_64405)"/>
<path opacity="0.24" d="M55.5039 36.9889C60.7967 34.5258 66.3783 32.8017 72.1523 31.7344C66.282 32.8017 60.7005 34.6079 55.5039 36.9889Z" fill="url(#paint33_linear_752_64405)"/>
<path opacity="0.24" d="M85.6257 30.418C85.4332 30.418 85.337 30.418 85.1445 30.418C86.0106 30.418 86.8767 30.5001 87.8391 30.5001C87.0692 30.5001 86.3956 30.418 85.6257 30.418Z" fill="url(#paint34_linear_752_64405)"/>
<path opacity="0.24" d="M103.621 32.6323C104.68 32.8786 105.738 33.207 106.701 33.5354C105.642 33.2891 104.583 32.9607 103.621 32.6323Z" fill="url(#paint35_linear_752_64405)"/>
<path opacity="0.24" d="M141.248 58.6582C144.135 63.1738 146.156 68.0178 147.407 73.026C146.252 67.9357 144.135 63.0917 141.248 58.6582Z" fill="url(#paint36_linear_752_64405)"/>
<path opacity="0.24" d="M109.395 34.4443C110.453 34.7727 111.512 35.2654 112.57 35.6759C111.512 35.1833 110.453 34.7727 109.395 34.4443Z" fill="url(#paint37_linear_752_64405)"/>
<path opacity="0.24" d="M130.184 46.1021C130.953 46.7589 131.723 47.4978 132.493 48.2367C131.723 47.4978 131.05 46.7589 130.184 46.1021Z" fill="url(#paint38_linear_752_64405)"/>
<path opacity="0.24" d="M91.4941 30.6682C92.4565 30.7503 93.4188 30.8324 94.3811 30.9966C93.3226 30.9145 92.4565 30.7503 91.4941 30.6682Z" fill="url(#paint39_linear_752_64405)"/>
<path opacity="0.24" d="M148.947 84.0282C148.947 82.9609 148.851 81.9756 148.755 80.9904C148.658 80.1694 148.658 79.4305 148.562 78.6095C148.466 77.8705 148.273 77.1316 148.177 76.4748C147.985 75.4075 147.888 74.3402 147.6 73.3549C147.6 73.2728 147.504 73.1907 147.504 73.1086C146.252 68.1004 144.135 63.2564 141.345 58.7408C139.709 56.1956 137.88 53.8968 135.859 51.5979C135.378 51.1053 134.993 50.6127 134.512 50.1201C133.935 49.4633 133.261 48.8886 132.587 48.3139C131.818 47.5749 131.048 46.836 130.278 46.1792C129.7 45.6866 129.123 45.3582 128.642 44.8656C127.679 44.0446 126.621 43.3056 125.562 42.5667C124.985 42.1562 124.408 41.8278 123.83 41.4173C122.772 40.6784 121.617 40.0216 120.462 39.3647C119.788 38.9542 119.019 38.6258 118.345 38.2974C117.286 37.7227 116.228 37.2301 115.169 36.7375C114.399 36.4091 113.533 36.0807 112.667 35.7523C111.609 35.3417 110.55 34.9312 109.491 34.5207C108.625 34.1923 107.663 33.946 106.797 33.6997C105.738 33.3713 104.776 33.0429 103.717 32.7966C102.755 32.5503 101.793 32.3861 100.734 32.1398C99.7719 31.8935 98.7133 31.7293 97.751 31.5651C96.6924 31.4009 95.5376 31.2366 94.479 31.1545C93.5167 31.0724 92.5544 30.9082 91.5921 30.8261C90.4373 30.744 89.1862 30.744 87.9352 30.6619C87.0691 30.6619 86.203 30.5798 85.2407 30.5798C84.0859 30.5798 82.931 30.6619 81.68 30.744C80.7177 30.6619 79.7554 30.6619 78.793 30.744C77.9269 30.8261 77.1571 30.9903 76.291 31.0724C75.04 31.2366 73.7889 31.3188 72.6341 31.5651C72.4416 31.5651 72.3454 31.6472 72.153 31.6472C66.379 32.7145 60.7974 34.4386 55.5046 36.9017C52.3289 38.3795 49.3457 40.1037 46.5549 41.992C46.17 42.2383 45.7851 42.4846 45.4001 42.7309C44.534 43.3056 43.7642 43.9624 42.9943 44.6193C42.2244 45.2761 41.4546 45.7687 40.7809 46.4255C40.2035 46.9181 39.6261 47.4928 39.0487 48.0675C38.1826 48.8886 37.3165 49.6275 36.5467 50.5306C27.6932 59.8081 22.4004 71.6308 22.4004 84.5208V238.708L135.089 118.183C144.52 108.002 149.043 95.933 148.947 84.0282Z" fill="url(#paint40_linear_752_64405)"/>
<path opacity="0.24" d="M83.6975 415.966C82.3502 415.966 81.0992 415.883 79.752 415.801C81.0992 415.883 82.3502 415.883 83.6975 415.966Z" fill="url(#paint41_linear_752_64405)"/>
<path opacity="0.24" d="M89.4756 415.89C88.3208 415.972 87.2622 416.054 86.1074 416.054C87.2622 415.972 88.417 415.972 89.4756 415.89Z" fill="url(#paint42_linear_752_64405)"/>
<path opacity="0.24" d="M77.3474 415.558C76.0964 415.394 74.7491 415.23 73.498 415.065C74.8453 415.23 76.0964 415.394 77.3474 415.558Z" fill="url(#paint43_linear_752_64405)"/>
<path opacity="0.24" d="M94.0905 415.481C93.6094 415.563 93.1282 415.645 92.5508 415.645C93.032 415.645 93.5131 415.563 94.0905 415.481Z" fill="url(#paint44_linear_752_64405)"/>
<path opacity="0.24" d="M22.4039 362.032V361.457C22.2114 377.056 30.0063 392.574 45.0187 403.329C31.1611 393.477 22.4039 378.616 22.4039 362.032Z" fill="url(#paint45_linear_752_64405)"/>
<path opacity="0.24" d="M46.1736 404.227C47.136 404.884 48.1945 405.459 49.1568 406.116C47.9058 405.377 46.6548 404.638 45.5 403.735C45.6925 403.899 45.8849 404.063 46.1736 404.227Z" fill="url(#paint46_linear_752_64405)"/>
<path opacity="0.24" d="M71.2844 414.57C70.0333 414.324 68.7823 414.077 67.5312 413.749C68.6861 414.077 69.9371 414.324 71.2844 414.57Z" fill="url(#paint47_linear_752_64405)"/>
<path opacity="0.24" d="M384.333 42.6554C357.003 24.1004 317.162 27.8771 295.413 51.194L148.946 207.762V362.032C148.946 374.676 143.846 386.334 135.281 395.53L394.341 118.518C416.09 95.2828 411.567 61.2926 384.333 42.6554Z" fill="url(#paint48_linear_752_64405)"/>
<path opacity="0.24" d="M54.2545 408.83C53.0035 408.256 51.7525 407.599 50.5977 406.942C51.7525 407.681 53.0035 408.256 54.2545 408.83Z" fill="url(#paint49_linear_752_64405)"/>
<path opacity="0.24" d="M65.3215 413.174C64.0704 412.846 62.8194 412.435 61.5684 412.025C62.8194 412.435 64.0704 412.764 65.3215 413.174Z" fill="url(#paint50_linear_752_64405)"/>
<path opacity="0.24" d="M148.947 207.758L36.1617 328.366C27.0196 338.136 22.4966 349.876 22.4004 361.453V362.027C22.4004 378.612 31.1576 393.473 45.0152 403.325C45.2077 403.407 45.3039 403.571 45.4964 403.653C46.6512 404.474 47.9022 405.213 49.1532 406.034C49.6344 406.28 50.1156 406.609 50.5967 406.937C51.7515 407.594 53.0025 408.251 54.2536 408.826C54.831 409.072 55.4084 409.4 55.9858 409.647C57.2368 410.221 58.4878 410.714 59.7389 411.207C60.4125 411.453 60.9899 411.699 61.6635 411.945C62.9146 412.356 64.1656 412.766 65.4166 413.095C66.0903 413.341 66.8601 413.505 67.5338 413.67C68.7848 413.998 70.0358 414.244 71.2869 414.491C72.0567 414.655 72.8266 414.819 73.5964 414.901C74.8475 415.147 76.1947 415.23 77.4458 415.394C78.2156 415.476 78.9855 415.558 79.8516 415.64C81.1026 415.722 82.4499 415.804 83.7972 415.804C84.567 415.804 85.4331 415.886 86.203 415.886C87.3578 415.886 88.4163 415.804 89.5711 415.722C90.6297 415.64 91.5921 415.64 92.6506 415.558C93.1318 415.476 93.613 415.394 94.1904 415.394C109.78 413.587 124.6 406.937 135.186 395.607L135.378 395.443C143.943 386.248 149.043 374.589 149.043 361.945V207.758H148.947Z" fill="url(#paint51_linear_752_64405)"/>
</g>
<defs>
<linearGradient id="paint0_linear_752_64405" x1="565.514" y1="156.518" x2="464.812" y2="152.065" gradientUnits="userSpaceOnUse">
<stop stop-color="#257E9E"/>
<stop offset="1" stop-color="#55B799"/>
</linearGradient>
<linearGradient id="paint1_linear_752_64405" x1="665.358" y1="71.337" x2="564.655" y2="66.884" gradientUnits="userSpaceOnUse">
<stop stop-color="#257E9E"/>
<stop offset="1" stop-color="#55B799"/>
</linearGradient>
<linearGradient id="paint2_linear_752_64405" x1="662.542" y1="154.655" x2="564.557" y2="150.323" gradientUnits="userSpaceOnUse">
<stop stop-color="#257E9E"/>
<stop offset="1" stop-color="#55B799"/>
</linearGradient>
<linearGradient id="paint3_linear_752_64405" x1="565.537" y1="70.8833" x2="462.019" y2="66.3058" gradientUnits="userSpaceOnUse">
<stop stop-color="#257E9E"/>
<stop offset="1" stop-color="#55B799"/>
</linearGradient>
<linearGradient id="paint4_linear_752_64405" x1="615.356" y1="77.0823" x2="560.066" y2="137.177" gradientUnits="userSpaceOnUse">
<stop stop-color="#257E9E"/>
<stop offset="1" stop-color="#55B799"/>
</linearGradient>
<linearGradient id="paint5_linear_752_64405" x1="55.5729" y1="41.1068" x2="46.568" y2="40.5095" gradientUnits="userSpaceOnUse">
<stop stop-color="#257E9E"/>
<stop offset="1" stop-color="#55B799"/>
</linearGradient>
<linearGradient id="paint6_linear_752_64405" x1="40.7939" y1="47.7599" x2="39.0461" y2="47.6904" gradientUnits="userSpaceOnUse">
<stop stop-color="#257E9E"/>
<stop offset="1" stop-color="#55B799"/>
</linearGradient>
<linearGradient id="paint7_linear_752_64405" x1="72.639" y1="31.7208" x2="72.1754" y2="31.6183" gradientUnits="userSpaceOnUse">
<stop stop-color="#257E9E"/>
<stop offset="1" stop-color="#55B799"/>
</linearGradient>
<linearGradient id="paint8_linear_752_64405" x1="97.5814" y1="31.3291" x2="94.549" y2="30.4173" gradientUnits="userSpaceOnUse">
<stop stop-color="#257E9E"/>
<stop offset="1" stop-color="#55B799"/>
</linearGradient>
<linearGradient id="paint9_linear_752_64405" x1="91.52" y1="30.6329" x2="89.3536" y2="28.8128" gradientUnits="userSpaceOnUse">
<stop stop-color="#257E9E"/>
<stop offset="1" stop-color="#55B799"/>
</linearGradient>
<linearGradient id="paint10_linear_752_64405" x1="85.2668" y1="30.5509" x2="83.1111" y2="28.7874" gradientUnits="userSpaceOnUse">
<stop stop-color="#257E9E"/>
<stop offset="1" stop-color="#55B799"/>
</linearGradient>
<linearGradient id="paint11_linear_752_64405" x1="103.646" y1="32.5949" x2="100.717" y2="32.0931" gradientUnits="userSpaceOnUse">
<stop stop-color="#257E9E"/>
<stop offset="1" stop-color="#55B799"/>
</linearGradient>
<linearGradient id="paint12_linear_752_64405" x1="38.2477" y1="346.011" x2="-192.988" y2="340.541" gradientUnits="userSpaceOnUse">
<stop stop-color="#257E9E"/>
<stop offset="1" stop-color="#55B799"/>
</linearGradient>
<linearGradient id="paint13_linear_752_64405" x1="109.418" y1="34.2022" x2="106.736" y2="33.8702" gradientUnits="userSpaceOnUse">
<stop stop-color="#257E9E"/>
<stop offset="1" stop-color="#55B799"/>
</linearGradient>
<linearGradient id="paint14_linear_752_64405" x1="130.195" y1="45.8493" x2="128.545" y2="45.7718" gradientUnits="userSpaceOnUse">
<stop stop-color="#257E9E"/>
<stop offset="1" stop-color="#55B799"/>
</linearGradient>
<linearGradient id="paint15_linear_752_64405" x1="125.38" y1="42.2698" x2="123.635" y2="42.1706" gradientUnits="userSpaceOnUse">
<stop stop-color="#257E9E"/>
<stop offset="1" stop-color="#55B799"/>
</linearGradient>
<linearGradient id="paint16_linear_752_64405" x1="120.379" y1="39.0845" x2="118.251" y2="38.9253" gradientUnits="userSpaceOnUse">
<stop stop-color="#257E9E"/>
<stop offset="1" stop-color="#55B799"/>
</linearGradient>
<linearGradient id="paint17_linear_752_64405" x1="148.564" y1="78.1214" x2="148.175" y2="78.1187" gradientUnits="userSpaceOnUse">
<stop stop-color="#257E9E"/>
<stop offset="1" stop-color="#55B799"/>
</linearGradient>
<linearGradient id="paint18_linear_752_64405" x1="141.29" y1="57.3045" x2="135.751" y2="57.1441" gradientUnits="userSpaceOnUse">
<stop stop-color="#257E9E"/>
<stop offset="1" stop-color="#55B799"/>
</linearGradient>
<linearGradient id="paint19_linear_752_64405" x1="115.089" y1="36.3877" x2="112.583" y2="36.1476" gradientUnits="userSpaceOnUse">
<stop stop-color="#257E9E"/>
<stop offset="1" stop-color="#55B799"/>
</linearGradient>
<linearGradient id="paint20_linear_752_64405" x1="148.952" y1="83.3744" x2="148.757" y2="83.374" gradientUnits="userSpaceOnUse">
<stop stop-color="#257E9E"/>
<stop offset="1" stop-color="#55B799"/>
</linearGradient>
<linearGradient id="paint21_linear_752_64405" x1="135.586" y1="411.676" x2="94.2128" y2="408.453" gradientUnits="userSpaceOnUse">
<stop stop-color="#257E9E"/>
<stop offset="1" stop-color="#55B799"/>
</linearGradient>
<linearGradient id="paint22_linear_752_64405" x1="149.89" y1="308.681" x2="22.0389" y2="306.481" gradientUnits="userSpaceOnUse">
<stop stop-color="#257E9E"/>
<stop offset="1" stop-color="#55B799"/>
</linearGradient>
<linearGradient id="paint23_linear_752_64405" x1="148.756" y1="80.5419" x2="148.562" y2="80.5413" gradientUnits="userSpaceOnUse">
<stop stop-color="#257E9E"/>
<stop offset="1" stop-color="#55B799"/>
</linearGradient>
<linearGradient id="paint24_linear_752_64405" x1="148.183" y1="75.8008" x2="147.6" y2="75.7967" gradientUnits="userSpaceOnUse">
<stop stop-color="#257E9E"/>
<stop offset="1" stop-color="#55B799"/>
</linearGradient>
<linearGradient id="paint25_linear_752_64405" x1="73.5182" y1="414.907" x2="71.2847" y2="414.433" gradientUnits="userSpaceOnUse">
<stop stop-color="#257E9E"/>
<stop offset="1" stop-color="#55B799"/>
</linearGradient>
<linearGradient id="paint26_linear_752_64405" x1="55.999" y1="409.572" x2="54.2595" y2="409.434" gradientUnits="userSpaceOnUse">
<stop stop-color="#257E9E"/>
<stop offset="1" stop-color="#55B799"/>
</linearGradient>
<linearGradient id="paint27_linear_752_64405" x1="67.4532" y1="413.645" x2="65.3542" y2="413.353" gradientUnits="userSpaceOnUse">
<stop stop-color="#257E9E"/>
<stop offset="1" stop-color="#55B799"/>
</linearGradient>
<linearGradient id="paint28_linear_752_64405" x1="86.1249" y1="416.035" x2="85.031" y2="414.825" gradientUnits="userSpaceOnUse">
<stop stop-color="#257E9E"/>
<stop offset="1" stop-color="#55B799"/>
</linearGradient>
<linearGradient id="paint29_linear_752_64405" x1="123.758" y1="40.9485" x2="120.368" y2="40.7385" gradientUnits="userSpaceOnUse">
<stop stop-color="#257E9E"/>
<stop offset="1" stop-color="#55B799"/>
</linearGradient>
<linearGradient id="paint30_linear_752_64405" x1="128.567" y1="44.348" x2="125.463" y2="44.1912" gradientUnits="userSpaceOnUse">
<stop stop-color="#257E9E"/>
<stop offset="1" stop-color="#55B799"/>
</linearGradient>
<linearGradient id="paint31_linear_752_64405" x1="118.176" y1="37.9202" x2="114.985" y2="37.6751" gradientUnits="userSpaceOnUse">
<stop stop-color="#257E9E"/>
<stop offset="1" stop-color="#55B799"/>
</linearGradient>
<linearGradient id="paint32_linear_752_64405" x1="76.3189" y1="31.4754" x2="72.892" y2="30.5157" gradientUnits="userSpaceOnUse">
<stop stop-color="#257E9E"/>
<stop offset="1" stop-color="#55B799"/>
</linearGradient>
<linearGradient id="paint33_linear_752_64405" x1="72.2761" y1="35.988" x2="55.6884" y2="34.0053" gradientUnits="userSpaceOnUse">
<stop stop-color="#257E9E"/>
<stop offset="1" stop-color="#55B799"/>
</linearGradient>
<linearGradient id="paint34_linear_752_64405" x1="87.8591" y1="30.4844" x2="86.7841" y2="29.1534" gradientUnits="userSpaceOnUse">
<stop stop-color="#257E9E"/>
<stop offset="1" stop-color="#55B799"/>
</linearGradient>
<linearGradient id="paint35_linear_752_64405" x1="106.723" y1="33.3634" x2="103.662" y2="32.9696" gradientUnits="userSpaceOnUse">
<stop stop-color="#257E9E"/>
<stop offset="1" stop-color="#55B799"/>
</linearGradient>
<linearGradient id="paint36_linear_752_64405" x1="147.453" y1="70.2893" x2="141.23" y2="70.1887" gradientUnits="userSpaceOnUse">
<stop stop-color="#257E9E"/>
<stop offset="1" stop-color="#55B799"/>
</linearGradient>
<linearGradient id="paint37_linear_752_64405" x1="112.594" y1="35.4413" x2="109.415" y2="35.132" gradientUnits="userSpaceOnUse">
<stop stop-color="#257E9E"/>
<stop offset="1" stop-color="#55B799"/>
</linearGradient>
<linearGradient id="paint38_linear_752_64405" x1="132.51" y1="47.8301" x2="130.18" y2="47.735" gradientUnits="userSpaceOnUse">
<stop stop-color="#257E9E"/>
<stop offset="1" stop-color="#55B799"/>
</linearGradient>
<linearGradient id="paint39_linear_752_64405" x1="94.4026" y1="30.9341" x2="91.7741" y2="30.0623" gradientUnits="userSpaceOnUse">
<stop stop-color="#257E9E"/>
<stop offset="1" stop-color="#55B799"/>
</linearGradient>
<linearGradient id="paint40_linear_752_64405" x1="149.89" y1="199.065" x2="22.0683" y2="196.133" gradientUnits="userSpaceOnUse">
<stop stop-color="#257E9E"/>
<stop offset="1" stop-color="#55B799"/>
</linearGradient>
<linearGradient id="paint41_linear_752_64405" x1="83.7269" y1="415.934" x2="81.5381" y2="413.95" gradientUnits="userSpaceOnUse">
<stop stop-color="#257E9E"/>
<stop offset="1" stop-color="#55B799"/>
</linearGradient>
<linearGradient id="paint42_linear_752_64405" x1="89.5006" y1="416.023" x2="87.372" y2="414.375" gradientUnits="userSpaceOnUse">
<stop stop-color="#257E9E"/>
<stop offset="1" stop-color="#55B799"/>
</linearGradient>
<linearGradient id="paint43_linear_752_64405" x1="77.376" y1="415.464" x2="73.797" y2="414.409" gradientUnits="userSpaceOnUse">
<stop stop-color="#257E9E"/>
<stop offset="1" stop-color="#55B799"/>
</linearGradient>
<linearGradient id="paint44_linear_752_64405" x1="94.102" y1="415.614" x2="92.719" y2="415.124" gradientUnits="userSpaceOnUse">
<stop stop-color="#257E9E"/>
<stop offset="1" stop-color="#55B799"/>
</linearGradient>
<linearGradient id="paint45_linear_752_64405" x1="45.187" y1="395.353" x2="22.3385" y2="394.888" gradientUnits="userSpaceOnUse">
<stop stop-color="#257E9E"/>
<stop offset="1" stop-color="#55B799"/>
</linearGradient>
<linearGradient id="paint46_linear_752_64405" x1="49.1841" y1="405.662" x2="45.5008" y2="405.449" gradientUnits="userSpaceOnUse">
<stop stop-color="#257E9E"/>
<stop offset="1" stop-color="#55B799"/>
</linearGradient>
<linearGradient id="paint47_linear_752_64405" x1="71.3123" y1="414.414" x2="67.629" y2="413.778" gradientUnits="userSpaceOnUse">
<stop stop-color="#257E9E"/>
<stop offset="1" stop-color="#55B799"/>
</linearGradient>
<linearGradient id="paint48_linear_752_64405" x1="410.138" y1="326.073" x2="134.64" y2="318.297" gradientUnits="userSpaceOnUse">
<stop stop-color="#257E9E"/>
<stop offset="1" stop-color="#55B799"/>
</linearGradient>
<linearGradient id="paint49_linear_752_64405" x1="54.2817" y1="408.471" x2="50.6057" y2="408.202" gradientUnits="userSpaceOnUse">
<stop stop-color="#257E9E"/>
<stop offset="1" stop-color="#55B799"/>
</linearGradient>
<linearGradient id="paint50_linear_752_64405" x1="65.3494" y1="412.955" x2="61.6132" y2="412.495" gradientUnits="userSpaceOnUse">
<stop stop-color="#257E9E"/>
<stop offset="1" stop-color="#55B799"/>
</linearGradient>
<linearGradient id="paint51_linear_752_64405" x1="149.986" y1="376.243" x2="22.0682" y2="373.306" gradientUnits="userSpaceOnUse">
<stop stop-color="#257E9E"/>
<stop offset="1" stop-color="#55B799"/>
</linearGradient>
</defs>
</svg>
