<svg width="32" height="32" viewBox="0 0 32 32" fill="none" xmlns="http://www.w3.org/2000/svg">
<path d="M8.57608 7.03466H16.3681C17.0934 7.03466 17.6854 6.44266 17.6854 5.712V3.984C17.6854 3.25866 17.0934 2.66666 16.3681 2.66666H8.57608C7.84542 2.66666 7.25342 3.25866 7.25342 3.984V5.712C7.25342 6.44266 7.84542 7.03466 8.57608 7.03466Z" fill="white"/>
<path d="M28.3573 9.792C27.5466 8.98667 26.2346 8.98667 25.424 9.792L23.5146 11.7013L26.448 14.6347L28.3573 12.7253C29.168 11.9147 29.168 10.6027 28.3573 9.792Z" fill="white"/>
<path d="M11.6693 25.8187C11.6159 26.0053 11.6693 26.208 11.8079 26.3467C11.9093 26.448 12.0426 26.5013 12.1813 26.5013C12.2346 26.5013 12.2826 26.496 12.3359 26.48L12.8639 26.32C14.4479 25.856 15.9146 25.0293 17.1359 23.92L14.2293 21.0133C13.1253 22.2347 12.2933 23.696 11.8293 25.28L11.6693 25.8187Z" fill="white"/>
<path d="M14.9661 20.2555L22.76 12.4616L25.6898 15.3914L17.8959 23.1853L14.9661 20.2555Z" fill="white"/>
<path d="M21.904 26.8053V20.688L18.2773 24.3147C16.8533 25.7387 15.088 26.784 13.1627 27.3493L12.6453 27.504C12.496 27.552 12.3467 27.5733 12.1813 27.5733C11.7547 27.5733 11.3547 27.408 11.056 27.104C10.6453 26.6933 10.4853 26.0907 10.6453 25.5307L10.8107 24.9813C11.3707 23.0667 12.416 21.3013 13.84 19.8773L21.904 11.808V6.848C21.904 5.456 20.7733 4.32 19.376 4.32H18.752V5.71733C18.752 7.03467 17.6853 8.10667 16.368 8.10667H8.576C7.25867 8.10667 6.18667 7.03467 6.18667 5.71733V4.31467H5.56267C4.17067 4.31467 3.03467 5.45067 3.03467 6.84267V26.8053C3.03467 28.1973 4.17067 29.3333 5.56267 29.3333H19.376C20.7733 29.3333 21.904 28.1973 21.904 26.8053ZM6.56 9.50933H18.3733C18.6667 9.50933 18.9067 9.74933 18.9067 10.0427C18.9067 10.336 18.6667 10.576 18.3733 10.576H6.56C6.26667 10.576 6.02667 10.336 6.02667 10.0427C6.02667 9.74933 6.26667 9.50933 6.56 9.50933ZM6.56 13.216H18.3733C18.6667 13.216 18.9067 13.456 18.9067 13.7493C18.9067 14.0427 18.6667 14.2827 18.3733 14.2827H6.56C6.26667 14.2827 6.02667 14.0427 6.02667 13.7493C6.02667 13.456 6.26667 13.216 6.56 13.216ZM6.02667 17.4613C6.02667 17.168 6.26667 16.928 6.56 16.928H12.4693C12.7627 16.928 13.0027 17.168 13.0027 17.4613C13.0027 17.7547 12.7627 17.9947 12.4693 17.9947H6.56C6.26667 17.9947 6.02667 17.7547 6.02667 17.4613Z" fill="white"/>
</svg>
