<svg width="320" height="308" viewBox="0 0 320 308" fill="none" xmlns="http://www.w3.org/2000/svg">
<g clip-path="url(#clip0_880_48432)">
<path d="M253.686 80.0536C247.605 86.1346 247.605 95.9734 253.686 102.054C259.767 108.135 269.605 108.135 275.686 102.054L284.569 93.172L262.568 71.1714L253.686 80.0536Z" fill="#55B799"/>
<path d="M315.453 62.2913C321.534 56.2104 321.534 46.3716 315.453 40.2907C309.372 34.2097 299.533 34.2097 293.453 40.2907L284.57 49.1729L306.571 71.1736L315.453 62.2913Z" fill="#55B799"/>
<path d="M306.571 71.1714L284.57 93.172L292.496 101.098C298.577 107.179 308.416 107.179 314.497 101.098C320.578 95.0168 320.578 85.178 314.497 79.0971L306.571 71.1714Z" fill="#257E9E"/>
<path d="M274.694 39.2985C268.613 33.2176 258.774 33.2176 252.694 39.2985C246.613 45.3794 246.613 55.2182 252.694 61.2991L262.566 71.1721L284.567 49.1714L274.694 39.2985Z" fill="#257E9E"/>
<path d="M284.568 49.1931L262.586 71.1753L284.568 93.1575L306.55 71.1753L284.568 49.1931Z" fill="#0C5A5F"/>
<path d="M44.9179 121.046V69.6659C44.9179 57.2649 34.8742 47.187 22.439 47.187C10.0381 47.187 -0.0057215 57.2649 -0.0057215 69.6659V185.203C-0.0057215 185.306 -0.0057215 185.374 -0.0057215 185.477C-0.0740465 180.489 1.53159 175.433 4.87951 171.231L44.9179 121.046Z" fill="#257E9E"/>
<path d="M97.046 55.73C97.0118 55.7641 96.9777 55.7983 96.9435 55.8666L44.914 121.049V185.172C44.914 197.573 34.8703 207.651 22.4351 207.651C20.1121 207.651 17.8573 207.309 15.7734 206.626C24.3482 209.29 34.0845 206.66 40.0288 199.212L92.0241 134.03V69.8732C92.0241 64.5097 93.9031 59.5903 97.046 55.73Z" fill="#55B799"/>
<path d="M44.9164 185.173V121.05L4.91213 171.201C1.53004 175.403 -0.0414301 180.459 -0.0072676 185.447C-0.0072676 185.72 0.0268949 185.993 0.0268949 186.266C0.0610574 186.745 0.0610574 187.189 0.129382 187.667C0.163545 187.872 0.197707 188.043 0.23187 188.248C0.300195 188.795 0.36852 189.307 0.50517 189.854C0.50517 189.922 0.539332 189.956 0.539332 190.024C0.675982 190.673 0.846795 191.323 1.05177 191.937C1.12009 192.211 1.25674 192.484 1.35923 192.723C1.49588 193.133 1.63253 193.543 1.80334 193.919C3.20401 197.233 5.39041 200.136 8.1234 202.425C8.15757 202.46 8.19173 202.494 8.22589 202.528C8.70417 202.938 9.2166 203.314 9.72904 203.655C9.79737 203.724 9.89985 203.792 9.96818 203.826C10.5148 204.202 11.0614 204.509 11.608 204.817C11.6763 204.851 11.7446 204.885 11.813 204.919C12.3937 205.227 13.0086 205.534 13.6236 205.807C13.6577 205.842 13.6919 205.876 13.7602 205.91C14.4093 206.183 15.0926 206.422 15.7758 206.661C15.7758 206.661 15.7758 206.661 15.81 206.661C17.928 207.311 20.1486 207.686 22.4717 207.686C34.8726 207.652 44.9164 197.574 44.9164 185.173Z" fill="#0C5A5F"/>
<path d="M136.955 121.186V69.8734C136.955 69.8051 136.955 69.771 136.955 69.7026C136.989 74.6904 135.418 79.7122 132.07 83.8801L92.0312 134.031V185.172C92.0654 180.321 93.6711 175.47 96.9165 171.404L136.955 121.186Z" fill="#257E9E"/>
<path d="M136.955 69.7002C136.955 69.2561 136.921 68.8462 136.887 68.4362C136.852 68.0946 136.852 67.7871 136.818 67.4455C136.784 67.138 136.716 66.8306 136.682 66.5573C136.613 66.1132 136.579 65.6691 136.477 65.2591C136.477 65.2249 136.442 65.1908 136.442 65.1566C135.998 63.0727 135.247 61.0571 134.256 59.1782C133.675 58.1191 133.026 57.1626 132.309 56.206C132.138 56.0011 132.001 55.7961 131.831 55.5911C131.626 55.3178 131.386 55.0787 131.147 54.8395C130.874 54.5321 130.601 54.2246 130.327 53.9513C130.122 53.7463 129.917 53.6097 129.747 53.4047C129.405 53.0631 129.029 52.7556 128.653 52.4482C128.448 52.2774 128.243 52.1407 128.039 51.9699C127.663 51.6624 127.253 51.3891 126.843 51.1158C126.604 50.945 126.33 50.8084 126.091 50.6717C125.715 50.4326 125.34 50.2276 124.964 50.0226C124.691 49.886 124.383 49.7493 124.076 49.6127C123.7 49.4419 123.324 49.2711 122.948 49.1002C122.641 48.9636 122.299 48.8611 121.992 48.7586C121.616 48.622 121.274 48.4853 120.899 48.3828C120.557 48.2803 120.215 48.212 119.84 48.1095C119.498 48.007 119.122 47.9387 118.78 47.8704C118.405 47.8021 117.995 47.7337 117.619 47.6996C117.277 47.6654 116.936 47.5971 116.594 47.5629C116.184 47.5288 115.74 47.5288 115.296 47.4946C114.988 47.4946 114.681 47.4604 114.339 47.4604C113.929 47.4604 113.519 47.4946 113.075 47.5288C112.734 47.4946 112.392 47.4946 112.05 47.5288C111.743 47.5629 111.47 47.6313 111.162 47.6654C110.718 47.7337 110.274 47.7679 109.864 47.8704C109.796 47.8704 109.762 47.9046 109.693 47.9046C107.644 48.3487 105.662 49.0661 103.783 50.091C102.656 50.7059 101.597 51.4233 100.606 52.209C100.469 52.3115 100.333 52.414 100.196 52.5165C99.8886 52.7556 99.6153 53.0289 99.342 53.3022C99.0687 53.5755 98.7954 53.8147 98.5563 54.0538C98.3513 54.2588 98.1463 54.4979 97.9414 54.7371C97.6339 55.0787 97.3264 55.3861 97.0531 55.7619C93.9102 59.6223 92.0312 64.5417 92.0312 69.9052V134.062L132.036 83.9118C135.383 79.6757 136.989 74.6538 136.955 69.7002Z" fill="#0C5A5F"/>
<path d="M220.514 52.4873C210.812 44.7666 196.669 46.3381 188.948 56.0402L136.953 121.188V185.414C136.953 190.675 135.142 195.526 132.102 199.352L224.067 84.0876C231.788 74.3855 230.216 60.2422 220.514 52.4873Z" fill="#55B799"/>
<path d="M136.955 121.187L96.9165 171.372C93.6711 175.437 92.0654 180.322 92.0312 185.139V185.378C92.0312 192.279 95.14 198.463 100.059 202.562C100.128 202.596 100.162 202.665 100.23 202.699C100.64 203.04 101.084 203.348 101.528 203.689C101.699 203.792 101.87 203.929 102.041 204.065C102.451 204.339 102.895 204.612 103.339 204.851C103.544 204.953 103.749 205.09 103.954 205.193C104.398 205.432 104.842 205.637 105.286 205.842C105.525 205.944 105.73 206.047 105.97 206.149C106.414 206.32 106.858 206.491 107.302 206.627C107.541 206.73 107.814 206.798 108.053 206.867C108.498 207.003 108.942 207.106 109.386 207.208C109.659 207.276 109.932 207.345 110.206 207.379C110.65 207.481 111.128 207.516 111.572 207.584C111.845 207.618 112.119 207.652 112.426 207.686C112.87 207.721 113.349 207.755 113.827 207.755C114.1 207.755 114.408 207.789 114.681 207.789C115.091 207.789 115.467 207.755 115.877 207.721C116.252 207.686 116.594 207.686 116.97 207.652C117.141 207.618 117.311 207.584 117.516 207.584C123.051 206.832 128.312 204.065 132.07 199.351L132.138 199.282C135.178 195.456 136.989 190.605 136.989 185.344V121.187H136.955Z" fill="#0C5A5F"/>
<path d="M0.0625 227.769H12.156C25.616 227.769 33.9517 234.397 33.9517 248.54C33.9517 262.615 25.616 269.652 12.6343 269.652H0.0625V227.769ZM11.6094 262.922C19.8426 262.922 24.967 258.72 24.967 248.54C24.967 238.291 19.8426 234.465 11.6094 234.465H8.87642V262.922H11.6094Z" fill="#00234B"/>
<path d="M41.2685 237.949H48.4085L48.9893 243.552H49.2284C51.6881 239.418 55.241 237.164 58.6914 237.164C60.5362 237.164 61.5952 237.437 62.6201 237.847L61.0828 245.021C59.9554 244.679 58.9989 244.509 57.6324 244.509C55.0019 244.509 51.8589 246.148 49.9458 250.726V269.618H41.2344V237.949H41.2685Z" fill="#00234B"/>
<path d="M60.8047 265.009C60.8047 261.969 63.1277 259.578 66.2365 259.578C69.3795 259.578 71.7025 261.969 71.7025 265.009C71.7025 268.05 69.3795 270.441 66.2365 270.441C63.1277 270.441 60.8047 268.05 60.8047 265.009Z" fill="#00234B"/>
<path d="M89.3281 227.769H98.3129L101.832 248.198C102.481 252.605 103.198 257.08 103.847 261.556H104.086C104.975 257.08 105.931 252.571 106.888 248.198L112.012 227.769H119.528L124.652 248.198C125.609 252.503 126.497 257.012 127.453 261.556H127.761C128.41 257.046 129.059 252.571 129.742 248.198L133.193 227.769H141.597L133.432 269.618H122.466L117.512 248.95C116.795 245.67 116.146 242.459 115.599 239.282H115.36C114.779 242.459 114.164 245.67 113.447 248.95L108.63 269.652H97.8346L89.3281 227.769Z" fill="#00234B"/>
<path d="M146.039 228.353C146.039 225.654 148.26 223.843 151.266 223.843C154.238 223.843 156.459 225.654 156.459 228.353C156.459 230.949 154.238 232.862 151.266 232.862C148.225 232.862 146.039 230.949 146.039 228.353ZM146.859 237.952H155.57V269.621H146.859V237.952Z" fill="#00234B"/>
<path d="M162.094 265.177L176.989 244.543H163.768V237.984H187.955V242.459L172.992 263.093H188.433V269.653H162.094V265.177Z" fill="#00234B"/>
</g>
<defs>
<clipPath id="clip0_880_48432">
<rect width="320" height="306.813" fill="white" transform="translate(0 0.593262)"/>
</clipPath>
</defs>
</svg>
