<svg width="400" height="384" viewBox="0 0 400 384" fill="none" xmlns="http://www.w3.org/2000/svg">
<g clip-path="url(#clip0_880_48432)">
<path d="M317.107 99.5672C309.506 107.168 309.506 119.467 317.107 127.068C324.708 134.669 337.007 134.669 344.608 127.068L355.711 115.965L328.21 88.4644L317.107 99.5672Z" fill="#55B799"/>
<path d="M394.316 77.3643C401.918 69.7631 401.918 57.4646 394.316 49.8635C386.715 42.2623 374.417 42.2623 366.816 49.8635L355.713 60.9663L383.214 88.4671L394.316 77.3643Z" fill="#55B799"/>
<path d="M383.214 88.4644L355.713 115.965L365.62 125.872C373.221 133.473 385.52 133.473 393.121 125.872C400.722 118.271 400.722 105.973 393.121 98.3715L383.214 88.4644Z" fill="#257E9E"/>
<path d="M343.368 48.6232C335.767 41.0221 323.468 41.0221 315.867 48.6232C308.266 56.2244 308.266 68.5229 315.867 76.124L328.208 88.4652L355.709 60.9644L343.368 48.6232Z" fill="#257E9E"/>
<path d="M355.71 60.9915L328.232 88.4692L355.71 115.947L383.188 88.4692L355.71 60.9915Z" fill="#0C5A5F"/>
<path d="M56.1474 150.808V86.5825C56.1474 71.0813 43.5927 58.4839 28.0488 58.4839C12.5476 58.4839 -0.00715187 71.0813 -0.00715187 86.5825V231.004C-0.00715187 231.133 -0.00715187 231.218 -0.00715187 231.346C-0.0925581 225.111 1.91449 218.791 6.09939 213.539L56.1474 150.808Z" fill="#257E9E"/>
<path d="M121.307 69.1626C121.265 69.2053 121.222 69.248 121.179 69.3334L56.1425 150.811V230.965C56.1425 246.466 43.5878 259.063 28.0439 259.063C25.1401 259.063 22.3217 258.636 19.7168 257.782C30.4353 261.113 42.6057 257.825 50.036 248.516L115.03 167.038V86.8417C115.03 80.1373 117.379 73.988 121.307 69.1626Z" fill="#55B799"/>
<path d="M56.1455 230.967V150.813L6.14016 213.501C1.91256 218.754 -0.0517876 225.074 -0.0090845 231.308C-0.0090845 231.65 0.0336186 231.992 0.0336186 232.333C0.0763217 232.931 0.0763217 233.486 0.161728 234.084C0.204431 234.34 0.247134 234.554 0.289837 234.81C0.375243 235.493 0.46065 236.134 0.631462 236.817C0.631462 236.902 0.674165 236.945 0.674165 237.031C0.844978 237.842 1.05849 238.653 1.31471 239.422C1.40012 239.764 1.57093 240.105 1.69904 240.404C1.86985 240.917 2.04066 241.429 2.25418 241.899C4.00501 246.041 6.73801 249.671 10.1543 252.532C10.197 252.575 10.2397 252.617 10.2824 252.66C10.8802 253.172 11.5208 253.642 12.1613 254.069C12.2467 254.155 12.3748 254.24 12.4602 254.283C13.1435 254.752 13.8267 255.137 14.51 255.521C14.5954 255.564 14.6808 255.606 14.7662 255.649C15.4921 256.033 16.2608 256.418 17.0295 256.759C17.0722 256.802 17.1149 256.845 17.2003 256.888C18.0116 257.229 18.8657 257.528 19.7198 257.827C19.7198 257.827 19.7198 257.827 19.7625 257.827C22.41 258.638 25.1858 259.108 28.0896 259.108C43.5908 259.065 56.1455 246.468 56.1455 230.967Z" fill="#0C5A5F"/>
<path d="M171.194 150.982V86.8419C171.194 86.7565 171.194 86.7138 171.194 86.6284C171.236 92.8631 169.272 99.1404 165.087 104.35L115.039 167.038V230.965C115.082 224.901 117.089 218.837 121.146 213.756L171.194 150.982Z" fill="#257E9E"/>
<path d="M171.194 86.6254C171.194 86.0703 171.151 85.5578 171.108 85.0454C171.066 84.6184 171.066 84.234 171.023 83.807C170.98 83.4227 170.895 83.0383 170.852 82.6967C170.767 82.1416 170.724 81.5864 170.596 81.074C170.596 81.0313 170.553 80.9886 170.553 80.9459C169.998 78.341 169.058 75.8215 167.82 73.4729C167.094 72.1491 166.283 70.9534 165.386 69.7577C165.173 69.5015 165.002 69.2452 164.788 68.989C164.532 68.6474 164.233 68.3485 163.934 68.0496C163.592 67.6652 163.251 67.2809 162.909 66.9393C162.653 66.6831 162.397 66.5122 162.183 66.256C161.756 65.829 161.287 65.4447 160.817 65.0603C160.561 64.8468 160.304 64.676 160.048 64.4625C159.578 64.0782 159.066 63.7365 158.554 63.3949C158.255 63.1814 157.913 63.0106 157.614 62.8398C157.144 62.5409 156.675 62.2846 156.205 62.0284C155.863 61.8576 155.479 61.6868 155.095 61.516C154.625 61.3025 154.155 61.0889 153.685 60.8754C153.301 60.7046 152.874 60.5765 152.49 60.4484C152.02 60.2776 151.593 60.1068 151.123 59.9787C150.696 59.8506 150.269 59.7652 149.799 59.637C149.372 59.5089 148.903 59.4235 148.476 59.3381C148.006 59.2527 147.493 59.1673 147.024 59.1246C146.597 59.0819 146.17 58.9965 145.743 58.9538C145.23 58.9111 144.675 58.9111 144.12 58.8684C143.736 58.8684 143.351 58.8257 142.924 58.8257C142.412 58.8257 141.899 58.8684 141.344 58.9111C140.917 58.8684 140.49 58.8684 140.063 58.9111C139.679 58.9538 139.337 59.0392 138.953 59.0819C138.398 59.1673 137.843 59.21 137.33 59.3381C137.245 59.3381 137.202 59.3808 137.117 59.3808C134.554 59.936 132.078 60.8327 129.729 62.1138C128.32 62.8825 126.996 63.7792 125.758 64.7614C125.587 64.8895 125.416 65.0176 125.245 65.1457C124.861 65.4447 124.519 65.7863 124.178 66.1279C123.836 66.4695 123.494 66.7685 123.195 67.0674C122.939 67.3236 122.683 67.6225 122.427 67.9214C122.042 68.3485 121.658 68.7328 121.316 69.2025C117.388 74.028 115.039 80.1772 115.039 86.8816V167.078L165.044 104.39C169.229 99.0947 171.236 92.8174 171.194 86.6254Z" fill="#0C5A5F"/>
<path d="M275.643 65.1093C263.515 55.4584 245.836 57.4227 236.185 69.5504L171.191 150.985V231.267C171.191 237.843 168.928 243.907 165.127 248.69L280.084 104.61C289.735 92.482 287.77 74.8029 275.643 65.1093Z" fill="#55B799"/>
<path d="M171.194 150.984L121.146 213.715C117.089 218.796 115.082 224.903 115.039 230.924V231.223C115.039 239.849 118.925 247.578 125.074 252.703C125.16 252.745 125.202 252.831 125.288 252.874C125.8 253.301 126.355 253.685 126.911 254.112C127.124 254.24 127.338 254.411 127.551 254.582C128.064 254.923 128.619 255.265 129.174 255.564C129.43 255.692 129.686 255.863 129.942 255.991C130.498 256.29 131.053 256.546 131.608 256.802C131.907 256.93 132.163 257.058 132.462 257.187C133.017 257.4 133.572 257.614 134.127 257.784C134.426 257.912 134.768 257.998 135.067 258.083C135.622 258.254 136.177 258.382 136.732 258.51C137.074 258.596 137.415 258.681 137.757 258.724C138.312 258.852 138.91 258.895 139.465 258.98C139.807 259.023 140.148 259.065 140.533 259.108C141.088 259.151 141.686 259.194 142.284 259.194C142.625 259.194 143.01 259.236 143.351 259.236C143.864 259.236 144.333 259.194 144.846 259.151C145.316 259.108 145.743 259.108 146.212 259.065C146.426 259.023 146.639 258.98 146.896 258.98C153.813 258.041 160.39 254.582 165.087 248.689L165.173 248.603C168.973 243.82 171.236 237.757 171.236 231.18V150.984H171.194Z" fill="#0C5A5F"/>
<path d="M0.078125 284.211H15.195C32.0201 284.211 42.4396 292.496 42.4396 310.175C42.4396 327.769 32.0201 336.565 15.7929 336.565H0.078125V284.211ZM14.5118 328.153C24.8032 328.153 31.2087 322.9 31.2087 310.175C31.2087 297.364 24.8032 292.581 14.5118 292.581H11.0955V328.153H14.5118Z" fill="#00234B"/>
<path d="M51.5857 296.937H60.5106L61.2366 303.94H61.5355C64.6101 298.773 69.0512 295.955 73.3643 295.955C75.6702 295.955 76.994 296.296 78.2751 296.809L76.3535 305.776C74.9443 305.349 73.7486 305.136 72.0405 305.136C68.7523 305.136 64.8236 307.186 62.4323 312.908V336.523H51.543V296.937H51.5857Z" fill="#00234B"/>
<path d="M76.0059 330.762C76.0059 326.961 78.9097 323.972 82.7957 323.972C86.7243 323.972 89.6282 326.961 89.6282 330.762C89.6282 334.563 86.7243 337.552 82.7957 337.552C78.9097 337.552 76.0059 334.563 76.0059 330.762Z" fill="#00234B"/>
<path d="M111.66 284.211H122.891L127.289 309.748C128.101 315.257 128.998 320.851 129.809 326.445H130.108C131.218 320.851 132.414 315.214 133.61 309.748L140.015 284.211H149.41L155.815 309.748C157.011 315.128 158.121 320.765 159.317 326.445H159.701C160.513 320.808 161.324 315.214 162.178 309.748L166.491 284.211H176.996L166.79 336.523H153.082L146.89 310.687C145.993 306.588 145.182 302.574 144.499 298.602H144.2C143.474 302.574 142.705 306.588 141.809 310.687L135.787 336.565H122.293L111.66 284.211Z" fill="#00234B"/>
<path d="M182.549 284.941C182.549 281.567 185.325 279.304 189.082 279.304C192.798 279.304 195.573 281.567 195.573 284.941C195.573 288.186 192.798 290.578 189.082 290.578C185.282 290.578 182.549 288.186 182.549 284.941ZM183.574 296.941H194.463V336.526H183.574V296.941Z" fill="#00234B"/>
<path d="M202.617 330.972L221.236 305.179H204.71V296.98H234.943V302.574L216.239 328.367H235.541V336.566H202.617V330.972Z" fill="#00234B"/>
</g>
<defs>
<clipPath id="clip0_880_48432">
<rect width="400" height="383.517" fill="white" transform="translate(0 0.241699)"/>
</clipPath>
</defs>
</svg>
