<svg width="80" height="77" viewBox="0 0 80 77" fill="none" xmlns="http://www.w3.org/2000/svg">
<g clip-path="url(#clip0_880_47539)">
<path d="M63.4214 19.8651C61.9012 21.3853 61.9012 23.845 63.4214 25.3653C64.9417 26.8855 67.4013 26.8855 68.9216 25.3653L71.1421 23.1447L65.642 17.6445L63.4214 19.8651Z" fill="#55B799"/>
<path d="M78.8633 15.4245C80.3835 13.9043 80.3835 11.4446 78.8633 9.92435C77.3431 8.40412 74.8834 8.40412 73.3631 9.92435L71.1426 12.1449L76.6427 17.6451L78.8633 15.4245Z" fill="#55B799"/>
<path d="M76.6427 17.6445L71.1426 23.1447L73.124 25.1261C74.6442 26.6463 77.1039 26.6463 78.6242 25.1261C80.1444 23.6059 80.1444 21.1462 78.6242 19.626L76.6427 17.6445Z" fill="#257E9E"/>
<path d="M68.6735 9.67631C67.1533 8.15608 64.6936 8.15608 63.1734 9.67631C61.6531 11.1965 61.6531 13.6562 63.1734 15.1765L65.6416 17.6447L71.1418 12.1445L68.6735 9.67631Z" fill="#257E9E"/>
<path d="M71.142 12.15L65.6465 17.6455L71.142 23.1411L76.6376 17.6455L71.142 12.15Z" fill="#0C5A5F"/>
<path d="M11.2295 30.1133V17.2682C11.2295 14.1679 8.71854 11.6484 5.60976 11.6484C2.50951 11.6484 -0.00143037 14.1679 -0.00143037 17.2682V46.1526C-0.00143037 46.1782 -0.00143037 46.1953 -0.00143037 46.2209C-0.0185116 44.9739 0.382897 43.7099 1.21988 42.6594L11.2295 30.1133Z" fill="#257E9E"/>
<path d="M24.2615 13.7842C24.253 13.7927 24.2444 13.8013 24.2359 13.8183L11.2285 30.1138V46.1446C11.2285 49.2448 8.71757 51.7643 5.60878 51.7643C5.02802 51.7643 4.46434 51.6789 3.94336 51.5081C6.08706 52.1743 8.52113 51.5166 10.0072 49.6548L23.006 33.3593V17.32C23.006 15.9791 23.4758 14.7493 24.2615 13.7842Z" fill="#55B799"/>
<path d="M11.2291 46.145V30.1143L1.22803 42.6519C0.382511 43.7024 -0.0103575 44.9664 -0.0018169 46.2133C-0.0018169 46.2817 0.00672372 46.35 0.00672372 46.4183C0.0152643 46.5379 0.0152643 46.6489 0.0323456 46.7685C0.0408862 46.8197 0.0494268 46.8624 0.0579675 46.9137C0.0750487 47.0503 0.0921299 47.1784 0.126292 47.3151C0.126292 47.3322 0.134833 47.3407 0.134833 47.3578C0.168996 47.52 0.211699 47.6823 0.262942 47.836C0.280024 47.9044 0.314186 47.9727 0.339808 48.0325C0.37397 48.135 0.408133 48.2375 0.450836 48.3314C0.801002 49.1598 1.3476 49.8858 2.03085 50.458C2.03939 50.4666 2.04793 50.4751 2.05647 50.4836C2.17604 50.5861 2.30415 50.6801 2.43226 50.7655C2.44934 50.7826 2.47496 50.7996 2.49204 50.8082C2.62869 50.9021 2.76534 50.979 2.90199 51.0559C2.91908 51.0644 2.93616 51.0729 2.95324 51.0815C3.09843 51.1584 3.25216 51.2352 3.40589 51.3035C3.41443 51.3121 3.42297 51.3206 3.44005 51.3292C3.60233 51.3975 3.77314 51.4573 3.94395 51.5171C3.94395 51.5171 3.94395 51.5171 3.95249 51.5171C4.48201 51.6793 5.03715 51.7733 5.61791 51.7733C8.71816 51.7647 11.2291 49.2452 11.2291 46.145Z" fill="#0C5A5F"/>
<path d="M34.2387 30.1481V17.32C34.2387 17.303 34.2387 17.2944 34.2387 17.2773C34.2473 18.5243 33.8544 19.7797 33.0174 20.8217L23.0078 33.3593V46.1446C23.0164 44.9319 23.4178 43.7191 24.2291 42.7028L34.2387 30.1481Z" fill="#257E9E"/>
<path d="M34.2387 17.2767C34.2387 17.1657 34.2302 17.0632 34.2216 16.9607C34.2131 16.8753 34.2131 16.7985 34.2046 16.7131C34.196 16.6362 34.1789 16.5593 34.1704 16.491C34.1533 16.38 34.1448 16.2689 34.1192 16.1665C34.1192 16.1579 34.1106 16.1494 34.1106 16.1408C33.9996 15.6199 33.8117 15.116 33.564 14.6462C33.4188 14.3815 33.2566 14.1423 33.0772 13.9032C33.0345 13.852 33.0003 13.8007 32.9576 13.7495C32.9064 13.6811 32.8466 13.6214 32.7868 13.5616C32.7185 13.4847 32.6502 13.4078 32.5818 13.3395C32.5306 13.2883 32.4794 13.2541 32.4367 13.2029C32.3513 13.1175 32.2573 13.0406 32.1634 12.9637C32.1121 12.921 32.0609 12.8869 32.0096 12.8442C31.9157 12.7673 31.8132 12.699 31.7107 12.6306C31.6509 12.5879 31.5826 12.5538 31.5228 12.5196C31.4289 12.4598 31.3349 12.4086 31.241 12.3573C31.1726 12.3232 31.0958 12.289 31.0189 12.2549C30.925 12.2122 30.831 12.1694 30.7371 12.1267C30.6602 12.0926 30.5748 12.067 30.4979 12.0413C30.404 12.0072 30.3186 11.973 30.2246 11.9474C30.1392 11.9218 30.0538 11.9047 29.9599 11.8791C29.8745 11.8534 29.7805 11.8364 29.6951 11.8193C29.6012 11.8022 29.4987 11.7851 29.4047 11.7766C29.3193 11.768 29.2339 11.751 29.1485 11.7424C29.046 11.7339 28.935 11.7339 28.824 11.7253C28.7471 11.7253 28.6702 11.7168 28.5848 11.7168C28.4824 11.7168 28.3799 11.7253 28.2688 11.7339C28.1834 11.7253 28.098 11.7253 28.0126 11.7339C27.9357 11.7424 27.8674 11.7595 27.7906 11.768C27.6795 11.7851 27.5685 11.7937 27.466 11.8193C27.4489 11.8193 27.4404 11.8278 27.4233 11.8278C26.9109 11.9389 26.4155 12.1182 25.9458 12.3744C25.6639 12.5282 25.3992 12.7075 25.1515 12.9039C25.1173 12.9296 25.0832 12.9552 25.049 12.9808C24.9722 13.0406 24.9038 13.1089 24.8355 13.1772C24.7672 13.2456 24.6989 13.3054 24.6391 13.3651C24.5878 13.4164 24.5366 13.4762 24.4853 13.5359C24.4085 13.6214 24.3316 13.6982 24.2633 13.7922C23.4775 14.7573 23.0078 15.9871 23.0078 17.328V33.3673L33.0089 20.8296C33.8459 19.7706 34.2473 18.5151 34.2387 17.2767Z" fill="#0C5A5F"/>
<path d="M55.1285 12.9735C52.703 11.0433 49.1672 11.4362 47.237 13.8617L34.2382 30.1487V46.2051C34.2382 47.5203 33.7855 48.7331 33.0254 49.6896L56.0167 20.8736C57.9469 18.4481 57.5541 14.9122 55.1285 12.9735Z" fill="#55B799"/>
<path d="M34.2387 30.1484L24.2291 42.6946C23.4178 43.7109 23.0164 44.9323 23.0078 46.1365V46.1963C23.0078 47.9215 23.785 49.4673 25.0149 50.4922C25.0319 50.5007 25.0405 50.5178 25.0576 50.5264C25.16 50.6118 25.2711 50.6886 25.3821 50.774C25.4248 50.7997 25.4675 50.8338 25.5102 50.868C25.6127 50.9363 25.7237 51.0046 25.8348 51.0644C25.886 51.09 25.9372 51.1242 25.9885 51.1498C26.0995 51.2096 26.2105 51.2609 26.3216 51.3121C26.3814 51.3377 26.4326 51.3633 26.4924 51.389C26.6034 51.4317 26.7144 51.4744 26.8255 51.5085C26.8853 51.5342 26.9536 51.5512 27.0134 51.5683C27.1244 51.6025 27.2354 51.6281 27.3464 51.6537C27.4148 51.6708 27.4831 51.6879 27.5514 51.6964C27.6624 51.722 27.782 51.7306 27.893 51.7477C27.9614 51.7562 28.0297 51.7648 28.1066 51.7733C28.2176 51.7818 28.3372 51.7904 28.4567 51.7904C28.5251 51.7904 28.6019 51.7989 28.6702 51.7989C28.7727 51.7989 28.8667 51.7904 28.9692 51.7818C29.0631 51.7733 29.1485 51.7733 29.2425 51.7648C29.2852 51.7562 29.3279 51.7477 29.3791 51.7477C30.7627 51.5598 32.078 50.868 33.0174 49.6894L33.0345 49.6723C33.7946 48.7158 34.2473 47.503 34.2473 46.1877V30.1484H34.2387Z" fill="#0C5A5F"/>
<path d="M0.015625 56.7939H3.039C6.40401 56.7939 8.48792 58.4508 8.48792 61.9866C8.48792 65.5054 6.40401 67.2647 3.15857 67.2647H0.015625V56.7939ZM2.90236 65.5822C4.96064 65.5822 6.24174 64.5318 6.24174 61.9866C6.24174 59.4245 4.96064 58.4679 2.90236 58.4679H2.21911V65.5822H2.90236Z" fill="white"/>
<path d="M10.3171 59.339H12.1021L12.2473 60.7397H12.3071C12.922 59.7063 13.8102 59.1426 14.6729 59.1426C15.134 59.1426 15.3988 59.2109 15.655 59.3134L15.2707 61.1069C14.9889 61.0215 14.7497 60.9788 14.4081 60.9788C13.7505 60.9788 12.9647 61.3888 12.4865 62.5332V67.2562H10.3086V59.339H10.3171Z" fill="white"/>
<path d="M15.2012 66.1041C15.2012 65.3439 15.7819 64.7461 16.5591 64.7461C17.3449 64.7461 17.9256 65.3439 17.9256 66.1041C17.9256 66.8642 17.3449 67.462 16.5591 67.462C15.7819 67.462 15.2012 66.8642 15.2012 66.1041Z" fill="white"/>
<path d="M22.332 56.7939H24.5782L25.4579 61.9012C25.6202 63.003 25.7995 64.1218 25.9618 65.2406H26.0216C26.2436 64.1218 26.4828 62.9944 26.7219 61.9012L28.003 56.7939H29.8819L31.163 61.9012C31.4022 62.9774 31.6242 64.1047 31.8634 65.2406H31.9402C32.1025 64.1133 32.2648 62.9944 32.4356 61.9012L33.2982 56.7939H35.3992L33.358 67.2562H30.6164L29.378 62.0891C29.1987 61.2692 29.0364 60.4664 28.8998 59.6721H28.84C28.6948 60.4664 28.5411 61.2692 28.3617 62.0891L27.1575 67.2647H24.4586L22.332 56.7939Z" fill="white"/>
<path d="M36.5098 56.9399C36.5098 56.2652 37.0649 55.8125 37.8165 55.8125C38.5595 55.8125 39.1147 56.2652 39.1147 56.9399C39.1147 57.5889 38.5595 58.0672 37.8165 58.0672C37.0564 58.0672 36.5098 57.5889 36.5098 56.9399ZM36.7147 59.3398H38.8926V67.2569H36.7147V59.3398Z" fill="white"/>
<path d="M40.5234 66.146L44.2471 60.9875H40.9419V59.3477H46.9887V60.4665L43.2479 65.625H47.1083V67.2648H40.5234V66.146Z" fill="white"/>
</g>
<defs>
<clipPath id="clip0_880_47539">
<rect width="80" height="76.7033" fill="white"/>
</clipPath>
</defs>
</svg>
