<svg width="24" height="24" viewBox="0 0 24 24" fill="none" xmlns="http://www.w3.org/2000/svg">
<path d="M5.60002 19.8539C6.08208 20 6.73319 20 7.84 20H16.16C17.2668 20 17.9179 20 18.4 19.8539M5.60002 19.8539C5.49666 19.8226 5.40107 19.7846 5.31042 19.7384C4.85883 19.5083 4.49168 19.1412 4.26158 18.6896C4 18.1762 4 17.5041 4 16.16V7.84C4 6.49587 4 5.82381 4.26158 5.31042C4.49168 4.85883 4.85883 4.49168 5.31042 4.26158C5.82381 4 6.49587 4 7.84 4H16.16C17.5041 4 18.1762 4 18.6896 4.26158C19.1412 4.49168 19.5083 4.85883 19.7384 5.31042C20 5.82381 20 6.49587 20 7.84V16.16C20 17.5041 20 18.1762 19.7384 18.6896C19.5083 19.1412 19.1412 19.5083 18.6896 19.7384C18.5989 19.7846 18.5033 19.8226 18.4 19.8539M5.60002 19.8539C5.60028 19.2065 5.60416 18.8639 5.66149 18.5757C5.91399 17.3063 6.9063 15.8081 8.17571 15.5556C8.48483 15.4941 8.85655 15.4941 9.6 15.4941H14.4C15.1434 15.4941 15.5152 15.4941 15.8243 15.5556C17.0937 15.8081 18.086 17.3063 18.3385 18.5757C18.3958 18.8639 18.3997 19.2065 18.4 19.8539M15.2 10C15.2 11.7673 13.7673 13.2 12 13.2C10.2327 13.2 8.8 11.7673 8.8 10C8.8 8.23269 10.2327 6.8 12 6.8C13.7673 6.8 15.2 8.23269 15.2 10Z" stroke="#0A6345" stroke-width="1.2" stroke-linecap="round" stroke-linejoin="round"/>
</svg>
