<svg width="20" height="20" viewBox="0 0 20 20" fill="none" xmlns="http://www.w3.org/2000/svg">
<rect width="20" height="20" rx="10" fill="white"/>
<path d="M11.6667 15V12C11.6667 11.6889 11.6667 11.5333 11.6061 11.4144C11.5529 11.3099 11.4679 11.2249 11.3633 11.1717C11.2445 11.1111 11.0889 11.1111 10.7778 11.1111H9.22222C8.91108 11.1111 8.75551 11.1111 8.63667 11.1717C8.53214 11.2249 8.44715 11.3099 8.39389 11.4144C8.33333 11.5333 8.33333 11.6889 8.33333 12V15M5 7.22222C5 8.1427 5.74619 8.88889 6.66667 8.88889C7.58714 8.88889 8.33333 8.1427 8.33333 7.22222C8.33333 8.1427 9.07953 8.88889 10 8.88889C10.9205 8.88889 11.6667 8.1427 11.6667 7.22222C11.6667 8.1427 12.4129 8.88889 13.3333 8.88889C14.2538 8.88889 15 8.1427 15 7.22222M6.77778 15H13.2222C13.8445 15 14.1556 15 14.3933 14.8789C14.6024 14.7724 14.7724 14.6024 14.8789 14.3933C15 14.1556 15 13.8445 15 13.2222V6.77778C15 6.1555 15 5.84436 14.8789 5.60668C14.7724 5.39761 14.6024 5.22763 14.3933 5.1211C14.1556 5 13.8445 5 13.2222 5H6.77778C6.1555 5 5.84436 5 5.60668 5.1211C5.39761 5.22763 5.22763 5.39761 5.1211 5.60668C5 5.84436 5 6.1555 5 6.77778V13.2222C5 13.8445 5 14.1556 5.1211 14.3933C5.22763 14.6024 5.39761 14.7724 5.60668 14.8789C5.84436 15 6.1555 15 6.77778 15Z" stroke="#00A2A0" stroke-linecap="round" stroke-linejoin="round"/>
</svg>
