<svg width="20" height="20" viewBox="0 0 20 20" fill="none" xmlns="http://www.w3.org/2000/svg">
<path d="M16.6176 10.4V5.84C16.6176 4.49587 16.6176 3.82381 16.3291 3.31042C16.0754 2.85883 15.6704 2.49168 15.1723 2.26158C14.6061 2 13.8648 2 12.3824 2H6.73529C5.2528 2 4.51156 2 3.94532 2.26158C3.44724 2.49168 3.04229 2.85883 2.78851 3.31042C2.5 3.82381 2.5 4.49587 2.5 5.84V14.16C2.5 15.5041 2.5 16.1762 2.78851 16.6896C3.04229 17.1412 3.44724 17.5083 3.94532 17.7384C4.51156 18 5.2528 18 6.73529 18H9.55882M11.3235 9.2H6.02941M7.79412 12.4H6.02941M13.0882 6H6.02941M11.7647 15.6L13.5294 17.2L17.5 13.6" stroke="#0A6345" stroke-linecap="round" stroke-linejoin="round"/>
</svg>
