<svg width="15" height="12" viewBox="0 0 15 12" fill="none" xmlns="http://www.w3.org/2000/svg">
<path d="M1.21436 7.96429V6.13415C1.21436 5.2451 1.94189 4.52439 2.83936 4.52439M1.21436 7.96429C1.21436 8.85333 1.94189 9.57404 2.83936 9.57404H12.5894C13.4868 9.57404 14.2144 8.85333 14.2144 7.96429M1.21436 7.96429V10.4268C1.21436 11.0195 1.69938 11.5 2.29769 11.5H3.38102C3.97933 11.5 4.46436 11.0195 4.46436 10.4268V9.57404M14.2144 7.96429V6.13415C14.2144 5.2451 13.4868 4.52439 12.5894 4.52439H2.83936M14.2144 7.96429V10.4268C14.2144 11.0195 13.7293 11.5 13.131 11.5H12.0477C11.4494 11.5 10.9644 11.0195 10.9644 10.4268V9.57404M2.83936 4.52439L3.70824 1.29665C3.8347 0.826871 4.26419 0.5 4.75499 0.5H10.7252C11.1915 0.5 11.6055 0.795583 11.7529 1.2338L12.8602 4.52439M3.11019 6.93902H5.00602M10.4227 6.93902H12.3185" stroke="white" stroke-linecap="round" stroke-linejoin="round"/>
</svg>
