<svg width="24" height="24" viewBox="0 0 24 24" fill="none" xmlns="http://www.w3.org/2000/svg">
<path d="M16.5239 7.53832V6.14485C16.7368 5.98158 16.8743 5.72558 16.8743 5.43805V4.72414C16.8743 4.23146 16.4728 3.83203 15.9776 3.83203H14.1467C14.012 3.83203 13.9029 3.94065 13.9029 4.07461C13.9029 4.20856 14.012 4.31718 14.1467 4.31718H15.9776C16.2035 4.31718 16.3866 4.4994 16.3866 4.72417V5.43809C16.3866 5.66286 16.2035 5.84505 15.9776 5.84505H8.02238C7.79646 5.84505 7.61331 5.66283 7.61331 5.43805V4.72414C7.61331 4.49937 7.79646 4.31718 8.02235 4.31718H14.1502C14.2849 4.31718 14.394 4.20856 14.394 4.07461C14.394 3.94065 14.2849 3.83203 14.1502 3.83203H8.02238C7.52716 3.83203 7.1257 4.23146 7.1257 4.72417V5.43809C7.1257 5.72558 7.26325 5.98161 7.47612 6.14488V7.53832C5.90088 8.86626 5 10.7965 5 12.8529C5 14.9094 5.90088 16.8396 7.47612 18.1675V19.1419C7.47612 19.7071 7.93664 20.1654 8.50477 20.1654H15.4952C16.0633 20.1654 16.5239 19.7072 16.5239 19.1419V18.1675C18.0991 16.8396 19 14.9093 19 12.8529C19 10.7965 18.0991 8.86623 16.5239 7.53832ZM7.96373 6.33023H8.02238H15.9776H16.0362V7.40934H7.96373V6.33023ZM15.9538 9.21054C15.9538 9.93622 15.3604 10.5266 14.6311 10.5266C13.9017 10.5266 13.3083 9.93622 13.3083 9.21054V7.89449H14.6311C15.3604 7.89449 15.9538 8.48485 15.9538 9.21054ZM12.8207 7.89449V9.21054C12.8207 9.93622 12.2273 10.5266 11.498 10.5266C10.7686 10.5266 10.1752 9.93622 10.1752 9.21054C10.1752 8.48485 10.7686 7.89449 11.498 7.89449H12.8207ZM16.191 17.8113H9.39854C9.26391 17.8113 9.15474 17.92 9.15474 18.0539C9.15474 18.1879 9.26391 18.2965 9.39854 18.2965H16.0362V19.1419C16.0362 19.4391 15.794 19.6802 15.4951 19.6802H8.5048C8.206 19.6802 7.96373 19.4392 7.96373 19.1419V18.2965H9.75835C9.89298 18.2965 10.0022 18.1879 10.0022 18.0539C10.0022 17.92 9.89298 17.8113 9.75835 17.8113H7.80896C6.3329 16.5754 5.48762 14.7734 5.48762 12.8529C5.48762 10.9324 6.33287 9.13043 7.80896 7.89446H10.2638C9.88961 8.24202 9.66296 8.74481 9.68973 9.29884C9.73286 10.1917 10.4416 10.927 11.3366 11.0047C11.8472 11.049 12.3188 10.8805 12.6729 10.5792C12.433 11.7003 11.9357 12.6523 11.4419 13.1463C11.347 13.2413 11.3438 13.4044 11.4409 13.4972C11.488 13.5423 11.5489 13.5649 11.6098 13.5649C11.6722 13.5649 11.7346 13.5413 11.7823 13.4939C12.2002 13.0781 12.5829 12.4342 12.8599 11.681C12.9381 11.4681 13.0062 11.2512 13.0645 11.0321C13.1227 11.2512 13.1908 11.4682 13.2691 11.681C13.5461 12.4342 13.9288 13.0781 14.3467 13.4939C14.3943 13.5413 14.4567 13.5649 14.5191 13.5649C14.58 13.5649 14.641 13.5423 14.6881 13.4972C14.7851 13.4044 14.7819 13.2412 14.687 13.1463C14.1933 12.6522 13.696 11.7003 13.4561 10.5792C13.8102 10.8805 14.2818 11.049 14.7924 11.0047C15.6874 10.927 16.3961 10.1918 16.4393 9.29893C16.466 8.74491 16.2394 8.24205 15.8652 7.89449H16.191C17.667 9.13047 18.5123 10.9324 18.5123 12.8529C18.5123 14.7734 17.6671 16.5754 16.191 17.8113Z" fill="#232323" stroke="#232323" stroke-width="0.7"/>
</svg>
