<svg width="32" height="32" viewBox="0 0 32 32" fill="none" xmlns="http://www.w3.org/2000/svg">
<path d="M13.2 12.4V9.88C13.2 8.87191 13.2 8.36786 13.3526 7.98282C13.4868 7.64413 13.701 7.36876 13.9644 7.19619C14.2639 7 14.6559 7 15.44 7H20.76C21.5441 7 21.9361 7 22.2356 7.19619C22.499 7.36876 22.7132 7.64413 22.8474 7.98282C23 8.36786 23 8.87191 23 9.88V16.72C23 17.7281 23 18.2321 22.8474 18.6172C22.7132 18.9559 22.499 19.2312 22.2356 19.4038C21.9361 19.6 21.5441 19.6 20.76 19.6H18.8M11.24 25H16.56C17.3441 25 17.7361 25 18.0356 24.8038C18.299 24.6312 18.5132 24.3559 18.6474 24.0172C18.8 23.6321 18.8 23.1281 18.8 22.12V15.28C18.8 14.2719 18.8 13.7679 18.6474 13.3828C18.5132 13.0441 18.299 12.7688 18.0356 12.5962C17.7361 12.4 17.3441 12.4 16.56 12.4H11.24C10.4559 12.4 10.0639 12.4 9.76441 12.5962C9.50099 12.7688 9.28681 13.0441 9.15259 13.3828C9 13.7679 9 14.2719 9 15.28V22.12C9 23.1281 9 23.6321 9.15259 24.0172C9.28681 24.3559 9.50099 24.6312 9.76441 24.8038C10.0639 25 10.4559 25 11.24 25Z" stroke="#757575" stroke-linecap="round" stroke-linejoin="round"/>
</svg>
