<svg width="21" height="20" viewBox="0 0 21 20" fill="none" xmlns="http://www.w3.org/2000/svg">
<path d="M18.625 16.875H16.75V3.125C16.75 2.79348 16.6183 2.47554 16.3839 2.24112C16.1495 2.0067 15.8315 1.875 15.5 1.875H5.5C5.16848 1.875 4.85054 2.0067 4.61612 2.24112C4.3817 2.47554 4.25 2.79348 4.25 3.125V16.875H2.375C2.20924 16.875 2.05027 16.9408 1.93306 17.0581C1.81585 17.1753 1.75 17.3342 1.75 17.5C1.75 17.6658 1.81585 17.8247 1.93306 17.9419C2.05027 18.0592 2.20924 18.125 2.375 18.125H18.625C18.7908 18.125 18.9497 18.0592 19.0669 17.9419C19.1842 17.8247 19.25 17.6658 19.25 17.5C19.25 17.3342 19.1842 17.1753 19.0669 17.0581C18.9497 16.9408 18.7908 16.875 18.625 16.875ZM5.5 3.125H15.5V16.875H5.5V3.125ZM13.625 10.3125C13.625 10.4979 13.57 10.6792 13.467 10.8333C13.364 10.9875 13.2176 11.1077 13.0463 11.1786C12.875 11.2496 12.6865 11.2682 12.5046 11.232C12.3227 11.1958 12.1557 11.1065 12.0246 10.9754C11.8935 10.8443 11.8042 10.6773 11.768 10.4954C11.7318 10.3135 11.7504 10.125 11.8214 9.95373C11.8923 9.78243 12.0125 9.63601 12.1667 9.533C12.3208 9.42998 12.5021 9.375 12.6875 9.375C12.9361 9.375 13.1746 9.47377 13.3504 9.64959C13.5262 9.8254 13.625 10.0639 13.625 10.3125Z" fill="white"/>
</svg>
