<svg width="24" height="24" viewBox="0 0 24 24" fill="none" xmlns="http://www.w3.org/2000/svg">
<path d="M7.2 7.63786L10.8 11.168M7.2 7.63786H4.8L4 5.28447L4.8 4.5L7.2 5.28447V7.63786ZM17.8072 5.0813L15.7051 7.14257C15.3883 7.45323 15.2299 7.60856 15.1705 7.78768C15.1183 7.94524 15.1183 8.11495 15.1705 8.27251C15.2299 8.45162 15.3883 8.60695 15.7051 8.91761L15.8949 9.10374C16.2117 9.4144 16.3701 9.56973 16.5528 9.62793C16.7135 9.67912 16.8865 9.67912 17.0472 9.62793C17.2299 9.56973 17.3883 9.4144 17.7051 9.10374L19.6714 7.17559C19.8832 7.68092 20 8.23436 20 8.81456C20 11.1974 18.0301 13.1291 15.6 13.1291C15.307 13.1291 15.0208 13.101 14.7438 13.0475C14.3549 12.9723 14.1604 12.9347 14.0425 12.9462C13.9172 12.9584 13.8555 12.9769 13.7444 13.0351C13.64 13.0899 13.5352 13.1927 13.3256 13.3982L7.6 19.0126C6.93726 19.6625 5.86274 19.6625 5.2 19.0126C4.53726 18.3627 4.53726 17.3091 5.2 16.6592L10.9256 11.0448C11.1352 10.8393 11.24 10.7365 11.2959 10.6341C11.3553 10.5252 11.3741 10.4647 11.3866 10.3418C11.3983 10.2262 11.36 10.0355 11.2833 9.65413C11.2286 9.38256 11.2 9.10184 11.2 8.81456C11.2 6.43169 13.1699 4.5 15.6 4.5C16.4044 4.5 17.1584 4.71167 17.8072 5.0813ZM12 14.698L16.4 19.0125C17.0627 19.6624 18.1373 19.6624 18.8 19.0125C19.4627 18.3626 19.4627 17.309 18.8 16.6591L15.1803 13.1097C14.924 13.086 14.6742 13.0406 14.4326 12.9756C14.1214 12.8919 13.78 12.9527 13.5517 13.1765L12 14.698Z" stroke="#0A6345" stroke-width="1.2" stroke-linecap="round" stroke-linejoin="round"/>
</svg>
