<svg width="24" height="25" viewBox="0 0 24 25" fill="none" xmlns="http://www.w3.org/2000/svg">
<path d="M16.6 12.0525C15.9179 12.0542 15.252 12.2647 14.6881 12.6569C14.1242 13.049 13.6883 13.6048 13.4366 14.2525C13.358 14.2438 13.279 14.2395 13.2 14.2395C11.9498 14.2395 10.9333 15.3077 10.9333 16.6197C10.9333 17.9318 11.9498 19 13.2 19H16.6C17.5017 19 18.3665 18.634 19.0042 17.9826C19.6418 17.3311 20 16.4475 20 15.5262C20 14.6049 19.6418 13.7214 19.0042 13.0699C18.3665 12.4184 17.5017 12.0525 16.6 12.0525ZM16.6 17.8421H13.2C12.5752 17.8421 12.0667 17.2935 12.0667 16.6197C12.0667 15.946 12.5752 15.3974 13.2 15.3974C13.3405 15.397 13.4796 15.425 13.6094 15.4799C13.6866 15.5122 13.7698 15.5267 13.8531 15.5223C13.9363 15.5179 14.0176 15.4949 14.0912 15.4547C14.1647 15.4145 14.2287 15.3583 14.2785 15.29C14.3283 15.2216 14.3628 15.1429 14.3794 15.0594C14.4658 14.6304 14.6695 14.2352 14.9669 13.9197C15.2643 13.6043 15.6432 13.3814 16.0595 13.2771C16.4759 13.1727 16.9127 13.1911 17.3192 13.3302C17.7258 13.4693 18.0854 13.7233 18.3563 14.0628C18.6272 14.4023 18.7983 14.8133 18.8498 15.2481C18.9013 15.683 18.831 16.1238 18.6471 16.5195C18.4632 16.9152 18.1733 17.2495 17.811 17.4836C17.4486 17.7177 17.0287 17.842 16.6 17.8421ZM5.13333 13.5262V14.6842C5.13333 14.8377 5.07363 14.985 4.96736 15.0935C4.86109 15.2021 4.71696 15.2631 4.56667 15.2631C4.41638 15.2631 4.27224 15.2021 4.16597 15.0935C4.0597 14.985 4 14.8377 4 14.6842V13.5262C4.00005 12.0466 4.42694 10.5999 5.2273 9.36681C6.02766 8.13373 7.16599 7.16902 8.50001 6.59325C9.83402 6.01749 11.3046 5.85621 12.7278 6.12959C14.151 6.40297 15.4638 7.09887 16.5021 8.13031C16.6061 8.23814 16.6647 8.38332 16.6652 8.53473C16.6657 8.68614 16.6081 8.83173 16.5048 8.9403C16.4015 9.04886 16.2607 9.11177 16.1126 9.11552C15.9644 9.11928 15.8207 9.06359 15.7123 8.9604C14.8338 8.08754 13.7229 7.49862 12.5186 7.26725C11.3143 7.03588 10.0699 7.17232 8.94106 7.65952C7.81222 8.14673 6.84897 8.96308 6.17174 10.0065C5.4945 11.05 5.13331 12.2742 5.13333 13.5262ZM7.4 13.5262V14.6842C7.4 14.8377 7.3403 14.985 7.23403 15.0935C7.12776 15.2021 6.98362 15.2631 6.83333 15.2631C6.68304 15.2631 6.53891 15.2021 6.43264 15.0935C6.32637 14.985 6.26667 14.8377 6.26667 14.6842V13.5262C6.26726 12.5634 6.52894 11.6196 7.02266 10.7995C7.51639 9.97943 8.22286 9.31514 9.06367 8.88036C9.90448 8.44559 10.8468 8.25733 11.7859 8.33648C12.7251 8.41563 13.6244 8.7591 14.3842 9.32876C14.4462 9.37291 14.499 9.4293 14.5394 9.49463C14.5799 9.55995 14.6071 9.63287 14.6194 9.70911C14.6318 9.78534 14.6292 9.86333 14.6116 9.93849C14.594 10.0136 14.5619 10.0845 14.5171 10.1467C14.4723 10.209 14.4158 10.2615 14.3508 10.3011C14.2859 10.3407 14.2139 10.3666 14.139 10.3773C14.064 10.388 13.9878 10.3833 13.9147 10.3634C13.8416 10.3436 13.7732 10.3089 13.7134 10.2616C13.1225 9.81861 12.423 9.55153 11.6926 9.49C10.9622 9.42848 10.2293 9.57491 9.57543 9.91305C8.9215 10.2512 8.37206 10.7678 7.98806 11.4056C7.60405 12.0434 7.40051 12.7774 7.4 13.5262ZM11.7612 11.8364C11.5114 11.7755 11.2513 11.7732 11.0005 11.8297C10.7497 11.8863 10.5147 12.0001 10.3131 12.1627C10.1116 12.3253 9.94868 12.5325 9.83671 12.7687C9.72475 13.0048 9.66661 13.2638 9.66667 13.5262V14.6842C9.66667 14.8377 9.60696 14.985 9.50069 15.0935C9.39442 15.2021 9.25029 15.2631 9.1 15.2631C8.94971 15.2631 8.80558 15.2021 8.69931 15.0935C8.59304 14.985 8.53333 14.8377 8.53333 14.6842V13.5262C8.53324 13.089 8.63009 12.6574 8.81663 12.2638C9.00317 11.8703 9.27455 11.525 9.61038 11.254C9.94621 10.983 10.3378 10.7932 10.7557 10.6989C11.1736 10.6046 11.607 10.6083 12.0233 10.7096C12.0957 10.7272 12.164 10.7591 12.2243 10.8037C12.2847 10.8483 12.3358 10.9045 12.3748 10.9693C12.4139 11.034 12.44 11.106 12.4519 11.1811C12.4637 11.2562 12.4609 11.3329 12.4437 11.4069C12.4265 11.4809 12.3952 11.5507 12.3516 11.6123C12.308 11.6739 12.2529 11.7262 12.1895 11.766C12.1261 11.8059 12.0557 11.8327 11.9822 11.8447C11.9087 11.8568 11.8336 11.854 11.7612 11.8364Z" fill="#0A6345"/>
</svg>
