<svg width="15" height="12" viewBox="0 0 15 12" fill="none" xmlns="http://www.w3.org/2000/svg">
<path d="M11.2622 5.6277C10.6938 5.62914 10.1388 5.80458 9.66894 6.13137C9.19905 6.45816 8.83579 6.92132 8.62603 7.46108C8.56055 7.45384 8.49473 7.45022 8.42887 7.45023C7.38703 7.45023 6.53998 8.34038 6.53998 9.43377C6.53998 10.5272 7.38703 11.4173 8.42887 11.4173H11.2622C12.0137 11.4173 12.7343 11.1123 13.2657 10.5694C13.797 10.0266 14.0955 9.29026 14.0955 8.52251C14.0955 7.75476 13.797 7.01846 13.2657 6.47557C12.7343 5.93269 12.0137 5.6277 11.2622 5.6277ZM11.2622 10.4524H8.42887C7.90825 10.4524 7.48443 9.99524 7.48443 9.43377C7.48443 8.8723 7.90825 8.41516 8.42887 8.41516C8.54593 8.41481 8.66189 8.43818 8.77005 8.48391C8.83436 8.51081 8.90369 8.52287 8.97309 8.51924C9.04249 8.5156 9.11025 8.49637 9.17153 8.4629C9.23281 8.42943 9.28611 8.38256 9.32763 8.32562C9.36914 8.26869 9.39784 8.20309 9.41169 8.13352C9.4837 7.776 9.65347 7.44668 9.9013 7.18377C10.1491 6.92086 10.4649 6.73516 10.8118 6.6482C11.1588 6.56125 11.5228 6.57661 11.8616 6.69251C12.2003 6.80841 12.5 7.02009 12.7258 7.30299C12.9515 7.58588 13.0941 7.92839 13.137 8.29076C13.1799 8.65313 13.1214 9.02051 12.9681 9.35024C12.8149 9.67997 12.5733 9.95855 12.2713 10.1536C11.9694 10.3487 11.6195 10.4523 11.2622 10.4524ZM1.70665 6.85584V7.82078C1.70665 7.94874 1.6569 8.07146 1.56834 8.16194C1.47978 8.25242 1.35967 8.30325 1.23443 8.30325C1.10919 8.30325 0.989077 8.25242 0.900518 8.16194C0.811959 8.07146 0.762207 7.94874 0.762207 7.82078V6.85584C0.76225 5.62286 1.11799 4.41723 1.78495 3.38966C2.45192 2.36209 3.40053 1.55816 4.51221 1.07836C5.62389 0.598556 6.84933 0.464163 8.03536 0.691978C9.22138 0.919793 10.3154 1.49971 11.1806 2.35924C11.2673 2.4491 11.3161 2.57009 11.3165 2.69626C11.317 2.82243 11.269 2.94376 11.1829 3.03423C11.0968 3.1247 10.9795 3.17712 10.856 3.18026C10.7326 3.18339 10.6128 3.13698 10.5224 3.05098C9.79034 2.3236 8.86463 1.83284 7.86102 1.64003C6.85742 1.44722 5.82046 1.56092 4.87976 1.96692C3.93905 2.37292 3.13635 3.05321 2.57199 3.92275C2.00762 4.79229 1.70664 5.8125 1.70665 6.85584ZM3.59554 6.85584V7.82078C3.59554 7.94874 3.54579 8.07146 3.45723 8.16194C3.36867 8.25242 3.24856 8.30325 3.12332 8.30325C2.99808 8.30325 2.87797 8.25242 2.78941 8.16194C2.70085 8.07146 2.6511 7.94874 2.6511 7.82078V6.85584C2.65159 6.0535 2.86965 5.26699 3.28109 4.58358C3.69253 3.90017 4.28125 3.3466 4.98193 2.98429C5.68261 2.62198 6.46783 2.46509 7.25048 2.53105C8.03313 2.59701 8.78258 2.88323 9.41568 3.35795C9.46741 3.39474 9.51141 3.44174 9.54508 3.49617C9.57875 3.55061 9.60142 3.61138 9.61175 3.67491C9.62207 3.73843 9.61984 3.80343 9.6052 3.86606C9.59055 3.92869 9.56378 3.98769 9.52646 4.03959C9.48914 4.09149 9.44204 4.13522 9.38791 4.16823C9.33379 4.20123 9.27375 4.22283 9.21133 4.23175C9.14891 4.24067 9.08537 4.23674 9.02447 4.22018C8.96356 4.20362 8.90651 4.17477 8.85669 4.13533C8.36428 3.76616 7.7814 3.5436 7.17271 3.49232C6.56402 3.44105 5.95333 3.56307 5.4084 3.84486C4.86346 4.12664 4.40559 4.55716 4.08559 5.08866C3.76558 5.62016 3.59596 6.23184 3.59554 6.85584ZM7.22988 5.44764C7.0217 5.39689 6.80497 5.39499 6.59596 5.44209C6.38696 5.48919 6.19112 5.58406 6.02314 5.71958C5.85517 5.8551 5.71944 6.02774 5.62613 6.22454C5.53283 6.42133 5.48438 6.63717 5.48443 6.85584V7.82078C5.48443 7.94874 5.43468 8.07146 5.34612 8.16194C5.25756 8.25242 5.13745 8.30325 5.01221 8.30325C4.88697 8.30325 4.76685 8.25242 4.6783 8.16194C4.58974 8.07146 4.53998 7.94874 4.53998 7.82078V6.85584C4.5399 6.49146 4.62062 6.1318 4.77607 5.80385C4.93152 5.4759 5.15766 5.18819 5.43752 4.96232C5.71738 4.73645 6.04369 4.57829 6.39194 4.49972C6.7402 4.42114 7.10135 4.42419 7.44828 4.50864C7.50863 4.52329 7.56556 4.54994 7.61583 4.58707C7.66609 4.6242 7.7087 4.67109 7.74124 4.72504C7.77377 4.779 7.79558 4.83898 7.80542 4.90155C7.81527 4.96412 7.81295 5.02805 7.79861 5.08971C7.78427 5.15137 7.75819 5.20953 7.72184 5.26089C7.6855 5.31224 7.63961 5.35578 7.5868 5.38902C7.53399 5.42226 7.47529 5.44454 7.41405 5.4546C7.35281 5.46466 7.29023 5.46229 7.22988 5.44764Z" fill="white"/>
</svg>
