<svg width="14" height="12" viewBox="0 0 14 12" fill="none" xmlns="http://www.w3.org/2000/svg">
<path d="M10.5479 5.6277C9.97943 5.62914 9.42448 5.80458 8.95459 6.13137C8.4847 6.45816 8.12143 6.92132 7.91167 7.46108C7.84619 7.45384 7.78038 7.45022 7.71452 7.45023C6.67268 7.45023 5.82563 8.34038 5.82563 9.43377C5.82563 10.5272 6.67268 11.4173 7.71452 11.4173H10.5479C11.2993 11.4173 12.02 11.1123 12.5513 10.5694C13.0827 10.0266 13.3812 9.29026 13.3812 8.52251C13.3812 7.75476 13.0827 7.01846 12.5513 6.47557C12.02 5.93269 11.2993 5.6277 10.5479 5.6277ZM10.5479 10.4524H7.71452C7.19389 10.4524 6.77007 9.99524 6.77007 9.43377C6.77007 8.8723 7.19389 8.41516 7.71452 8.41516C7.83157 8.41481 7.94754 8.43818 8.0557 8.48391C8.12001 8.51081 8.18934 8.52287 8.25873 8.51924C8.32813 8.5156 8.39589 8.49637 8.45718 8.4629C8.51846 8.42943 8.57176 8.38256 8.61327 8.32562C8.65478 8.26869 8.68349 8.20309 8.69733 8.13352C8.76934 7.776 8.93911 7.44668 9.18694 7.18377C9.43477 6.92086 9.7505 6.73516 10.0975 6.6482C10.4444 6.56125 10.8084 6.57661 11.1472 6.69251C11.486 6.80841 11.7856 7.02009 12.0114 7.30299C12.2372 7.58588 12.3798 7.92839 12.4227 8.29076C12.4656 8.65313 12.407 9.02051 12.2538 9.35024C12.1005 9.67997 11.8589 9.95855 11.557 10.1536C11.255 10.3487 10.9051 10.4523 10.5479 10.4524ZM0.992296 6.85584V7.82078C0.992296 7.94874 0.942544 8.07146 0.853985 8.16194C0.765427 8.25242 0.645315 8.30325 0.520074 8.30325C0.394833 8.30325 0.274721 8.25242 0.186162 8.16194C0.0976034 8.07146 0.0478516 7.94874 0.0478516 7.82078V6.85584C0.0478949 5.62286 0.403632 4.41723 1.0706 3.38966C1.73757 2.36209 2.68617 1.55816 3.79786 1.07836C4.90954 0.598556 6.13498 0.464163 7.321 0.691978C8.50703 0.919793 9.60103 1.49971 10.4663 2.35924C10.5529 2.4491 10.6017 2.57009 10.6022 2.69626C10.6026 2.82243 10.5546 2.94376 10.4685 3.03423C10.3825 3.1247 10.2651 3.17712 10.1417 3.18026C10.0182 3.18339 9.89846 3.13698 9.80809 3.05098C9.07599 2.3236 8.15027 1.83284 7.14667 1.64003C6.14307 1.44722 5.1061 1.56092 4.1654 1.96692C3.2247 2.37292 2.422 3.05321 1.85763 3.92275C1.29327 4.79229 0.99228 5.8125 0.992296 6.85584ZM2.88118 6.85584V7.82078C2.88118 7.94874 2.83143 8.07146 2.74287 8.16194C2.65432 8.25242 2.5342 8.30325 2.40896 8.30325C2.28372 8.30325 2.16361 8.25242 2.07505 8.16194C1.98649 8.07146 1.93674 7.94874 1.93674 7.82078V6.85584C1.93723 6.0535 2.1553 5.26699 2.56674 4.58358C2.97818 3.90017 3.5669 3.3466 4.26757 2.98429C4.96825 2.62198 5.75348 2.46509 6.53613 2.53105C7.31877 2.59701 8.06823 2.88323 8.70132 3.35795C8.75305 3.39474 8.79705 3.44174 8.83073 3.49617C8.8644 3.55061 8.88707 3.61138 8.89739 3.67491C8.90771 3.73843 8.90549 3.80343 8.89084 3.86606C8.87619 3.92869 8.84942 3.98769 8.81211 4.03959C8.77479 4.09149 8.72768 4.13522 8.67356 4.16823C8.61944 4.20123 8.5594 4.22283 8.49698 4.23175C8.43456 4.24067 8.37102 4.23674 8.31011 4.22018C8.2492 4.20362 8.19215 4.17477 8.14233 4.13533C7.64993 3.76616 7.06704 3.5436 6.45835 3.49232C5.84967 3.44105 5.23898 3.56307 4.69404 3.84486C4.14911 4.12664 3.69124 4.55716 3.37123 5.08866C3.05123 5.62016 2.88161 6.23184 2.88118 6.85584ZM6.51552 5.44764C6.30734 5.39689 6.09061 5.39499 5.88161 5.44209C5.6726 5.48919 5.47676 5.58406 5.30879 5.71958C5.14082 5.8551 5.00508 6.02774 4.91178 6.22454C4.81847 6.42133 4.77003 6.63717 4.77007 6.85584V7.82078C4.77007 7.94874 4.72032 8.07146 4.63176 8.16194C4.5432 8.25242 4.42309 8.30325 4.29785 8.30325C4.17261 8.30325 4.0525 8.25242 3.96394 8.16194C3.87538 8.07146 3.82563 7.94874 3.82563 7.82078V6.85584C3.82555 6.49146 3.90626 6.1318 4.06171 5.80385C4.21716 5.4759 4.44331 5.18819 4.72317 4.96232C5.00303 4.73645 5.32933 4.57829 5.67759 4.49972C6.02584 4.42114 6.38699 4.42419 6.73393 4.50864C6.79427 4.52329 6.8512 4.54994 6.90147 4.58707C6.95174 4.6242 6.99435 4.67109 7.02688 4.72504C7.05941 4.779 7.08122 4.83898 7.09107 4.90155C7.10091 4.96412 7.0986 5.02805 7.08426 5.08971C7.06992 5.15137 7.04383 5.20953 7.00749 5.26089C6.97115 5.31224 6.92526 5.35578 6.87245 5.38902C6.81963 5.42226 6.76093 5.44454 6.69969 5.4546C6.63845 5.46466 6.57587 5.46229 6.51552 5.44764Z" fill="white"/>
</svg>
