<svg width="24" height="24" viewBox="0 0 24 24" fill="none" xmlns="http://www.w3.org/2000/svg">
<path d="M9.66667 19V13.4697C9.66667 13.0511 9.66667 12.8419 9.75144 12.682C9.82601 12.5414 9.94499 12.4271 10.0913 12.3554C10.2577 12.274 10.4755 12.274 10.9111 12.274H13.0889C13.5245 12.274 13.7423 12.274 13.9087 12.3554C14.055 12.4271 14.174 12.5414 14.2486 12.682C14.3333 12.8419 14.3333 13.0511 14.3333 13.4697V19M11.236 5.37154L5.96086 9.31385C5.60824 9.57737 5.43193 9.70914 5.30491 9.87415C5.1924 10.0203 5.10858 10.185 5.05758 10.3601C5 10.5577 5 10.7723 5 11.2016V16.6085C5 17.4456 5 17.8642 5.16955 18.1839C5.31868 18.4651 5.55665 18.6938 5.84935 18.8371C6.1821 19 6.6177 19 7.48889 19H16.5111C17.3823 19 17.8179 19 18.1507 18.8371C18.4433 18.6938 18.6813 18.4651 18.8305 18.1839C19 17.8642 19 17.4456 19 16.6085V11.2016C19 10.7723 19 10.5577 18.9424 10.3601C18.8914 10.185 18.8076 10.0203 18.6951 9.87415C18.5681 9.70914 18.3918 9.57737 18.0391 9.31385L12.764 5.37154C12.4908 5.16733 12.3541 5.06522 12.2033 5.02597C12.0702 4.99134 11.9298 4.99134 11.7967 5.02597C11.6459 5.06522 11.5092 5.16733 11.236 5.37154Z" stroke="#0A6345" stroke-width="1.2" stroke-linecap="round" stroke-linejoin="round"/>
</svg>
