<svg width="20" height="20" viewBox="0 0 20 20" fill="none" xmlns="http://www.w3.org/2000/svg">
<path d="M12.4987 6.66732V5.00065C12.4987 4.55862 12.3231 4.1347 12.0105 3.82214C11.698 3.50958 11.2741 3.33398 10.832 3.33398H4.9987C4.55667 3.33398 4.13275 3.50958 3.82019 3.82214C3.50763 4.1347 3.33203 4.55862 3.33203 5.00065V15.0007C3.33203 15.4427 3.50763 15.8666 3.82019 16.1792C4.13275 16.4917 4.55667 16.6673 4.9987 16.6673H10.832C11.2741 16.6673 11.698 16.4917 12.0105 16.1792C12.3231 15.8666 12.4987 15.4427 12.4987 15.0007V13.334M7.4987 10.0007H16.6654M16.6654 10.0007L14.1654 7.50065M16.6654 10.0007L14.1654 12.5007" stroke="#0A6345" stroke-linecap="round" stroke-linejoin="round"/>
</svg>
