<svg width="20" height="20" viewBox="0 0 20 20" fill="none" xmlns="http://www.w3.org/2000/svg">
<path d="M9.5 18H4.49999C3.39542 18 2.49999 17.1046 2.5 16L2.50008 3.99999C2.50008 2.89543 3.39551 2 4.50008 2H13.5003C14.6049 2 15.5003 2.89543 15.5003 4.00001V8.00002M16.5 16.5L17.5 17.5M6.00031 6.00001H12.0003M6.00031 9.00002H12.0003M6.00031 12H9.00031M17 14.5C17 15.8807 15.8807 17 14.5 17C13.1193 17 12 15.8807 12 14.5C12 13.1193 13.1193 12 14.5 12C15.8807 12 17 13.1193 17 14.5Z" stroke="#0A6345" stroke-linecap="round" stroke-linejoin="round"/>
</svg>
