<svg width="24" height="24" viewBox="0 0 24 24" fill="none" xmlns="http://www.w3.org/2000/svg">
<path d="M11.5 20H6.49999C5.39542 20 4.49999 19.1046 4.5 18L4.50008 5.99999C4.50008 4.89543 5.39551 4 6.50008 4H15.5003C16.6049 4 17.5003 4.89543 17.5003 6.00001V10M18.5 18.5L19.5 19.5M8.00031 8.00001H14.0003M8.00031 11H14.0003M8.00031 14H11.0003M19 16.5C19 17.8807 17.8807 19 16.5 19C15.1193 19 14 17.8807 14 16.5C14 15.1193 15.1193 14 16.5 14C17.8807 14 19 15.1193 19 16.5Z" stroke="#757575" stroke-linecap="round" stroke-linejoin="round"/>
</svg>
