<svg width="20" height="20" viewBox="0 0 20 20" fill="none" xmlns="http://www.w3.org/2000/svg">
<path d="M6.29499 7.3066H9.9987M6.29499 9.83464H12.2209M6.29499 14.1684V15.8553C6.29499 16.2402 6.29499 16.4326 6.3759 16.5315C6.44627 16.6174 6.55297 16.6674 6.66576 16.6673C6.79546 16.6672 6.94956 16.547 7.25778 16.3065L9.02478 14.9281C9.38575 14.6466 9.56623 14.5058 9.76721 14.4056C9.94551 14.3168 10.1353 14.2519 10.3314 14.2126C10.5525 14.1684 10.7837 14.1684 11.2459 14.1684H13.1098C14.3544 14.1684 14.9766 14.1684 15.452 13.9322C15.8701 13.7245 16.2101 13.393 16.4232 12.9853C16.6654 12.5217 16.6654 11.915 16.6654 10.7014V6.801C16.6654 5.58743 16.6654 4.98065 16.4232 4.51712C16.2101 4.1094 15.8701 3.77791 15.452 3.57016C14.9766 3.33398 14.3544 3.33398 13.1098 3.33398H6.88759C5.64303 3.33398 5.02075 3.33398 4.54539 3.57016C4.12725 3.77791 3.78729 4.1094 3.57424 4.51712C3.33203 4.98065 3.33203 5.58743 3.33203 6.801V11.2792C3.33203 11.9509 3.33203 12.2868 3.40775 12.5623C3.61323 13.3101 4.21223 13.8942 4.9791 14.0946C5.26169 14.1684 5.60613 14.1684 6.29499 14.1684Z" stroke="#F5FFF9" stroke-linecap="round" stroke-linejoin="round"/>
</svg>
