<svg width="20" height="20" viewBox="0 0 20 20" fill="none" xmlns="http://www.w3.org/2000/svg">
<path d="M6.29597 7.3066H9.99967M6.29597 9.83464H12.2219M6.29597 14.1684V15.8553C6.29597 16.2402 6.29597 16.4326 6.37688 16.5315C6.44725 16.6174 6.55395 16.6674 6.66674 16.6673C6.79644 16.6672 6.95054 16.547 7.25875 16.3065L9.02576 14.9281C9.38672 14.6466 9.56721 14.5058 9.76818 14.4056C9.94649 14.3168 10.1363 14.2519 10.3324 14.2126C10.5535 14.1684 10.7846 14.1684 11.2469 14.1684H13.1108C14.3553 14.1684 14.9776 14.1684 15.453 13.9322C15.8711 13.7245 16.2111 13.393 16.4241 12.9853C16.6663 12.5217 16.6663 11.915 16.6663 10.7014V6.801C16.6663 5.58743 16.6663 4.98065 16.4241 4.51712C16.2111 4.1094 15.8711 3.77791 15.453 3.57016C14.9776 3.33398 14.3553 3.33398 13.1108 3.33398H6.88856C5.644 3.33398 5.02172 3.33398 4.54636 3.57016C4.12822 3.77791 3.78827 4.1094 3.57522 4.51712C3.33301 4.98065 3.33301 5.58743 3.33301 6.801V11.2792C3.33301 11.9509 3.33301 12.2868 3.40873 12.5623C3.61421 13.3101 4.21321 13.8942 4.98008 14.0946C5.26267 14.1684 5.6071 14.1684 6.29597 14.1684Z" stroke="#0A6345" stroke-linecap="round" stroke-linejoin="round"/>
</svg>
