<svg width="24" height="24" viewBox="0 0 24 24" fill="none" xmlns="http://www.w3.org/2000/svg">
<path d="M16.5239 7.54027V6.14681C16.7368 5.98354 16.8743 5.72753 16.8743 5.44001V4.7261C16.8743 4.23342 16.4728 3.83398 15.9776 3.83398H14.1467C14.012 3.83398 13.9029 3.94261 13.9029 4.07656C13.9029 4.21051 14.012 4.31913 14.1467 4.31913H15.9776C16.2035 4.31913 16.3866 4.50135 16.3866 4.72613V5.44004C16.3866 5.66481 16.2035 5.847 15.9776 5.847H8.02238C7.79646 5.847 7.61331 5.66478 7.61331 5.44001V4.7261C7.61331 4.50132 7.79646 4.31913 8.02235 4.31913H14.1502C14.2849 4.31913 14.394 4.21051 14.394 4.07656C14.394 3.94261 14.2849 3.83398 14.1502 3.83398H8.02238C7.52716 3.83398 7.1257 4.23342 7.1257 4.72613V5.44004C7.1257 5.72753 7.26325 5.98357 7.47612 6.14684V7.54027C5.90088 8.86821 5 10.7984 5 12.8549C5 14.9113 5.90088 16.8415 7.47612 18.1695V19.1439C7.47612 19.7091 7.93664 20.1673 8.50477 20.1673H15.4952C16.0633 20.1673 16.5239 19.7091 16.5239 19.1438V18.1695C18.0991 16.8415 19 14.9113 19 12.8548C19 10.7984 18.0991 8.86818 16.5239 7.54027ZM7.96373 6.33218H8.02238H15.9776H16.0362V7.4113H7.96373V6.33218ZM15.9538 9.21249C15.9538 9.93817 15.3604 10.5285 14.6311 10.5285C13.9017 10.5285 13.3083 9.93817 13.3083 9.21249V7.89645H14.6311C15.3604 7.89645 15.9538 8.48681 15.9538 9.21249ZM12.8207 7.89645V9.21249C12.8207 9.93817 12.2273 10.5285 11.498 10.5285C10.7686 10.5285 10.1752 9.93817 10.1752 9.21249C10.1752 8.48681 10.7686 7.89645 11.498 7.89645H12.8207ZM16.191 17.8133H9.39854C9.26391 17.8133 9.15474 17.9219 9.15474 18.0559C9.15474 18.1898 9.26391 18.2984 9.39854 18.2984H16.0362V19.1438C16.0362 19.4411 15.794 19.6821 15.4951 19.6821H8.5048C8.206 19.6821 7.96373 19.4411 7.96373 19.1438V18.2984H9.75835C9.89298 18.2984 10.0022 18.1898 10.0022 18.0559C10.0022 17.9219 9.89298 17.8133 9.75835 17.8133H7.80896C6.3329 16.5773 5.48762 14.7754 5.48762 12.8548C5.48762 10.9343 6.33287 9.13239 7.80896 7.89641H10.2638C9.88961 8.24398 9.66296 8.74677 9.68973 9.30079C9.73286 10.1936 10.4416 10.9289 11.3366 11.0066C11.8472 11.051 12.3188 10.8825 12.6729 10.5811C12.433 11.7023 11.9357 12.6543 11.4419 13.1483C11.347 13.2433 11.3438 13.4064 11.4409 13.4992C11.488 13.5443 11.5489 13.5669 11.6098 13.5669C11.6722 13.5669 11.7346 13.5432 11.7823 13.4958C12.2002 13.08 12.5829 12.4362 12.8599 11.683C12.9381 11.4701 13.0062 11.2531 13.0645 11.034C13.1227 11.2532 13.1908 11.4701 13.2691 11.683C13.5461 12.4362 13.9288 13.08 14.3467 13.4958C14.3943 13.5432 14.4567 13.5669 14.5191 13.5669C14.58 13.5669 14.641 13.5443 14.6881 13.4992C14.7851 13.4063 14.7819 13.2432 14.687 13.1483C14.1933 12.6542 13.696 11.7022 13.4561 10.5811C13.8102 10.8825 14.2818 11.051 14.7924 11.0067C15.6874 10.929 16.3961 10.1937 16.4393 9.30089C16.466 8.74686 16.2394 8.24401 15.8652 7.89645H16.191C17.667 9.13242 18.5123 10.9344 18.5123 12.8549C18.5123 14.7754 17.6671 16.5773 16.191 17.8133Z" fill="#0A6345" stroke="#0A6345" stroke-width="0.7"/>
</svg>
