<svg width="14" height="14" viewBox="0 0 14 14" fill="none" xmlns="http://www.w3.org/2000/svg">
<path d="M13.4287 4.38866V7.0383M6.37871 2.73263H4.30871C3.30062 2.73263 2.79657 2.73263 2.41153 2.94922C2.07284 3.13974 1.79747 3.44375 1.6249 3.81767C1.42871 4.24277 1.42871 4.79925 1.42871 5.9122L1.42871 6.70709C1.42871 7.32438 1.42871 7.63303 1.52006 7.87649C1.64185 8.20111 1.87546 8.45902 2.16949 8.59348C2.39002 8.69433 2.66958 8.69433 3.22871 8.69433V11.5096C3.22871 11.6634 3.22871 11.7403 3.23449 11.805C3.2906 12.434 3.74136 12.9317 4.31109 12.9936C4.36976 13 4.43941 13 4.57871 13C4.71801 13 4.78766 13 4.84633 12.9936C5.41607 12.9317 5.86682 12.434 5.92293 11.805C5.92871 11.7403 5.92871 11.6634 5.92871 11.5096V8.69433H6.37871C7.43857 8.69433 8.73506 9.32156 9.73529 9.92353C10.3188 10.2747 10.6106 10.4503 10.8017 10.4245C10.9788 10.4005 11.1128 10.3127 11.2167 10.1524C11.3287 9.9795 11.3287 9.63363 11.3287 8.94188V2.48507C11.3287 1.79332 11.3287 1.44745 11.2167 1.27459C11.1128 1.11429 10.9788 1.02645 10.8017 1.00249C10.6106 0.976654 10.3188 1.15224 9.73529 1.50342C8.73506 2.1054 7.43857 2.73263 6.37871 2.73263Z" stroke="white" stroke-linecap="round" stroke-linejoin="round"/>
</svg>
