<svg width="24" height="24" viewBox="0 0 24 24" fill="none" xmlns="http://www.w3.org/2000/svg">
<path d="M10.5212 8.53666H5.32888C5.01157 8.53666 4.75195 8.27704 4.75195 7.95974C4.75195 7.64243 5.01157 7.38281 5.32888 7.38281H10.5212C10.8385 7.38281 11.0981 7.64243 11.0981 7.95974C11.0981 8.27704 10.8385 8.53666 10.5212 8.53666Z" fill="#0A6345"/>
<path d="M7.63657 11.4234H5.32888C5.01157 11.4234 4.75195 11.1638 4.75195 10.8465C4.75195 10.5291 5.01157 10.2695 5.32888 10.2695H7.63657C7.95388 10.2695 8.21349 10.5291 8.21349 10.8465C8.21349 11.1638 7.95388 11.4234 7.63657 11.4234Z" fill="#0A6345"/>
<path d="M13.9827 5.65385H5.32888C5.01157 5.65385 4.75195 5.39423 4.75195 5.07692C4.75195 4.75962 5.01157 4.5 5.32888 4.5H13.9827C14.3 4.5 14.5596 4.75962 14.5596 5.07692C14.5596 5.39423 14.3 5.65385 13.9827 5.65385Z" fill="#0A6345"/>
<path d="M5.32838 19.5C5.17838 19.5 5.02838 19.4423 4.91877 19.3327C4.77453 19.1885 4.71684 18.9808 4.76877 18.7846L5.34569 16.4769C5.36877 16.3731 5.42069 16.2808 5.49569 16.2115L16.6765 5.025C17.0168 4.68462 17.4668 4.5 17.9515 4.5C18.9438 4.5 19.7515 5.30769 19.7515 6.3C19.7515 6.77885 19.5668 7.23462 19.2265 7.575L8.04569 18.7558C7.97069 18.8308 7.87838 18.8827 7.7803 18.9058L5.47261 19.4827C5.42069 19.4942 5.37453 19.5 5.32838 19.5ZM6.42453 16.9096L6.11876 18.1269L7.33607 17.8212L18.4072 6.75577C18.5284 6.63462 18.5976 6.47308 18.5976 6.3C18.5976 5.94231 18.3091 5.65385 17.9515 5.65385C17.7784 5.65385 17.6111 5.72308 17.4899 5.84423L6.42453 16.9096Z" fill="#0A6345"/>
<path d="M19.1745 16.6148H13.9822C13.6649 16.6148 13.4053 16.3552 13.4053 16.0379C13.4053 15.7206 13.6649 15.4609 13.9822 15.4609H19.1745C19.4918 15.4609 19.7514 15.7206 19.7514 16.0379C19.7514 16.3552 19.4918 16.6148 19.1745 16.6148Z" fill="#0A6345"/>
<path d="M19.1747 13.732H16.867C16.5497 13.732 16.29 13.4724 16.29 13.155C16.29 12.8377 16.5497 12.5781 16.867 12.5781H19.1747C19.492 12.5781 19.7516 12.8377 19.7516 13.155C19.7516 13.4724 19.492 13.732 19.1747 13.732Z" fill="#0A6345"/>
<path d="M19.1751 19.5015H10.5213C10.204 19.5015 9.94434 19.2419 9.94434 18.9246C9.94434 18.6073 10.204 18.3477 10.5213 18.3477H19.1751C19.4924 18.3477 19.752 18.6073 19.752 18.9246C19.752 19.2419 19.4924 19.5015 19.1751 19.5015Z" fill="#0A6345"/>
</svg>
