<svg width="14" height="12" viewBox="0 0 14 12" fill="none" xmlns="http://www.w3.org/2000/svg">
<path d="M0.5 7.96429V6.13415C0.5 5.2451 1.22754 4.52439 2.125 4.52439M0.5 7.96429C0.5 8.85333 1.22754 9.57404 2.125 9.57404H11.875C12.7725 9.57404 13.5 8.85333 13.5 7.96429M0.5 7.96429V10.4268C0.5 11.0195 0.985025 11.5 1.58333 11.5H2.66667C3.26498 11.5 3.75 11.0195 3.75 10.4268V9.57404M13.5 7.96429V6.13415C13.5 5.2451 12.7725 4.52439 11.875 4.52439H2.125M13.5 7.96429V10.4268C13.5 11.0195 13.015 11.5 12.4167 11.5H11.3333C10.735 11.5 10.25 11.0195 10.25 10.4268V9.57404M2.125 4.52439L2.99388 1.29665C3.12034 0.826871 3.54983 0.5 4.04063 0.5H10.0108C10.4771 0.5 10.8911 0.795583 11.0386 1.2338L12.1458 4.52439M2.39583 6.93902H4.29167M9.70833 6.93902H11.6042" stroke="white" stroke-linecap="round" stroke-linejoin="round"/>
</svg>
