<svg width="14" height="14" viewBox="0 0 14 14" fill="none" xmlns="http://www.w3.org/2000/svg">
<path d="M13 4.38866V7.0383M5.95 2.73263H3.88C2.8719 2.73263 2.36786 2.73263 1.98282 2.94922C1.64412 3.13974 1.36876 3.44375 1.19619 3.81767C0.999999 4.24277 0.999999 4.79925 1 5.9122L1 6.70709C1 7.32438 1 7.63303 1.09135 7.87649C1.21314 8.20111 1.44675 8.45902 1.74078 8.59348C1.96131 8.69433 2.24087 8.69433 2.8 8.69433V11.5096C2.8 11.6634 2.8 11.7403 2.80578 11.805C2.86189 12.434 3.31265 12.9317 3.88238 12.9936C3.94105 13 4.0107 13 4.15 13C4.2893 13 4.35895 13 4.41762 12.9936C4.98735 12.9317 5.43811 12.434 5.49422 11.805C5.5 11.7403 5.5 11.6634 5.5 11.5096V8.69433H5.95C7.00986 8.69433 8.30635 9.32156 9.30658 9.92353C9.8901 10.2747 10.1819 10.4503 10.3729 10.4245C10.5501 10.4005 10.6841 10.3127 10.788 10.1524C10.9 9.9795 10.9 9.63363 10.9 8.94188V2.48507C10.9 1.79332 10.9 1.44745 10.788 1.27459C10.6841 1.11429 10.5501 1.02645 10.3729 1.00249C10.1819 0.976654 9.8901 1.15224 9.30658 1.50342C8.30635 2.1054 7.00985 2.73263 5.95 2.73263Z" stroke="white" stroke-linecap="round" stroke-linejoin="round"/>
</svg>
