<svg width="24" height="24" viewBox="0 0 24 24" fill="none" xmlns="http://www.w3.org/2000/svg">
<path d="M16.5833 7.41667L7.41667 16.5833M9.08333 10.75V7.41667M7.41667 9.08333H10.75M13.25 14.9167H16.5833M8.5 19.5H15.5C16.9001 19.5 17.6002 19.5 18.135 19.2275C18.6054 18.9878 18.9878 18.6054 19.2275 18.135C19.5 17.6002 19.5 16.9001 19.5 15.5V8.5C19.5 7.09987 19.5 6.3998 19.2275 5.86502C18.9878 5.39462 18.6054 5.01217 18.135 4.77248C17.6002 4.5 16.9001 4.5 15.5 4.5H8.5C7.09987 4.5 6.3998 4.5 5.86502 4.77248C5.39462 5.01217 5.01217 5.39462 4.77248 5.86502C4.5 6.3998 4.5 7.09987 4.5 8.5V15.5C4.5 16.9001 4.5 17.6002 4.77248 18.135C5.01217 18.6054 5.39462 18.9878 5.86502 19.2275C6.3998 19.5 7.09987 19.5 8.5 19.5Z" stroke="#0A6345" stroke-width="1.2" stroke-linecap="round" stroke-linejoin="round"/>
</svg>
