<svg width="21" height="20" viewBox="0 0 21 20" fill="none" xmlns="http://www.w3.org/2000/svg">
<path d="M13.8975 7.3975L11.295 10L13.8975 12.6025C13.9528 12.654 13.9971 12.7161 14.0278 12.7851C14.0586 12.8541 14.0751 12.9286 14.0764 13.0041C14.0778 13.0796 14.0639 13.1547 14.0356 13.2247C14.0073 13.2947 13.9652 13.3584 13.9118 13.4118C13.8584 13.4652 13.7947 13.5073 13.7247 13.5356C13.6547 13.5639 13.5796 13.5778 13.5041 13.5764C13.4286 13.5751 13.3541 13.5586 13.2851 13.5278C13.2161 13.4971 13.154 13.4528 13.1025 13.3975L10.5 10.795L7.8975 13.3975C7.79087 13.4969 7.64984 13.551 7.50411 13.5484C7.35839 13.5458 7.21935 13.4868 7.11629 13.3837C7.01323 13.2807 6.95419 13.1416 6.95162 12.9959C6.94905 12.8502 7.00314 12.7091 7.1025 12.6025L9.705 10L7.1025 7.3975C7.00314 7.29087 6.94905 7.14983 6.95162 7.00411C6.95419 6.85838 7.01323 6.71934 7.11629 6.61628C7.21935 6.51322 7.35839 6.45419 7.50411 6.45162C7.64984 6.44905 7.79087 6.50314 7.8975 6.6025L10.5 9.205L13.1025 6.6025C13.2091 6.50314 13.3502 6.44905 13.4959 6.45162C13.6416 6.45419 13.7807 6.51322 13.8837 6.61628C13.9868 6.71934 14.0458 6.85838 14.0484 7.00411C14.051 7.14983 13.9969 7.29087 13.8975 7.3975ZM20.0625 10C20.0625 11.8913 19.5017 13.7401 18.4509 15.3126C17.4002 16.8852 15.9067 18.1108 14.1594 18.8346C12.4121 19.5584 10.4894 19.7477 8.63445 19.3788C6.77951 19.0098 5.07564 18.099 3.7383 16.7617C2.40096 15.4244 1.49022 13.7205 1.12125 11.8656C0.752274 10.0106 0.941643 8.08791 1.66541 6.34059C2.38917 4.59327 3.61482 3.09981 5.18736 2.04907C6.75991 0.998331 8.60872 0.4375 10.5 0.4375C13.0352 0.440477 15.4658 1.44891 17.2584 3.24158C19.0511 5.03425 20.0595 7.46478 20.0625 10ZM18.9375 10C18.9375 8.33122 18.4427 6.69992 17.5155 5.31238C16.5884 3.92484 15.2706 2.84338 13.7289 2.20477C12.1871 1.56615 10.4906 1.39906 8.85393 1.72462C7.21722 2.05019 5.7138 2.85378 4.53379 4.03379C3.35379 5.21379 2.55019 6.71721 2.22463 8.35393C1.89907 9.99064 2.06616 11.6871 2.70477 13.2289C3.34338 14.7706 4.42484 16.0884 5.81238 17.0155C7.19992 17.9426 8.83122 18.4375 10.5 18.4375C12.737 18.435 14.8817 17.5453 16.4635 15.9635C18.0453 14.3817 18.935 12.237 18.9375 10Z" fill="#F40D0D"/>
</svg>
