<svg width="1376" height="778" viewBox="0 0 1376 778" fill="none" xmlns="http://www.w3.org/2000/svg">
<g clip-path="url(#clip0_2020_3436)">
<rect width="1376" height="778" rx="12" fill="#F5F5F4"/>
<g opacity="0.7">
<rect x="-2.98023e-08" y="0.5" width="88.3934" height="88.3934" transform="matrix(0.866025 0.5 -0.866025 0.5 1317.02 -87.3268)" stroke="#E7E5E4"/>
<rect x="-2.98023e-08" y="0.5" width="88.3934" height="88.3934" transform="matrix(0.866025 0.5 -0.866025 0.5 1393.15 -43.3756)" stroke="#E7E5E4"/>
<rect x="-2.98023e-08" y="0.5" width="88.3934" height="88.3934" transform="matrix(0.866025 0.5 -0.866025 0.5 1164.77 -87.3268)" stroke="#E7E5E4"/>
<rect x="-2.98023e-08" y="0.5" width="88.3934" height="88.3934" transform="matrix(0.866025 0.5 -0.866025 0.5 1240.89 -43.3756)" stroke="#E7E5E4"/>
<rect x="-2.98023e-08" y="0.5" width="88.3934" height="88.3934" transform="matrix(0.866025 0.5 -0.866025 0.5 1317.02 0.577515)" stroke="#E7E5E4"/>
<rect x="-2.98023e-08" y="0.5" width="88.3934" height="88.3934" transform="matrix(0.866025 0.5 -0.866025 0.5 1393.15 44.5287)" stroke="#E7E5E4"/>
<rect x="-2.98023e-08" y="0.5" width="88.3934" height="88.3934" transform="matrix(0.866025 0.5 -0.866025 0.5 1012.51 -87.3268)" stroke="#E7E5E4"/>
<rect x="-2.98023e-08" y="0.5" width="88.3934" height="88.3934" transform="matrix(0.866025 0.5 -0.866025 0.5 1088.64 -43.3756)" stroke="#E7E5E4"/>
<rect x="-2.98023e-08" y="0.5" width="88.3934" height="88.3934" transform="matrix(0.866025 0.5 -0.866025 0.5 1164.77 0.577515)" stroke="#E7E5E4"/>
<rect x="-2.98023e-08" y="0.5" width="88.3934" height="88.3934" transform="matrix(0.866025 0.5 -0.866025 0.5 1240.89 44.5287)" stroke="#E7E5E4"/>
<rect x="-2.98023e-08" y="0.5" width="88.3934" height="88.3934" transform="matrix(0.866025 0.5 -0.866025 0.5 1317.02 88.4799)" stroke="#E7E5E4"/>
<rect x="-2.98023e-08" y="0.5" width="88.3934" height="88.3934" transform="matrix(0.866025 0.5 -0.866025 0.5 1393.15 132.433)" stroke="#E7E5E4"/>
<rect x="-2.98023e-08" y="0.5" width="88.3934" height="88.3934" transform="matrix(0.866025 0.5 -0.866025 0.5 860.261 -87.3268)" stroke="#E7E5E4"/>
<rect x="-2.98023e-08" y="0.5" width="88.3934" height="88.3934" transform="matrix(0.866025 0.5 -0.866025 0.5 936.388 -43.3756)" stroke="#E7E5E4"/>
<rect x="-2.98023e-08" y="0.5" width="88.3934" height="88.3934" transform="matrix(0.866025 0.5 -0.866025 0.5 1012.51 0.577515)" stroke="#E7E5E4"/>
<rect x="-2.98023e-08" y="0.5" width="88.3934" height="88.3934" transform="matrix(0.866025 0.5 -0.866025 0.5 1088.64 44.5287)" stroke="#E7E5E4"/>
<rect x="-2.98023e-08" y="0.5" width="88.3934" height="88.3934" transform="matrix(0.866025 0.5 -0.866025 0.5 1164.77 88.4799)" stroke="#E7E5E4"/>
<rect x="-2.98023e-08" y="0.5" width="88.3934" height="88.3934" transform="matrix(0.866025 0.5 -0.866025 0.5 1240.89 132.433)" stroke="#E7E5E4"/>
<rect x="-2.98023e-08" y="0.5" width="88.3934" height="88.3934" transform="matrix(0.866025 0.5 -0.866025 0.5 1317.02 176.384)" stroke="#E7E5E4"/>
<rect x="-2.98023e-08" y="0.5" width="88.3934" height="88.3934" transform="matrix(0.866025 0.5 -0.866025 0.5 1393.15 220.337)" stroke="#E7E5E4"/>
<rect x="-2.98023e-08" y="0.5" width="88.3934" height="88.3934" transform="matrix(0.866025 0.5 -0.866025 0.5 708.008 -87.3268)" stroke="#E7E5E4"/>
<rect x="-2.98023e-08" y="0.5" width="88.3934" height="88.3934" transform="matrix(0.866025 0.5 -0.866025 0.5 784.134 -43.3756)" stroke="#E7E5E4"/>
<rect x="-2.98023e-08" y="0.5" width="88.3934" height="88.3934" transform="matrix(0.866025 0.5 -0.866025 0.5 860.261 0.577515)" stroke="#E7E5E4"/>
<rect x="-2.98023e-08" y="0.5" width="88.3934" height="88.3934" transform="matrix(0.866025 0.5 -0.866025 0.5 936.387 44.5287)" stroke="#E7E5E4"/>
<rect x="-2.98023e-08" y="0.5" width="88.3934" height="88.3934" transform="matrix(0.866025 0.5 -0.866025 0.5 1012.51 88.4799)" stroke="#E7E5E4"/>
<rect x="-2.98023e-08" y="0.5" width="88.3934" height="88.3934" transform="matrix(0.866025 0.5 -0.866025 0.5 1088.64 132.433)" stroke="#E7E5E4"/>
<rect x="-2.98023e-08" y="0.5" width="88.3934" height="88.3934" transform="matrix(0.866025 0.5 -0.866025 0.5 1164.77 176.384)" stroke="#E7E5E4"/>
<rect x="-2.98023e-08" y="0.5" width="88.3934" height="88.3934" transform="matrix(0.866025 0.5 -0.866025 0.5 1240.89 220.337)" stroke="#E7E5E4"/>
<rect x="-2.98023e-08" y="0.5" width="88.3934" height="88.3934" transform="matrix(0.866025 0.5 -0.866025 0.5 1317.02 264.288)" stroke="#E7E5E4"/>
<rect x="-2.98023e-08" y="0.5" width="88.3934" height="88.3934" transform="matrix(0.866025 0.5 -0.866025 0.5 1393.15 308.238)" stroke="#E7E5E4"/>
<rect x="-2.98023e-08" y="0.5" width="88.3934" height="88.3934" transform="matrix(0.866025 0.5 -0.866025 0.5 555.754 -87.3268)" stroke="#E7E5E4"/>
<rect x="-2.98023e-08" y="0.5" width="88.3934" height="88.3934" transform="matrix(0.866025 0.5 -0.866025 0.5 631.881 -43.3756)" stroke="#E7E5E4"/>
<rect x="-2.98023e-08" y="0.5" width="88.3934" height="88.3934" transform="matrix(0.866025 0.5 -0.866025 0.5 708.008 0.577515)" stroke="#E7E5E4"/>
<rect x="-2.98023e-08" y="0.5" width="88.3934" height="88.3934" transform="matrix(0.866025 0.5 -0.866025 0.5 784.134 44.5306)" stroke="#E7E5E4"/>
<rect x="-2.98023e-08" y="0.5" width="88.3934" height="88.3934" transform="matrix(0.866025 0.5 -0.866025 0.5 860.261 88.4799)" stroke="#E7E5E4"/>
<rect x="-2.98023e-08" y="0.5" width="88.3934" height="88.3934" transform="matrix(0.866025 0.5 -0.866025 0.5 936.388 132.433)" stroke="#E7E5E4"/>
<rect x="-2.98023e-08" y="0.5" width="88.3934" height="88.3934" transform="matrix(0.866025 0.5 -0.866025 0.5 1012.51 176.384)" stroke="#E7E5E4"/>
<rect x="-2.98023e-08" y="0.5" width="88.3934" height="88.3934" transform="matrix(0.866025 0.5 -0.866025 0.5 1088.64 220.337)" stroke="#E7E5E4"/>
<rect x="-2.98023e-08" y="0.5" width="88.3934" height="88.3934" transform="matrix(0.866025 0.5 -0.866025 0.5 1164.77 264.288)" stroke="#E7E5E4"/>
<rect x="-2.98023e-08" y="0.5" width="88.3934" height="88.3934" transform="matrix(0.866025 0.5 -0.866025 0.5 1240.89 308.238)" stroke="#E7E5E4"/>
<rect x="-2.98023e-08" y="0.5" width="88.3934" height="88.3934" transform="matrix(0.866025 0.5 -0.866025 0.5 1317.02 352.191)" stroke="#E7E5E4"/>
<rect x="-2.98023e-08" y="0.5" width="88.3934" height="88.3934" transform="matrix(0.866025 0.5 -0.866025 0.5 1393.15 396.142)" stroke="#E7E5E4"/>
<rect x="-2.98023e-08" y="0.5" width="88.3934" height="88.3934" transform="matrix(0.866025 0.5 -0.866025 0.5 403.501 -87.3268)" stroke="#E7E5E4"/>
<rect x="-2.98023e-08" y="0.5" width="88.3934" height="88.3934" transform="matrix(0.866025 0.5 -0.866025 0.5 479.628 -43.3756)" stroke="#E7E5E4"/>
<rect x="-2.98023e-08" y="0.5" width="88.3934" height="88.3934" transform="matrix(0.866025 0.5 -0.866025 0.5 555.754 0.577515)" stroke="#E7E5E4"/>
<rect x="-2.98023e-08" y="0.5" width="88.3934" height="88.3934" transform="matrix(0.866025 0.5 -0.866025 0.5 631.881 44.5287)" stroke="#E7E5E4"/>
<rect x="-2.98023e-08" y="0.5" width="88.3934" height="88.3934" transform="matrix(0.866025 0.5 -0.866025 0.5 708.008 88.4799)" stroke="#E7E5E4"/>
<rect x="-2.98023e-08" y="0.5" width="88.3934" height="88.3934" transform="matrix(0.866025 0.5 -0.866025 0.5 784.135 132.433)" stroke="#E7E5E4"/>
<rect x="-2.98023e-08" y="0.5" width="88.3934" height="88.3934" transform="matrix(0.866025 0.5 -0.866025 0.5 860.261 176.384)" stroke="#E7E5E4"/>
<rect x="-2.98023e-08" y="0.5" width="88.3934" height="88.3934" transform="matrix(0.866025 0.5 -0.866025 0.5 936.388 220.337)" stroke="#E7E5E4"/>
<rect x="-2.98023e-08" y="0.5" width="88.3934" height="88.3934" transform="matrix(0.866025 0.5 -0.866025 0.5 1012.51 264.288)" stroke="#E7E5E4"/>
<rect x="-2.98023e-08" y="0.5" width="88.3934" height="88.3934" transform="matrix(0.866025 0.5 -0.866025 0.5 1088.64 308.238)" stroke="#E7E5E4"/>
<rect x="-2.98023e-08" y="0.5" width="88.3934" height="88.3934" transform="matrix(0.866025 0.5 -0.866025 0.5 1164.77 352.191)" stroke="#E7E5E4"/>
<rect x="-2.98023e-08" y="0.5" width="88.3934" height="88.3934" transform="matrix(0.866025 0.5 -0.866025 0.5 1240.89 396.142)" stroke="#E7E5E4"/>
<rect x="-2.98023e-08" y="0.5" width="88.3934" height="88.3934" transform="matrix(0.866025 0.5 -0.866025 0.5 1317.02 440.095)" stroke="#E7E5E4"/>
<rect x="-2.98023e-08" y="0.5" width="88.3934" height="88.3934" transform="matrix(0.866025 0.5 -0.866025 0.5 1393.15 484.046)" stroke="#E7E5E4"/>
<rect x="-2.98023e-08" y="0.5" width="88.3934" height="88.3934" transform="matrix(0.866025 0.5 -0.866025 0.5 251.247 -87.3268)" stroke="#E7E5E4"/>
<rect x="-2.98023e-08" y="0.5" width="88.3934" height="88.3934" transform="matrix(0.866025 0.5 -0.866025 0.5 327.375 -43.3756)" stroke="#E7E5E4"/>
<rect x="-2.98023e-08" y="0.5" width="88.3934" height="88.3934" transform="matrix(0.866025 0.5 -0.866025 0.5 403.501 0.577515)" stroke="#E7E5E4"/>
<rect x="-2.98023e-08" y="0.5" width="88.3934" height="88.3934" transform="matrix(0.866025 0.5 -0.866025 0.5 479.627 44.5306)" stroke="#E7E5E4"/>
<rect x="-2.98023e-08" y="0.5" width="88.3934" height="88.3934" transform="matrix(0.866025 0.5 -0.866025 0.5 555.755 88.4799)" stroke="#E7E5E4"/>
<rect x="-2.98023e-08" y="0.5" width="88.3934" height="88.3934" transform="matrix(0.866025 0.5 -0.866025 0.5 631.881 132.433)" stroke="#E7E5E4"/>
<rect x="-2.98023e-08" y="0.5" width="88.3934" height="88.3934" transform="matrix(0.866025 0.5 -0.866025 0.5 708.008 176.384)" stroke="#E7E5E4"/>
<rect x="-2.98023e-08" y="0.5" width="88.3934" height="88.3934" transform="matrix(0.866025 0.5 -0.866025 0.5 784.134 220.337)" stroke="#E7E5E4"/>
<rect x="-2.98023e-08" y="0.5" width="88.3934" height="88.3934" transform="matrix(0.866025 0.5 -0.866025 0.5 860.261 264.288)" stroke="#E7E5E4"/>
<rect x="-2.98023e-08" y="0.5" width="88.3934" height="88.3934" transform="matrix(0.866025 0.5 -0.866025 0.5 936.388 308.238)" stroke="#E7E5E4"/>
<path d="M1012.08 352.441L1088.63 396.637L1012.08 440.834L935.53 396.637L1012.08 352.441Z" stroke="#E7E5E4"/>
<rect x="-2.98023e-08" y="0.5" width="88.3934" height="88.3934" transform="matrix(0.866025 0.5 -0.866025 0.5 1088.64 396.142)" stroke="#E7E5E4"/>
<rect x="-2.98023e-08" y="0.5" width="88.3934" height="88.3934" transform="matrix(0.866025 0.5 -0.866025 0.5 1164.77 440.095)" stroke="#E7E5E4"/>
<rect x="-2.98023e-08" y="0.5" width="88.3934" height="88.3934" transform="matrix(0.866025 0.5 -0.866025 0.5 1240.89 484.044)" stroke="#E7E5E4"/>
<rect x="-2.98023e-08" y="0.5" width="88.3934" height="88.3934" transform="matrix(0.866025 0.5 -0.866025 0.5 1317.02 527.997)" stroke="#E7E5E4"/>
<rect x="-2.98023e-08" y="0.5" width="88.3934" height="88.3934" transform="matrix(0.866025 0.5 -0.866025 0.5 1393.15 571.951)" stroke="#E7E5E4"/>
<rect x="-2.98023e-08" y="0.5" width="88.3934" height="88.3934" transform="matrix(0.866025 0.5 -0.866025 0.5 98.9934 -87.3268)" stroke="#E7E5E4"/>
<rect x="-2.98023e-08" y="0.5" width="88.3934" height="88.3934" transform="matrix(0.866025 0.5 -0.866025 0.5 175.121 -43.3756)" stroke="#E7E5E4"/>
<rect x="-2.98023e-08" y="0.5" width="88.3934" height="88.3934" transform="matrix(0.866025 0.5 -0.866025 0.5 251.247 0.577515)" stroke="#E7E5E4"/>
<rect x="-2.98023e-08" y="0.5" width="88.3934" height="88.3934" transform="matrix(0.866025 0.5 -0.866025 0.5 327.375 44.5306)" stroke="#E7E5E4"/>
<rect x="-2.98023e-08" y="0.5" width="88.3934" height="88.3934" transform="matrix(0.866025 0.5 -0.866025 0.5 403.5 88.4799)" stroke="#E7E5E4"/>
<rect x="-2.98023e-08" y="0.5" width="88.3934" height="88.3934" transform="matrix(0.866025 0.5 -0.866025 0.5 479.627 132.433)" stroke="#E7E5E4"/>
<rect x="-2.98023e-08" y="0.5" width="88.3934" height="88.3934" transform="matrix(0.866025 0.5 -0.866025 0.5 555.755 176.384)" stroke="#E7E5E4"/>
<rect x="-2.98023e-08" y="0.5" width="88.3934" height="88.3934" transform="matrix(0.866025 0.5 -0.866025 0.5 631.881 220.337)" stroke="#E7E5E4"/>
<rect x="-2.98023e-08" y="0.5" width="88.3934" height="88.3934" transform="matrix(0.866025 0.5 -0.866025 0.5 708.008 264.288)" stroke="#E7E5E4"/>
<rect x="-2.98023e-08" y="0.5" width="88.3934" height="88.3934" transform="matrix(0.866025 0.5 -0.866025 0.5 784.134 308.238)" stroke="#E7E5E4"/>
<rect x="-2.98023e-08" y="0.5" width="88.3934" height="88.3934" transform="matrix(0.866025 0.5 -0.866025 0.5 860.261 352.191)" stroke="#E7E5E4"/>
<rect x="-2.98023e-08" y="0.5" width="88.3934" height="88.3934" transform="matrix(0.866025 0.5 -0.866025 0.5 936.388 396.142)" stroke="#E7E5E4"/>
<rect x="-2.98023e-08" y="0.5" width="88.3934" height="88.3934" transform="matrix(0.866025 0.5 -0.866025 0.5 1012.51 440.095)" stroke="#E7E5E4"/>
<rect x="-2.98023e-08" y="0.5" width="88.3934" height="88.3934" transform="matrix(0.866025 0.5 -0.866025 0.5 1088.64 484.046)" stroke="#E7E5E4"/>
<rect x="-2.98023e-08" y="0.5" width="88.3934" height="88.3934" transform="matrix(0.866025 0.5 -0.866025 0.5 1164.77 527.997)" stroke="#E7E5E4"/>
<rect x="-2.98023e-08" y="0.5" width="88.3934" height="88.3934" transform="matrix(0.866025 0.5 -0.866025 0.5 1240.89 571.951)" stroke="#E7E5E4"/>
<rect x="-2.98023e-08" y="0.5" width="88.3934" height="88.3934" transform="matrix(0.866025 0.5 -0.866025 0.5 1317.02 615.902)" stroke="#E7E5E4"/>
<rect x="-2.98023e-08" y="0.5" width="88.3934" height="88.3934" transform="matrix(0.866025 0.5 -0.866025 0.5 1393.15 659.855)" stroke="#E7E5E4"/>
<rect x="-2.98023e-08" y="0.5" width="88.3934" height="88.3934" transform="matrix(0.866025 0.5 -0.866025 0.5 -53.2601 -87.3268)" stroke="#E7E5E4"/>
<rect x="-2.98023e-08" y="0.5" width="88.3934" height="88.3934" transform="matrix(0.866025 0.5 -0.866025 0.5 22.8679 -43.3756)" stroke="#E7E5E4"/>
<rect x="-2.98023e-08" y="0.5" width="88.3934" height="88.3934" transform="matrix(0.866025 0.5 -0.866025 0.5 98.9944 0.577515)" stroke="#E7E5E4"/>
<rect x="-2.98023e-08" y="0.5" width="88.3934" height="88.3934" transform="matrix(0.866025 0.5 -0.866025 0.5 175.121 44.5287)" stroke="#E7E5E4"/>
<rect x="-2.98023e-08" y="0.5" width="88.3934" height="88.3934" transform="matrix(0.866025 0.5 -0.866025 0.5 251.247 88.48)" stroke="#E7E5E4"/>
<rect x="-2.98023e-08" y="0.5" width="88.3934" height="88.3934" transform="matrix(0.866025 0.5 -0.866025 0.5 327.374 132.433)" stroke="#E7E5E4"/>
<rect x="-2.98023e-08" y="0.5" width="88.3934" height="88.3934" transform="matrix(0.866025 0.5 -0.866025 0.5 403.5 176.384)" stroke="#E7E5E4"/>
<rect x="-2.98023e-08" y="0.5" width="88.3934" height="88.3934" transform="matrix(0.866025 0.5 -0.866025 0.5 479.627 220.337)" stroke="#E7E5E4"/>
<rect x="-2.98023e-08" y="0.5" width="88.3934" height="88.3934" transform="matrix(0.866025 0.5 -0.866025 0.5 555.755 264.288)" stroke="#E7E5E4"/>
<rect x="-2.98023e-08" y="0.5" width="88.3934" height="88.3934" transform="matrix(0.866025 0.5 -0.866025 0.5 631.881 308.238)" stroke="#E7E5E4"/>
<rect x="-2.98023e-08" y="0.5" width="88.3934" height="88.3934" transform="matrix(0.866025 0.5 -0.866025 0.5 708.008 352.191)" stroke="#E7E5E4"/>
<rect x="-2.98023e-08" y="0.5" width="88.3934" height="88.3934" transform="matrix(0.866025 0.5 -0.866025 0.5 784.134 396.142)" stroke="#E7E5E4"/>
<rect x="-2.98023e-08" y="0.5" width="88.3934" height="88.3934" transform="matrix(0.866025 0.5 -0.866025 0.5 860.261 440.095)" stroke="#E7E5E4"/>
<rect x="-2.98023e-08" y="0.5" width="88.3934" height="88.3934" transform="matrix(0.866025 0.5 -0.866025 0.5 936.386 484.044)" stroke="#E7E5E4"/>
<rect x="-2.98023e-08" y="0.5" width="88.3934" height="88.3934" transform="matrix(0.866025 0.5 -0.866025 0.5 1012.51 527.997)" stroke="#E7E5E4"/>
<rect x="-2.98023e-08" y="0.5" width="88.3934" height="88.3934" transform="matrix(0.866025 0.5 -0.866025 0.5 1088.64 571.949)" stroke="#E7E5E4"/>
<rect x="-2.98023e-08" y="0.5" width="88.3934" height="88.3934" transform="matrix(0.866025 0.5 -0.866025 0.5 1164.77 615.902)" stroke="#E7E5E4"/>
<rect x="-2.98023e-08" y="0.5" width="88.3934" height="88.3934" transform="matrix(0.866025 0.5 -0.866025 0.5 1240.89 659.855)" stroke="#E7E5E4"/>
<rect x="-2.98023e-08" y="0.5" width="88.3934" height="88.3934" transform="matrix(0.866025 0.5 -0.866025 0.5 1317.02 703.804)" stroke="#E7E5E4"/>
<rect x="-2.98023e-08" y="0.5" width="88.3934" height="88.3934" transform="matrix(0.866025 0.5 -0.866025 0.5 1393.15 747.755)" stroke="#E7E5E4"/>
<rect x="-2.98023e-08" y="0.5" width="88.3934" height="88.3934" transform="matrix(0.866025 0.5 -0.866025 0.5 -53.2601 0.577515)" stroke="#E7E5E4"/>
<rect x="-2.98023e-08" y="0.5" width="88.3934" height="88.3934" transform="matrix(0.866025 0.5 -0.866025 0.5 22.8679 44.5287)" stroke="#E7E5E4"/>
<rect x="-2.98023e-08" y="0.5" width="88.3934" height="88.3934" transform="matrix(0.866025 0.5 -0.866025 0.5 98.9944 88.4799)" stroke="#E7E5E4"/>
<rect x="-2.98023e-08" y="0.5" width="88.3934" height="88.3934" transform="matrix(0.866025 0.5 -0.866025 0.5 175.121 132.433)" stroke="#E7E5E4"/>
<rect x="-2.98023e-08" y="0.5" width="88.3934" height="88.3934" transform="matrix(0.866025 0.5 -0.866025 0.5 251.247 176.384)" stroke="#E7E5E4"/>
<rect x="-2.98023e-08" y="0.5" width="88.3934" height="88.3934" transform="matrix(0.866025 0.5 -0.866025 0.5 327.374 220.337)" stroke="#E7E5E4"/>
<rect x="-2.98023e-08" y="0.5" width="88.3934" height="88.3934" transform="matrix(0.866025 0.5 -0.866025 0.5 403.501 264.289)" stroke="#E7E5E4"/>
<rect x="-2.98023e-08" y="0.5" width="88.3934" height="88.3934" transform="matrix(0.866025 0.5 -0.866025 0.5 479.627 308.238)" stroke="#E7E5E4"/>
<rect x="-2.98023e-08" y="0.5" width="88.3934" height="88.3934" transform="matrix(0.866025 0.5 -0.866025 0.5 555.755 352.191)" stroke="#E7E5E4"/>
<rect x="-2.98023e-08" y="0.5" width="88.3934" height="88.3934" transform="matrix(0.866025 0.5 -0.866025 0.5 631.881 396.142)" stroke="#E7E5E4"/>
<rect x="-2.98023e-08" y="0.5" width="88.3934" height="88.3934" transform="matrix(0.866025 0.5 -0.866025 0.5 708.007 440.095)" stroke="#E7E5E4"/>
<rect x="-2.98023e-08" y="0.5" width="88.3934" height="88.3934" transform="matrix(0.866025 0.5 -0.866025 0.5 784.133 484.044)" stroke="#E7E5E4"/>
<rect x="-2.98023e-08" y="0.5" width="88.3934" height="88.3934" transform="matrix(0.866025 0.5 -0.866025 0.5 860.261 527.997)" stroke="#E7E5E4"/>
<rect x="-2.98023e-08" y="0.5" width="88.3934" height="88.3934" transform="matrix(0.866025 0.5 -0.866025 0.5 936.386 571.951)" stroke="#E7E5E4"/>
<rect x="-2.98023e-08" y="0.5" width="88.3934" height="88.3934" transform="matrix(0.866025 0.5 -0.866025 0.5 1012.51 615.902)" stroke="#E7E5E4"/>
<rect x="-2.98023e-08" y="0.5" width="88.3934" height="88.3934" transform="matrix(0.866025 0.5 -0.866025 0.5 1088.64 659.855)" stroke="#E7E5E4"/>
<rect x="-2.98023e-08" y="0.5" width="88.3934" height="88.3934" transform="matrix(0.866025 0.5 -0.866025 0.5 1164.77 703.804)" stroke="#E7E5E4"/>
<rect x="-2.98023e-08" y="0.5" width="88.3934" height="88.3934" transform="matrix(0.866025 0.5 -0.866025 0.5 1240.89 747.755)" stroke="#E7E5E4"/>
<rect x="-2.98023e-08" y="0.5" width="88.3934" height="88.3934" transform="matrix(0.866025 0.5 -0.866025 0.5 -53.2601 88.4799)" stroke="#E7E5E4"/>
<rect x="-2.98023e-08" y="0.5" width="88.3934" height="88.3934" transform="matrix(0.866025 0.5 -0.866025 0.5 22.8678 132.431)" stroke="#E7E5E4"/>
<rect x="-2.98023e-08" y="0.5" width="88.3934" height="88.3934" transform="matrix(0.866025 0.5 -0.866025 0.5 98.9933 176.384)" stroke="#E7E5E4"/>
<rect x="-2.98023e-08" y="0.5" width="88.3934" height="88.3934" transform="matrix(0.866025 0.5 -0.866025 0.5 175.121 220.337)" stroke="#E7E5E4"/>
<rect x="-2.98023e-08" y="0.5" width="88.3934" height="88.3934" transform="matrix(0.866025 0.5 -0.866025 0.5 251.246 264.288)" stroke="#E7E5E4"/>
<rect x="-2.98023e-08" y="0.5" width="88.3934" height="88.3934" transform="matrix(0.866025 0.5 -0.866025 0.5 327.374 308.238)" stroke="#E7E5E4"/>
<rect x="-2.98023e-08" y="0.5" width="88.3934" height="88.3934" transform="matrix(0.866025 0.5 -0.866025 0.5 403.5 352.191)" stroke="#E7E5E4"/>
<rect x="-2.98023e-08" y="0.5" width="88.3934" height="88.3934" transform="matrix(0.866025 0.5 -0.866025 0.5 479.628 396.142)" stroke="#E7E5E4"/>
<rect x="-2.98023e-08" y="0.5" width="88.3934" height="88.3934" transform="matrix(0.866025 0.5 -0.866025 0.5 555.755 440.095)" stroke="#E7E5E4"/>
<rect x="-2.98023e-08" y="0.5" width="88.3934" height="88.3934" transform="matrix(0.866025 0.5 -0.866025 0.5 631.881 484.046)" stroke="#E7E5E4"/>
<rect x="-2.98023e-08" y="0.5" width="88.3934" height="88.3934" transform="matrix(0.866025 0.5 -0.866025 0.5 708.007 527.997)" stroke="#E7E5E4"/>
<rect x="-2.98023e-08" y="0.5" width="88.3934" height="88.3934" transform="matrix(0.866025 0.5 -0.866025 0.5 784.134 571.951)" stroke="#E7E5E4"/>
<rect x="-2.98023e-08" y="0.5" width="88.3934" height="88.3934" transform="matrix(0.866025 0.5 -0.866025 0.5 860.261 615.902)" stroke="#E7E5E4"/>
<rect x="-2.98023e-08" y="0.5" width="88.3934" height="88.3934" transform="matrix(0.866025 0.5 -0.866025 0.5 936.386 659.855)" stroke="#E7E5E4"/>
<rect x="-2.98023e-08" y="0.5" width="88.3934" height="88.3934" transform="matrix(0.866025 0.5 -0.866025 0.5 1012.51 703.804)" stroke="#E7E5E4"/>
<rect x="-2.98023e-08" y="0.5" width="88.3934" height="88.3934" transform="matrix(0.866025 0.5 -0.866025 0.5 1088.64 747.755)" stroke="#E7E5E4"/>
<rect x="-2.98023e-08" y="0.5" width="88.3934" height="88.3934" transform="matrix(0.866025 0.5 -0.866025 0.5 -53.26 176.384)" stroke="#E7E5E4"/>
<rect x="-2.98023e-08" y="0.5" width="88.3934" height="88.3934" transform="matrix(0.866025 0.5 -0.866025 0.5 22.8678 220.337)" stroke="#E7E5E4"/>
<rect x="-2.98023e-08" y="0.5" width="88.3934" height="88.3934" transform="matrix(0.866025 0.5 -0.866025 0.5 98.9933 264.289)" stroke="#E7E5E4"/>
<rect x="-2.98023e-08" y="0.5" width="88.3934" height="88.3934" transform="matrix(0.866025 0.5 -0.866025 0.5 175.121 308.238)" stroke="#E7E5E4"/>
<rect x="-2.98023e-08" y="0.5" width="88.3934" height="88.3934" transform="matrix(0.866025 0.5 -0.866025 0.5 251.246 352.191)" stroke="#E7E5E4"/>
<rect x="-2.98023e-08" y="0.5" width="88.3934" height="88.3934" transform="matrix(0.866025 0.5 -0.866025 0.5 327.375 396.142)" stroke="#E7E5E4"/>
<rect x="-2.98023e-08" y="0.5" width="88.3934" height="88.3934" transform="matrix(0.866025 0.5 -0.866025 0.5 403.5 440.095)" stroke="#E7E5E4"/>
<rect x="-2.98023e-08" y="0.5" width="88.3934" height="88.3934" transform="matrix(0.866025 0.5 -0.866025 0.5 479.627 484.046)" stroke="#E7E5E4"/>
<rect x="-2.98023e-08" y="0.5" width="88.3934" height="88.3934" transform="matrix(0.866025 0.5 -0.866025 0.5 555.754 527.997)" stroke="#E7E5E4"/>
<rect x="-2.98023e-08" y="0.5" width="88.3934" height="88.3934" transform="matrix(0.866025 0.5 -0.866025 0.5 631.88 571.951)" stroke="#E7E5E4"/>
<rect x="-2.98023e-08" y="0.5" width="88.3934" height="88.3934" transform="matrix(0.866025 0.5 -0.866025 0.5 708.007 615.902)" stroke="#E7E5E4"/>
<rect x="-2.98023e-08" y="0.5" width="88.3934" height="88.3934" transform="matrix(0.866025 0.5 -0.866025 0.5 784.134 659.855)" stroke="#E7E5E4"/>
<rect x="-2.98023e-08" y="0.5" width="88.3934" height="88.3934" transform="matrix(0.866025 0.5 -0.866025 0.5 860.261 703.804)" stroke="#E7E5E4"/>
<rect x="-2.98023e-08" y="0.5" width="88.3934" height="88.3934" transform="matrix(0.866025 0.5 -0.866025 0.5 936.386 747.755)" stroke="#E7E5E4"/>
<rect x="-2.98023e-08" y="0.5" width="88.3934" height="88.3934" transform="matrix(0.866025 0.5 -0.866025 0.5 -53.2596 264.288)" stroke="#E7E5E4"/>
<rect x="-2.98023e-08" y="0.5" width="88.3934" height="88.3934" transform="matrix(0.866025 0.5 -0.866025 0.5 22.8678 308.238)" stroke="#E7E5E4"/>
<rect x="-2.98023e-08" y="0.5" width="88.3934" height="88.3934" transform="matrix(0.866025 0.5 -0.866025 0.5 98.9939 352.189)" stroke="#E7E5E4"/>
<rect x="-2.98023e-08" y="0.5" width="88.3934" height="88.3934" transform="matrix(0.866025 0.5 -0.866025 0.5 175.121 396.144)" stroke="#E7E5E4"/>
<rect x="-2.98023e-08" y="0.5" width="88.3934" height="88.3934" transform="matrix(0.866025 0.5 -0.866025 0.5 251.246 440.097)" stroke="#E7E5E4"/>
<rect x="-2.98023e-08" y="0.5" width="88.3934" height="88.3934" transform="matrix(0.866025 0.5 -0.866025 0.5 327.375 484.046)" stroke="#E7E5E4"/>
<rect x="-2.98023e-08" y="0.5" width="88.3934" height="88.3934" transform="matrix(0.866025 0.5 -0.866025 0.5 403.5 527.997)" stroke="#E7E5E4"/>
<rect x="-2.98023e-08" y="0.5" width="88.3934" height="88.3934" transform="matrix(0.866025 0.5 -0.866025 0.5 479.627 571.953)" stroke="#E7E5E4"/>
<rect x="-2.98023e-08" y="0.5" width="88.3934" height="88.3934" transform="matrix(0.866025 0.5 -0.866025 0.5 555.755 615.902)" stroke="#E7E5E4"/>
<rect x="-2.98023e-08" y="0.5" width="88.3934" height="88.3934" transform="matrix(0.866025 0.5 -0.866025 0.5 631.88 659.851)" stroke="#E7E5E4"/>
<rect x="-2.98023e-08" y="0.5" width="88.3934" height="88.3934" transform="matrix(0.866025 0.5 -0.866025 0.5 708.007 703.804)" stroke="#E7E5E4"/>
<rect x="-2.98023e-08" y="0.5" width="88.3934" height="88.3934" transform="matrix(0.866025 0.5 -0.866025 0.5 784.134 747.755)" stroke="#E7E5E4"/>
<rect x="-2.98023e-08" y="0.5" width="88.3934" height="88.3934" transform="matrix(0.866025 0.5 -0.866025 0.5 -53.26 352.191)" stroke="#E7E5E4"/>
<rect x="-2.98023e-08" y="0.5" width="88.3934" height="88.3934" transform="matrix(0.866025 0.5 -0.866025 0.5 22.8673 396.144)" stroke="#E7E5E4"/>
<rect x="-2.98023e-08" y="0.5" width="88.3934" height="88.3934" transform="matrix(0.866025 0.5 -0.866025 0.5 98.9944 440.095)" stroke="#E7E5E4"/>
<rect x="-2.98023e-08" y="0.5" width="88.3934" height="88.3934" transform="matrix(0.866025 0.5 -0.866025 0.5 175.121 484.048)" stroke="#E7E5E4"/>
<rect x="-2.98023e-08" y="0.5" width="88.3934" height="88.3934" transform="matrix(0.866025 0.5 -0.866025 0.5 251.246 527.999)" stroke="#E7E5E4"/>
<rect x="-2.98023e-08" y="0.5" width="88.3934" height="88.3934" transform="matrix(0.866025 0.5 -0.866025 0.5 327.375 571.951)" stroke="#E7E5E4"/>
<rect x="-2.98023e-08" y="0.5" width="88.3934" height="88.3934" transform="matrix(0.866025 0.5 -0.866025 0.5 403.5 615.904)" stroke="#E7E5E4"/>
<rect x="-2.98023e-08" y="0.5" width="88.3934" height="88.3934" transform="matrix(0.866025 0.5 -0.866025 0.5 479.627 659.855)" stroke="#E7E5E4"/>
<rect x="-2.98023e-08" y="0.5" width="88.3934" height="88.3934" transform="matrix(0.866025 0.5 -0.866025 0.5 555.755 703.802)" stroke="#E7E5E4"/>
<rect x="-2.98023e-08" y="0.5" width="88.3934" height="88.3934" transform="matrix(0.866025 0.5 -0.866025 0.5 631.88 747.755)" stroke="#E7E5E4"/>
<rect x="-2.98023e-08" y="0.5" width="88.3934" height="88.3934" transform="matrix(0.866025 0.5 -0.866025 0.5 -53.26 440.095)" stroke="#E7E5E4"/>
<rect x="-2.98023e-08" y="0.5" width="88.3934" height="88.3934" transform="matrix(0.866025 0.5 -0.866025 0.5 22.8669 484.046)" stroke="#E7E5E4"/>
<rect x="-2.98023e-08" y="0.5" width="88.3934" height="88.3934" transform="matrix(0.866025 0.5 -0.866025 0.5 98.9944 527.997)" stroke="#E7E5E4"/>
<rect x="-2.98023e-08" y="0.5" width="88.3934" height="88.3934" transform="matrix(0.866025 0.5 -0.866025 0.5 175.121 571.951)" stroke="#E7E5E4"/>
<rect x="-2.98023e-08" y="0.5" width="88.3934" height="88.3934" transform="matrix(0.866025 0.5 -0.866025 0.5 251.247 615.904)" stroke="#E7E5E4"/>
<rect x="-2.98023e-08" y="0.5" width="88.3934" height="88.3934" transform="matrix(0.866025 0.5 -0.866025 0.5 327.375 659.851)" stroke="#E7E5E4"/>
<rect x="-2.98023e-08" y="0.5" width="88.3934" height="88.3934" transform="matrix(0.866025 0.5 -0.866025 0.5 403.501 703.804)" stroke="#E7E5E4"/>
<rect x="-2.98023e-08" y="0.5" width="88.3934" height="88.3934" transform="matrix(0.866025 0.5 -0.866025 0.5 479.627 747.757)" stroke="#E7E5E4"/>
<rect x="-2.98023e-08" y="0.5" width="88.3934" height="88.3934" transform="matrix(0.866025 0.5 -0.866025 0.5 -53.26 527.997)" stroke="#E7E5E4"/>
<rect x="-2.98023e-08" y="0.5" width="88.3934" height="88.3934" transform="matrix(0.866025 0.5 -0.866025 0.5 22.8669 571.951)" stroke="#E7E5E4"/>
<rect x="-2.98023e-08" y="0.5" width="88.3934" height="88.3934" transform="matrix(0.866025 0.5 -0.866025 0.5 98.9944 615.902)" stroke="#E7E5E4"/>
<rect x="-2.98023e-08" y="0.5" width="88.3934" height="88.3934" transform="matrix(0.866025 0.5 -0.866025 0.5 175.121 659.851)" stroke="#E7E5E4"/>
<rect x="-2.98023e-08" y="0.5" width="88.3934" height="88.3934" transform="matrix(0.866025 0.5 -0.866025 0.5 251.247 703.804)" stroke="#E7E5E4"/>
<rect x="-2.98023e-08" y="0.5" width="88.3934" height="88.3934" transform="matrix(0.866025 0.5 -0.866025 0.5 327.375 747.755)" stroke="#E7E5E4"/>
</g>
</g>
<defs>
<clipPath id="clip0_2020_3436">
<rect width="1376" height="778" rx="12" fill="white"/>
</clipPath>
</defs>
</svg>
