<svg width="226" height="148" viewBox="0 0 226 148" fill="none" xmlns="http://www.w3.org/2000/svg">
<path d="M202.46 131.17C202.46 132.675 201.64 134.187 200.031 135.468C199.651 135.766 199.226 136.057 198.75 136.325C196.284 137.748 193.05 138.471 189.802 138.471C186.554 138.471 183.328 137.748 180.855 136.325C174.895 132.883 169.128 129.329 163.571 125.664L136.095 107.531C133.376 105.735 129.032 105.042 125.158 105.855C117.351 107.516 108.724 107.516 100.924 105.855C97.0495 105.035 92.6988 105.728 89.987 107.531L62.4965 125.664C56.9463 129.329 51.1873 132.883 45.2273 136.325C40.0793 139.298 31.6312 139.178 26.7589 135.975C26.5205 135.818 26.2969 135.655 26.0883 135.498C24.4865 134.239 23.7192 132.749 23.7192 131.259C23.7192 129.285 25.0602 127.303 27.6379 125.813C33.4042 122.483 39.3493 119.272 45.4807 116.188L77.2177 100.155C80.3169 98.5833 81.5237 96.0727 80.1082 93.8302C77.8881 90.3511 77.3815 86.5889 78.6033 82.9831C78.9535 81.9177 79.4601 80.8673 80.1082 79.8392C81.5237 77.5968 80.3169 75.086 77.2177 73.5141L45.801 57.6456C39.461 54.4421 33.2998 51.1194 27.3398 47.6775C26.863 47.4019 26.4309 47.1113 26.051 46.8133C24.4418 45.5319 23.6372 44.027 23.6372 42.5146C23.6372 40.5031 25.0751 38.4842 27.9359 37.0314C33.0093 34.4388 40.7947 34.7816 45.5776 37.5455C51.411 40.9204 57.0655 44.4144 62.5114 48.0127L90.0019 66.1461C92.7211 67.9416 97.0644 68.6344 100.938 67.8224C108.739 66.1685 117.366 66.1685 125.173 67.8224C129.047 68.6419 133.398 67.949 136.11 66.1461L163.586 48.0127C167.534 45.4127 171.594 42.8573 175.744 40.369C177.435 39.3558 179.141 38.3427 180.87 37.3518C185.995 34.3867 194.436 34.4985 199.308 37.6945C201.238 38.9536 202.229 40.5181 202.348 42.0826V42.5892C202.296 44.0569 201.491 45.532 199.994 46.7836C199.532 47.1784 199.003 47.536 198.414 47.8787C197.401 48.4598 196.388 49.0334 195.367 49.6145C190.473 52.371 185.451 55.0605 180.296 57.6531L148.894 73.5215C145.788 75.0935 144.573 77.6041 146.003 79.8466C146.652 80.8672 147.158 81.9252 147.501 82.9905C148.723 86.5963 148.216 90.3585 146.003 93.8377C144.581 96.0801 145.788 98.5908 148.894 100.163L180.296 116.031C186.636 119.235 192.804 122.557 198.764 125.999C201.23 127.437 202.475 129.307 202.475 131.177L202.46 131.17Z" fill="#F5F5F4" stroke="#D7D3D0" stroke-width="1.2" stroke-linecap="round" stroke-linejoin="round"/>
<path d="M134.978 86.0972C134.978 87.0135 134.806 87.9299 134.464 88.8314C133.592 91.1185 131.625 93.2864 128.548 95.0595C119.981 100.006 106.079 100.006 97.5117 95.0595C94.4349 93.2864 92.4605 91.1111 91.5963 88.8314C91.2536 87.9374 91.0823 87.0135 91.0823 86.0972C91.0823 82.8564 93.2205 79.6157 97.5117 77.1423C106.079 72.1956 119.981 72.1956 128.548 77.1423C132.832 79.6157 134.978 82.8564 134.978 86.0972Z" fill="#A9A29D" stroke="#D7D3D0" stroke-width="1.2" stroke-miterlimit="10" stroke-linecap="round"/>
<path d="M124.309 86.0971C124.309 86.5143 124.22 86.9316 124.048 87.3413C123.601 88.3769 122.588 89.3677 121.009 90.1723C116.606 92.4222 109.469 92.4222 105.058 90.1723C103.479 89.3677 102.466 88.3769 102.019 87.3413C101.84 86.9316 101.758 86.5143 101.758 86.0971C101.758 84.622 102.861 83.1544 105.058 82.0295C109.461 79.7796 116.599 79.7796 121.009 82.0295C123.214 83.1544 124.309 84.6295 124.309 86.0971Z" fill="#A9A29D" stroke="#D7D3D0" stroke-width="1.2" stroke-linecap="round" stroke-linejoin="round"/>
<path d="M202.333 42.5965V51.2013C202.259 53.1234 200.91 55.0454 198.4 56.4907C192.544 59.8581 186.502 63.1212 180.281 66.2651L148.865 82.1337C148.351 82.3944 147.881 82.6775 147.479 82.9904C147.136 81.9251 146.63 80.8746 145.981 79.8465C144.558 77.604 145.765 75.0934 148.872 73.5214L180.274 57.653C186.502 54.5091 192.544 51.246 198.392 47.8786C198.981 47.5359 199.51 47.1783 199.972 46.7835C201.469 45.5319 202.274 44.0568 202.326 42.5891L202.333 42.5965Z" fill="#FAFAF9" stroke="#D7D3D0" stroke-width="1.2" stroke-linecap="round" stroke-linejoin="round"/>
<path d="M80.0929 79.8466C79.4447 80.8672 78.9381 81.9252 78.5879 82.9905C78.1856 82.6776 77.7239 82.3945 77.2024 82.1338L45.7856 66.2652C39.4456 63.0617 33.2846 59.739 27.3172 56.2971C24.8512 54.8742 23.6218 53.0043 23.6218 51.1343V42.5295C23.6218 44.0344 24.4264 45.5468 26.0356 46.8282C26.4156 47.1262 26.8553 47.4168 27.3246 47.6924C33.2846 51.1343 39.4456 54.457 45.7856 57.6605L77.2024 73.529C80.3016 75.1009 81.5084 77.6116 80.0929 79.854V79.8466Z" fill="#FAFAF9" stroke="#D7D3D0" stroke-width="1.2" stroke-linecap="round" stroke-linejoin="round"/>
<path d="M202.46 131.17V139.767C202.46 141.637 201.223 143.507 198.75 144.93C196.269 146.353 193.036 147.068 189.802 147.068C186.569 147.068 183.328 146.353 180.855 144.93C174.888 141.488 169.121 137.934 163.571 134.269L154.452 128.249C153.432 127.534 152.389 126.841 151.323 126.186C141.594 120.144 130.344 116.329 118.268 115.48C116.539 115.346 114.796 115.286 113.03 115.286C111.264 115.286 109.529 115.346 107.8 115.48C95.7238 116.329 84.4669 120.136 74.7447 126.186C73.6197 126.886 72.5097 127.609 71.4294 128.376L62.4969 134.276C56.9467 137.942 51.1878 141.496 45.2129 144.937C40.0799 147.903 31.6167 147.791 26.7518 144.587C24.6956 143.246 23.7122 141.563 23.7122 139.879V131.274C23.7122 132.764 24.4795 134.247 26.0812 135.513C26.2898 135.67 26.5134 135.834 26.7518 135.99C31.6241 139.193 40.0797 139.313 45.2202 136.34C51.1802 132.898 56.9466 129.345 62.4894 125.679L89.9799 107.546C92.6991 105.75 97.0424 105.058 100.916 105.87C108.717 107.531 117.344 107.531 125.151 105.87C129.025 105.05 133.376 105.743 136.088 107.546L163.564 125.679C169.121 129.345 174.888 132.898 180.848 136.34C183.313 137.763 186.547 138.486 189.795 138.486C193.043 138.486 196.269 137.763 198.742 136.34C199.219 136.072 199.644 135.781 200.024 135.483C201.633 134.202 202.453 132.697 202.453 131.185L202.46 131.17Z" fill="#FAFAF9" stroke="#D7D3D0" stroke-width="1.2" stroke-linecap="round" stroke-linejoin="round"/>
<path d="M185.451 21.528V41.5982C185.451 41.7174 185.481 41.8292 185.533 41.941C185.675 42.2315 185.995 42.5071 186.494 42.7306C187.887 43.3564 190.152 43.3564 191.545 42.7306C192.045 42.5071 192.365 42.2315 192.506 41.941C192.559 41.8292 192.588 41.71 192.588 41.5982V21.528H185.444H185.451Z" fill="#A9A29D" stroke="#D7D3D0" stroke-width="1.2" stroke-miterlimit="10" stroke-linecap="round"/>
<path d="M224.809 39.2665C224.809 39.8699 224.482 40.4734 223.841 40.9875C223.684 41.1067 223.521 41.2259 223.327 41.3302C222.336 41.9038 221.047 42.1869 219.743 42.1869C218.44 42.1869 217.151 41.8964 216.16 41.3302C213.776 39.9519 211.467 38.529 209.246 37.0613L198.25 29.805C197.163 29.0824 195.419 28.8067 193.87 29.1345C190.741 29.7976 187.291 29.7976 184.17 29.1345C182.62 28.8067 180.877 29.0824 179.789 29.805L168.785 37.0613C166.565 38.529 164.256 39.9519 161.872 41.3302C159.816 42.5222 156.433 42.4701 154.482 41.1887C154.385 41.1291 154.295 41.062 154.213 40.9949C153.573 40.4883 153.267 39.8923 153.267 39.2963C153.267 38.5066 153.804 37.7094 154.832 37.1209C157.141 35.7873 159.518 34.506 161.969 33.2693L174.671 26.8549C175.908 26.2291 176.392 25.2233 175.826 24.3218C174.939 22.9287 174.738 21.4237 175.222 19.9784C175.364 19.5538 175.565 19.1292 175.826 18.7194C176.392 17.8254 175.908 16.8197 174.671 16.1864L162.103 9.839C159.562 8.5576 157.104 7.22406 154.713 5.85326C154.519 5.74151 154.347 5.62234 154.198 5.50314C153.55 4.98909 153.23 4.38559 153.23 3.78214C153.23 2.97754 153.803 2.17298 154.951 1.58443C156.977 0.548878 160.099 0.683 162.013 1.79305C164.353 3.1415 166.61 4.5421 168.793 5.97995L179.797 13.2362C180.884 13.9589 182.628 14.2346 184.177 13.9068C187.299 13.2437 190.748 13.2437 193.877 13.9068C195.427 14.2346 197.17 13.9589 198.258 13.2362L209.254 5.97995C211.481 4.5123 213.784 3.08936 216.168 1.71111C218.216 0.526561 221.599 0.57121 223.55 1.84516C224.325 2.35176 224.72 2.9701 224.765 3.60335V3.80451C224.742 4.39306 224.422 4.98161 223.819 5.48076C223.632 5.63721 223.424 5.78619 223.185 5.92029C220.846 7.26874 218.425 8.57249 215.937 9.83154L203.368 16.179C202.124 16.8048 201.64 17.8105 202.214 18.712C202.474 19.1217 202.675 19.5463 202.81 19.971C203.294 21.4163 203.093 22.9212 202.214 24.3144C201.64 25.2084 202.124 26.2142 203.368 26.8474L215.937 33.1947C218.477 34.4761 220.943 35.8097 223.327 37.1805C224.318 37.7542 224.809 38.5066 224.809 39.2516V39.2665Z" fill="#F5F5F4" stroke="#D7D3D0" stroke-width="1.2" stroke-linecap="round" stroke-linejoin="round"/>
<path d="M193.37 13.199L190.547 10.3754C189.705 9.53356 188.349 9.53356 187.514 10.3754L184.691 13.199C182.292 15.5979 182.292 19.4868 184.691 21.8857C187.09 24.2846 190.979 24.2846 193.378 21.8857C195.777 19.4868 195.777 15.5979 193.378 13.199H193.37Z" fill="#A9A29D" stroke="#D7D3D0" stroke-width="1.2" stroke-linecap="round" stroke-linejoin="round"/>
<path d="M185.452 109.855V129.926C185.452 130.045 185.481 130.156 185.533 130.268C185.675 130.559 185.995 130.834 186.494 131.058C187.888 131.684 190.152 131.684 191.546 131.058C192.045 130.834 192.365 130.559 192.507 130.268C192.559 130.156 192.589 130.037 192.589 129.926V109.855H185.444H185.452Z" fill="#A9A29D" stroke="#D7D3D0" stroke-width="1.2" stroke-miterlimit="10" stroke-linecap="round"/>
<path d="M221.226 125.821C221.226 126.364 220.936 126.908 220.354 127.37C220.22 127.474 220.064 127.579 219.893 127.676C219.006 128.19 217.836 128.45 216.667 128.45C215.497 128.45 214.335 128.19 213.441 127.676C211.295 126.439 209.217 125.158 207.213 123.839L197.319 117.313C196.343 116.665 194.771 116.419 193.378 116.709C190.562 117.305 187.455 117.305 184.647 116.709C183.253 116.419 181.682 116.665 180.706 117.313L170.804 123.839C168.808 125.158 166.729 126.439 164.584 127.676C162.729 128.748 159.689 128.704 157.931 127.549C157.849 127.497 157.767 127.437 157.693 127.378C157.119 126.923 156.843 126.387 156.843 125.85C156.843 125.143 157.328 124.427 158.251 123.891C160.33 122.692 162.468 121.537 164.673 120.427L176.102 114.653C177.219 114.087 177.651 113.185 177.144 112.373C176.347 111.122 176.161 109.766 176.601 108.47C176.727 108.09 176.906 107.71 177.144 107.337C177.651 106.533 177.219 105.624 176.102 105.057L164.785 99.3433C162.498 98.1885 160.285 96.9891 158.139 95.7524C157.968 95.6556 157.812 95.5512 157.678 95.4395C157.097 94.9776 156.806 94.4338 156.806 93.8899C156.806 93.1673 157.32 92.4372 158.356 91.9157C160.181 90.9844 162.989 91.1036 164.71 92.1019C166.811 93.3163 168.845 94.5753 170.812 95.8716L180.713 102.398C181.689 103.046 183.261 103.292 184.654 103.001C187.463 102.405 190.569 102.405 193.385 103.001C194.779 103.292 196.351 103.046 197.327 102.398L207.22 95.8716C209.224 94.5529 211.295 93.2716 213.448 92.0349C215.296 90.9695 218.336 91.0067 220.086 92.154C220.779 92.6085 221.137 93.1672 221.181 93.7334V93.9122C221.167 94.4412 220.876 94.9701 220.332 95.4246C220.168 95.5661 219.974 95.6928 219.766 95.8195C217.658 97.0338 215.482 98.2109 213.24 99.3358L201.931 105.05C200.813 105.616 200.374 106.518 200.888 107.33C201.119 107.695 201.305 108.075 201.424 108.462C201.864 109.758 201.677 111.114 200.888 112.366C200.374 113.17 200.813 114.079 201.931 114.646L213.24 120.36C215.527 121.514 217.747 122.714 219.893 123.951C220.779 124.465 221.226 125.143 221.226 125.813V125.821Z" fill="#F5F5F4" stroke="#D7D3D0" stroke-width="1.2" stroke-linecap="round" stroke-linejoin="round"/>
<path d="M193.37 101.526L190.547 98.7027C189.705 97.8608 188.349 97.8608 187.514 98.7027L184.691 101.526C182.292 103.925 182.292 107.814 184.691 110.213C187.09 112.612 190.979 112.612 193.378 110.213C195.777 107.814 195.777 103.925 193.378 101.526H193.37Z" fill="#A9A29D" stroke="#D7D3D0" stroke-width="1.2" stroke-linecap="round" stroke-linejoin="round"/>
<path d="M40.6082 109.855V129.926C40.6082 130.045 40.5785 130.156 40.5263 130.268C40.3848 130.559 40.0644 130.834 39.5652 131.058C38.1721 131.684 35.9073 131.684 34.5141 131.058C34.015 130.834 33.6946 130.559 33.553 130.268C33.5009 130.156 33.4712 130.037 33.4712 129.926V109.855H40.6156H40.6082Z" fill="#A9A29D" stroke="#D7D3D0" stroke-width="1.2" stroke-miterlimit="10" stroke-linecap="round"/>
<path d="M1.25 127.594C1.25 128.197 1.57765 128.801 2.21835 129.315C2.3748 129.434 2.53884 129.553 2.73254 129.657C3.72339 130.231 5.0121 130.514 6.31585 130.514C7.61215 130.514 8.9085 130.224 9.89935 129.657C12.2833 128.279 14.5929 126.856 16.813 125.388L27.8092 118.132C28.8969 117.409 30.6401 117.134 32.1897 117.462C35.3187 118.125 38.7681 118.125 41.8896 117.462C43.4392 117.134 45.1826 117.409 46.2703 118.132L57.274 125.388C59.4941 126.856 61.8036 128.279 64.1876 129.657C66.2438 130.849 69.626 130.797 71.5779 129.516C71.6748 129.456 71.7643 129.389 71.8462 129.322C72.4869 128.815 72.7922 128.219 72.7922 127.623C72.7922 126.834 72.2559 126.037 71.2278 125.448C68.9183 124.115 66.5417 122.833 64.0906 121.596L51.3884 115.182C50.1517 114.556 49.6676 113.55 50.2338 112.649C51.1203 111.256 51.3213 109.751 50.8371 108.306C50.6955 107.881 50.4945 107.456 50.2338 107.047C49.6676 106.153 50.1517 105.147 51.3884 104.514L63.9566 98.1662C66.497 96.8848 68.9555 95.5513 71.3469 94.1805C71.5406 94.0687 71.7119 93.9494 71.8609 93.8302C72.5091 93.3162 72.8295 92.7128 72.8295 92.1093C72.8295 91.3047 72.2558 90.5001 71.1085 89.9115C69.0821 88.876 65.9605 89.0101 64.0459 90.1202C61.7066 91.4686 59.4494 92.8692 57.2665 94.3071L46.2628 101.563C45.1751 102.286 43.4317 102.562 41.8821 102.234C38.7606 101.571 35.3112 101.571 32.1822 102.234C30.6326 102.562 28.8894 102.286 27.8017 101.563L16.8055 94.3071C14.578 92.8394 12.2759 91.4165 9.89189 90.0382C7.84314 88.8537 4.46091 88.8984 2.50901 90.1724C1.73421 90.679 1.33926 91.2973 1.29456 91.9305V92.1317C1.31691 92.7203 1.63728 93.3088 2.24073 93.808C2.42698 93.9644 2.63565 94.1134 2.87405 94.2475C5.21335 95.5959 7.63458 96.8997 10.1229 98.1587L22.6909 104.506C23.9351 105.132 24.4194 106.138 23.8457 107.039C23.585 107.449 23.3838 107.874 23.2497 108.298C22.7654 109.743 22.9666 111.248 23.8457 112.641C24.4194 113.535 23.9351 114.541 22.6909 115.175L10.1229 121.522C7.58243 122.803 5.11654 124.137 2.73254 125.508C1.74169 126.081 1.25 126.834 1.25 127.579V127.594Z" fill="#F5F5F4" stroke="#D7D3D0" stroke-width="1.2" stroke-linecap="round" stroke-linejoin="round"/>
<path d="M32.6892 101.526L35.5128 98.7026C36.3546 97.8607 37.7104 97.8607 38.5448 98.7026L41.3684 101.526C43.7673 103.925 43.7673 107.814 41.3684 110.213C38.9695 112.612 35.0806 112.612 32.6817 110.213C30.2828 107.814 30.2828 103.925 32.6817 101.526H32.6892Z" fill="#A9A29D" stroke="#D7D3D0" stroke-width="1.2" stroke-linecap="round" stroke-linejoin="round"/>
<path d="M40.6301 21.5281V41.5983C40.6301 41.7175 40.6004 41.8293 40.5482 41.9411C40.4067 42.2316 40.0863 42.5072 39.5872 42.7307C38.194 43.3565 35.9292 43.3565 34.536 42.7307C34.0369 42.5072 33.7165 42.2316 33.575 41.9411C33.5228 41.8293 33.4929 41.7101 33.4929 41.5983V21.5281H40.6375H40.6301Z" fill="#A9A29D" stroke="#D7D3D0" stroke-width="1.2" stroke-miterlimit="10" stroke-linecap="round"/>
<path d="M1.27173 39.2665C1.27173 39.8699 1.59956 40.4734 2.24026 40.9875C2.39671 41.1067 2.56057 41.2259 2.75427 41.3302C3.74512 41.9038 5.03401 42.1869 6.33776 42.1869C7.63406 42.1869 8.93041 41.8964 9.92126 41.3302C12.3053 39.9519 14.6148 38.529 16.8349 37.0613L27.8311 29.805C28.9188 29.0824 30.662 28.8067 32.2116 29.1345C35.3406 29.7976 38.79 29.7976 41.9115 29.1345C43.4611 28.8067 45.2045 29.0824 46.2922 29.805L57.2959 37.0613C59.516 38.529 61.8255 39.9519 64.2095 41.3302C66.2657 42.5222 69.6479 42.4701 71.5998 41.1887C71.6967 41.1291 71.786 41.062 71.8679 40.9949C72.5086 40.4883 72.8141 39.8923 72.8141 39.2963C72.8141 38.5066 72.2778 37.7094 71.2497 37.1209C68.9402 35.7873 66.5636 34.506 64.1126 33.2693L51.4103 26.8549C50.1736 26.2291 49.6893 25.2233 50.2555 24.3218C51.142 22.9287 51.3432 21.4237 50.859 19.9784C50.7174 19.5538 50.5162 19.1292 50.2555 18.7194C49.6893 17.8254 50.1736 16.8197 51.4103 16.1864L63.9785 9.839C66.519 8.5576 68.9774 7.22406 71.3688 5.85326C71.5625 5.74151 71.7339 5.62234 71.8829 5.50314C72.531 4.98909 72.8514 4.38559 72.8514 3.78214C72.8514 2.97754 72.2777 2.17298 71.1304 1.58443C69.104 0.548878 65.9825 0.683 64.0678 1.79305C61.7285 3.1415 59.4713 4.5421 57.2884 5.97995L46.2848 13.2362C45.1971 13.9589 43.4537 14.2346 41.9041 13.9068C38.7825 13.2437 35.3331 13.2437 32.2041 13.9068C30.6545 14.2346 28.9113 13.9589 27.8236 13.2362L16.8274 5.97995C14.5999 4.5123 12.2978 3.08936 9.9138 1.71111C7.86505 0.526561 4.48282 0.57121 2.53092 1.84516C1.75612 2.35176 1.36117 2.9701 1.31647 3.60335V3.80451C1.33882 4.39306 1.65919 4.98161 2.26264 5.48076C2.44889 5.63721 2.65756 5.78619 2.89596 5.92029C5.23526 7.26874 7.6565 8.57249 10.1448 9.83154L22.7129 16.179C23.957 16.8048 24.4413 17.8105 23.8676 18.712C23.6069 19.1217 23.4057 19.5463 23.2716 19.971C22.7874 21.4163 22.9885 22.9212 23.8676 24.3144C24.4413 25.2084 23.957 26.2142 22.7129 26.8474L10.1448 33.1947C7.60434 34.4761 5.13827 35.8097 2.75427 37.1805C1.76342 37.7542 1.27173 38.5066 1.27173 39.2516V39.2665Z" fill="#F5F5F4" stroke="#D7D3D0" stroke-width="1.2" stroke-linecap="round" stroke-linejoin="round"/>
<path d="M32.7109 13.199L35.5343 10.3754C36.3762 9.53356 37.7321 9.53356 38.5665 10.3754L41.3901 13.199C43.789 15.5979 43.789 19.4868 41.3901 21.8857C38.9912 24.2846 35.1024 24.2846 32.7035 21.8857C30.3046 19.4868 30.3046 15.5979 32.7035 13.199H32.7109Z" fill="#A9A29D" stroke="#D7D3D0" stroke-width="1.2" stroke-linecap="round" stroke-linejoin="round"/>
<path d="M158.684 60.3128C159.868 60.9982 159.868 62.1008 158.684 62.7862C157.499 63.4716 155.584 63.4716 154.407 62.7862C153.223 62.1008 153.223 60.9982 154.407 60.3128C155.592 59.6274 157.506 59.6274 158.684 60.3128Z" fill="#D7D3D0"/>
<path d="M71.675 60.3128C72.8595 60.9982 72.8595 62.1008 71.675 62.7862C70.4904 63.4716 68.5758 63.4716 67.3987 62.7862C66.2141 62.1008 66.2141 60.9982 67.3987 60.3128C68.5832 59.6274 70.4979 59.6274 71.675 60.3128Z" fill="#D7D3D0"/>
<path d="M158.684 110.906C159.868 111.591 159.868 112.694 158.684 113.379C157.499 114.065 155.584 114.065 154.407 113.379C153.223 112.694 153.223 111.591 154.407 110.906C155.592 110.22 157.506 110.22 158.684 110.906Z" fill="#D7D3D0"/>
<path d="M71.675 110.906C72.8595 111.591 72.8595 112.694 71.675 113.379C70.4904 114.065 68.5758 114.065 67.3987 113.379C66.2141 112.694 66.2141 111.591 67.3987 110.906C68.5832 110.22 70.4979 110.22 71.675 110.906Z" fill="#D7D3D0"/>
</svg>