<svg width="180" height="104" viewBox="0 0 180 104" fill="none" xmlns="http://www.w3.org/2000/svg">
<path d="M179.46 96.5584C179.46 98.0633 178.64 99.5757 177.031 100.857C176.651 101.155 176.226 101.446 175.75 101.714C173.284 103.137 170.05 103.859 166.802 103.859C163.554 103.859 160.328 103.137 157.855 101.714C151.895 98.272 146.128 94.7183 140.571 91.0529L113.095 72.9196C110.376 71.1241 106.032 70.4313 102.158 71.2433C94.3508 72.9047 85.7237 72.9047 77.9235 71.2433C74.0495 70.4238 69.6988 71.1167 66.987 72.9196L39.4965 91.0529C33.9463 94.7183 28.1873 98.272 22.2273 101.714C17.0793 104.686 8.6312 104.567 3.7589 101.364C3.5205 101.207 3.29689 101.043 3.08829 100.887C1.48654 99.6279 0.719237 98.1378 0.719237 96.6478C0.719237 94.6736 2.06024 92.6919 4.63794 91.2019C10.4042 87.8718 16.3493 84.6608 22.4807 81.5765L54.2177 65.5441C57.3169 63.9721 58.5237 61.4615 57.1082 59.219C54.8881 55.7399 54.3815 51.9777 55.6033 48.3719C55.9535 47.3065 56.4601 46.2561 57.1082 45.228C58.5237 42.9855 57.3169 40.4749 54.2177 38.903L22.801 23.0344C16.461 19.8309 10.2998 16.5082 4.33984 13.0663C3.86304 12.7907 3.43095 12.5001 3.051 12.2021C1.4418 10.9207 0.637207 9.41577 0.637207 7.90342C0.637207 5.89192 2.07507 3.87299 4.93587 2.42024C10.0093 -0.172364 17.7947 0.170383 22.5776 2.93433C28.411 6.30918 34.0655 9.80318 39.5114 13.4015L67.0019 31.5349C69.7211 33.3303 74.0644 34.0232 77.9384 33.2111C85.7386 31.5572 94.3657 31.5572 102.173 33.2111C106.047 34.0306 110.398 33.3378 113.11 31.5349L140.586 13.4015C144.534 10.8015 148.594 8.24612 152.744 5.75782C154.435 4.74462 156.141 3.73148 157.87 2.74063C162.995 -0.224474 171.436 -0.112753 176.308 3.0833C178.238 4.34235 179.229 5.90686 179.348 7.47136V7.978C179.296 9.44565 178.491 10.9208 176.994 12.1724C176.532 12.5672 176.003 12.9248 175.414 13.2675C174.401 13.8486 173.388 14.4222 172.367 15.0033C167.473 17.7598 162.451 20.4493 157.296 23.0419L125.894 38.9103C122.788 40.4823 121.573 42.993 123.003 45.2355C123.652 46.2561 124.158 47.314 124.501 48.3793C125.723 51.9851 125.216 55.7473 123.003 59.2265C121.581 61.4689 122.788 63.9796 125.894 65.5515L157.296 81.4201C163.636 84.6236 169.804 87.9463 175.764 91.3882C178.23 92.826 179.475 94.6959 179.475 96.5659L179.46 96.5584Z" fill="#D7D3D0"/>
</svg>
