<svg width="284" height="304" viewBox="0 0 284 304" fill="none" xmlns="http://www.w3.org/2000/svg">
<path d="M214.28 216.88C214.28 218.81 213.33 220.74 211.42 221.84L129.45 269.16C124.14 272.23 117.59 272.23 112.28 269.16L30.3101 221.84C28.4001 220.74 27.4501 218.81 27.4501 216.89C27.4501 214.95 28.4001 213.03 30.3101 211.93L112.28 164.6C117.59 161.54 124.14 161.54 129.45 164.6L211.42 211.93C213.33 213.03 214.28 214.95 214.28 216.88Z" fill="#F5F5F4" stroke="#79716B" stroke-width="1.2" stroke-linecap="round" stroke-linejoin="round"/>
<path d="M52.22 213.42L118.86 174.94C120.1 174.23 121.62 174.23 122.86 174.94L189.5 213.42C192.17 214.96 192.17 218.81 189.5 220.35L124.86 257.67C122.38 259.1 119.34 259.1 116.86 257.67L52.22 220.35C49.55 218.81 49.55 214.96 52.22 213.42Z" fill="#D7D3D0" stroke="#79716B" stroke-width="1.2" stroke-linecap="round" stroke-linejoin="round"/>
<path d="M214.28 216.89V248.23C214.28 250.15 213.32 252.08 211.42 253.18L129.45 300.51C124.14 303.57 117.59 303.57 112.28 300.51L30.3101 253.18C29.3501 252.63 28.64 251.87 28.16 251.01C27.69 250.15 27.4501 249.19 27.4501 248.23V216.89C27.4501 218.81 28.4001 220.74 30.3101 221.84L112.28 269.16C117.59 272.23 124.14 272.23 129.45 269.16L211.42 221.84C213.33 220.74 214.28 218.81 214.28 216.89Z" fill="#E7E5E4" stroke="#79716B" stroke-width="1.2" stroke-linecap="round" stroke-linejoin="round"/>
<path d="M147.55 271.05L170.13 258.02" stroke="#79716B" stroke-width="1.2" stroke-linecap="round" stroke-linejoin="round"/>
<path d="M147.55 278.66L159.37 271.84" stroke="#79716B" stroke-width="1.2" stroke-linecap="round" stroke-linejoin="round"/>
<path d="M208.15 239.52C208.15 234.47 205.08 232.14 201.29 234.33C197.5 236.52 194.43 242.39 194.43 247.45C194.43 252.51 197.5 254.83 201.29 252.64C205.08 250.45 208.15 244.58 208.15 239.52Z" fill="#D7D3D0" stroke="#79716B" stroke-width="1.2" stroke-linecap="round" stroke-linejoin="round"/>
<path d="M201.29 243.48L204.95 238.97" stroke="#79716B" stroke-width="1.2" stroke-linecap="round" stroke-linejoin="round"/>
<path d="M85.7003 277.85L47.1302 255.58C46.3402 255.13 45.8602 254.29 45.8602 253.38V242.06C45.8602 240.76 47.2703 239.94 48.4003 240.59L86.9702 262.86C87.7602 263.31 88.2402 264.15 88.2402 265.06V276.38C88.2402 277.68 86.8303 278.5 85.7003 277.85Z" fill="#D7D3D0" stroke="#79716B" stroke-width="1.2" stroke-linecap="round" stroke-linejoin="round"/>
<path d="M64.1599 258.02L80.3699 267.37" stroke="#79716B" stroke-width="1.2" stroke-linecap="round" stroke-linejoin="round"/>
<path d="M53.7302 251.99L59.1803 255.14" stroke="#79716B" stroke-width="1.2" stroke-linecap="round" stroke-linejoin="round"/>
<path d="M68.39 43.2003L58.3201 37.3802C56.6001 36.3902 54.48 36.3902 52.75 37.3802L42.6801 43.2003H25.25V75.9102C25.25 76.5302 25.5601 77.1602 26.1801 77.5202L52.75 92.8603C54.47 93.8503 56.5901 93.8503 58.3201 92.8603L84.89 77.5202C85.51 77.1602 85.8201 76.5402 85.8201 75.9102V43.2003H68.39Z" fill="#E7E5E4" stroke="#79716B" stroke-width="1.2" stroke-linecap="round" stroke-linejoin="round"/>
<path d="M52.7499 60.1501L26.18 44.8101C24.94 44.1001 24.94 42.3102 26.18 41.6002L52.7499 26.2601C54.4699 25.2701 56.59 25.2701 58.32 26.2601L84.89 41.6002C86.13 42.3102 86.13 44.1001 84.89 44.8101L58.32 60.1501C56.6 61.1401 54.4799 61.1401 52.7499 60.1501Z" fill="#F5F5F4" stroke="#79716B" stroke-width="1.2" stroke-linecap="round" stroke-linejoin="round"/>
<path d="M128.75 245.76L68.0701 210.72L55.17 188.39C46.9 174.06 46.8 158.57 54.87 153.55C54.97 153.48 55.07 153.42 55.17 153.36C55.29 153.29 55.41 153.23 55.53 153.17C59.67 150.98 65 151.78 70.34 154.86C75.84 158.03 81.33 163.62 85.52 170.88L128.75 245.76Z" fill="#E7E5E4" stroke="#79716B" stroke-width="1.2" stroke-linecap="round" stroke-linejoin="round"/>
<path d="M167.64 223.31L128.75 245.76L85.5203 170.88C81.3303 163.62 75.8402 158.03 70.3402 154.86C65.0002 151.78 59.6703 150.98 55.5303 153.17L93.8802 131.03L94.3302 130.77C98.4802 128.52 103.86 129.31 109.23 132.41C114.72 135.58 120.21 141.17 124.41 148.43L167.64 223.31Z" fill="#F5F5F4" stroke="#79716B" stroke-width="1.2" stroke-linecap="round" stroke-linejoin="round"/>
<path d="M136.07 228.61L149.34 221.4C153.03 219.39 154.37 214.76 152.32 211.09C150.3 207.49 145.77 206.18 142.14 208.15L128.87 215.36C125.18 217.37 123.84 222 125.89 225.67C127.91 229.27 132.44 230.58 136.07 228.61Z" fill="#D7D3D0" stroke="#79716B" stroke-width="1.2" stroke-linecap="round" stroke-linejoin="round"/>
<path d="M112.21 169.82L128.61 198.23" stroke="#79716B" stroke-width="1.2" stroke-linecap="round" stroke-linejoin="round"/>
<path d="M126.67 171.11L120.54 184.28" stroke="#79716B" stroke-width="1.2" stroke-linecap="round" stroke-linejoin="round"/>
<path d="M126.67 174.92C128.775 174.92 130.48 173.215 130.48 171.11C130.48 169.006 128.775 167.3 126.67 167.3C124.566 167.3 122.86 169.006 122.86 171.11C122.86 173.215 124.566 174.92 126.67 174.92Z" fill="#D7D3D0" stroke="#79716B" stroke-width="1.2" stroke-linecap="round" stroke-linejoin="round"/>
<path d="M76.7102 196.96C75.7102 198.96 74.2902 200.5 72.4902 201.45C71.0102 202.24 69.2603 202.64 67.2903 202.56C57.6703 202.19 46.2302 190.78 41.7402 177.08L12.2803 87.1005C8.81025 76.5205 10.5102 67.6605 15.8902 64.3505L16.2502 64.1404H16.2602L16.3302 64.1005C17.8302 63.2905 19.5803 62.8905 21.5703 62.9705C21.6603 62.9705 21.7602 62.9805 21.8502 62.9905C22.3602 63.0205 22.8702 63.0804 23.3902 63.1704C27.6902 63.9204 32.2302 66.6805 36.2702 70.7205C40.8902 75.3205 44.8702 81.6005 47.1102 88.4505L76.5802 178.44C79.0402 185.93 78.9002 192.56 76.7102 196.96Z" fill="#F5F5F4" stroke="#79716B" stroke-width="1.2" stroke-linecap="round" stroke-linejoin="round"/>
<path d="M82.5603 195.65C82.5603 195.65 82.5503 195.66 82.5403 195.67H82.5303C82.4703 195.71 82.4003 195.75 82.3203 195.79L72.5002 201.46H72.4902C74.2902 200.5 75.7102 198.96 76.7102 196.96C78.9002 192.56 79.0402 185.93 76.5802 178.44L47.1102 88.4504C44.8702 81.6004 40.8903 75.3204 36.2703 70.7204C32.2303 66.6804 27.6903 63.9203 23.3903 63.1703C22.8703 63.0803 22.3602 63.0204 21.8502 62.9904C21.7602 62.9804 21.6603 62.9704 21.5703 62.9704C19.5803 62.8904 17.8302 63.2904 16.3302 64.1004L25.8502 58.6004H25.8602C27.3902 57.7404 29.2003 57.3103 31.2603 57.3903C36.0703 57.5803 41.3302 60.5203 45.9602 65.1403C50.5802 69.7403 54.5603 76.0204 56.8003 82.8704L86.2703 172.86C89.7603 183.5 88.0203 192.39 82.5603 195.65Z" fill="#E7E5E4" stroke="#79716B" stroke-width="1.2" stroke-linecap="round" stroke-linejoin="round"/>
<path d="M60.8201 193.83V193.92C60.8001 198.58 59.2 201.89 56.61 203.52L56.16 203.78C53.43 205.23 49.72 204.96 45.64 202.59C37.25 197.75 30.4501 185.97 30.4501 176.28C30.4501 171.6 32.03 168.27 34.62 166.62L35.17 166.3C37.88 164.89 41.5301 165.17 45.5601 167.47C45.5901 167.48 45.61 167.5 45.64 167.51C54.03 172.35 60.83 184.13 60.83 193.82L60.8201 193.83Z" fill="#D7D3D0" stroke="#79716B" stroke-width="1.2" stroke-linecap="round" stroke-linejoin="round"/>
<path d="M71.8101 187.37V187.48C71.8101 192.17 70.21 195.52 67.61 197.16L67.13 197.43L56.61 203.51C59.2 201.88 60.8001 198.57 60.8201 193.91V193.82C60.8201 184.13 54.02 172.35 45.63 167.51C45.6 167.49 45.58 167.48 45.55 167.47C41.52 165.17 37.87 164.89 35.16 166.3L45.6 160.27L46.16 159.95C48.88 158.53 52.57 158.82 56.62 161.16C56.7 161.21 56.79 161.26 56.87 161.31C65.11 166.22 71.7601 177.79 71.8101 187.36V187.37Z" fill="#A9A29D" stroke="#79716B" stroke-width="1.2" stroke-linecap="round" stroke-linejoin="round"/>
<path d="M47.4796 177.491C47.4796 178.671 46.6496 179.14 45.6396 178.55C44.6296 177.96 43.7997 176.531 43.7997 175.361C43.7997 174.191 44.6296 173.71 45.6396 174.3C46.6496 174.89 47.4796 176.321 47.4796 177.491Z" fill="#79716B"/>
<path d="M40.0896 175.7C40.9696 176.8 41.2697 178.27 40.7597 179C40.2497 179.73 39.1196 179.42 38.2396 178.33C37.3596 177.24 37.0597 175.76 37.5697 175.03C38.0797 174.31 39.2096 174.61 40.0896 175.7Z" fill="#79716B"/>
<path d="M38.2396 183.26C39.1196 183.18 40.2497 184.18 40.7597 185.49C41.2697 186.8 40.9696 187.93 40.0896 188.01C39.2096 188.09 38.0797 187.09 37.5697 185.78C37.0597 184.47 37.3596 183.34 38.2396 183.26Z" fill="#79716B"/>
<path d="M43.79 192.62C43.79 191.44 44.62 190.97 45.63 191.56C46.65 192.15 47.47 193.58 47.47 194.75C47.47 195.93 46.64 196.4 45.63 195.81C44.62 195.22 43.79 193.79 43.79 192.62Z" fill="#79716B"/>
<path d="M51.18 194.41C50.3 193.31 50 191.84 50.51 191.11C51.02 190.38 52.15 190.69 53.03 191.78C53.91 192.87 54.2101 194.35 53.7001 195.08C53.1901 195.81 52.06 195.5 51.18 194.41Z" fill="#79716B"/>
<path d="M53.03 186.85C52.15 186.93 51.02 185.93 50.51 184.62C50 183.31 50.3 182.18 51.18 182.1C52.06 182.02 53.1901 183.02 53.7001 184.33C54.2101 185.64 53.91 186.77 53.03 186.85Z" fill="#79716B"/>
<path d="M31.37 105.25V105.34C31.35 110 29.75 113.31 27.16 114.94L26.71 115.2C23.98 116.65 20.2701 116.38 16.1901 114.01C7.80006 109.17 1 97.39 1 87.7001C1 83.0201 2.58004 79.69 5.17004 78.04L5.71997 77.7201C8.42997 76.3101 12.08 76.59 16.11 78.89C16.14 78.9 16.1601 78.92 16.1901 78.93C24.5801 83.77 31.38 95.5501 31.38 105.24L31.37 105.25Z" fill="#D7D3D0" stroke="#79716B" stroke-width="1.2" stroke-linecap="round" stroke-linejoin="round"/>
<path d="M42.36 98.7902V98.9002C42.36 103.59 40.76 106.94 38.16 108.58L37.6801 108.85L27.16 114.93C29.75 113.3 31.35 109.99 31.37 105.33V105.24C31.37 95.5502 24.5701 83.7702 16.1801 78.9302C16.1501 78.9102 16.13 78.9001 16.1 78.8901C12.07 76.5901 8.41996 76.3102 5.70996 77.7202L16.15 71.6902L16.71 71.3702C19.43 69.9502 23.12 70.2402 27.17 72.5802C27.25 72.6302 27.34 72.6802 27.42 72.7302C35.66 77.6402 42.31 89.2102 42.36 98.7802V98.7902Z" fill="#A9A29D" stroke="#79716B" stroke-width="1.2" stroke-linecap="round" stroke-linejoin="round"/>
<path d="M18.0297 88.9103C18.0297 90.0903 17.1997 90.5604 16.1897 89.9704C15.1697 89.3804 14.3496 87.9503 14.3496 86.7803C14.3496 85.6103 15.1797 85.1304 16.1897 85.7204C17.1997 86.3104 18.0297 87.7403 18.0297 88.9103Z" fill="#79716B"/>
<path d="M10.63 87.1103C11.51 88.2103 11.81 89.6803 11.3 90.4103C10.79 91.1403 9.66002 90.8303 8.78002 89.7403C7.90002 88.6503 7.59998 87.1703 8.10998 86.4403C8.61998 85.7103 9.75 86.0203 10.63 87.1103Z" fill="#79716B"/>
<path d="M8.78967 94.6803C9.66967 94.6003 10.7997 95.6002 11.3097 96.9102C11.8197 98.2202 11.5196 99.3503 10.6396 99.4303C9.75964 99.5103 8.62962 98.5103 8.11962 97.2003C7.60962 95.8903 7.90967 94.7603 8.78967 94.6803Z" fill="#79716B"/>
<path d="M14.34 104.04C14.34 102.86 15.1701 102.39 16.1801 102.98C17.2001 103.57 18.02 105 18.02 106.17C18.02 107.34 17.1901 107.82 16.1801 107.23C15.1701 106.64 14.34 105.21 14.34 104.04Z" fill="#79716B"/>
<path d="M21.73 105.83C20.85 104.73 20.5501 103.26 21.0601 102.53C21.5701 101.8 22.7 102.11 23.58 103.2C24.46 104.29 24.76 105.77 24.25 106.5C23.74 107.22 22.61 106.92 21.73 105.83Z" fill="#79716B"/>
<path d="M23.5703 98.2701C22.6903 98.3501 21.5603 97.3501 21.0503 96.0401C20.5403 94.7301 20.8402 93.6001 21.7202 93.5201C22.6002 93.4401 23.7303 94.4402 24.2403 95.7502C24.7503 97.0602 24.4503 98.1901 23.5703 98.2701Z" fill="#79716B"/>
<path d="M68.02 80.5299C68.02 80.5299 68.95 81.2299 69.16 81.33L90.62 93.72C89.48 92.45 88.86 90.43 88.86 87.99C88.86 86.14 89.2199 84.0699 89.9599 81.9199C92.0499 75.8899 96.5 71.4399 100.23 71.4399C100.37 71.4399 100.52 71.44 100.66 71.46L80.0899 59.5799C80.0899 59.5799 78.7 59.0399 77.94 58.8999C74.17 58.1699 69.35 62.67 67.17 68.96C65.47 73.89 65.9 78.4499 68 80.5299H68.02Z" fill="#D7D3D0" stroke="#79716B" stroke-width="1.2" stroke-linecap="round" stroke-linejoin="round"/>
<path d="M88.8604 87.99C88.8604 90.43 89.4804 92.46 90.6204 93.72L92.8604 95.0199L210.46 162.91L222.62 141.85L103.68 73.1899L100.68 71.46H100.66C100.52 71.44 100.37 71.4399 100.23 71.4399C96.4903 71.4399 92.0403 75.8899 89.9603 81.9199C89.2203 84.0699 88.8604 86.14 88.8604 87.99Z" fill="#F5F5F4" stroke="#79716B" stroke-width="1.2" stroke-linecap="round" stroke-linejoin="round"/>
<path d="M234.47 140.15C232 138.96 228.74 139.25 225.14 141.31C225.11 141.33 225.09 141.33 225.06 141.36C217.37 145.79 211.15 156.56 211.15 165.43V165.51C211.18 169.73 212.62 172.76 214.95 174.27L194.38 162.39C193.27 161.75 192.48 160.69 192.18 159.44C191.9 158.29 191.75 157.02 191.74 155.63V155.54C191.74 145.93 198.48 134.26 206.8 129.46C206.83 129.43 206.85 129.43 206.89 129.41C208.15 128.69 209.38 128.17 210.56 127.84C211.72 127.52 212.96 127.73 214.01 128.33L234.46 140.15H234.47Z" fill="#A9A29D" stroke="#79716B" stroke-width="1.2" stroke-linecap="round" stroke-linejoin="round"/>
<path d="M238.97 149.38C238.97 158.25 232.73 169.02 225.06 173.45C221.31 175.61 217.92 175.89 215.42 174.53L214.96 174.27C212.63 172.76 211.19 169.73 211.16 165.51V165.43C211.16 156.56 217.37 145.79 225.07 141.36C225.1 141.33 225.12 141.33 225.15 141.31C228.75 139.25 232.01 138.96 234.48 140.15C234.54 140.17 234.59 140.2 234.65 140.23L235.14 140.54C237.52 142.04 238.97 145.1 238.97 149.38Z" fill="#D7D3D0" stroke="#79716B" stroke-width="1.2" stroke-linecap="round" stroke-linejoin="round"/>
<path d="M222.62 162.34C222.62 163.65 222.95 164.74 223.57 165.43L224.78 166.13L267.14 190.6L273.69 179.26L230.61 154.37L229 153.44C228.93 153.44 228.84 153.44 228.77 153.44C226.76 153.44 224.36 155.84 223.24 159.08C222.84 160.24 222.65 161.35 222.65 162.35L222.62 162.34Z" fill="#F5F5F4" stroke="#79716B" stroke-width="1.2" stroke-linecap="round" stroke-linejoin="round"/>
<path d="M280.07 178.34C278.74 177.7 276.98 177.86 275.04 178.96C275.02 178.96 275.02 178.96 275 178.98C270.86 181.37 267.51 187.17 267.51 191.94V191.98C267.53 194.25 268.3 195.88 269.56 196.7L258.49 190.31C257.89 189.97 257.47 189.39 257.3 188.72C257.15 188.1 257.07 187.42 257.06 186.67V186.62C257.06 181.45 260.69 175.16 265.17 172.58C265.19 172.56 265.19 172.56 265.22 172.56C265.9 172.17 266.56 171.89 267.19 171.72C267.82 171.55 268.48 171.66 269.05 171.98L280.06 178.34H280.07Z" fill="#A9A29D" stroke="#79716B" stroke-width="1.2" stroke-linecap="round" stroke-linejoin="round"/>
<path d="M282.491 183.3C282.491 188.08 279.131 193.87 275.001 196.26C272.981 197.42 271.161 197.57 269.811 196.84L269.561 196.7C268.301 195.88 267.531 194.25 267.511 191.98V191.94C267.511 187.16 270.851 181.37 275.001 178.98C275.021 178.96 275.021 178.96 275.041 178.96C276.981 177.85 278.731 177.7 280.071 178.34C280.101 178.34 280.131 178.36 280.161 178.38L280.431 178.55C281.711 179.36 282.491 181 282.491 183.31V183.3Z" fill="#D7D3D0" stroke="#79716B" stroke-width="1.2" stroke-linecap="round" stroke-linejoin="round"/>
<path d="M68.98 33.8101C68.98 34.5001 68.85 35.1801 68.6 35.8601C67.95 37.5701 66.47 39.2001 64.17 40.5301C57.75 44.2401 47.33 44.2401 40.9 40.5301C38.59 39.2001 37.11 37.5701 36.47 35.8601C36.21 35.1901 36.09 34.5001 36.09 33.8101C36.09 31.3801 37.69 28.9501 40.91 27.0901C47.33 23.3801 57.7501 23.3801 64.1801 27.0901C67.3901 28.9501 69 31.3801 69 33.8101H68.98Z" fill="#D7D3D0" stroke="#79716B" stroke-width="1.2" stroke-miterlimit="10" stroke-linecap="round"/>
<path d="M61.6698 10.1399C61.6698 5.08989 57.5798 1 52.5298 1C47.4798 1 43.3898 5.08989 43.3898 10.1399V33.8099C43.3898 34.0699 43.4597 34.33 43.5997 34.58C43.9597 35.22 44.7798 35.84 46.0598 36.34C49.6298 37.73 55.4097 37.73 58.9797 36.34C60.2597 35.84 61.0798 35.23 61.4398 34.58C61.5798 34.33 61.6498 34.0699 61.6498 33.8099V10.1399H61.6698Z" fill="#F5F5F4" stroke="#79716B" stroke-width="1.2" stroke-linecap="round" stroke-linejoin="round"/>
<path d="M52.5304 10.2402V37.3901" stroke="#79716B" stroke-width="1.2" stroke-linecap="round" stroke-linejoin="round"/>
</svg>
