<svg width="699" height="426" viewBox="0 0 699 426" fill="none" xmlns="http://www.w3.org/2000/svg">
<path d="M697.91 176.694C697.91 179.654 695.74 182.774 691.52 185.214L686.44 188.144L320.06 399.674C312.34 404.134 300.66 404.614 293.98 400.754L12.47 238.224L5.51001 234.204C2.48001 232.464 1 230.124 1 227.674C1 224.714 3.17001 221.584 7.39001 219.154L87.4 172.954L88.72 172.194L126.57 150.344L378.85 4.68399C386.56 0.233992 398.24 -0.255964 404.93 3.60404L693.39 170.154C696.42 171.904 697.91 174.244 697.91 176.694Z" fill="#FDFDFC" stroke="#A9A29D" stroke-width="1.2" stroke-linecap="round" stroke-linejoin="round"/>
<path d="M478.979 65.7441V81.5342C478.979 83.3142 478.099 85.0742 476.349 86.0842L400.979 129.594C396.099 132.424 390.069 132.424 385.189 129.594L309.819 86.0842C308.059 85.0742 307.189 83.3042 307.189 81.5342V65.7441C307.189 67.5241 308.059 69.2842 309.819 70.2942L385.189 113.804C390.069 116.634 396.099 116.634 400.979 113.804L476.349 70.2942C478.109 69.2842 478.979 67.5041 478.979 65.7441Z" fill="#D7D3D0" stroke="#A9A29D" stroke-width="1.2" stroke-miterlimit="10"/>
<path d="M478.979 65.7438C478.979 67.5038 478.11 69.2838 476.35 70.2938L400.979 113.804C396.099 116.634 390.07 116.634 385.19 113.804L309.82 70.2938C308.06 69.2838 307.19 67.5138 307.19 65.7438C307.18 63.9638 308.06 62.1938 309.82 61.1738L385.19 17.6638C390.07 14.8438 396.099 14.8438 400.979 17.6638L476.35 61.1838C478.11 62.1938 478.979 63.9638 478.979 65.7338V65.7438Z" fill="#E7E5E4" stroke="#A9A29D" stroke-width="1.2" stroke-linecap="round" stroke-linejoin="round"/>
<path d="M464.05 54.0339L451.82 61.1039L434.35 51.0239L400.95 70.2939" stroke="#A9A29D" stroke-width="1.2" stroke-linecap="round" stroke-linejoin="round"/>
<path d="M402.43 49.064L413.28 42.804L394.02 31.684L409.63 22.6641" stroke="#A9A29D" stroke-width="1.2" stroke-linecap="round" stroke-linejoin="round"/>
<path d="M410.69 108.214L398.27 101.044L426.25 84.8942L393.09 65.7441" stroke="#A9A29D" stroke-width="1.2" stroke-linecap="round" stroke-linejoin="round"/>
<path d="M349.14 38.4941L362.08 45.9642L329.45 64.8041L362.08 83.6542L393.09 65.7441" stroke="#A9A29D" stroke-width="1.2" stroke-linecap="round" stroke-linejoin="round"/>
<path d="M389.78 85.924L358.15 67.664C356.68 66.814 356.68 64.684 358.15 63.834L389.78 45.574C391.83 44.394 394.36 44.394 396.41 45.574L428.04 63.834C429.51 64.684 429.51 66.814 428.04 67.664L396.41 85.924C394.36 87.104 391.83 87.104 389.78 85.924Z" fill="#E7E5E4" stroke="#A9A29D" stroke-width="1.2" stroke-linecap="round" stroke-linejoin="round"/>
<path d="M117.72 240.944L208.13 188.744" stroke="#A9A29D" stroke-width="1.2" stroke-linecap="round" stroke-linejoin="round"/>
<path d="M353.4 321.684L220.02 244.684L248.35 228.324L189.7 194.464" stroke="#A9A29D" stroke-width="1.2" stroke-linecap="round" stroke-linejoin="round"/>
<path d="M541.77 167.794L358.49 273.604" stroke="#A9A29D" stroke-width="1.2" stroke-linecap="round" stroke-linejoin="round"/>
<path d="M248.35 228.324L276.68 211.964" stroke="#A9A29D" stroke-width="1.2" stroke-linecap="round" stroke-linejoin="round"/>
<path d="M345.27 99.0439L338.77 102.794L332.91 106.174C332.19 106.594 331.6 107.614 331.6 108.454V116.304C331.6 117.024 331.22 117.684 330.6 118.034L208.13 188.744" stroke="#A9A29D" stroke-width="1.2" stroke-linecap="round" stroke-linejoin="round"/>
<path d="M276.91 149.034V121.334C276.91 120.974 277.1 120.644 277.41 120.464L306.13 103.884C306.75 103.534 307.13 102.874 307.13 102.154V94.304C307.13 93.464 307.73 92.444 308.45 92.024L314.29 88.6541L320.81 84.894" stroke="#A9A29D" stroke-width="1.2" stroke-linecap="round" stroke-linejoin="round"/>
<path d="M285.08 144.314V126.054C285.08 125.694 285.27 125.364 285.58 125.184L314.29 108.604C314.91 108.244 315.29 107.584 315.29 106.874V99.0239C315.29 98.1839 315.88 97.154 316.6 96.744L322.45 93.364L328.96 89.604" stroke="#A9A29D" stroke-width="1.2" stroke-linecap="round" stroke-linejoin="round"/>
<path d="M293.24 139.604V130.764C293.24 130.404 293.43 130.074 293.74 129.894L322.44 113.324C323.06 112.964 323.44 112.304 323.44 111.584V103.734C323.44 102.904 324.04 101.874 324.76 101.454L330.61 98.0842L337.12 94.3242" stroke="#A9A29D" stroke-width="1.2" stroke-linecap="round" stroke-linejoin="round"/>
<path d="M268.75 153.744H333.25C333.78 153.744 334.29 153.604 334.75 153.344L363.22 136.904C363.84 136.544 364.22 135.884 364.22 135.174V127.324C364.22 126.484 364.81 125.454 365.53 125.044L371.42 121.644L377.89 117.904" stroke="#A9A29D" stroke-width="1.2" stroke-linecap="round" stroke-linejoin="round"/>
<path d="M369.74 113.194L363.26 116.934L357.38 120.324C356.66 120.744 356.06 121.764 356.06 122.604V130.454C356.06 131.174 355.68 131.834 355.06 132.184L330.67 146.274C330.21 146.534 329.7 146.674 329.17 146.674H281" stroke="#A9A29D" stroke-width="1.2" stroke-linecap="round" stroke-linejoin="round"/>
<path d="M293.24 139.604H325.09C325.62 139.604 326.13 139.474 326.59 139.214L346.91 127.474C347.53 127.114 347.91 126.454 347.91 125.734V117.884C347.91 117.054 348.5 116.024 349.22 115.604L355.1 112.214L361.58 108.474" stroke="#A9A29D" stroke-width="1.2" stroke-linecap="round" stroke-linejoin="round"/>
<path d="M353.43 103.754L346.94 107.504L341.07 110.894C340.34 111.304 339.75 112.334 339.75 113.174V121.024C339.75 121.734 339.37 122.394 338.75 122.754L322.51 132.134C322.05 132.394 321.54 132.534 321.01 132.534H305.49" stroke="#A9A29D" stroke-width="1.2" stroke-linecap="round" stroke-linejoin="round"/>
<path d="M440.91 99.0439L447.41 102.794L453.27 106.174C453.99 106.594 454.58 107.614 454.58 108.454V116.304C454.58 117.024 454.96 117.684 455.58 118.034L578.05 188.744" stroke="#A9A29D" stroke-width="1.2" stroke-linecap="round" stroke-linejoin="round"/>
<path d="M509.27 149.034V121.334C509.27 120.974 509.08 120.644 508.77 120.464L480.05 103.884C479.43 103.534 479.05 102.874 479.05 102.154V94.304C479.05 93.464 478.45 92.444 477.73 92.024L471.89 88.6541L465.37 84.894" stroke="#A9A29D" stroke-width="1.2" stroke-linecap="round" stroke-linejoin="round"/>
<path d="M501.1 144.314V126.054C501.1 125.694 500.91 125.364 500.6 125.184L471.89 108.604C471.27 108.244 470.89 107.584 470.89 106.874V99.0239C470.89 98.1839 470.3 97.154 469.58 96.744L463.73 93.364L457.22 89.604" stroke="#A9A29D" stroke-width="1.2" stroke-linecap="round" stroke-linejoin="round"/>
<path d="M492.941 139.604V130.764C492.941 130.404 492.751 130.074 492.441 129.894L463.74 113.324C463.12 112.964 462.74 112.304 462.74 111.584V103.734C462.74 102.904 462.141 101.874 461.421 101.454L455.571 98.0842L449.061 94.3242" stroke="#A9A29D" stroke-width="1.2" stroke-linecap="round" stroke-linejoin="round"/>
<path d="M517.43 153.744H452.93C452.4 153.744 451.89 153.604 451.43 153.344L422.96 136.904C422.34 136.544 421.96 135.884 421.96 135.174V127.324C421.96 126.484 421.37 125.454 420.65 125.044L414.76 121.644L408.29 117.904" stroke="#A9A29D" stroke-width="1.2" stroke-linecap="round" stroke-linejoin="round"/>
<path d="M416.44 113.194L422.92 116.934L428.8 120.324C429.52 120.744 430.12 121.764 430.12 122.604V130.454C430.12 131.174 430.5 131.834 431.12 132.184L455.51 146.274C455.97 146.534 456.48 146.674 457.01 146.674H505.18" stroke="#A9A29D" stroke-width="1.2" stroke-linecap="round" stroke-linejoin="round"/>
<path d="M492.94 139.604H461.09C460.56 139.604 460.05 139.474 459.59 139.214L439.27 127.474C438.65 127.114 438.27 126.454 438.27 125.734V117.884C438.27 117.054 437.68 116.024 436.96 115.604L431.08 112.214L424.6 108.474" stroke="#A9A29D" stroke-width="1.2" stroke-linecap="round" stroke-linejoin="round"/>
<path d="M432.75 103.754L439.24 107.504L445.11 110.894C445.84 111.304 446.43 112.334 446.43 113.174V121.024C446.43 121.734 446.81 122.394 447.43 122.754L463.67 132.134C464.13 132.394 464.64 132.534 465.17 132.534H480.69" stroke="#A9A29D" stroke-width="1.2" stroke-linecap="round" stroke-linejoin="round"/>
<path d="M602.79 147.174C602.79 148.204 602.6 149.244 602.21 150.254C601.23 152.824 599.01 155.274 595.54 157.274C585.88 162.854 570.22 162.854 560.56 157.274C557.09 155.274 554.87 152.824 553.89 150.254C553.5 149.244 553.31 148.204 553.31 147.174C553.31 143.524 555.72 139.864 560.56 137.074C570.22 131.494 585.88 131.494 595.54 137.074C600.37 139.864 602.79 143.514 602.79 147.174Z" fill="#FDFDFC" stroke="#A9A29D" stroke-width="1.2" stroke-linecap="round" stroke-linejoin="round"/>
<path d="M602.79 147.174V186.214C602.79 189.864 600.37 193.524 595.54 196.314C585.88 201.894 570.22 201.894 560.56 196.314C555.73 193.524 553.31 189.874 553.31 186.214V147.174C553.31 148.204 553.5 149.244 553.89 150.254C554.87 152.824 557.09 155.274 560.56 157.274C570.22 162.854 585.88 162.854 595.54 157.274C599.01 155.274 601.23 152.824 602.21 150.254C602.6 149.244 602.79 148.204 602.79 147.174Z" fill="#F5F5F4" stroke="#A9A29D" stroke-width="1.2" stroke-linecap="round" stroke-linejoin="round"/>
<path d="M566.52 147.365L578.38 140.524" stroke="#A9A29D" stroke-width="1.2" stroke-miterlimit="10" stroke-linecap="round"/>
<path d="M583.979 143.754L572.119 150.604" stroke="#A9A29D" stroke-width="1.2" stroke-miterlimit="10" stroke-linecap="round"/>
<path d="M577.72 153.834L589.58 146.984" stroke="#A9A29D" stroke-width="1.2" stroke-miterlimit="10" stroke-linecap="round"/>
<path d="M602.789 200.844V186.214" stroke="#A9A29D" stroke-width="1.2" stroke-linecap="round" stroke-linejoin="round"/>
<path d="M598.239 206.644V194.464" stroke="#A9A29D" stroke-width="1.2" stroke-linecap="round" stroke-linejoin="round"/>
<path d="M592.05 210.164V197.984" stroke="#A9A29D" stroke-width="1.2" stroke-linecap="round" stroke-linejoin="round"/>
<path d="M585.46 212.014V199.834" stroke="#A9A29D" stroke-width="1.2" stroke-linecap="round" stroke-linejoin="round"/>
<path d="M557.869 206.644V194.464" stroke="#A9A29D" stroke-width="1.2" stroke-linecap="round" stroke-linejoin="round"/>
<path d="M564.05 210.164V197.984" stroke="#A9A29D" stroke-width="1.2" stroke-linecap="round" stroke-linejoin="round"/>
<path d="M570.64 212.014V199.834" stroke="#A9A29D" stroke-width="1.2" stroke-linecap="round" stroke-linejoin="round"/>
<path d="M578.05 212.674V200.494" stroke="#A9A29D" stroke-width="1.2" stroke-linecap="round" stroke-linejoin="round"/>
<path d="M553.31 200.844V186.214" stroke="#A9A29D" stroke-width="1.2" stroke-linecap="round" stroke-linejoin="round"/>
<path d="M399.16 151.024C399.16 151.494 399.07 151.964 398.9 152.434C398.45 153.614 397.44 154.724 395.86 155.644C391.45 158.194 384.3 158.194 379.89 155.644C378.31 154.734 377.29 153.614 376.85 152.434C376.67 151.974 376.59 151.504 376.59 151.024C376.59 149.354 377.69 147.684 379.9 146.414C384.31 143.864 391.46 143.864 395.87 146.414C398.08 147.684 399.18 149.354 399.18 151.024H399.16Z" fill="#FDFDFC" stroke="#A9A29D" stroke-width="1.2" stroke-linecap="round" stroke-linejoin="round"/>
<path d="M399.16 151.024V168.844C399.16 170.514 398.06 172.184 395.85 173.454C391.44 176.004 384.29 176.004 379.88 173.454C377.67 172.184 376.57 170.514 376.57 168.844V151.024C376.57 151.494 376.66 151.964 376.83 152.434C377.28 153.614 378.29 154.724 379.87 155.644C384.28 158.194 391.43 158.194 395.84 155.644C397.42 154.734 398.44 153.614 398.88 152.434C399.06 151.974 399.14 151.504 399.14 151.024H399.16Z" fill="#F5F5F4" stroke="#A9A29D" stroke-width="1.2" stroke-linecap="round" stroke-linejoin="round"/>
<path d="M399.16 176.524V168.844" stroke="#A9A29D" stroke-width="1.2" stroke-linecap="round" stroke-linejoin="round"/>
<path d="M394.25 180.784V174.224" stroke="#A9A29D" stroke-width="1.2" stroke-linecap="round" stroke-linejoin="round"/>
<path d="M381.471 180.784V174.224" stroke="#A9A29D" stroke-width="1.2" stroke-linecap="round" stroke-linejoin="round"/>
<path d="M387.86 181.934V175.374" stroke="#A9A29D" stroke-width="1.2" stroke-linecap="round" stroke-linejoin="round"/>
<path d="M376.57 176.524V168.844" stroke="#A9A29D" stroke-width="1.2" stroke-linecap="round" stroke-linejoin="round"/>
<path d="M368.461 168.594C368.461 169.064 368.371 169.534 368.201 170.004C367.751 171.184 366.741 172.294 365.161 173.214C360.751 175.764 353.601 175.764 349.191 173.214C347.611 172.304 346.591 171.184 346.151 170.004C345.971 169.544 345.891 169.074 345.891 168.594C345.891 166.924 346.991 165.254 349.201 163.984C353.611 161.434 360.761 161.434 365.171 163.984C367.381 165.254 368.481 166.924 368.481 168.594H368.461Z" fill="#E7E5E4" stroke="#A9A29D" stroke-width="1.2" stroke-linecap="round" stroke-linejoin="round"/>
<path d="M368.46 168.594V186.414C368.46 188.084 367.36 189.754 365.15 191.024C360.74 193.574 353.59 193.574 349.18 191.024C346.97 189.754 345.87 188.084 345.87 186.414V168.594C345.87 169.064 345.96 169.534 346.13 170.004C346.58 171.184 347.59 172.294 349.17 173.214C353.58 175.764 360.73 175.764 365.14 173.214C366.72 172.304 367.74 171.184 368.18 170.004C368.36 169.544 368.44 169.074 368.44 168.594H368.46Z" fill="#D7D3D0" stroke="#A9A29D" stroke-width="1.2" stroke-miterlimit="10"/>
<path d="M368.46 194.094V186.414" stroke="#A9A29D" stroke-width="1.2" stroke-linecap="round" stroke-linejoin="round"/>
<path d="M363.561 198.344V191.784" stroke="#A9A29D" stroke-width="1.2" stroke-linecap="round" stroke-linejoin="round"/>
<path d="M350.771 198.344V191.784" stroke="#A9A29D" stroke-width="1.2" stroke-linecap="round" stroke-linejoin="round"/>
<path d="M357.16 199.494V192.934" stroke="#A9A29D" stroke-width="1.2" stroke-linecap="round" stroke-linejoin="round"/>
<path d="M345.87 194.094V186.414" stroke="#A9A29D" stroke-width="1.2" stroke-linecap="round" stroke-linejoin="round"/>
<path d="M71.5504 208.504C71.5504 208.974 71.4604 209.444 71.2904 209.914C70.8404 211.094 69.8305 212.204 68.2505 213.124C63.8405 215.674 56.6904 215.674 52.2804 213.124C50.7004 212.214 49.6805 211.094 49.2405 209.914C49.0605 209.454 48.9805 208.984 48.9805 208.504C48.9805 206.834 50.0804 205.164 52.2904 203.894C56.7004 201.344 63.8505 201.344 68.2605 203.894C70.4705 205.164 71.5704 206.834 71.5704 208.504H71.5504Z" fill="#FDFDFC" stroke="#A9A29D" stroke-width="1.2" stroke-linecap="round" stroke-linejoin="round"/>
<path d="M71.5499 208.504V226.324C71.5499 227.994 70.45 229.664 68.24 230.934C63.83 233.484 56.68 233.484 52.27 230.934C50.06 229.664 48.96 227.994 48.96 226.324V208.504C48.96 208.974 49.05 209.444 49.22 209.914C49.67 211.094 50.68 212.204 52.26 213.124C56.67 215.674 63.82 215.674 68.23 213.124C69.81 212.214 70.83 211.094 71.27 209.914C71.45 209.454 71.5299 208.984 71.5299 208.504H71.5499Z" fill="#F5F5F4" stroke="#A9A29D" stroke-width="1.2" stroke-linecap="round" stroke-linejoin="round"/>
<path d="M71.5498 234.014V226.334" stroke="#A9A29D" stroke-width="1.2" stroke-linecap="round" stroke-linejoin="round"/>
<path d="M66.6406 238.264V231.704" stroke="#A9A29D" stroke-width="1.2" stroke-linecap="round" stroke-linejoin="round"/>
<path d="M53.8604 238.264V231.704" stroke="#A9A29D" stroke-width="1.2" stroke-linecap="round" stroke-linejoin="round"/>
<path d="M60.25 239.414V232.854" stroke="#A9A29D" stroke-width="1.2" stroke-linecap="round" stroke-linejoin="round"/>
<path d="M48.9502 234.014V226.334" stroke="#A9A29D" stroke-width="1.2" stroke-linecap="round" stroke-linejoin="round"/>
<path d="M229.03 245.044C229.03 245.374 228.97 245.714 228.84 246.034C228.52 246.864 227.81 247.654 226.69 248.294C223.58 250.094 218.54 250.094 215.43 248.294C214.31 247.654 213.6 246.864 213.28 246.034C213.16 245.704 213.09 245.374 213.09 245.044C213.09 243.864 213.87 242.694 215.42 241.794C218.53 239.994 223.57 239.994 226.68 241.794C228.23 242.694 229.01 243.864 229.01 245.044H229.03Z" fill="#FDFDFC" stroke="#A9A29D" stroke-width="1.2" stroke-linecap="round" stroke-linejoin="round"/>
<path d="M256.32 228.324C256.32 228.654 256.26 228.994 256.13 229.314C255.81 230.144 255.1 230.934 253.98 231.574C250.87 233.374 245.83 233.374 242.72 231.574C241.6 230.934 240.89 230.144 240.57 229.314C240.45 228.984 240.38 228.654 240.38 228.324C240.38 227.144 241.16 225.974 242.71 225.074C245.82 223.274 250.86 223.274 253.97 225.074C255.52 225.974 256.3 227.144 256.3 228.324H256.32Z" fill="#FDFDFC" stroke="#A9A29D" stroke-width="1.2" stroke-linecap="round" stroke-linejoin="round"/>
<path d="M547.24 167.794C547.24 168.024 547.2 168.254 547.11 168.474C546.89 169.044 546.4 169.584 545.63 170.024C543.49 171.254 540.03 171.254 537.89 170.024C537.12 169.584 536.63 169.044 536.41 168.474C536.32 168.254 536.28 168.024 536.28 167.794C536.28 166.984 536.81 166.174 537.88 165.564C540.02 164.334 543.48 164.334 545.62 165.564C546.69 166.184 547.22 166.994 547.22 167.794H547.24Z" fill="#FDFDFC" stroke="#A9A29D" stroke-width="1.2" stroke-linecap="round" stroke-linejoin="round"/>
<path d="M251.01 166.854C251.01 167.084 250.97 167.314 250.88 167.534C250.66 168.104 250.17 168.644 249.4 169.084C247.26 170.314 243.8 170.314 241.66 169.084C240.89 168.644 240.4 168.104 240.18 167.534C240.09 167.314 240.05 167.084 240.05 166.854C240.05 166.044 240.58 165.234 241.65 164.624C243.79 163.394 247.25 163.394 249.39 164.624C250.46 165.244 250.99 166.054 250.99 166.854H251.01Z" fill="#FDFDFC" stroke="#A9A29D" stroke-width="1.2" stroke-linecap="round" stroke-linejoin="round"/>
<path d="M498.65 195.414C498.65 195.644 498.61 195.874 498.52 196.094C498.3 196.664 497.81 197.204 497.04 197.644C494.9 198.874 491.44 198.874 489.3 197.644C488.53 197.204 488.04 196.664 487.82 196.094C487.73 195.874 487.69 195.644 487.69 195.414C487.69 194.604 488.22 193.794 489.29 193.184C491.43 191.954 494.89 191.954 497.03 193.184C498.1 193.804 498.63 194.614 498.63 195.414H498.65Z" fill="#FDFDFC" stroke="#A9A29D" stroke-width="1.2" stroke-linecap="round" stroke-linejoin="round"/>
<path d="M383.46 262.034C383.46 262.264 383.42 262.494 383.33 262.714C383.11 263.284 382.62 263.824 381.85 264.264C379.71 265.494 376.25 265.494 374.11 264.264C373.34 263.824 372.85 263.284 372.63 262.714C372.54 262.494 372.5 262.264 372.5 262.034C372.5 261.224 373.03 260.414 374.1 259.804C376.24 258.574 379.7 258.574 381.84 259.804C382.91 260.424 383.44 261.234 383.44 262.034H383.46Z" fill="#FDFDFC" stroke="#A9A29D" stroke-width="1.2" stroke-linecap="round" stroke-linejoin="round"/>
<path d="M202.56 185.564L194.84 181.104C193.52 180.344 191.89 180.344 190.57 181.104L182.85 185.564H169.49V197.654C169.49 198.134 169.73 198.614 170.2 198.884L190.57 210.644C191.89 211.404 193.52 211.404 194.84 210.644L215.21 198.884C215.68 198.614 215.92 198.134 215.92 197.654V185.564H202.56Z" fill="#F5F5F4" stroke="#A9A29D" stroke-width="1.2" stroke-linecap="round" stroke-linejoin="round"/>
<path d="M190.57 198.564L170.2 186.804C169.25 186.254 169.25 184.884 170.2 184.344L190.57 172.584C191.89 171.824 193.52 171.824 194.84 172.584L215.21 184.344C216.16 184.894 216.16 186.264 215.21 186.804L194.84 198.564C193.52 199.324 191.89 199.324 190.57 198.564Z" fill="#FDFDFC" stroke="#A9A29D" stroke-width="1.2" stroke-linecap="round" stroke-linejoin="round"/>
<path d="M148.04 167.084C148.04 168.344 147.8 169.614 147.33 170.854C146.13 174.014 143.41 177.014 139.16 179.464C127.32 186.304 108.12 186.304 96.2803 179.464C92.0303 177.014 89.3004 174.014 88.1104 170.854C87.6404 169.614 87.4004 168.344 87.4004 167.084C87.4004 162.604 90.3603 158.134 96.2803 154.714C108.12 147.874 127.32 147.874 139.16 154.714C145.08 158.134 148.04 162.614 148.04 167.084Z" fill="#E7E5E4" stroke="#A9A29D" stroke-width="1.2" stroke-miterlimit="10" stroke-linecap="round"/>
<path d="M148.04 167.084V234.924C148.04 239.404 145.08 243.874 139.16 247.294C127.32 254.134 108.12 254.134 96.2803 247.294C90.3603 243.874 87.4004 239.394 87.4004 234.924V167.084C87.4004 168.344 87.6404 169.614 88.1104 170.854C89.3104 174.014 92.0303 177.014 96.2803 179.464C108.12 186.304 127.32 186.304 139.16 179.464C143.41 177.014 146.13 174.014 147.33 170.854C147.8 169.614 148.04 168.344 148.04 167.084Z" fill="#D7D3D0" stroke="#A9A29D" stroke-width="1.2" stroke-miterlimit="10" stroke-linecap="round"/>
<path d="M131.85 167.324L117.32 158.934" stroke="#A9A29D" stroke-width="1.2" stroke-miterlimit="10" stroke-linecap="round"/>
<path d="M110.45 162.894L124.99 171.284" stroke="#A9A29D" stroke-width="1.2" stroke-miterlimit="10" stroke-linecap="round"/>
<path d="M118.12 175.244L103.59 166.854" stroke="#A9A29D" stroke-width="1.2" stroke-miterlimit="10" stroke-linecap="round"/>
<path d="M148.04 252.854V234.934" stroke="#A9A29D" stroke-width="1.2" stroke-linecap="round" stroke-linejoin="round"/>
<path d="M142.46 259.974V245.044" stroke="#A9A29D" stroke-width="1.2" stroke-linecap="round" stroke-linejoin="round"/>
<path d="M134.881 264.284V249.354" stroke="#A9A29D" stroke-width="1.2" stroke-linecap="round" stroke-linejoin="round"/>
<path d="M126.801 266.554V251.624" stroke="#A9A29D" stroke-width="1.2" stroke-linecap="round" stroke-linejoin="round"/>
<path d="M92.9803 259.974V245.044" stroke="#A9A29D" stroke-width="1.2" stroke-linecap="round" stroke-linejoin="round"/>
<path d="M100.561 264.284V249.354" stroke="#A9A29D" stroke-width="1.2" stroke-linecap="round" stroke-linejoin="round"/>
<path d="M108.641 266.554V251.624" stroke="#A9A29D" stroke-width="1.2" stroke-linecap="round" stroke-linejoin="round"/>
<path d="M117.721 267.354V252.434" stroke="#A9A29D" stroke-width="1.2" stroke-linecap="round" stroke-linejoin="round"/>
<path d="M87.4004 252.854V234.934" stroke="#A9A29D" stroke-width="1.2" stroke-linecap="round" stroke-linejoin="round"/>
<path d="M392.921 296.514V312.304C392.921 314.084 392.041 315.844 390.291 316.854L314.921 360.364C310.041 363.194 304.011 363.194 299.131 360.364L223.761 316.854C222.001 315.844 221.131 314.074 221.131 312.304V296.514C221.131 298.294 222.001 300.054 223.761 301.064L299.131 344.574C304.011 347.404 310.041 347.404 314.921 344.574L390.291 301.064C392.051 300.054 392.921 298.274 392.921 296.514Z" fill="#F5F5F4" stroke="#A9A29D" stroke-width="1.2" stroke-linecap="round" stroke-linejoin="round"/>
<path d="M392.92 296.514C392.92 298.274 392.05 300.054 390.29 301.064L314.92 344.574C310.04 347.404 304.01 347.404 299.13 344.574L223.76 301.064C222 300.054 221.13 298.284 221.13 296.514C221.12 294.734 222 292.964 223.76 291.944L299.13 248.434C304.01 245.614 310.04 245.614 314.92 248.434L390.29 291.954C392.05 292.964 392.92 294.734 392.92 296.504V296.514Z" fill="#FDFDFC" stroke="#A9A29D" stroke-width="1.2" stroke-linecap="round" stroke-linejoin="round"/>
<path d="M221.07 334.084V325.074C221.07 324.234 221.66 323.214 222.39 322.794L234.75 315.664" stroke="#A9A29D" stroke-width="1.2" stroke-linecap="round" stroke-linejoin="round"/>
<path d="M229.221 338.794V329.784C229.221 328.944 229.811 327.924 230.541 327.504L242.901 320.374" stroke="#A9A29D" stroke-width="1.2" stroke-linecap="round" stroke-linejoin="round"/>
<path d="M237.381 343.514V334.504C237.381 333.664 237.971 332.644 238.701 332.224L251.061 325.094" stroke="#A9A29D" stroke-width="1.2" stroke-linecap="round" stroke-linejoin="round"/>
<path d="M245.53 348.234V339.224C245.53 338.384 246.12 337.364 246.85 336.944L259.21 329.814" stroke="#A9A29D" stroke-width="1.2" stroke-linecap="round" stroke-linejoin="round"/>
<path d="M253.69 352.944V343.934C253.69 343.094 254.28 342.074 255.01 341.654L267.37 334.524" stroke="#A9A29D" stroke-width="1.2" stroke-linecap="round" stroke-linejoin="round"/>
<path d="M261.84 357.664V348.654C261.84 347.814 262.43 346.794 263.16 346.374L275.52 339.244" stroke="#A9A29D" stroke-width="1.2" stroke-linecap="round" stroke-linejoin="round"/>
<path d="M270 362.384V353.374C270 352.534 270.59 351.514 271.32 351.094L283.68 343.964" stroke="#A9A29D" stroke-width="1.2" stroke-linecap="round" stroke-linejoin="round"/>
<path d="M278.15 367.094V358.084C278.15 357.244 278.74 356.224 279.47 355.804L291.83 348.674" stroke="#A9A29D" stroke-width="1.2" stroke-linecap="round" stroke-linejoin="round"/>
<path d="M392.98 334.084V325.074C392.98 324.234 392.39 323.214 391.66 322.794L379.3 315.664" stroke="#A9A29D" stroke-width="1.2" stroke-linecap="round" stroke-linejoin="round"/>
<path d="M384.82 338.794V329.784C384.82 328.944 384.23 327.924 383.5 327.504L371.14 320.374" stroke="#A9A29D" stroke-width="1.2" stroke-linecap="round" stroke-linejoin="round"/>
<path d="M376.67 343.514V334.504C376.67 333.664 376.08 332.644 375.35 332.224L362.99 325.094" stroke="#A9A29D" stroke-width="1.2" stroke-linecap="round" stroke-linejoin="round"/>
<path d="M368.51 348.234V339.224C368.51 338.384 367.92 337.364 367.19 336.944L354.83 329.814" stroke="#A9A29D" stroke-width="1.2" stroke-linecap="round" stroke-linejoin="round"/>
<path d="M360.36 352.944V343.934C360.36 343.094 359.77 342.074 359.04 341.654L346.68 334.524" stroke="#A9A29D" stroke-width="1.2" stroke-linecap="round" stroke-linejoin="round"/>
<path d="M352.199 357.664V348.654C352.199 347.814 351.61 346.794 350.88 346.374L338.52 339.244" stroke="#A9A29D" stroke-width="1.2" stroke-linecap="round" stroke-linejoin="round"/>
<path d="M344.05 362.384V353.374C344.05 352.534 343.46 351.514 342.73 351.094L330.37 343.964" stroke="#A9A29D" stroke-width="1.2" stroke-linecap="round" stroke-linejoin="round"/>
<path d="M335.89 367.094V358.084C335.89 357.244 335.3 356.224 334.57 355.804L322.21 348.674" stroke="#A9A29D" stroke-width="1.2" stroke-linecap="round" stroke-linejoin="round"/>
<path d="M302.79 322.284L262.4 298.964C260.52 297.874 260.52 295.164 262.4 294.074L302.79 270.754C305.41 269.244 308.63 269.244 311.25 270.754L351.64 294.074C353.52 295.164 353.52 297.874 351.64 298.964L311.25 322.284C308.63 323.794 305.41 323.794 302.79 322.284Z" fill="#E7E5E4" stroke="#A9A29D" stroke-width="1.2" stroke-linecap="round" stroke-linejoin="round"/>
<path d="M309.7 291.884C308.22 292.734 305.82 292.734 304.34 291.884C302.86 291.034 302.86 289.644 304.34 288.794C305.82 287.944 308.22 287.944 309.7 288.794C311.18 289.644 311.18 291.034 309.7 291.884Z" fill="#A9A29D"/>
<path d="M320.41 298.064C318.93 298.914 316.53 298.914 315.05 298.064C313.57 297.214 313.57 295.824 315.05 294.974C316.53 294.124 318.93 294.124 320.41 294.974C321.89 295.824 321.89 297.214 320.41 298.064Z" fill="#A9A29D"/>
<path d="M298.99 298.064C297.51 298.914 295.111 298.914 293.631 298.064C292.151 297.214 292.151 295.824 293.631 294.974C295.111 294.124 297.51 294.124 298.99 294.974C300.47 295.824 300.47 297.214 298.99 298.064Z" fill="#A9A29D"/>
<path d="M309.7 304.244C308.22 305.094 305.82 305.094 304.34 304.244C302.86 303.394 302.86 302.004 304.34 301.154C305.82 300.304 308.22 300.304 309.7 301.154C311.18 302.004 311.18 303.394 309.7 304.244Z" fill="#A9A29D"/>
<path d="M303.01 188.484L293.559 183.024C291.939 182.094 289.949 182.094 288.329 183.024L278.88 188.484H262.52V203.294C262.52 203.884 262.81 204.464 263.39 204.804L288.329 219.204C289.949 220.134 291.939 220.134 293.559 219.204L318.5 204.804C319.08 204.464 319.37 203.884 319.37 203.294V188.484H303.01Z" fill="#F5F5F4" stroke="#A9A29D" stroke-width="1.2" stroke-linecap="round" stroke-linejoin="round"/>
<path d="M288.329 204.384L263.39 189.984C262.23 189.314 262.23 187.634 263.39 186.964L288.329 172.564C289.949 171.634 291.939 171.634 293.559 172.564L318.5 186.964C319.66 187.634 319.66 189.314 318.5 189.984L293.559 204.384C291.939 205.314 289.949 205.314 288.329 204.384Z" fill="#FDFDFC" stroke="#A9A29D" stroke-width="1.2" stroke-linecap="round" stroke-linejoin="round"/>
<path d="M166.74 148.014V140.624C166.74 138.994 167.88 138.334 169.29 139.154L184.67 148.034C186.08 148.844 187.22 150.824 187.22 152.454V159.844" stroke="#A9A29D" stroke-width="1.2" stroke-linecap="round" stroke-linejoin="round"/>
<path d="M173.71 143.994V136.604C173.71 134.974 174.85 134.314 176.26 135.134L191.64 144.014C193.05 144.824 194.19 146.804 194.19 148.434V155.824" stroke="#A9A29D" stroke-width="1.2" stroke-linecap="round" stroke-linejoin="round"/>
<path d="M180.68 139.974V132.584C180.68 130.954 181.82 130.294 183.23 131.114L198.61 139.994C200.02 140.804 201.16 142.784 201.16 144.414V151.804" stroke="#A9A29D" stroke-width="1.2" stroke-linecap="round" stroke-linejoin="round"/>
<path d="M187.65 135.964V128.574C187.65 126.944 188.79 126.284 190.2 127.104L205.58 135.984C206.99 136.794 208.13 138.774 208.13 140.404V147.794" stroke="#A9A29D" stroke-width="1.2" stroke-linecap="round" stroke-linejoin="round"/>
<path d="M194.61 131.944V124.554C194.61 122.924 195.75 122.264 197.16 123.084L212.54 131.964C213.95 132.774 215.09 134.754 215.09 136.384V143.774" stroke="#A9A29D" stroke-width="1.2" stroke-linecap="round" stroke-linejoin="round"/>
<path d="M201.58 127.934V120.544C201.58 118.914 202.72 118.254 204.13 119.074L219.51 127.954C220.92 128.764 222.06 130.744 222.06 132.374V139.764" stroke="#A9A29D" stroke-width="1.2" stroke-linecap="round" stroke-linejoin="round"/>
<path d="M208.55 123.914V116.524C208.55 114.894 209.69 114.234 211.1 115.054L226.48 123.934C227.89 124.744 229.03 126.724 229.03 128.354V135.744" stroke="#A9A29D" stroke-width="1.2" stroke-linecap="round" stroke-linejoin="round"/>
<path d="M215.521 119.894V112.504C215.521 110.874 216.66 110.214 218.07 111.034L233.45 119.914C234.86 120.724 236 122.704 236 124.334V131.724" stroke="#A9A29D" stroke-width="1.2" stroke-linecap="round" stroke-linejoin="round"/>
<path d="M222.48 115.884V108.494C222.48 106.864 223.62 106.204 225.03 107.024L240.41 115.904C241.82 116.714 242.96 118.694 242.96 120.324V127.714" stroke="#A9A29D" stroke-width="1.2" stroke-linecap="round" stroke-linejoin="round"/>
<path d="M229.45 111.864V104.474C229.45 102.844 230.59 102.184 232 103.004L247.38 111.884C248.79 112.694 249.93 114.674 249.93 116.304V123.694" stroke="#A9A29D" stroke-width="1.2" stroke-linecap="round" stroke-linejoin="round"/>
<path d="M236.42 107.844V100.454C236.42 98.8243 237.56 98.1643 238.97 98.9843L254.35 107.864C255.76 108.674 256.9 110.654 256.9 112.284V119.674" stroke="#A9A29D" stroke-width="1.2" stroke-linecap="round" stroke-linejoin="round"/>
<path d="M567.36 117.744V112.324C567.36 111.134 566.52 110.654 565.49 111.244L554.219 117.754C553.189 118.354 552.35 119.804 552.35 120.994V126.414" stroke="#A9A29D" stroke-width="1.2" stroke-linecap="round" stroke-linejoin="round"/>
<path d="M562.25 114.804V109.384C562.25 108.194 561.41 107.714 560.38 108.304L549.11 114.814C548.08 115.414 547.24 116.864 547.24 118.054V123.474" stroke="#A9A29D" stroke-width="1.2" stroke-linecap="round" stroke-linejoin="round"/>
<path d="M557.151 111.864V106.444C557.151 105.254 556.311 104.774 555.281 105.364L544.01 111.874C542.98 112.474 542.141 113.924 542.141 115.114V120.534" stroke="#A9A29D" stroke-width="1.2" stroke-linecap="round" stroke-linejoin="round"/>
<path d="M552.04 108.914V103.494C552.04 102.304 551.2 101.824 550.17 102.414L538.9 108.924C537.87 109.524 537.03 110.974 537.03 112.164V117.584" stroke="#A9A29D" stroke-width="1.2" stroke-linecap="round" stroke-linejoin="round"/>
<path d="M546.93 105.974V100.554C546.93 99.3643 546.09 98.8843 545.06 99.4743L533.79 105.984C532.76 106.584 531.92 108.034 531.92 109.224V114.644" stroke="#A9A29D" stroke-width="1.2" stroke-linecap="round" stroke-linejoin="round"/>
<path d="M541.83 103.034V97.6144C541.83 96.4244 540.99 95.9443 539.96 96.5343L528.69 103.044C527.66 103.644 526.82 105.094 526.82 106.284V111.704" stroke="#A9A29D" stroke-width="1.2" stroke-linecap="round" stroke-linejoin="round"/>
<path d="M536.72 100.084V94.6642C536.72 93.4742 535.88 92.9941 534.85 93.5841L523.58 100.094C522.55 100.694 521.71 102.144 521.71 103.334V108.754" stroke="#A9A29D" stroke-width="1.2" stroke-linecap="round" stroke-linejoin="round"/>
<path d="M531.62 97.1443V91.7242C531.62 90.5342 530.78 90.0542 529.75 90.6442L518.48 97.1542C517.45 97.7542 516.61 99.2043 516.61 100.394V105.814" stroke="#A9A29D" stroke-width="1.2" stroke-linecap="round" stroke-linejoin="round"/>
<path d="M526.51 94.2043V88.7843C526.51 87.5943 525.67 87.1143 524.64 87.7043L513.37 94.2143C512.34 94.8143 511.5 96.2643 511.5 97.4543V102.874" stroke="#A9A29D" stroke-width="1.2" stroke-linecap="round" stroke-linejoin="round"/>
<path d="M521.401 91.2643V85.8443C521.401 84.6543 520.561 84.1743 519.531 84.7643L508.26 91.2743C507.23 91.8743 506.391 93.3243 506.391 94.5143V99.9343" stroke="#A9A29D" stroke-width="1.2" stroke-linecap="round" stroke-linejoin="round"/>
<path d="M516.3 88.3141V82.8941C516.3 81.7041 515.46 81.2241 514.43 81.8141L503.16 88.3241C502.13 88.9241 501.29 90.3741 501.29 91.5641V96.9842" stroke="#A9A29D" stroke-width="1.2" stroke-linecap="round" stroke-linejoin="round"/>
<path d="M422.58 194.054L412.35 188.144" stroke="#A9A29D" stroke-width="1.2" stroke-linecap="round" stroke-linejoin="round"/>
<path d="M373.35 222.474L363.12 216.574" stroke="#A9A29D" stroke-width="1.2" stroke-linecap="round" stroke-linejoin="round"/>
<path d="M379.5 218.924L369.271 213.014" stroke="#A9A29D" stroke-width="1.2" stroke-linecap="round" stroke-linejoin="round"/>
<path d="M385.66 215.374L375.43 209.464" stroke="#A9A29D" stroke-width="1.2" stroke-linecap="round" stroke-linejoin="round"/>
<path d="M391.81 211.814L381.58 205.914" stroke="#A9A29D" stroke-width="1.2" stroke-linecap="round" stroke-linejoin="round"/>
<path d="M397.97 208.264L387.73 202.354" stroke="#A9A29D" stroke-width="1.2" stroke-linecap="round" stroke-linejoin="round"/>
<path d="M404.121 204.714L393.891 198.804" stroke="#A9A29D" stroke-width="1.2" stroke-linecap="round" stroke-linejoin="round"/>
<path d="M410.28 201.154L400.04 195.254" stroke="#A9A29D" stroke-width="1.2" stroke-linecap="round" stroke-linejoin="round"/>
<path d="M416.43 197.604L406.2 191.694" stroke="#A9A29D" stroke-width="1.2" stroke-linecap="round" stroke-linejoin="round"/>
<path d="M509.57 244.274L499.33 238.364" stroke="#A9A29D" stroke-width="1.2" stroke-linecap="round" stroke-linejoin="round"/>
<path d="M460.33 272.694L450.1 266.794" stroke="#A9A29D" stroke-width="1.2" stroke-linecap="round" stroke-linejoin="round"/>
<path d="M466.49 269.144L456.25 263.234" stroke="#A9A29D" stroke-width="1.2" stroke-linecap="round" stroke-linejoin="round"/>
<path d="M472.64 265.594L462.41 259.684" stroke="#A9A29D" stroke-width="1.2" stroke-linecap="round" stroke-linejoin="round"/>
<path d="M478.801 262.034L468.561 256.134" stroke="#A9A29D" stroke-width="1.2" stroke-linecap="round" stroke-linejoin="round"/>
<path d="M484.95 258.484L474.72 252.574" stroke="#A9A29D" stroke-width="1.2" stroke-linecap="round" stroke-linejoin="round"/>
<path d="M491.1 254.934L480.87 249.024" stroke="#A9A29D" stroke-width="1.2" stroke-linecap="round" stroke-linejoin="round"/>
<path d="M497.26 251.374L487.03 245.474" stroke="#A9A29D" stroke-width="1.2" stroke-linecap="round" stroke-linejoin="round"/>
<path d="M503.41 247.824L493.18 241.914" stroke="#A9A29D" stroke-width="1.2" stroke-linecap="round" stroke-linejoin="round"/>
<path d="M366.71 222.444C366.71 223.474 367.34 224.474 368.62 225.214L368.67 225.244L435.14 263.614C437.97 265.244 442.9 265.044 446.17 263.164L503.28 230.184C503.55 230.024 503.79 229.864 504.02 229.704C505.32 228.764 505.98 227.654 505.98 226.584C505.98 225.514 505.35 224.564 504.07 223.824L437.55 185.424C434.72 183.794 429.79 183.994 426.52 185.874L369.41 218.854C367.63 219.874 366.71 221.194 366.71 222.444Z" fill="#E7E5E4" stroke="#A9A29D" stroke-width="1.2" stroke-linecap="round" stroke-linejoin="round"/>
<path d="M366.71 222.444V228.354C366.71 229.384 367.34 230.384 368.62 231.124L435.14 269.524C437.97 271.154 442.9 270.954 446.17 269.074L503.28 236.094C505.06 235.074 505.98 233.754 505.98 232.494V226.584C505.98 227.654 505.32 228.774 504.02 229.704C503.79 229.874 503.55 230.024 503.28 230.184L446.17 263.164C442.9 265.044 437.97 265.254 435.14 263.614L368.67 225.244L368.62 225.214C367.34 224.474 366.71 223.484 366.71 222.444Z" fill="#D7D3D0" stroke="#A9A29D" stroke-width="1.2" stroke-linecap="round" stroke-linejoin="round"/>
<path d="M476.42 223.314C475.28 223.974 475.28 225.044 476.42 225.704C477.56 226.364 479.42 226.364 480.56 225.704C481.7 225.044 481.7 223.974 480.56 223.314C479.42 222.654 477.56 222.654 476.42 223.314Z" fill="#A9A29D"/>
<path d="M465.89 217.234C464.75 217.894 464.75 218.964 465.89 219.624C467.03 220.284 468.89 220.284 470.03 219.624C471.17 218.964 471.17 217.894 470.03 217.234C468.89 216.574 467.03 216.574 465.89 217.234Z" fill="#A9A29D"/>
<path d="M455.351 211.144C454.211 211.804 454.211 212.874 455.351 213.534C456.491 214.194 458.351 214.194 459.491 213.534C460.631 212.874 460.631 211.804 459.491 211.144C458.351 210.484 456.491 210.484 455.351 211.144Z" fill="#A9A29D"/>
<path d="M444.81 205.064C443.67 205.724 443.67 206.794 444.81 207.454C445.95 208.114 447.81 208.114 448.95 207.454C450.09 206.794 450.09 205.724 448.95 205.064C447.81 204.404 445.95 204.404 444.81 205.064Z" fill="#A9A29D"/>
<path d="M434.271 198.984C433.131 199.644 433.131 200.714 434.271 201.374C435.411 202.034 437.271 202.034 438.411 201.374C439.551 200.714 439.551 199.644 438.411 198.984C437.271 198.324 435.411 198.324 434.271 198.984Z" fill="#A9A29D"/>
<path d="M465.89 229.404C464.75 230.064 464.75 231.134 465.89 231.794C467.03 232.454 468.89 232.454 470.03 231.794C471.17 231.134 471.17 230.064 470.03 229.404C468.89 228.744 467.03 228.744 465.89 229.404Z" fill="#A9A29D"/>
<path d="M455.351 223.314C454.211 223.974 454.211 225.044 455.351 225.704C456.491 226.364 458.351 226.364 459.491 225.704C460.631 225.044 460.631 223.974 459.491 223.314C458.351 222.654 456.491 222.654 455.351 223.314Z" fill="#A9A29D"/>
<path d="M444.81 217.234C443.67 217.894 443.67 218.964 444.81 219.624C445.95 220.284 447.81 220.284 448.95 219.624C450.09 218.964 450.09 217.894 448.95 217.234C447.81 216.574 445.95 216.574 444.81 217.234Z" fill="#A9A29D"/>
<path d="M434.271 211.144C433.131 211.804 433.131 212.874 434.271 213.534C435.411 214.194 437.271 214.194 438.411 213.534C439.551 212.874 439.551 211.804 438.411 211.144C437.271 210.484 435.411 210.484 434.271 211.144Z" fill="#A9A29D"/>
<path d="M423.73 205.064C422.59 205.724 422.59 206.794 423.73 207.454C424.87 208.114 426.73 208.114 427.87 207.454C429.01 206.794 429.01 205.724 427.87 205.064C426.73 204.404 424.87 204.404 423.73 205.064Z" fill="#A9A29D"/>
<path d="M455.351 235.484C454.211 236.144 454.211 237.214 455.351 237.874C456.491 238.534 458.351 238.534 459.491 237.874C460.631 237.214 460.631 236.144 459.491 235.484C458.351 234.824 456.491 234.824 455.351 235.484Z" fill="#A9A29D"/>
<path d="M444.81 229.404C443.67 230.064 443.67 231.134 444.81 231.794C445.95 232.454 447.81 232.454 448.95 231.794C450.09 231.134 450.09 230.064 448.95 229.404C447.81 228.744 445.95 228.744 444.81 229.404Z" fill="#A9A29D"/>
<path d="M434.271 223.314C433.131 223.974 433.131 225.044 434.271 225.704C435.411 226.364 437.271 226.364 438.411 225.704C439.551 225.044 439.551 223.974 438.411 223.314C437.271 222.654 435.411 222.654 434.271 223.314Z" fill="#A9A29D"/>
<path d="M423.73 217.234C422.59 217.894 422.59 218.964 423.73 219.624C424.87 220.284 426.73 220.284 427.87 219.624C429.01 218.964 429.01 217.894 427.87 217.234C426.73 216.574 424.87 216.574 423.73 217.234Z" fill="#A9A29D"/>
<path d="M413.191 211.144C412.051 211.804 412.051 212.874 413.191 213.534C414.331 214.194 416.191 214.194 417.331 213.534C418.471 212.874 418.471 211.804 417.331 211.144C416.191 210.484 414.331 210.484 413.191 211.144Z" fill="#A9A29D"/>
<path d="M444.81 241.574C443.67 242.234 443.67 243.304 444.81 243.964C445.95 244.624 447.81 244.624 448.95 243.964C450.09 243.304 450.09 242.234 448.95 241.574C447.81 240.914 445.95 240.914 444.81 241.574Z" fill="#A9A29D"/>
<path d="M434.271 235.484C433.131 236.144 433.131 237.214 434.271 237.874C435.411 238.534 437.271 238.534 438.411 237.874C439.551 237.214 439.551 236.144 438.411 235.484C437.271 234.824 435.411 234.824 434.271 235.484Z" fill="#A9A29D"/>
<path d="M423.73 229.404C422.59 230.064 422.59 231.134 423.73 231.794C424.87 232.454 426.73 232.454 427.87 231.794C429.01 231.134 429.01 230.064 427.87 229.404C426.73 228.744 424.87 228.744 423.73 229.404Z" fill="#A9A29D"/>
<path d="M413.191 223.314C412.051 223.974 412.051 225.044 413.191 225.704C414.331 226.364 416.191 226.364 417.331 225.704C418.471 225.044 418.471 223.974 417.331 223.314C416.191 222.654 414.331 222.654 413.191 223.314Z" fill="#A9A29D"/>
<path d="M402.651 217.234C401.511 217.894 401.511 218.964 402.651 219.624C403.791 220.284 405.651 220.284 406.791 219.624C407.931 218.964 407.931 217.894 406.791 217.234C405.651 216.574 403.791 216.574 402.651 217.234Z" fill="#A9A29D"/>
<path d="M434.271 247.654C433.131 248.314 433.131 249.384 434.271 250.044C435.411 250.704 437.271 250.704 438.411 250.044C439.551 249.384 439.551 248.314 438.411 247.654C437.271 246.994 435.411 246.994 434.271 247.654Z" fill="#A9A29D"/>
<path d="M423.73 241.574C422.59 242.234 422.59 243.304 423.73 243.964C424.87 244.624 426.73 244.624 427.87 243.964C429.01 243.304 429.01 242.234 427.87 241.574C426.73 240.914 424.87 240.914 423.73 241.574Z" fill="#A9A29D"/>
<path d="M413.191 235.484C412.051 236.144 412.051 237.214 413.191 237.874C414.331 238.534 416.191 238.534 417.331 237.874C418.471 237.214 418.471 236.144 417.331 235.484C416.191 234.824 414.331 234.824 413.191 235.484Z" fill="#A9A29D"/>
<path d="M402.651 229.404C401.511 230.064 401.511 231.134 402.651 231.794C403.791 232.454 405.651 232.454 406.791 231.794C407.931 231.134 407.931 230.064 406.791 229.404C405.651 228.744 403.791 228.744 402.651 229.404Z" fill="#A9A29D"/>
<path d="M392.121 223.314C390.981 223.974 390.981 225.044 392.121 225.704C393.261 226.364 395.121 226.364 396.261 225.704C397.401 225.044 397.401 223.974 396.261 223.314C395.121 222.654 393.261 222.654 392.121 223.314Z" fill="#A9A29D"/>
<path d="M641.55 185.654L626.03 176.694C625.31 176.274 625.31 175.234 626.03 174.814L641.55 165.854C642.56 165.274 643.79 165.274 644.8 165.854L660.32 174.814C661.04 175.234 661.04 176.274 660.32 176.694L644.8 185.654C643.79 186.234 642.56 186.234 641.55 185.654Z" fill="#E7E5E4" stroke="#A9A29D" stroke-width="1.2" stroke-linecap="round" stroke-linejoin="round"/>
<path d="M571.05 232.104C569.91 232.764 569.91 233.834 571.05 234.494C572.19 235.154 574.05 235.154 575.19 234.494C576.33 233.834 576.33 232.764 575.19 232.104C574.05 231.444 572.19 231.444 571.05 232.104Z" fill="#A9A29D"/>
<path d="M560.51 238.194C559.37 238.854 559.37 239.924 560.51 240.584C561.65 241.244 563.51 241.244 564.65 240.584C565.79 239.924 565.79 238.854 564.65 238.194C563.51 237.534 561.65 237.534 560.51 238.194Z" fill="#A9A29D"/>
<path d="M549.97 244.274C548.83 244.934 548.83 246.004 549.97 246.664C551.11 247.324 552.97 247.324 554.11 246.664C555.25 246.004 555.25 244.934 554.11 244.274C552.97 243.614 551.11 243.614 549.97 244.274Z" fill="#A9A29D"/>
<path d="M539.43 250.354C538.29 251.014 538.29 252.084 539.43 252.744C540.57 253.404 542.43 253.404 543.57 252.744C544.71 252.084 544.71 251.014 543.57 250.354C542.43 249.694 540.57 249.694 539.43 250.354Z" fill="#A9A29D"/>
<path d="M528.89 256.444C527.75 257.104 527.75 258.174 528.89 258.834C530.03 259.494 531.89 259.494 533.03 258.834C534.17 258.174 534.17 257.104 533.03 256.444C531.89 255.784 530.03 255.784 528.89 256.444Z" fill="#A9A29D"/>
<path d="M136.85 287.544C137.99 288.204 137.99 289.274 136.85 289.934C135.71 290.594 133.85 290.594 132.71 289.934C131.57 289.274 131.57 288.204 132.71 287.544C133.85 286.884 135.71 286.884 136.85 287.544Z" fill="#A9A29D"/>
<path d="M147.391 293.634C148.531 294.294 148.531 295.364 147.391 296.024C146.251 296.684 144.391 296.684 143.251 296.024C142.111 295.364 142.111 294.294 143.251 293.634C144.391 292.974 146.251 292.974 147.391 293.634Z" fill="#A9A29D"/>
<path d="M157.93 299.714C159.07 300.374 159.07 301.444 157.93 302.104C156.79 302.764 154.93 302.764 153.79 302.104C152.65 301.444 152.65 300.374 153.79 299.714C154.93 299.054 156.79 299.054 157.93 299.714Z" fill="#A9A29D"/>
<path d="M168.47 305.794C169.61 306.454 169.61 307.524 168.47 308.184C167.33 308.844 165.47 308.844 164.33 308.184C163.19 307.524 163.19 306.454 164.33 305.794C165.47 305.134 167.33 305.134 168.47 305.794Z" fill="#A9A29D"/>
<path d="M179.011 311.884C180.151 312.544 180.151 313.614 179.011 314.274C177.871 314.934 176.011 314.934 174.871 314.274C173.731 313.614 173.731 312.544 174.871 311.884C176.011 311.224 177.871 311.224 179.011 311.884Z" fill="#A9A29D"/>
<path d="M697.91 176.694V198.694C697.91 201.654 695.74 204.774 691.52 207.214L320.06 421.674C312.34 426.134 300.66 426.614 293.98 422.754L5.51001 256.204C2.48001 254.464 1 252.124 1 249.674V227.674C1 230.124 2.48001 232.464 5.51001 234.204L12.47 238.224L293.98 400.754C300.66 404.614 312.34 404.134 320.06 399.674L686.44 188.144L691.52 185.214C695.74 182.774 697.91 179.654 697.91 176.694Z" fill="#F5F5F4" stroke="#A9A29D" stroke-width="1.2" stroke-linecap="round" stroke-linejoin="round"/>
<path d="M296.96 185.004L284.93 191.954" stroke="#A9A29D" stroke-width="1.2" stroke-linecap="round" stroke-linejoin="round"/>
<path d="M293.47 191.954H284.93V187.024" stroke="#A9A29D" stroke-width="1.2" stroke-linecap="round" stroke-linejoin="round"/>
<path d="M333.41 223.994L321.41 230.914" stroke="#A9A29D" stroke-width="1.2" stroke-linecap="round" stroke-linejoin="round"/>
<path d="M333.41 230.914L321.41 223.994" stroke="#A9A29D" stroke-width="1.2" stroke-linecap="round" stroke-linejoin="round"/>
<path d="M472.49 170.644L460.49 177.564" stroke="#A9A29D" stroke-width="1.2" stroke-linecap="round" stroke-linejoin="round"/>
<path d="M472.49 177.564L460.49 170.644" stroke="#A9A29D" stroke-width="1.2" stroke-linecap="round" stroke-linejoin="round"/>
<path d="M428.87 290.864L416.87 297.794" stroke="#A9A29D" stroke-width="1.2" stroke-linecap="round" stroke-linejoin="round"/>
<path d="M428.87 297.794L416.87 290.864" stroke="#A9A29D" stroke-width="1.2" stroke-linecap="round" stroke-linejoin="round"/>
<path d="M282.91 86.9238L270.91 93.8538" stroke="#A9A29D" stroke-width="1.2" stroke-linecap="round" stroke-linejoin="round"/>
<path d="M282.91 93.8538L270.91 86.9238" stroke="#A9A29D" stroke-width="1.2" stroke-linecap="round" stroke-linejoin="round"/>
<path d="M47.9203 270.384L39.8203 265.704" stroke="#A9A29D" stroke-width="1.2" stroke-linecap="round" stroke-linejoin="round"/>
<path d="M89.1707 294.194L57.2607 275.774" stroke="#A9A29D" stroke-width="1.2" stroke-linecap="round" stroke-linejoin="round"/>
<path d="M115.64 309.484L97.3701 298.934" stroke="#A9A29D" stroke-width="1.2" stroke-linecap="round" stroke-linejoin="round"/>
<path d="M210.13 278.514C210.13 279.604 209.93 280.704 209.52 281.774C208.48 284.494 206.13 287.084 202.46 289.204C192.24 295.104 175.67 295.104 165.45 289.204C161.78 287.084 159.43 284.494 158.39 281.774C157.98 280.704 157.78 279.604 157.78 278.514C157.78 274.644 160.33 270.784 165.45 267.834C175.67 261.934 192.24 261.934 202.46 267.834C207.57 270.784 210.13 274.654 210.13 278.514Z" fill="#E7E5E4" stroke="#A9A29D" stroke-width="1.2" stroke-miterlimit="10" stroke-linecap="round"/>
<path d="M198.49 240.854C198.49 232.824 191.98 226.314 183.95 226.314C175.92 226.314 169.41 232.824 169.41 240.854V278.514C169.41 278.924 169.52 279.334 169.75 279.734C170.32 280.754 171.63 281.734 173.67 282.524C179.35 284.744 188.55 284.744 194.23 282.524C196.27 281.724 197.57 280.754 198.15 279.734C198.38 279.334 198.49 278.924 198.49 278.514V240.854Z" fill="#FDFDFC" stroke="#A9A29D" stroke-width="1.2" stroke-linecap="round" stroke-linejoin="round"/>
<path d="M183.95 241.004V284.194" stroke="#A9A29D" stroke-width="1.2" stroke-linecap="round" stroke-linejoin="round"/>
</svg>
