<svg width="388" height="224" viewBox="0 0 388 224" fill="none" xmlns="http://www.w3.org/2000/svg">
<path d="M387.285 112.14C387.285 114.26 385.884 116.37 383.084 117.99L381.745 118.76L370.324 125.36C364.734 128.59 355.675 128.59 350.075 125.36C347.285 123.75 343.615 122.94 339.955 122.94C336.295 122.94 332.624 123.75 329.834 125.36H329.805C324.215 128.61 324.215 133.84 329.805 137.06C330.285 137.33 330.724 137.63 331.115 137.93C332.924 139.31 333.865 140.94 333.984 142.58V142.68C333.995 142.76 333.995 142.82 333.995 142.9C333.995 143.03 333.995 143.16 333.984 143.3C333.814 145.27 332.424 147.24 329.805 148.74L328.575 149.45L257.024 190.76C251.424 193.99 242.354 193.99 236.774 190.76C233.984 189.15 230.314 188.34 226.654 188.34C222.994 188.34 219.314 189.15 216.524 190.76H216.515C210.915 194.01 210.915 199.23 216.515 202.46C216.995 202.73 217.425 203.03 217.825 203.33C219.735 204.8 220.695 206.56 220.695 208.31C220.695 210.43 219.305 212.54 216.515 214.16L215.285 214.87L203.765 221.52C198.165 224.75 189.115 224.75 183.515 221.52L5.5345 118.76L4.19453 117.98C1.61453 116.5 0.23449 114.59 0.0244901 112.64V112.61C-0.20551 110.34 1.18453 108.02 4.19453 106.28L16.9545 98.9101C22.5445 95.6901 31.6045 95.6901 37.1945 98.9101C40.0045 100.53 43.6645 101.34 47.3245 101.34C50.4445 101.34 53.5545 100.76 56.1445 99.5701C56.5945 99.3801 57.0245 99.1501 57.4445 98.9101H57.4745C62.6145 95.9401 63.0245 91.2601 58.7045 88.0401C58.3245 87.7501 57.9145 87.4801 57.4745 87.2201H57.4645C54.8445 85.7001 53.4645 83.7501 53.2945 81.7801V81.7401C53.1245 79.4901 54.5145 77.2301 57.4645 75.5301L130.255 33.5101C135.845 30.2801 144.905 30.2801 150.505 33.5101C153.295 35.1201 156.965 35.9301 160.625 35.9301C163.755 35.9301 166.885 35.3501 169.475 34.1601C169.915 33.9701 170.345 33.7401 170.765 33.5101H170.774C175.914 30.5201 176.325 25.8501 172.005 22.6201C171.625 22.3301 171.214 22.0601 170.774 21.8001C167.984 20.1801 166.575 18.0701 166.575 15.9501C166.575 13.8301 167.974 11.7201 170.774 10.1001L183.535 2.73012C189.124 -0.499883 198.184 -0.499883 203.785 2.73012L383.104 106.26C385.895 107.87 387.304 110 387.304 112.11L387.285 112.14Z" fill="#D7D3D0"/>
</svg>
