<svg width="389" height="666" viewBox="0 0 389 666" fill="none" xmlns="http://www.w3.org/2000/svg">
<path d="M335.005 583.22C335.015 583.35 335.015 583.48 335.015 583.61C335.015 583.73 335.015 583.84 335.005 583.96V583.22Z" fill="#FAFAF9" stroke="#D7D3D0" stroke-width="1.2" stroke-linecap="round" stroke-linejoin="round"/>
<path d="M171.765 461H171.755C171.335 461.25 170.914 461.47 170.464 461.66C168.544 460.19 167.565 458.44 167.565 456.68V443.46C167.565 445.58 168.965 447.68 171.765 449.31C172.205 449.57 172.625 449.84 172.995 450.13C177.305 453.35 176.905 458.03 171.765 461Z" fill="#FAFAF9" stroke="#D7D3D0" stroke-width="1.2" stroke-linecap="round" stroke-linejoin="round"/>
<path d="M58.4745 526.42H58.4445C58.0245 526.67 57.6045 526.89 57.1445 527.08C55.3745 525.73 54.4345 524.14 54.2845 522.55V509.29C54.4545 511.26 55.8345 513.21 58.4545 514.73H58.4645C58.9045 514.99 59.3245 515.26 59.6945 515.55C64.0045 518.77 63.6045 523.45 58.4645 526.42H58.4745Z" fill="#FAFAF9" stroke="#D7D3D0" stroke-width="1.2" stroke-linecap="round" stroke-linejoin="round"/>
<path d="M382.755 546.24L371.334 552.84C365.744 556.07 356.684 556.07 351.084 552.84C348.294 551.23 344.624 550.42 340.964 550.42C337.304 550.42 333.634 551.23 330.844 552.84H330.815C325.225 556.09 325.225 561.32 330.815 564.54C331.295 564.81 331.734 565.11 332.125 565.41C331.685 565.62 331.254 565.84 330.834 566.07H330.805C325.664 569.04 325.255 573.72 329.575 576.94L258.024 618.25C252.424 621.48 243.354 621.48 237.774 618.25C234.984 616.64 231.314 615.83 227.654 615.83C223.994 615.83 220.314 616.64 217.524 618.25H217.515C211.915 621.5 211.915 626.72 217.515 629.95C217.995 630.22 218.425 630.52 218.825 630.82C218.375 631.03 217.944 631.25 217.524 631.48H217.515C212.355 634.45 211.954 639.13 216.284 642.35L204.765 649C199.165 652.23 190.115 652.23 184.515 649L6.53448 546.24L17.9545 539.64C23.5445 536.41 32.6045 536.41 38.1945 539.64C41.0045 541.25 44.6645 542.06 48.3245 542.06C51.9845 542.06 55.6545 541.25 58.4445 539.64H58.4745C64.0645 536.39 64.0645 531.16 58.4745 527.94H58.4645C57.9845 527.67 57.5545 527.37 57.1545 527.07C57.6045 526.88 58.0345 526.65 58.4545 526.41H58.4845C63.6245 523.44 64.0345 518.76 59.7145 515.54L131.265 474.23C136.855 471 145.915 471 151.515 474.23C154.305 475.84 157.975 476.65 161.635 476.65C165.295 476.65 168.965 475.84 171.765 474.23H171.774C177.364 470.98 177.364 465.76 171.774 462.53C171.304 462.26 170.864 461.97 170.474 461.66C170.914 461.47 171.345 461.24 171.765 461.01H171.774C176.914 458.02 177.325 453.35 173.005 450.12L184.524 443.47C190.114 440.24 199.174 440.24 204.774 443.47L382.755 546.23V546.24Z" fill="#FAFAF9" stroke="#D7D3D0" stroke-width="1.2" stroke-linecap="round" stroke-linejoin="round"/>
<path d="M388.285 539.63C388.285 541.75 386.884 543.86 384.084 545.48L382.745 546.25L371.324 552.85C365.734 556.08 356.675 556.08 351.075 552.85C348.285 551.24 344.615 550.43 340.955 550.43C337.295 550.43 333.624 551.24 330.834 552.85H330.805C325.215 556.1 325.215 561.33 330.805 564.55C331.285 564.82 331.724 565.12 332.115 565.42C333.924 566.8 334.865 568.43 334.984 570.07V570.17C334.995 570.25 334.995 570.31 334.995 570.39C334.995 570.52 334.995 570.65 334.984 570.79C334.814 572.76 333.424 574.73 330.805 576.23L329.575 576.94L258.024 618.25C252.424 621.48 243.354 621.48 237.774 618.25C234.984 616.64 231.314 615.83 227.654 615.83C223.994 615.83 220.314 616.64 217.524 618.25H217.515C211.915 621.5 211.915 626.72 217.515 629.95C217.995 630.22 218.425 630.52 218.825 630.82C220.735 632.29 221.695 634.05 221.695 635.8C221.695 637.92 220.305 640.03 217.515 641.65L216.285 642.36L204.765 649.01C199.165 652.24 190.115 652.24 184.515 649.01L6.5345 546.25L5.19453 545.47C2.61453 543.99 1.23449 542.08 1.02449 540.13V540.1C0.79449 537.83 2.18453 535.51 5.19453 533.77L17.9545 526.4C23.5445 523.18 32.6045 523.18 38.1945 526.4C41.0045 528.02 44.6645 528.83 48.3245 528.83C51.4445 528.83 54.5545 528.25 57.1445 527.06C57.5945 526.87 58.0245 526.64 58.4445 526.4H58.4745C63.6145 523.43 64.0245 518.75 59.7045 515.53C59.3245 515.24 58.9145 514.97 58.4745 514.71H58.4645C55.8445 513.19 54.4645 511.24 54.2945 509.27V509.23C54.1245 506.98 55.5145 504.72 58.4645 503.02L131.255 461C136.845 457.77 145.905 457.77 151.505 461C154.295 462.61 157.965 463.42 161.625 463.42C164.755 463.42 167.885 462.84 170.475 461.65C170.915 461.46 171.345 461.23 171.765 461H171.774C176.914 458.01 177.325 453.34 173.005 450.11C172.625 449.82 172.214 449.55 171.774 449.29C168.984 447.67 167.575 445.56 167.575 443.44C167.575 441.32 168.974 439.21 171.774 437.59L184.535 430.22C190.124 426.99 199.184 426.99 204.785 430.22L384.104 533.75C386.895 535.36 388.304 537.49 388.304 539.6L388.285 539.63Z" fill="#F5F5F4" stroke="#D7D3D0" stroke-width="1.2" stroke-linecap="round" stroke-linejoin="round"/>
<path d="M388.285 539.63V552.87C388.285 554.99 386.885 557.09 384.085 558.72L371.325 566.09C365.735 569.31 356.675 569.31 351.075 566.09C348.285 564.48 344.615 563.66 340.955 563.66C337.825 563.66 334.705 564.26 332.125 565.43C331.735 565.13 331.295 564.83 330.815 564.56C325.225 561.34 325.225 556.1 330.815 552.87H330.845C333.635 551.25 337.305 550.44 340.965 550.44C344.625 550.44 348.295 551.25 351.085 552.86C356.685 556.09 365.755 556.09 371.335 552.86L382.755 546.26L384.095 545.49C386.885 543.88 388.295 541.76 388.295 539.64L388.285 539.63Z" fill="#FAFAF9" stroke="#D7D3D0" stroke-width="1.2" stroke-linecap="round" stroke-linejoin="round"/>
<path d="M388.285 553.43V552.86" stroke="#D7D3D0" stroke-width="1.2" stroke-linecap="round" stroke-linejoin="round"/>
<path d="M335.005 570.79V583.96C334.865 585.96 333.475 587.93 330.825 589.45L258.044 631.48C252.444 634.7 243.374 634.7 237.794 631.48C235.004 629.87 231.334 629.05 227.674 629.05C224.554 629.05 221.424 629.65 218.844 630.82C218.444 630.52 218.014 630.22 217.534 629.95C211.934 626.72 211.934 621.49 217.534 618.26H217.544C220.334 616.64 224.014 615.83 227.674 615.83C231.334 615.83 235.004 616.64 237.794 618.25C243.384 621.48 252.444 621.48 258.044 618.25L329.594 576.94L330.825 576.23C333.445 574.72 334.835 572.76 335.005 570.79Z" fill="#FAFAF9" stroke="#D7D3D0" stroke-width="1.2" stroke-linecap="round" stroke-linejoin="round"/>
<path d="M335.005 570.79V570.17V570.06" stroke="#D7D3D0" stroke-width="1.2" stroke-linecap="round" stroke-linejoin="round"/>
<path d="M221.715 635.8V649.02C221.715 651.14 220.325 653.25 217.535 654.87L204.775 662.23C199.175 665.46 190.125 665.46 184.525 662.23L5.20471 558.7C2.62471 557.21 1.24467 555.3 1.03467 553.36V540.12C1.24467 542.07 2.61471 543.98 5.20471 545.46L6.54468 546.24L184.525 649C190.125 652.23 199.175 652.23 204.775 649L216.295 642.35L217.525 641.64C220.315 640.03 221.705 637.91 221.705 635.79L221.715 635.8Z" fill="#FAFAF9" stroke="#D7D3D0" stroke-width="1.2" stroke-linecap="round" stroke-linejoin="round"/>
<path d="M1.03448 540.14V540.11" stroke="#D7D3D0" stroke-width="1.2" stroke-linecap="round" stroke-linejoin="round"/>
<path d="M54.2845 509.29V509.24" stroke="#D7D3D0" stroke-width="1.2" stroke-linecap="round" stroke-linejoin="round"/>
<path d="M297.654 573.05C296.554 573.68 296.554 574.71 297.654 575.34C298.754 575.97 300.524 575.97 301.624 575.34C302.724 574.71 302.724 573.68 301.624 573.05C300.524 572.42 298.754 572.42 297.654 573.05Z" fill="#D7D3D0"/>
<path d="M287.554 578.869C286.454 579.499 286.454 580.529 287.554 581.159C288.654 581.789 290.424 581.789 291.524 581.159C292.624 580.529 292.624 579.499 291.524 578.869C290.424 578.239 288.654 578.239 287.554 578.869Z" fill="#D7D3D0"/>
<path d="M277.464 584.7C276.364 585.33 276.364 586.36 277.464 586.99C278.564 587.62 280.334 587.62 281.434 586.99C282.534 586.36 282.534 585.33 281.434 584.7C280.334 584.07 278.564 584.07 277.464 584.7Z" fill="#D7D3D0"/>
<path d="M267.364 590.53C266.264 591.16 266.264 592.19 267.364 592.82C268.464 593.45 270.234 593.45 271.334 592.82C272.434 592.19 272.434 591.16 271.334 590.53C270.234 589.9 268.464 589.9 267.364 590.53Z" fill="#D7D3D0"/>
<path d="M257.274 596.36C256.174 596.99 256.174 598.02 257.274 598.65C258.374 599.28 260.144 599.28 261.244 598.65C262.344 598.02 262.344 596.99 261.244 596.36C260.144 595.73 258.374 595.73 257.274 596.36Z" fill="#D7D3D0"/>
<path d="M79.2545 571.87L70.6945 566.93" stroke="#D7D3D0" stroke-width="1.2" stroke-linecap="round" stroke-linejoin="round"/>
<path d="M122.834 597.03L89.1245 577.57" stroke="#D7D3D0" stroke-width="1.2" stroke-linecap="round" stroke-linejoin="round"/>
<path d="M150.815 613.19L131.515 602.04" stroke="#D7D3D0" stroke-width="1.2" stroke-linecap="round" stroke-linejoin="round"/>
<path d="M168.555 611.4V611.1" stroke="#D7D3D0" stroke-width="1.2" stroke-linecap="round" stroke-linejoin="round"/>
<path d="M110.755 556.96V556.92" stroke="#D7D3D0" stroke-width="1.2" stroke-linecap="round" stroke-linejoin="round"/>
<path d="M156.584 466.11V465.99" stroke="#D7D3D0" stroke-width="1.2" stroke-linecap="round" stroke-linejoin="round"/>
<path d="M331.584 526.99V540.32C331.584 541.09 331.044 541.83 330.094 542.39L300.784 559.31C298.794 560.47 295.584 560.47 293.604 559.31L288.104 556.14C286.124 555 282.915 555 280.924 556.14L233.695 583.41L227.065 587.24C225.605 588.08 225.225 589.32 225.935 590.37L203.245 603.48C202.295 604.02 201.004 604.34 199.664 604.34H176.594C175.394 604.34 174.235 604.1 173.325 603.66L177.245 601.39C179.225 600.25 179.225 598.4 177.245 597.25L170.315 593.25L177.245 589.24C179.225 588.1 179.225 586.25 177.245 585.1L153.984 571.67C152.004 570.53 148.795 570.53 146.805 571.67L143.435 573.61C141.445 574.77 138.235 574.77 136.255 573.61L112.414 559.85C112.274 559.75 112.134 559.65 111.974 559.56L108.145 557.35C107.455 556.83 107.104 556.21 107.104 555.58V556.75L88.7145 546.13C86.7245 544.99 83.5145 544.99 81.5345 546.13L70.6745 552.41C68.6945 553.55 65.4845 553.55 63.4945 552.41L56.8845 548.58C55.9245 548.04 55.3945 547.29 55.3945 546.51V533.19C55.3945 532.42 55.9245 531.68 56.8845 531.12L86.1945 514.2C88.1845 513.06 91.3945 513.06 93.3745 514.2L98.8645 517.37C100.855 518.51 104.064 518.51 106.044 517.37L159.914 486.27C161.894 485.13 161.894 483.27 159.914 482.12L154.424 478.95C153.914 478.65 153.534 478.31 153.294 477.94L159.914 474.11C161.374 473.27 161.754 472.03 161.044 470.98L183.745 457.87C184.695 457.33 185.985 457.01 187.325 457.01H210.395C211.595 457.01 212.754 457.25 213.664 457.69L209.745 459.96C207.765 461.1 207.765 462.95 209.745 464.1L216.674 468.1L209.745 472.11C207.765 473.25 207.765 475.1 209.745 476.25L232.995 489.68C234.985 490.82 238.195 490.82 240.174 489.68L243.565 487.73C245.545 486.59 248.755 486.59 250.745 487.73L274.544 501.47L278.404 503.7C278.584 503.8 278.754 503.92 278.904 504.04C280.374 505.18 280.194 506.8 278.404 507.84L275.015 509.79C273.035 510.93 273.035 512.79 275.015 513.94L298.274 527.37C300.264 528.51 303.475 528.51 305.455 527.37L316.315 521.09C318.295 519.95 321.505 519.95 323.495 521.09L330.104 524.92C331.064 525.47 331.594 526.21 331.594 526.99H331.584Z" fill="#D7D3D0" stroke="#D7D3D0" stroke-width="1.2" stroke-linecap="round" stroke-linejoin="round"/>
<path d="M331.584 514.84V528.17C331.584 528.94 331.044 529.68 330.094 530.24L300.784 547.16C298.794 548.3 295.584 548.3 293.604 547.16L288.104 543.99C286.124 542.85 282.915 542.85 280.924 543.99L227.055 575.09C225.075 576.23 225.075 578.08 227.055 579.23L232.555 582.41C233.064 582.71 233.445 583.05 233.685 583.42C233.915 583.76 234.034 584.11 234.034 584.46V584.48C234.034 585.23 233.535 585.98 232.555 586.55L225.924 590.38L203.234 603.49C202.285 604.03 200.994 604.35 199.654 604.35H176.584C175.384 604.35 174.225 604.11 173.315 603.67C173.195 603.61 173.095 603.55 172.995 603.5L166.375 599.67C165.385 599.1 164.895 598.35 164.895 597.6C164.895 596.85 165.385 596.1 166.375 595.53L170.305 593.26L177.234 589.25C179.215 588.11 179.215 586.26 177.234 585.11L153.974 571.68C151.994 570.54 148.784 570.54 146.794 571.68L143.424 573.62C141.435 574.78 138.225 574.78 136.245 573.62L112.404 559.86L108.594 557.66C108.434 557.57 108.285 557.46 108.145 557.36C107.455 556.84 107.104 556.22 107.104 555.59V555.56C107.114 554.82 107.614 554.08 108.594 553.51L111.964 551.57C113.954 550.43 113.954 548.57 111.964 547.42L88.7145 533.99C86.7245 532.85 83.5145 532.85 81.5345 533.99L70.6745 540.27C68.6945 541.41 65.4845 541.41 63.4945 540.27L56.8845 536.44C55.9245 535.9 55.3945 535.15 55.3945 534.37V521.05C55.3945 520.28 55.9245 519.54 56.8845 518.98L86.1945 502.06C88.1845 500.92 91.3945 500.92 93.3745 502.06L98.8645 505.23C100.855 506.37 104.064 506.37 106.044 505.23L152.945 478.15L153.294 477.95L159.914 474.12C161.374 473.28 161.754 472.04 161.044 470.99C160.814 470.62 160.434 470.27 159.914 469.97L154.424 466.8C153.444 466.22 152.945 465.48 152.945 464.73C152.945 463.98 153.444 463.24 154.424 462.66L183.745 445.73C184.695 445.19 185.985 444.87 187.325 444.87H210.395C211.745 444.87 213.035 445.18 213.984 445.73L220.594 449.56C221.584 450.14 222.084 450.87 222.084 451.62C222.084 452.38 221.584 453.12 220.594 453.7L213.664 457.71L209.745 459.98C207.765 461.12 207.765 462.97 209.745 464.12L216.674 468.12L232.995 477.55C234.985 478.69 238.195 478.69 240.174 477.55L243.565 475.6C245.545 474.46 248.755 474.46 250.745 475.6L278.404 491.57C279.364 492.12 279.845 492.84 279.885 493.57V493.64C279.885 494.39 279.394 495.13 278.404 495.71L275.015 497.66C273.215 498.7 273.054 500.34 274.544 501.49C274.684 501.61 274.845 501.71 275.015 501.81L278.895 504.05L279.875 504.62L298.274 515.24C300.264 516.38 303.475 516.38 305.455 515.24L316.315 508.96C318.295 507.82 321.505 507.82 323.495 508.96L330.104 512.79C331.064 513.34 331.594 514.08 331.594 514.86L331.584 514.84Z" fill="#A9A29D" stroke="#D7D3D0" stroke-width="1.2" stroke-linecap="round" stroke-linejoin="round"/>
<path d="M234.044 584.47V596.66C234.024 597.4 233.525 598.12 232.565 598.68L203.245 615.61C202.295 616.16 201.004 616.47 199.664 616.47H176.594C175.244 616.47 173.955 616.17 173.005 615.61L166.385 611.78C165.395 611.2 164.904 610.46 164.904 609.71V597.56C164.904 598.31 165.395 599.06 166.385 599.63L173.005 603.46C173.105 603.52 173.215 603.58 173.325 603.63C174.235 604.07 175.394 604.31 176.594 604.31H199.664C201.004 604.31 202.305 604 203.245 603.45L225.935 590.34L232.565 586.51C233.545 585.94 234.044 585.19 234.044 584.44V584.47Z" fill="#D7D3D0" stroke="#D7D3D0" stroke-width="1.2" stroke-linecap="round" stroke-linejoin="round"/>
<path d="M234.044 584.48V584.45" stroke="#D7D3D0" stroke-width="1.2" stroke-linecap="round" stroke-linejoin="round"/>
<path d="M164.904 610.03V609.73" stroke="#D7D3D0" stroke-width="1.2" stroke-linecap="round" stroke-linejoin="round"/>
<path d="M177.245 589.23L170.315 593.24L153.984 583.81C152.004 582.67 148.795 582.67 146.805 583.81L143.435 585.76C141.445 586.9 138.235 586.9 136.255 585.76L108.594 569.79C107.624 569.22 107.124 568.51 107.104 567.76V555.58C107.104 556.2 107.455 556.83 108.145 557.35C108.285 557.45 108.434 557.56 108.594 557.65L112.404 559.85L136.245 573.61C138.225 574.77 141.434 574.77 143.424 573.61L146.794 571.67C148.784 570.53 151.994 570.53 153.974 571.67L177.234 585.1C179.215 586.24 179.215 588.09 177.234 589.24L177.245 589.23Z" fill="#D7D3D0" stroke="#D7D3D0" stroke-width="1.2" stroke-linecap="round" stroke-linejoin="round"/>
<path d="M107.104 555.58V555.54" stroke="#D7D3D0" stroke-width="1.2" stroke-linecap="round" stroke-linejoin="round"/>
<path d="M159.904 474.12L153.284 477.95L152.935 478.15V464.74C152.935 465.49 153.434 466.23 154.414 466.81L159.904 469.98C160.424 470.28 160.804 470.63 161.034 471C161.744 472.05 161.354 473.29 159.904 474.13V474.12Z" fill="#D7D3D0" stroke="#D7D3D0" stroke-width="1.2" stroke-linecap="round" stroke-linejoin="round"/>
<path d="M152.935 464.73V464.62" stroke="#D7D3D0" stroke-width="1.2" stroke-linecap="round" stroke-linejoin="round"/>
<path d="M222.084 451.63V463.78C222.084 464.53 221.584 465.28 220.594 465.85L216.674 468.12L209.744 464.12C207.764 462.98 207.764 461.13 209.744 459.98L213.664 457.71L220.594 453.7C221.584 453.12 222.084 452.38 222.084 451.63Z" fill="#D7D3D0" stroke="#D7D3D0" stroke-width="1.2" stroke-linecap="round" stroke-linejoin="round"/>
<path d="M222.084 464.62V463.77" stroke="#D7D3D0" stroke-width="1.2" stroke-linecap="round" stroke-linejoin="round"/>
<path d="M279.864 493.62V504.6L278.884 504.03C278.734 503.91 278.574 503.8 278.384 503.69L274.524 501.46C273.034 500.32 273.194 498.67 274.994 497.63L278.384 495.68C279.374 495.1 279.864 494.36 279.864 493.61V493.62Z" fill="#D7D3D0" stroke="#D7D3D0" stroke-width="1.2" stroke-linecap="round" stroke-linejoin="round"/>
<path d="M279.865 493.62V493.56" stroke="#D7D3D0" stroke-width="1.2" stroke-linecap="round" stroke-linejoin="round"/>
<path d="M261.095 522.47V531.68C261.095 531.68 254.905 539.94 239.565 539.94C224.225 539.94 218.035 531.68 218.035 531.68V522.47C218.035 522.47 224.235 530.73 239.565 530.73C254.895 530.73 261.095 522.47 261.095 522.47Z" fill="#D7D3D0" stroke="#D7D3D0" stroke-width="1.2" stroke-miterlimit="10"/>
<path d="M261.095 506.29V522.47C261.095 522.47 254.905 530.73 239.565 530.73C224.225 530.73 218.035 522.47 218.035 522.47V506.29C218.035 506.29 224.235 514.55 239.565 514.55C254.895 514.55 261.095 506.29 261.095 506.29Z" fill="#A9A29D" stroke="#D7D3D0" stroke-width="1.2" stroke-linecap="round" stroke-linejoin="round"/>
<path d="M261.095 433.06V506.29C261.095 506.29 254.905 514.55 239.565 514.55C234.425 514.55 230.325 513.62 227.135 512.39L227.465 512.29V439.28L239.575 386.03L261.105 433.06H261.095Z" fill="#F5F5F4" stroke="#D7D3D0" stroke-width="1.2" stroke-linecap="round" stroke-linejoin="round"/>
<path d="M239.555 386.03L227.445 439.28V512.29L227.115 512.39C220.765 509.95 218.015 506.29 218.015 506.29V433.06L239.545 386.03H239.555Z" fill="#FAFAF9" stroke="#D7D3D0" stroke-width="1.2" stroke-linecap="round" stroke-linejoin="round"/>
<path d="M218.035 433.06C218.035 433.06 224.225 441.32 239.565 441.32C254.905 441.32 261.095 433.06 261.095 433.06" stroke="#D7D3D0" stroke-width="1.2" stroke-miterlimit="10"/>
<path d="M125.895 522.47V531.68C125.895 531.68 132.084 539.94 147.424 539.94C162.755 539.94 168.955 531.68 168.955 531.68V522.47C168.955 522.47 162.755 530.73 147.424 530.73C132.084 530.73 125.895 522.47 125.895 522.47Z" fill="#D7D3D0" stroke="#D7D3D0" stroke-width="1.2" stroke-miterlimit="10"/>
<path d="M125.895 506.29V522.47C125.895 522.47 132.084 530.73 147.424 530.73C162.755 530.73 168.955 522.47 168.955 522.47V506.29C168.955 506.29 162.755 514.55 147.424 514.55C132.084 514.55 125.895 506.29 125.895 506.29Z" fill="#A9A29D" stroke="#D7D3D0" stroke-width="1.2" stroke-linecap="round" stroke-linejoin="round"/>
<path d="M125.895 433.06V506.29C125.895 506.29 132.085 514.55 147.425 514.55C152.565 514.55 156.665 513.62 159.855 512.39L159.525 512.29V439.28L147.415 386.03L125.885 433.06H125.895Z" fill="#FAFAF9" stroke="#D7D3D0" stroke-width="1.2" stroke-linecap="round" stroke-linejoin="round"/>
<path d="M147.425 386.03L159.535 439.28V512.29L159.865 512.39C166.215 509.95 168.965 506.29 168.965 506.29V433.06L147.435 386.03H147.425Z" fill="#FAFAF9" stroke="#D7D3D0" stroke-width="1.2" stroke-linecap="round" stroke-linejoin="round"/>
<path d="M168.955 433.06C168.955 433.06 162.764 441.32 147.424 441.32C132.084 441.32 125.895 433.06 125.895 433.06" stroke="#D7D3D0" stroke-width="1.2" stroke-miterlimit="10"/>
<path d="M239.555 381.9V524.71C239.555 529.47 237.345 534.25 232.925 538.46C231.045 540.27 228.765 541.96 226.065 543.52C208.065 553.9 178.895 553.9 160.915 543.52C158.225 541.96 155.935 540.27 154.055 538.47C149.625 534.25 147.415 529.48 147.415 524.71V381.9C147.415 387.61 150.405 392.96 156.915 398.04C157.165 398.25 157.425 398.45 157.675 398.64C158.665 399.38 159.755 400.04 160.905 400.7C178.895 411.09 208.065 411.09 226.055 400.7C227.205 400.04 228.285 399.35 229.285 398.64C236.125 393.77 239.545 387.83 239.545 381.9H239.555Z" fill="#D7D3D0" stroke="#D7D3D0" stroke-width="1.2" stroke-miterlimit="10"/>
<path d="M239.555 199.27V327.58C239.555 332.34 237.345 337.12 232.925 341.33C231.045 343.14 228.765 344.83 226.065 346.39C208.065 356.77 178.895 356.77 160.915 346.39C158.225 344.83 155.935 343.14 154.055 341.34C149.625 337.12 147.415 332.35 147.415 327.58V199.27C147.415 204.98 150.405 210.33 156.915 215.41C157.165 215.62 157.425 215.82 157.675 216.01C158.665 216.75 159.755 217.41 160.905 218.07C178.895 228.46 208.065 228.46 226.055 218.07C227.205 217.41 228.285 216.72 229.285 216.01C236.125 211.14 239.545 205.2 239.545 199.27H239.555Z" fill="#FAFAF9" stroke="#D7D3D0" stroke-width="1.2" stroke-linecap="round" stroke-linejoin="round"/>
<path d="M239.555 327.58V384.24C239.555 389 237.345 393.78 232.925 397.99C231.045 399.8 228.765 401.49 226.065 403.05C208.065 413.43 178.895 413.43 160.915 403.05C158.225 401.49 155.935 399.8 154.055 398C149.625 393.78 147.415 389.01 147.415 384.24V327.58C147.415 333.29 150.405 338.64 156.915 343.72C157.165 343.93 157.425 344.13 157.675 344.32C158.665 345.06 159.755 345.72 160.905 346.38C178.895 356.77 208.065 356.77 226.055 346.38C227.205 345.72 228.285 345.03 229.285 344.32C236.125 339.45 239.545 333.51 239.545 327.58H239.555Z" fill="#A9A29D" stroke="#D7D3D0" stroke-width="1.2" stroke-linecap="round" stroke-linejoin="round"/>
<path d="M239.555 230.96C239.555 235.72 237.345 240.5 232.925 244.71C231.045 246.52 228.765 248.21 226.065 249.77C208.065 260.15 178.895 260.15 160.915 249.77C158.225 248.21 155.935 246.52 154.055 244.72C149.625 240.5 147.415 235.73 147.415 230.96" stroke="#D7D3D0" stroke-width="1.2" stroke-linecap="round" stroke-linejoin="round"/>
<path d="M239.555 300.98C239.555 305.74 237.345 310.52 232.925 314.73C231.045 316.54 228.765 318.23 226.065 319.79C208.065 330.17 178.895 330.17 160.915 319.79C158.225 318.23 155.935 316.54 154.055 314.74C149.625 310.52 147.415 305.75 147.415 300.98" stroke="#D7D3D0" stroke-width="1.2" stroke-linecap="round" stroke-linejoin="round"/>
<path d="M239.555 335.67C239.555 340.43 237.345 345.21 232.925 349.42C231.045 351.23 228.765 352.92 226.065 354.48C208.065 364.86 178.895 364.86 160.915 354.48C158.225 352.92 155.935 351.23 154.055 349.43C149.625 345.21 147.415 340.44 147.415 335.67" stroke="#D7D3D0" stroke-width="1.2" stroke-linecap="round" stroke-linejoin="round"/>
<path d="M239.555 343.77C239.555 348.53 237.345 353.31 232.925 357.52C231.045 359.33 228.765 361.02 226.065 362.58C208.065 372.96 178.895 372.96 160.915 362.58C158.225 361.02 155.935 359.33 154.055 357.53C149.625 353.31 147.415 348.54 147.415 343.77" stroke="#D7D3D0" stroke-width="1.2" stroke-linecap="round" stroke-linejoin="round"/>
<path d="M239.555 351.86C239.555 356.62 237.345 361.4 232.925 365.61C231.045 367.42 228.765 369.11 226.065 370.67C208.065 381.05 178.895 381.05 160.915 370.67C158.225 369.11 155.935 367.42 154.055 365.62C149.625 361.4 147.415 356.63 147.415 351.86" stroke="#D7D3D0" stroke-width="1.2" stroke-linecap="round" stroke-linejoin="round"/>
<path d="M239.555 359.96C239.555 364.72 237.345 369.5 232.925 373.71C231.045 375.52 228.765 377.21 226.065 378.77C208.065 389.15 178.895 389.15 160.915 378.77C158.225 377.21 155.935 375.52 154.055 373.72C149.625 369.5 147.415 364.73 147.415 359.96" stroke="#D7D3D0" stroke-width="1.2" stroke-linecap="round" stroke-linejoin="round"/>
<path d="M239.555 368.05C239.555 372.81 237.345 377.59 232.925 381.8C231.045 383.61 228.765 385.3 226.065 386.86C208.065 397.24 178.895 397.24 160.915 386.86C158.225 385.3 155.935 383.61 154.055 381.81C149.625 377.59 147.415 372.82 147.415 368.05" stroke="#D7D3D0" stroke-width="1.2" stroke-linecap="round" stroke-linejoin="round"/>
<path d="M239.555 376.15C239.555 380.91 237.345 385.69 232.925 389.9C231.045 391.71 228.765 393.4 226.065 394.96C208.065 405.34 178.895 405.34 160.915 394.96C158.225 393.4 155.935 391.71 154.055 389.91C149.625 385.69 147.415 380.92 147.415 376.15" stroke="#D7D3D0" stroke-width="1.2" stroke-linecap="round" stroke-linejoin="round"/>
<path d="M239.555 199.27C239.555 205.2 236.135 211.15 229.295 216.01C228.295 216.72 227.215 217.41 226.065 218.07C208.065 228.46 178.895 228.46 160.915 218.07C159.765 217.41 158.665 216.74 157.685 216.01C157.425 215.82 157.165 215.62 156.925 215.41C150.415 210.32 147.425 204.98 147.425 199.27C147.425 192.46 151.935 185.65 160.925 180.46C178.915 170.07 208.085 170.07 226.075 180.46C235.065 185.65 239.565 192.46 239.565 199.27H239.555Z" fill="#F5F5F4" stroke="#D7D3D0" stroke-width="1.2" stroke-linecap="round" stroke-linejoin="round"/>
<path d="M230.595 168.53V195.5C230.595 199.34 228.815 203.18 225.255 206.57C223.745 208.02 221.905 209.39 219.735 210.64C205.245 219 181.745 219 167.255 210.64C165.085 209.39 163.245 208.02 161.735 206.57C158.165 203.17 156.385 199.33 156.385 195.49V168.52C156.385 173.12 158.795 177.43 164.035 181.52C164.235 181.69 164.445 181.85 164.655 182C165.445 182.59 166.335 183.13 167.255 183.66C181.745 192.03 205.235 192.03 219.735 183.66C220.665 183.13 221.535 182.57 222.335 182C227.845 178.08 230.595 173.29 230.595 168.52V168.53Z" fill="#A9A29D" stroke="#D7D3D0" stroke-width="1.2" stroke-linecap="round" stroke-linejoin="round"/>
<path d="M167.255 183.68C166.325 183.15 165.445 182.61 164.655 182.02C165.465 182.59 166.335 183.15 167.255 183.68Z" fill="#FAFAF9" stroke="#D7D3D0" stroke-width="1.2" stroke-linecap="round" stroke-linejoin="round"/>
<path d="M215.835 185.64V196.73L219.505 200.4L219.735 210.65" stroke="#D7D3D0" stroke-width="1.2" stroke-linecap="round" stroke-linejoin="round"/>
<path d="M167.575 183.86V194.56L171.245 198.23V212.64" stroke="#D7D3D0" stroke-width="1.2" stroke-linecap="round" stroke-linejoin="round"/>
<path d="M223.095 193.43C223.095 194.5 223.745 194.99 224.545 194.53C225.345 194.07 225.995 192.82 225.995 191.76C225.995 190.7 225.345 190.2 224.545 190.66C223.745 191.12 223.095 192.37 223.095 193.43Z" fill="#D7D3D0"/>
<path d="M165.025 200.77C165.025 201.84 164.375 202.33 163.575 201.87C162.775 201.41 162.125 200.16 162.125 199.1C162.125 198.04 162.775 197.54 163.575 198C164.375 198.46 165.025 199.71 165.025 200.77Z" fill="#D7D3D0"/>
<path d="M230.595 168.53C230.595 173.31 227.845 178.1 222.335 182.01C221.525 182.58 220.655 183.14 219.735 183.67C205.245 192.04 181.745 192.04 167.255 183.67C166.325 183.14 165.445 182.6 164.655 182.01C164.445 181.85 164.235 181.7 164.035 181.53C158.795 177.43 156.385 173.13 156.385 168.53C156.385 163.05 160.015 157.56 167.255 153.38C181.745 145.01 205.235 145.01 219.735 153.38C226.975 157.56 230.595 163.04 230.595 168.53Z" fill="#F5F5F4" stroke="#D7D3D0" stroke-width="1.2" stroke-linecap="round" stroke-linejoin="round"/>
<path d="M214.085 172.32C213.075 174.16 211.305 175.89 208.775 177.35C200.335 182.22 186.655 182.22 178.215 177.35C175.685 175.89 173.915 174.16 172.905 172.32C170.545 168.01 172.315 163.12 178.215 159.71C186.655 154.84 200.335 154.84 208.775 159.71C214.685 163.12 216.465 168.02 214.085 172.32Z" fill="#A9A29D" stroke="#D7D3D0" stroke-width="1.2" stroke-linecap="round" stroke-linejoin="round"/>
<path d="M214.085 172.32C213.075 174.16 211.305 175.89 208.775 177.35C200.335 182.22 186.655 182.22 178.215 177.35C175.685 175.89 173.915 174.16 172.905 172.32C173.925 170.48 175.685 168.75 178.215 167.29C186.655 162.42 200.335 162.42 208.775 167.29C211.305 168.75 213.085 170.48 214.085 172.32Z" fill="#D7D3D0" stroke="#D7D3D0" stroke-width="1.2" stroke-linecap="round" stroke-linejoin="round"/>
<path d="M230.595 142.57V169.54C230.595 173.38 228.815 177.22 225.255 180.61C223.745 182.06 221.905 183.43 219.735 184.68C205.245 193.04 181.745 193.04 167.255 184.68C165.085 183.43 163.245 182.06 161.735 180.61C158.165 177.21 156.385 173.37 156.385 169.53V142.56C156.385 147.16 158.795 151.47 164.035 155.56C164.235 155.73 164.445 155.89 164.655 156.04C165.445 156.63 166.335 157.17 167.255 157.7C181.745 166.07 205.235 166.07 219.735 157.7C220.665 157.17 221.535 156.61 222.335 156.04C227.845 152.12 230.595 147.33 230.595 142.56V142.57Z" fill="#FAFAF9" stroke="#D7D3D0" stroke-width="1.2" stroke-linecap="round" stroke-linejoin="round"/>
<path d="M167.255 157.72C166.325 157.19 165.445 156.65 164.655 156.06C165.465 156.63 166.335 157.19 167.255 157.72Z" fill="#FAFAF9" stroke="#D7D3D0" stroke-width="1.2" stroke-linecap="round" stroke-linejoin="round"/>
<path d="M215.835 159.67V170.77L219.505 174.44L219.735 184.68" stroke="#D7D3D0" stroke-width="1.2" stroke-linecap="round" stroke-linejoin="round"/>
<path d="M167.575 157.9V168.6L171.245 172.26V186.68" stroke="#D7D3D0" stroke-width="1.2" stroke-linecap="round" stroke-linejoin="round"/>
<path d="M223.095 167.47C223.095 168.54 223.745 169.03 224.545 168.57C225.345 168.11 225.995 166.86 225.995 165.8C225.995 164.74 225.345 164.24 224.545 164.7C223.745 165.16 223.095 166.41 223.095 167.47Z" fill="#D7D3D0"/>
<path d="M165.025 174.81C165.025 175.88 164.375 176.37 163.575 175.91C162.775 175.45 162.125 174.2 162.125 173.14C162.125 172.08 162.775 171.58 163.575 172.04C164.375 172.5 165.025 173.75 165.025 174.81Z" fill="#D7D3D0"/>
<path d="M230.595 142.57C230.595 147.35 227.845 152.14 222.335 156.05C221.525 156.62 220.655 157.18 219.735 157.71C205.245 166.08 181.745 166.08 167.255 157.71C166.325 157.18 165.445 156.64 164.655 156.05C164.445 155.89 164.235 155.74 164.035 155.57C158.795 151.47 156.385 147.17 156.385 142.57C156.385 137.09 160.015 131.6 167.255 127.42C181.745 119.05 205.235 119.05 219.735 127.42C226.975 131.6 230.595 137.08 230.595 142.57Z" fill="#F5F5F4" stroke="#D7D3D0" stroke-width="1.2" stroke-linecap="round" stroke-linejoin="round"/>
<path d="M214.085 146.36C213.075 148.2 211.305 149.93 208.775 151.39C200.335 156.26 186.655 156.26 178.215 151.39C175.685 149.93 173.915 148.2 172.905 146.36C170.545 142.05 172.315 137.16 178.215 133.75C186.655 128.88 200.335 128.88 208.775 133.75C214.685 137.16 216.465 142.06 214.085 146.36Z" fill="#A9A29D" stroke="#D7D3D0" stroke-width="1.2" stroke-linecap="round" stroke-linejoin="round"/>
<path d="M214.085 146.36C213.075 148.2 211.305 149.93 208.775 151.39C200.335 156.26 186.655 156.26 178.215 151.39C175.685 149.93 173.915 148.2 172.905 146.36C173.925 144.52 175.685 142.79 178.215 141.33C186.655 136.46 200.335 136.46 208.775 141.33C211.305 142.79 213.085 144.52 214.085 146.36Z" fill="#D7D3D0" stroke="#D7D3D0" stroke-width="1.2" stroke-linecap="round" stroke-linejoin="round"/>
<path d="M230.595 116.61V143.58C230.595 147.42 228.815 151.26 225.255 154.65C223.745 156.1 221.905 157.47 219.735 158.72C205.245 167.08 181.745 167.08 167.255 158.72C165.085 157.47 163.245 156.1 161.735 154.65C158.165 151.25 156.385 147.41 156.385 143.57V116.6C156.385 121.2 158.795 125.51 164.035 129.6C164.235 129.77 164.445 129.93 164.655 130.08C165.445 130.67 166.335 131.21 167.255 131.74C181.745 140.11 205.235 140.11 219.735 131.74C220.665 131.21 221.535 130.65 222.335 130.08C227.845 126.16 230.595 121.37 230.595 116.6V116.61Z" fill="#A9A29D" stroke="#D7D3D0" stroke-width="1.2" stroke-linecap="round" stroke-linejoin="round"/>
<path d="M167.255 131.75C166.325 131.22 165.445 130.68 164.655 130.09C165.465 130.66 166.335 131.22 167.255 131.75Z" fill="#FAFAF9" stroke="#D7D3D0" stroke-width="1.2" stroke-linecap="round" stroke-linejoin="round"/>
<path d="M215.835 133.71V144.81L219.505 148.48L219.735 158.72" stroke="#D7D3D0" stroke-width="1.2" stroke-linecap="round" stroke-linejoin="round"/>
<path d="M167.575 131.93V142.63L171.245 146.3V160.72" stroke="#D7D3D0" stroke-width="1.2" stroke-linecap="round" stroke-linejoin="round"/>
<path d="M223.095 141.5C223.095 142.57 223.745 143.06 224.545 142.6C225.345 142.14 225.995 140.89 225.995 139.83C225.995 138.77 225.345 138.27 224.545 138.73C223.745 139.19 223.095 140.44 223.095 141.5Z" fill="#D7D3D0"/>
<path d="M165.025 148.84C165.025 149.91 164.375 150.4 163.575 149.94C162.775 149.48 162.125 148.23 162.125 147.17C162.125 146.11 162.775 145.61 163.575 146.07C164.375 146.53 165.025 147.78 165.025 148.84Z" fill="#D7D3D0"/>
<path d="M230.595 116.61C230.595 121.39 227.845 126.18 222.335 130.09C221.525 130.66 220.655 131.22 219.735 131.75C205.245 140.12 181.745 140.12 167.255 131.75C166.325 131.22 165.445 130.68 164.655 130.09C164.445 129.93 164.235 129.78 164.035 129.61C158.795 125.51 156.385 121.21 156.385 116.61C156.385 111.13 160.015 105.64 167.255 101.46C181.745 93.0901 205.235 93.0901 219.735 101.46C226.975 105.64 230.595 111.12 230.595 116.61Z" fill="#F5F5F4" stroke="#D7D3D0" stroke-width="1.2" stroke-linecap="round" stroke-linejoin="round"/>
<path d="M214.085 120.39C213.075 122.23 211.305 123.96 208.775 125.42C200.335 130.29 186.655 130.29 178.215 125.42C175.685 123.96 173.915 122.23 172.905 120.39C170.545 116.08 172.315 111.19 178.215 107.78C186.655 102.91 200.335 102.91 208.775 107.78C214.685 111.19 216.465 116.09 214.085 120.39Z" fill="#A9A29D" stroke="#D7D3D0" stroke-width="1.2" stroke-linecap="round" stroke-linejoin="round"/>
<path d="M214.085 120.39C213.075 122.23 211.305 123.96 208.775 125.42C200.335 130.29 186.655 130.29 178.215 125.42C175.685 123.96 173.915 122.23 172.905 120.39C173.925 118.55 175.685 116.82 178.215 115.36C186.655 110.49 200.335 110.49 208.775 115.36C211.305 116.82 213.085 118.55 214.085 120.39Z" fill="#D7D3D0" stroke="#D7D3D0" stroke-width="1.2" stroke-linecap="round" stroke-linejoin="round"/>
<path d="M237.505 115.04C237.525 117.49 237.045 119.94 235.925 122.11C235.075 123.76 224.005 136.4 203.355 139.64C201.885 139.87 200.355 140.05 198.785 140.19C197.085 140.34 195.315 140.41 193.505 140.41H193.485C166.515 140.41 152.045 124.02 151.075 122.11C149.955 119.94 149.465 117.49 149.485 115.04C150.005 17.29 183.185 3.29999 191.575 1.32999C192.795 1.03999 193.485 1 193.485 1H193.505C193.505 1 197.645 1.20999 203.375 4.76999C216.225 12.76 237.115 37.65 237.515 115.04H237.505Z" fill="#D7D3D0" stroke="#D7D3D0" stroke-width="1.2" stroke-miterlimit="10"/>
<path d="M237.505 115.04C237.525 117.49 237.045 119.94 235.925 122.11C235.075 123.76 224.005 136.4 203.355 139.64C182.725 136.39 171.665 123.78 170.815 122.11C169.695 119.94 169.205 117.49 169.225 115.04C169.635 37.63 190.525 12.75 203.375 4.77002C216.225 12.76 237.115 37.65 237.515 115.04H237.505Z" fill="#A9A29D" stroke="#D7D3D0" stroke-width="1.2" stroke-linecap="round" stroke-linejoin="round"/>
<path d="M198.525 281.01H188.455C187.35 281.01 186.455 281.905 186.455 283.01V301.68C186.455 302.784 187.35 303.68 188.455 303.68H198.525C199.629 303.68 200.525 302.784 200.525 301.68V283.01C200.525 281.905 199.629 281.01 198.525 281.01Z" fill="#A9A29D" stroke="#D7D3D0" stroke-width="1.2" stroke-linecap="round" stroke-linejoin="round"/>
<path d="M165.855 298.47L158.035 293.55C157.005 292.9 156.375 291.76 156.375 290.54V273C156.375 272.07 157.405 271.5 158.195 272L166.015 276.92C167.045 277.57 167.675 278.71 167.675 279.93V297.47C167.675 298.4 166.645 298.97 165.855 298.47Z" fill="#A9A29D" stroke="#D7D3D0" stroke-width="1.2" stroke-linecap="round" stroke-linejoin="round"/>
<path d="M221.125 298.47L228.945 293.55C229.975 292.9 230.605 291.76 230.605 290.54V273C230.605 272.07 229.575 271.5 228.785 272L220.965 276.92C219.935 277.57 219.305 278.71 219.305 279.93V297.47C219.305 298.4 220.335 298.97 221.125 298.47Z" fill="#A9A29D" stroke="#D7D3D0" stroke-width="1.2" stroke-linecap="round" stroke-linejoin="round"/>
<path d="M158.695 230.58C158.695 232.29 157.655 233.07 156.375 232.33C155.095 231.59 154.055 229.61 154.055 227.9C154.055 226.19 155.095 225.41 156.375 226.15C157.655 226.89 158.695 228.87 158.695 230.58Z" fill="#D7D3D0"/>
<path d="M158.695 330.59C158.695 332.3 157.655 333.08 156.375 332.34C155.095 331.6 154.055 329.62 154.055 327.91C154.055 326.2 155.095 325.42 156.375 326.16C157.655 326.9 158.695 328.88 158.695 330.59Z" fill="#D7D3D0"/>
<path d="M228.285 230.58C228.285 232.29 229.325 233.07 230.605 232.33C231.885 231.59 232.925 229.61 232.925 227.9C232.925 226.19 231.885 225.41 230.605 226.15C229.325 226.89 228.285 228.87 228.285 230.58Z" fill="#D7D3D0"/>
<path d="M228.285 330.59C228.285 332.3 229.325 333.08 230.605 332.34C231.885 331.6 232.925 329.62 232.925 327.91C232.925 326.2 231.885 325.42 230.605 326.16C229.325 326.9 228.285 328.88 228.285 330.59Z" fill="#D7D3D0"/>
<path d="M193.495 244.26C195.229 244.26 196.635 242.854 196.635 241.12C196.635 239.386 195.229 237.98 193.495 237.98C191.76 237.98 190.354 239.386 190.354 241.12C190.354 242.854 191.76 244.26 193.495 244.26Z" fill="#D7D3D0"/>
<path d="M193.495 345.28C195.229 345.28 196.635 343.874 196.635 342.14C196.635 340.406 195.229 339 193.495 339C191.76 339 190.354 340.406 190.354 342.14C190.354 343.874 191.76 345.28 193.495 345.28Z" fill="#D7D3D0"/>
<path d="M242.765 541.89V551.1C242.765 551.1 236.575 559.36 221.235 559.36C205.895 559.36 199.705 551.1 199.705 551.1V541.89C199.705 541.89 205.905 550.15 221.235 550.15C236.565 550.15 242.765 541.89 242.765 541.89Z" fill="#D7D3D0" stroke="#D7D3D0" stroke-width="1.2" stroke-miterlimit="10"/>
<path d="M242.765 525.71V541.89C242.765 541.89 236.575 550.15 221.235 550.15C205.895 550.15 199.705 541.89 199.705 541.89V525.71C199.705 525.71 205.905 533.97 221.235 533.97C236.565 533.97 242.765 525.71 242.765 525.71Z" fill="#A9A29D" stroke="#D7D3D0" stroke-width="1.2" stroke-linecap="round" stroke-linejoin="round"/>
<path d="M242.765 452.48V525.71C242.765 525.71 236.575 533.97 221.235 533.97C216.095 533.97 211.995 533.04 208.805 531.81L209.135 531.71V458.7L221.245 405.45L242.775 452.48H242.765Z" fill="#F5F5F4" stroke="#D7D3D0" stroke-width="1.2" stroke-linecap="round" stroke-linejoin="round"/>
<path d="M221.235 405.45L209.125 458.7V531.71L208.795 531.81C202.445 529.37 199.695 525.71 199.695 525.71V452.48L221.225 405.45H221.235Z" fill="#FAFAF9" stroke="#D7D3D0" stroke-width="1.2" stroke-linecap="round" stroke-linejoin="round"/>
<path d="M199.705 452.48C199.705 452.48 205.895 460.74 221.235 460.74C236.575 460.74 242.765 452.48 242.765 452.48" stroke="#D7D3D0" stroke-width="1.2" stroke-miterlimit="10"/>
<path d="M187.284 541.89V551.1C187.284 551.1 181.095 559.36 165.755 559.36C150.425 559.36 144.224 551.1 144.224 551.1V541.89C144.224 541.89 150.425 550.15 165.755 550.15C181.085 550.15 187.284 541.89 187.284 541.89Z" fill="#D7D3D0" stroke="#D7D3D0" stroke-width="1.2" stroke-miterlimit="10"/>
<path d="M187.284 525.71V541.89C187.284 541.89 181.095 550.15 165.755 550.15C150.415 550.15 144.224 541.89 144.224 541.89V525.71C144.224 525.71 150.425 533.97 165.755 533.97C181.085 533.97 187.284 525.71 187.284 525.71Z" fill="#A9A29D" stroke="#D7D3D0" stroke-width="1.2" stroke-linecap="round" stroke-linejoin="round"/>
<path d="M187.285 452.48V525.71C187.285 525.71 181.095 533.97 165.755 533.97C160.615 533.97 156.515 533.04 153.325 531.81L153.655 531.71V458.7L165.765 405.45L187.295 452.48H187.285Z" fill="#F5F5F4" stroke="#D7D3D0" stroke-width="1.2" stroke-linecap="round" stroke-linejoin="round"/>
<path d="M165.755 405.45L153.645 458.7V531.71L153.315 531.81C146.965 529.37 144.215 525.71 144.215 525.71V452.48L165.745 405.45H165.755Z" fill="#FAFAF9" stroke="#D7D3D0" stroke-width="1.2" stroke-linecap="round" stroke-linejoin="round"/>
<path d="M144.224 452.48C144.224 452.48 150.415 460.74 165.755 460.74C181.095 460.74 187.284 452.48 187.284 452.48" stroke="#D7D3D0" stroke-width="1.2" stroke-miterlimit="10"/>
</svg>
