<svg width="324" height="253" viewBox="0 0 324 253" fill="none" xmlns="http://www.w3.org/2000/svg">
<path d="M358.051 104.047C358.051 111.487 356.657 118.951 353.87 126.266C346.804 144.853 330.78 162.519 305.75 176.95C236.031 217.209 123.019 217.209 53.3008 176.95C28.27 162.519 12.2214 144.853 5.17994 126.266C2.3932 118.976 1 111.487 1 104.047C1 77.6975 18.4169 51.323 53.3008 31.1938C123.019 -9.0646 236.031 -9.0646 305.75 31.1938C340.609 51.323 358.051 77.6975 358.051 104.047Z" fill="#E7E5E4" stroke="#F5F5F4" stroke-width="1.43779" stroke-linecap="round" stroke-linejoin="round"/>
<path d="M321.823 104.047C321.823 109.546 320.703 115.069 318.489 120.469C312.84 134.203 300.076 147.241 280.121 157.915C224.56 187.649 134.464 187.649 78.9037 157.915C58.9487 147.266 46.1594 134.203 40.5362 120.469C38.3217 115.069 37.2021 109.546 37.2021 104.047C37.2021 84.5644 51.0861 65.107 78.8788 50.2278C134.439 20.4944 224.536 20.4944 280.096 50.2278C307.889 65.107 321.773 84.5893 321.773 104.047H321.823Z" fill="#A9A29D" stroke="#F5F5F4" stroke-width="1.43779" stroke-linecap="round" stroke-linejoin="round"/>
<path d="M249.317 63.7363L238.867 84.8359L216.299 130.319L164.297 112.853L202.316 90.8821H202.341L249.317 63.7363Z" fill="#E7E5E4" stroke="#F5F5F4" stroke-width="1.43779" stroke-linecap="round" stroke-linejoin="round"/>
<path d="M249.317 63.7363L202.341 90.8821H202.316L164.297 112.853L150.761 99.3917L134.041 82.8205L249.317 63.7363Z" fill="#FDFDFC" stroke="#F5F5F4" stroke-width="1.43779" stroke-linecap="round" stroke-linejoin="round"/>
<path d="M203.237 137.857L184.899 139.126L155.514 141.167L113.788 144.078L109.707 144.376L151.234 120.391L153.001 120.963L164.297 124.745L203.237 137.857Z" fill="#E7E5E4" stroke="#F5F5F4" stroke-width="1.43779" stroke-linecap="round" stroke-linejoin="round"/>
<path d="M151.234 120.39L109.707 144.35L120.978 90.3574L151.234 120.39Z" fill="#FDFDFC" stroke="#F5F5F4" stroke-width="1.43779" stroke-linecap="round" stroke-linejoin="round"/>
<path d="M358.051 104.043V148.481C358.051 174.831 340.609 201.206 305.75 221.335C236.031 261.593 123.019 261.593 53.3008 221.335C18.4169 201.206 1 174.831 1 148.481V104.043C1 111.483 2.3932 118.947 5.17994 126.262C12.2214 144.849 28.27 162.515 53.3008 176.946C123.019 217.204 236.031 217.204 305.75 176.946C330.78 162.515 346.804 144.849 353.87 126.262C356.657 118.972 358.051 111.483 358.051 104.043Z" fill="#FDFDFC" stroke="#F5F5F4" stroke-width="1.43779" stroke-miterlimit="10"/>
<path d="M309.332 219.201V174.812" stroke="#F5F5F4" stroke-width="1.43779" stroke-linecap="round" stroke-linejoin="round"/>
<path d="M289.327 229.722V185.309" stroke="#F5F5F4" stroke-width="1.43779" stroke-linecap="round" stroke-linejoin="round"/>
<path d="M269.322 237.56V193.146" stroke="#F5F5F4" stroke-width="1.43779" stroke-linecap="round" stroke-linejoin="round"/>
<path d="M249.318 243.357V198.943" stroke="#F5F5F4" stroke-width="1.43779" stroke-linecap="round" stroke-linejoin="round"/>
<path d="M229.362 247.466V203.053" stroke="#F5F5F4" stroke-width="1.43779" stroke-linecap="round" stroke-linejoin="round"/>
<path d="M209.358 250.08V205.691" stroke="#F5F5F4" stroke-width="1.43779" stroke-linecap="round" stroke-linejoin="round"/>
<path d="M189.354 251.396V206.982" stroke="#F5F5F4" stroke-width="1.43779" stroke-linecap="round" stroke-linejoin="round"/>
<path d="M169.374 251.373V206.959" stroke="#F5F5F4" stroke-width="1.43779" stroke-linecap="round" stroke-linejoin="round"/>
<path d="M149.393 250.049V205.66" stroke="#F5F5F4" stroke-width="1.43779" stroke-linecap="round" stroke-linejoin="round"/>
<path d="M129.389 247.417V202.978" stroke="#F5F5F4" stroke-width="1.43779" stroke-linecap="round" stroke-linejoin="round"/>
<path d="M109.408 243.26V198.871" stroke="#F5F5F4" stroke-width="1.43779" stroke-linecap="round" stroke-linejoin="round"/>
<path d="M89.4043 237.464V193.051" stroke="#F5F5F4" stroke-width="1.43779" stroke-linecap="round" stroke-linejoin="round"/>
<path d="M69.4004 229.576V185.162" stroke="#F5F5F4" stroke-width="1.43779" stroke-linecap="round" stroke-linejoin="round"/>
<path d="M49.4199 219.027V174.613" stroke="#F5F5F4" stroke-width="1.43779" stroke-linecap="round" stroke-linejoin="round"/>
<path d="M29.4385 204.271V159.932" stroke="#F5F5F4" stroke-width="1.43779" stroke-linecap="round" stroke-linejoin="round"/>
<path d="M12.7197 185.162V140.848" stroke="#F5F5F4" stroke-width="1.43779" stroke-linecap="round" stroke-linejoin="round"/>
</svg>
