<svg width="520" height="513" viewBox="0 0 520 513" fill="none" xmlns="http://www.w3.org/2000/svg">
<g opacity="0.4">
<mask id="mask0_122_31783" style="mask-type:alpha" maskUnits="userSpaceOnUse" x="0" y="0" width="520" height="513">
<rect width="520" height="512.353" fill="url(#paint0_radial_122_31783)"/>
</mask>
<g mask="url(#mask0_122_31783)">
<rect x="-3.57079e-08" y="0.599078" width="70.6912" height="70.6912" transform="matrix(0.866025 0.5 -0.866025 0.5 566.621 -62.6028)" stroke="#79716B" stroke-width="1.19816"/>
<rect x="-3.57079e-08" y="0.599078" width="70.6912" height="70.6912" transform="matrix(0.866025 0.5 -0.866025 0.5 444.181 -62.6028)" stroke="#79716B" stroke-width="1.19816"/>
<rect x="-3.57079e-08" y="0.599078" width="70.6912" height="70.6912" transform="matrix(0.866025 0.5 -0.866025 0.5 505.401 -27.2571)" stroke="#79716B" stroke-width="1.19816"/>
<rect x="-3.57079e-08" y="0.599078" width="70.6912" height="70.6912" transform="matrix(0.866025 0.5 -0.866025 0.5 566.621 8.0886)" stroke="#79716B" stroke-width="1.19816"/>
<rect x="-3.57079e-08" y="0.599078" width="70.6912" height="70.6912" transform="matrix(0.866025 0.5 -0.866025 0.5 321.74 -62.6028)" stroke="#79716B" stroke-width="1.19816"/>
<rect x="-3.57079e-08" y="0.599078" width="70.6912" height="70.6912" transform="matrix(0.866025 0.5 -0.866025 0.5 382.959 -27.2571)" stroke="#79716B" stroke-width="1.19816"/>
<rect x="-3.57079e-08" y="0.599078" width="70.6912" height="70.6912" transform="matrix(0.866025 0.5 -0.866025 0.5 444.181 8.0886)" stroke="#79716B" stroke-width="1.19816"/>
<rect x="-3.57079e-08" y="0.599078" width="70.6912" height="70.6912" transform="matrix(0.866025 0.5 -0.866025 0.5 505.401 43.4343)" stroke="#79716B" stroke-width="1.19816"/>
<rect x="-3.57079e-08" y="0.599078" width="70.6912" height="70.6912" transform="matrix(0.866025 0.5 -0.866025 0.5 566.621 78.78)" stroke="#79716B" stroke-width="1.19816"/>
<rect x="-3.57079e-08" y="0.599078" width="70.6912" height="70.6912" transform="matrix(0.866025 0.5 -0.866025 0.5 199.298 -62.6028)" stroke="#79716B" stroke-width="1.19816"/>
<rect x="-3.57079e-08" y="0.599078" width="70.6912" height="70.6912" transform="matrix(0.866025 0.5 -0.866025 0.5 260.519 -27.2571)" stroke="#79716B" stroke-width="1.19816"/>
<rect x="-3.57079e-08" y="0.599078" width="70.6912" height="70.6912" transform="matrix(0.866025 0.5 -0.866025 0.5 321.74 8.0886)" stroke="#79716B" stroke-width="1.19816"/>
<rect x="-3.57079e-08" y="0.599078" width="70.6912" height="70.6912" transform="matrix(0.866025 0.5 -0.866025 0.5 382.959 43.4343)" stroke="#79716B" stroke-width="1.19816"/>
<rect x="-3.57079e-08" y="0.599078" width="70.6912" height="70.6912" transform="matrix(0.866025 0.5 -0.866025 0.5 444.181 78.78)" stroke="#79716B" stroke-width="1.19816"/>
<rect x="-3.57079e-08" y="0.599078" width="70.6912" height="70.6912" transform="matrix(0.866025 0.5 -0.866025 0.5 505.401 114.126)" stroke="#79716B" stroke-width="1.19816"/>
<rect x="-3.57079e-08" y="0.599078" width="70.6912" height="70.6912" transform="matrix(0.866025 0.5 -0.866025 0.5 566.621 149.469)" stroke="#79716B" stroke-width="1.19816"/>
<rect x="-3.57079e-08" y="0.599078" width="70.6912" height="70.6912" transform="matrix(0.866025 0.5 -0.866025 0.5 76.8577 -62.6028)" stroke="#79716B" stroke-width="1.19816"/>
<rect x="-3.57079e-08" y="0.599078" width="70.6912" height="70.6912" transform="matrix(0.866025 0.5 -0.866025 0.5 138.077 -27.2571)" stroke="#79716B" stroke-width="1.19816"/>
<rect x="-3.57079e-08" y="0.599078" width="70.6912" height="70.6912" transform="matrix(0.866025 0.5 -0.866025 0.5 199.298 8.0886)" stroke="#79716B" stroke-width="1.19816"/>
<rect x="-3.57079e-08" y="0.599078" width="70.6912" height="70.6912" transform="matrix(0.866025 0.5 -0.866025 0.5 260.519 43.4343)" stroke="#79716B" stroke-width="1.19816"/>
<rect x="-3.57079e-08" y="0.599078" width="70.6912" height="70.6912" transform="matrix(0.866025 0.5 -0.866025 0.5 321.74 78.78)" stroke="#79716B" stroke-width="1.19816"/>
<rect x="-3.57079e-08" y="0.599078" width="70.6912" height="70.6912" transform="matrix(0.866025 0.5 -0.866025 0.5 382.959 114.126)" stroke="#79716B" stroke-width="1.19816"/>
<rect x="-3.57079e-08" y="0.599078" width="70.6912" height="70.6912" transform="matrix(0.866025 0.5 -0.866025 0.5 444.181 149.469)" stroke="#79716B" stroke-width="1.19816"/>
<rect x="-3.57079e-08" y="0.599078" width="70.6912" height="70.6912" transform="matrix(0.866025 0.5 -0.866025 0.5 505.401 184.815)" stroke="#79716B" stroke-width="1.19816"/>
<rect x="-3.57079e-08" y="0.599078" width="70.6912" height="70.6912" transform="matrix(0.866025 0.5 -0.866025 0.5 566.621 220.161)" stroke="#79716B" stroke-width="1.19816"/>
<rect x="-3.57079e-08" y="0.599078" width="70.6912" height="70.6912" transform="matrix(0.866025 0.5 -0.866025 0.5 -45.5827 -62.6028)" stroke="#79716B" stroke-width="1.19816"/>
<rect x="-3.57079e-08" y="0.599078" width="70.6912" height="70.6912" transform="matrix(0.866025 0.5 -0.866025 0.5 15.637 -27.2571)" stroke="#79716B" stroke-width="1.19816"/>
<rect x="-3.57079e-08" y="0.599078" width="70.6912" height="70.6912" transform="matrix(0.866025 0.5 -0.866025 0.5 76.8577 8.0886)" stroke="#79716B" stroke-width="1.19816"/>
<rect x="-3.57079e-08" y="0.599078" width="70.6912" height="70.6912" transform="matrix(0.866025 0.5 -0.866025 0.5 138.077 43.4343)" stroke="#79716B" stroke-width="1.19816"/>
<rect x="-3.57079e-08" y="0.599078" width="70.6912" height="70.6912" transform="matrix(0.866025 0.5 -0.866025 0.5 199.298 78.78)" stroke="#79716B" stroke-width="1.19816"/>
<rect x="-3.57079e-08" y="0.599078" width="70.6912" height="70.6912" transform="matrix(0.866025 0.5 -0.866025 0.5 260.519 114.126)" stroke="#79716B" stroke-width="1.19816"/>
<rect x="-3.57079e-08" y="0.599078" width="70.6912" height="70.6912" transform="matrix(0.866025 0.5 -0.866025 0.5 321.74 149.471)" stroke="#79716B" stroke-width="1.19816"/>
<rect x="-3.57079e-08" y="0.599078" width="70.6912" height="70.6912" transform="matrix(0.866025 0.5 -0.866025 0.5 382.959 184.815)" stroke="#79716B" stroke-width="1.19816"/>
<rect x="-3.57079e-08" y="0.599078" width="70.6912" height="70.6912" transform="matrix(0.866025 0.5 -0.866025 0.5 444.181 220.161)" stroke="#79716B" stroke-width="1.19816"/>
<rect x="-3.57079e-08" y="0.599078" width="70.6912" height="70.6912" transform="matrix(0.866025 0.5 -0.866025 0.5 505.401 255.507)" stroke="#79716B" stroke-width="1.19816"/>
<rect x="-3.57079e-08" y="0.599078" width="70.6912" height="70.6912" transform="matrix(0.866025 0.5 -0.866025 0.5 566.621 290.852)" stroke="#79716B" stroke-width="1.19816"/>
<rect x="-3.57079e-08" y="0.599078" width="70.6912" height="70.6912" transform="matrix(0.866025 0.5 -0.866025 0.5 -45.5827 8.0886)" stroke="#79716B" stroke-width="1.19816"/>
<rect x="-3.57079e-08" y="0.599078" width="70.6912" height="70.6912" transform="matrix(0.866025 0.5 -0.866025 0.5 15.637 43.4343)" stroke="#79716B" stroke-width="1.19816"/>
<rect x="-3.57079e-08" y="0.599078" width="70.6912" height="70.6912" transform="matrix(0.866025 0.5 -0.866025 0.5 76.8577 78.78)" stroke="#79716B" stroke-width="1.19816"/>
<rect x="-3.57079e-08" y="0.599078" width="70.6912" height="70.6912" transform="matrix(0.866025 0.5 -0.866025 0.5 138.077 114.126)" stroke="#79716B" stroke-width="1.19816"/>
<rect x="-3.57079e-08" y="0.599078" width="70.6912" height="70.6912" transform="matrix(0.866025 0.5 -0.866025 0.5 199.298 149.469)" stroke="#79716B" stroke-width="1.19816"/>
<rect x="-3.57079e-08" y="0.599078" width="70.6912" height="70.6912" transform="matrix(0.866025 0.5 -0.866025 0.5 260.519 184.815)" stroke="#79716B" stroke-width="1.19816"/>
<rect x="-3.57079e-08" y="0.599078" width="70.6912" height="70.6912" transform="matrix(0.866025 0.5 -0.866025 0.5 321.74 220.161)" stroke="#79716B" stroke-width="1.19816"/>
<rect x="-3.57079e-08" y="0.599078" width="70.6912" height="70.6912" transform="matrix(0.866025 0.5 -0.866025 0.5 382.959 255.507)" stroke="#79716B" stroke-width="1.19816"/>
<rect x="-3.57079e-08" y="0.599078" width="70.6912" height="70.6912" transform="matrix(0.866025 0.5 -0.866025 0.5 444.181 290.852)" stroke="#79716B" stroke-width="1.19816"/>
<rect x="-3.57079e-08" y="0.599078" width="70.6912" height="70.6912" transform="matrix(0.866025 0.5 -0.866025 0.5 505.401 326.198)" stroke="#79716B" stroke-width="1.19816"/>
<rect x="-3.57079e-08" y="0.599078" width="70.6912" height="70.6912" transform="matrix(0.866025 0.5 -0.866025 0.5 566.621 361.544)" stroke="#79716B" stroke-width="1.19816"/>
<rect x="-3.57079e-08" y="0.599078" width="70.6912" height="70.6912" transform="matrix(0.866025 0.5 -0.866025 0.5 -45.5827 78.78)" stroke="#79716B" stroke-width="1.19816"/>
<rect x="-3.57079e-08" y="0.599078" width="70.6912" height="70.6912" transform="matrix(0.866025 0.5 -0.866025 0.5 15.637 114.125)" stroke="#79716B" stroke-width="1.19816"/>
<rect x="-3.57079e-08" y="0.599078" width="70.6912" height="70.6912" transform="matrix(0.866025 0.5 -0.866025 0.5 76.8577 149.469)" stroke="#79716B" stroke-width="1.19816"/>
<rect x="-3.57079e-08" y="0.599078" width="70.6912" height="70.6912" transform="matrix(0.866025 0.5 -0.866025 0.5 138.077 184.815)" stroke="#79716B" stroke-width="1.19816"/>
<rect x="-3.57079e-08" y="0.599078" width="70.6912" height="70.6912" transform="matrix(0.866025 0.5 -0.866025 0.5 199.298 220.161)" stroke="#79716B" stroke-width="1.19816"/>
<rect x="-3.57079e-08" y="0.599078" width="70.6912" height="70.6912" transform="matrix(0.866025 0.5 -0.866025 0.5 260.519 255.507)" stroke="#79716B" stroke-width="1.19816"/>
<rect x="-3.57079e-08" y="0.599078" width="70.6912" height="70.6912" transform="matrix(0.866025 0.5 -0.866025 0.5 321.74 290.852)" stroke="#79716B" stroke-width="1.19816"/>
<rect x="-3.57079e-08" y="0.599078" width="70.6912" height="70.6912" transform="matrix(0.866025 0.5 -0.866025 0.5 382.959 326.198)" stroke="#79716B" stroke-width="1.19816"/>
<rect x="-3.57079e-08" y="0.599078" width="70.6912" height="70.6912" transform="matrix(0.866025 0.5 -0.866025 0.5 444.181 361.544)" stroke="#79716B" stroke-width="1.19816"/>
<rect x="-3.57079e-08" y="0.599078" width="70.6912" height="70.6912" transform="matrix(0.866025 0.5 -0.866025 0.5 505.401 396.889)" stroke="#79716B" stroke-width="1.19816"/>
<rect x="-3.57079e-08" y="0.599078" width="70.6912" height="70.6912" transform="matrix(0.866025 0.5 -0.866025 0.5 566.621 432.235)" stroke="#79716B" stroke-width="1.19816"/>
<rect x="-3.57079e-08" y="0.599078" width="70.6912" height="70.6912" transform="matrix(0.866025 0.5 -0.866025 0.5 -45.5827 149.469)" stroke="#79716B" stroke-width="1.19816"/>
<rect x="-3.57079e-08" y="0.599078" width="70.6912" height="70.6912" transform="matrix(0.866025 0.5 -0.866025 0.5 15.637 184.815)" stroke="#79716B" stroke-width="1.19816"/>
<rect x="-3.57079e-08" y="0.599078" width="70.6912" height="70.6912" transform="matrix(0.866025 0.5 -0.866025 0.5 76.8577 220.161)" stroke="#79716B" stroke-width="1.19816"/>
<rect x="-3.57079e-08" y="0.599078" width="70.6912" height="70.6912" transform="matrix(0.866025 0.5 -0.866025 0.5 138.077 255.507)" stroke="#79716B" stroke-width="1.19816"/>
<rect x="-3.57079e-08" y="0.599078" width="70.6912" height="70.6912" transform="matrix(0.866025 0.5 -0.866025 0.5 199.298 290.852)" stroke="#79716B" stroke-width="1.19816"/>
<rect x="-3.57079e-08" y="0.599078" width="70.6912" height="70.6912" transform="matrix(0.866025 0.5 -0.866025 0.5 260.519 326.198)" stroke="#79716B" stroke-width="1.19816"/>
<rect x="-3.57079e-08" y="0.599078" width="70.6912" height="70.6912" transform="matrix(0.866025 0.5 -0.866025 0.5 321.74 361.544)" stroke="#79716B" stroke-width="1.19816"/>
<rect x="-3.57079e-08" y="0.599078" width="70.6912" height="70.6912" transform="matrix(0.866025 0.5 -0.866025 0.5 382.959 396.889)" stroke="#79716B" stroke-width="1.19816"/>
<rect x="-3.57079e-08" y="0.599078" width="70.6912" height="70.6912" transform="matrix(0.866025 0.5 -0.866025 0.5 444.181 432.235)" stroke="#79716B" stroke-width="1.19816"/>
<rect x="-3.57079e-08" y="0.599078" width="70.6912" height="70.6912" transform="matrix(0.866025 0.5 -0.866025 0.5 505.401 467.581)" stroke="#79716B" stroke-width="1.19816"/>
<rect x="-3.57079e-08" y="0.599078" width="70.6912" height="70.6912" transform="matrix(0.866025 0.5 -0.866025 0.5 566.621 502.926)" stroke="#79716B" stroke-width="1.19816"/>
<rect x="-3.57079e-08" y="0.599078" width="70.6912" height="70.6912" transform="matrix(0.866025 0.5 -0.866025 0.5 -45.5827 220.161)" stroke="#79716B" stroke-width="1.19816"/>
<rect x="-3.57079e-08" y="0.599078" width="70.6912" height="70.6912" transform="matrix(0.866025 0.5 -0.866025 0.5 15.636 255.507)" stroke="#79716B" stroke-width="1.19816"/>
<rect x="-3.57079e-08" y="0.599078" width="70.6912" height="70.6912" transform="matrix(0.866025 0.5 -0.866025 0.5 76.8577 290.852)" stroke="#79716B" stroke-width="1.19816"/>
<rect x="-3.57079e-08" y="0.599078" width="70.6912" height="70.6912" transform="matrix(0.866025 0.5 -0.866025 0.5 138.077 326.198)" stroke="#79716B" stroke-width="1.19816"/>
<rect x="-3.57079e-08" y="0.599078" width="70.6912" height="70.6912" transform="matrix(0.866025 0.5 -0.866025 0.5 199.298 361.544)" stroke="#79716B" stroke-width="1.19816"/>
<rect x="-3.57079e-08" y="0.599078" width="70.6912" height="70.6912" transform="matrix(0.866025 0.5 -0.866025 0.5 260.519 396.889)" stroke="#79716B" stroke-width="1.19816"/>
<rect x="-3.57079e-08" y="0.599078" width="70.6912" height="70.6912" transform="matrix(0.866025 0.5 -0.866025 0.5 321.74 432.235)" stroke="#79716B" stroke-width="1.19816"/>
<rect x="-3.57079e-08" y="0.599078" width="70.6912" height="70.6912" transform="matrix(0.866025 0.5 -0.866025 0.5 382.961 467.581)" stroke="#79716B" stroke-width="1.19816"/>
<rect x="-3.57079e-08" y="0.599078" width="70.6912" height="70.6912" transform="matrix(0.866025 0.5 -0.866025 0.5 444.181 502.926)" stroke="#79716B" stroke-width="1.19816"/>
<rect x="-3.57079e-08" y="0.599078" width="70.6912" height="70.6912" transform="matrix(0.866025 0.5 -0.866025 0.5 -45.5837 290.852)" stroke="#79716B" stroke-width="1.19816"/>
<rect x="-3.57079e-08" y="0.599078" width="70.6912" height="70.6912" transform="matrix(0.866025 0.5 -0.866025 0.5 15.637 326.198)" stroke="#79716B" stroke-width="1.19816"/>
<rect x="-3.57079e-08" y="0.599078" width="70.6912" height="70.6912" transform="matrix(0.866025 0.5 -0.866025 0.5 76.8577 361.544)" stroke="#79716B" stroke-width="1.19816"/>
<rect x="-3.57079e-08" y="0.599078" width="70.6912" height="70.6912" transform="matrix(0.866025 0.5 -0.866025 0.5 138.077 396.889)" stroke="#79716B" stroke-width="1.19816"/>
<rect x="-3.57079e-08" y="0.599078" width="70.6912" height="70.6912" transform="matrix(0.866025 0.5 -0.866025 0.5 199.298 432.235)" stroke="#79716B" stroke-width="1.19816"/>
<rect x="-3.57079e-08" y="0.599078" width="70.6912" height="70.6912" transform="matrix(0.866025 0.5 -0.866025 0.5 260.519 467.581)" stroke="#79716B" stroke-width="1.19816"/>
<rect x="-3.57079e-08" y="0.599078" width="70.6912" height="70.6912" transform="matrix(0.866025 0.5 -0.866025 0.5 321.74 502.926)" stroke="#79716B" stroke-width="1.19816"/>
<rect x="-3.57079e-08" y="0.599078" width="70.6912" height="70.6912" transform="matrix(0.866025 0.5 -0.866025 0.5 -45.5837 361.544)" stroke="#79716B" stroke-width="1.19816"/>
<rect x="-3.57079e-08" y="0.599078" width="70.6912" height="70.6912" transform="matrix(0.866025 0.5 -0.866025 0.5 15.637 396.889)" stroke="#79716B" stroke-width="1.19816"/>
<rect x="-3.57079e-08" y="0.599078" width="70.6912" height="70.6912" transform="matrix(0.866025 0.5 -0.866025 0.5 76.8577 432.235)" stroke="#79716B" stroke-width="1.19816"/>
<rect x="-3.57079e-08" y="0.599078" width="70.6912" height="70.6912" transform="matrix(0.866025 0.5 -0.866025 0.5 138.077 467.581)" stroke="#79716B" stroke-width="1.19816"/>
<rect x="-3.57079e-08" y="0.599078" width="70.6912" height="70.6912" transform="matrix(0.866025 0.5 -0.866025 0.5 199.298 502.926)" stroke="#79716B" stroke-width="1.19816"/>
<rect x="-3.57079e-08" y="0.599078" width="70.6912" height="70.6912" transform="matrix(0.866025 0.5 -0.866025 0.5 -45.5837 432.235)" stroke="#79716B" stroke-width="1.19816"/>
<rect x="-3.57079e-08" y="0.599078" width="70.6912" height="70.6912" transform="matrix(0.866025 0.5 -0.866025 0.5 15.636 467.581)" stroke="#79716B" stroke-width="1.19816"/>
<rect x="-3.57079e-08" y="0.599078" width="70.6912" height="70.6912" transform="matrix(0.866025 0.5 -0.866025 0.5 76.8577 502.926)" stroke="#79716B" stroke-width="1.19816"/>
<rect x="-3.57079e-08" y="0.599078" width="70.6912" height="70.6912" transform="matrix(0.866025 0.5 -0.866025 0.5 -45.5837 502.926)" stroke="#79716B" stroke-width="1.19816"/>
</g>
</g>
<defs>
<radialGradient id="paint0_radial_122_31783" cx="0" cy="0" r="1" gradientUnits="userSpaceOnUse" gradientTransform="translate(260 256.176) rotate(90) scale(256.176 260)">
<stop offset="0.31" stop-color="#D9D9D9" stop-opacity="0.69"/>
<stop offset="1" stop-color="#D9D9D9" stop-opacity="0"/>
</radialGradient>
</defs>
</svg>
