<svg width="40" height="40" viewBox="0 0 40 40" fill="none" xmlns="http://www.w3.org/2000/svg">
<g clip-path="url(#clip0_2454_32345)">
<g filter="url(#filter0_di_2454_32345)">
<path d="M30 40H10C6.68629 40 4 37.3137 4 34V6C4 2.68629 6.68629 0 10 0H20.5147C22.106 0 23.6321 0.632142 24.7574 1.75736L34.2426 11.2426C35.3679 12.3679 36 13.894 36 15.4853V34C36 37.3137 33.3137 40 30 40Z" fill="white"/>
<path d="M30 39.25H10C7.10051 39.25 4.75 36.8995 4.75 34V6C4.75 3.10051 7.10051 0.75 10 0.75H20.5147C21.9071 0.75 23.2425 1.30312 24.227 2.28769L33.7123 11.773C34.6969 12.7575 35.25 14.0929 35.25 15.4853V34C35.25 36.8995 32.8995 39.25 30 39.25Z" stroke="#CBD5E1" stroke-width="1.5"/>
</g>
<path d="M23 1V9C23 11.2091 24.7909 13 27 13H35" stroke="#CBD5E1" stroke-width="1.5"/>
<g filter="url(#filter1_i_2454_32345)">
<mask id="path-4-inside-1_2454_32345" fill="white">
<path d="M0 22C0 19.7909 1.79086 18 4 18H24C26.2091 18 28 19.7909 28 22V30C28 32.2091 26.2091 34 24 34H4C1.79086 34 0 32.2091 0 30V22Z"/>
</mask>
<path d="M0 22C0 19.7909 1.79086 18 4 18H24C26.2091 18 28 19.7909 28 22V30C28 32.2091 26.2091 34 24 34H4C1.79086 34 0 32.2091 0 30V22Z" fill="#0DC1EA"/>
<path d="M-1 22C-1 19.2386 1.23858 17 4 17H24C26.7614 17 29 19.2386 29 22H27C27 20.3431 25.6569 19 24 19H4C2.34315 19 1 20.3431 1 22H-1ZM28 34H0H28ZM4 34C1.23858 34 -1 31.7614 -1 29V22C-1 19.2386 1.23858 17 4 17V19C2.34315 19 1 20.3431 1 22V30C1 32.2091 2.34315 34 4 34ZM24 17C26.7614 17 29 19.2386 29 22V29C29 31.7614 26.7614 34 24 34C25.6569 34 27 32.2091 27 30V22C27 20.3431 25.6569 19 24 19V17Z" fill="black" fill-opacity="0.08" mask="url(#path-4-inside-1_2454_32345)"/>
<path d="M5.23828 22V30H3.78906V22H5.23828ZM7.02762 22H8.80105L11.1761 27.7969H11.2698L13.6448 22H15.4182V30H14.0276V24.5039H13.9534L11.7425 29.9766H10.7034L8.49246 24.4922H8.41824V30H7.02762V22ZM22.5757 24.5547C22.5106 24.3437 22.4208 24.1549 22.3062 23.9883C22.1942 23.819 22.0588 23.6745 21.9 23.5547C21.7437 23.4349 21.564 23.3451 21.3609 23.2852C21.1578 23.2227 20.9364 23.1914 20.6968 23.1914C20.2671 23.1914 19.8843 23.2995 19.5484 23.5156C19.2125 23.7318 18.9481 24.0495 18.7554 24.4687C18.5653 24.8854 18.4703 25.3932 18.4703 25.9922C18.4703 26.5964 18.5653 27.1081 18.7554 27.5273C18.9455 27.9466 19.2099 28.2656 19.5484 28.4844C19.8869 28.7005 20.2802 28.8086 20.7281 28.8086C21.1343 28.8086 21.4859 28.7305 21.7828 28.5742C22.0823 28.418 22.3127 28.1966 22.4742 27.9102C22.6356 27.6211 22.7164 27.2826 22.7164 26.8945L23.0445 26.9453H20.8726V25.8125H24.1187V26.7734C24.1187 27.4583 23.9729 28.0508 23.6812 28.5508C23.3895 29.0508 22.9885 29.4362 22.4781 29.707C21.9677 29.9753 21.3817 30.1094 20.7203 30.1094C19.9833 30.1094 19.3362 29.944 18.7789 29.6133C18.2242 29.2799 17.7906 28.8073 17.4781 28.1953C17.1682 27.5807 17.0132 26.8516 17.0132 26.0078C17.0132 25.362 17.1044 24.7852 17.2867 24.2773C17.4716 23.7695 17.7294 23.3385 18.0601 22.9844C18.3908 22.6276 18.7789 22.3568 19.2242 22.1719C19.6695 21.9844 20.1539 21.8906 20.6773 21.8906C21.12 21.8906 21.5328 21.9557 21.9156 22.0859C22.2984 22.2135 22.6382 22.3958 22.9351 22.6328C23.2346 22.8698 23.4807 23.151 23.6734 23.4766C23.8661 23.8021 23.9924 24.1615 24.0523 24.5547H22.5757Z" fill="white"/>
</g>
</g>
<defs>
<filter id="filter0_di_2454_32345" x="2" y="-4" width="36" height="47" filterUnits="userSpaceOnUse" color-interpolation-filters="sRGB">
<feFlood flood-opacity="0" result="BackgroundImageFix"/>
<feColorMatrix in="SourceAlpha" type="matrix" values="0 0 0 0 0 0 0 0 0 0 0 0 0 0 0 0 0 0 127 0" result="hardAlpha"/>
<feOffset dy="1"/>
<feGaussianBlur stdDeviation="1"/>
<feComposite in2="hardAlpha" operator="out"/>
<feColorMatrix type="matrix" values="0 0 0 0 0.894118 0 0 0 0 0.898039 0 0 0 0 0.905882 0 0 0 0.24 0"/>
<feBlend mode="normal" in2="BackgroundImageFix" result="effect1_dropShadow_2454_32345"/>
<feBlend mode="normal" in="SourceGraphic" in2="effect1_dropShadow_2454_32345" result="shape"/>
<feColorMatrix in="SourceAlpha" type="matrix" values="0 0 0 0 0 0 0 0 0 0 0 0 0 0 0 0 0 0 127 0" result="hardAlpha"/>
<feOffset dy="-4"/>
<feGaussianBlur stdDeviation="2"/>
<feComposite in2="hardAlpha" operator="arithmetic" k2="-1" k3="1"/>
<feColorMatrix type="matrix" values="0 0 0 0 0.813571 0 0 0 0 0.82 0 0 0 0 0.826429 0 0 0 0.32 0"/>
<feBlend mode="normal" in2="shape" result="effect2_innerShadow_2454_32345"/>
</filter>
<filter id="filter1_i_2454_32345" x="0" y="18" width="28" height="20" filterUnits="userSpaceOnUse" color-interpolation-filters="sRGB">
<feFlood flood-opacity="0" result="BackgroundImageFix"/>
<feBlend mode="normal" in="SourceGraphic" in2="BackgroundImageFix" result="shape"/>
<feColorMatrix in="SourceAlpha" type="matrix" values="0 0 0 0 0 0 0 0 0 0 0 0 0 0 0 0 0 0 127 0" result="hardAlpha"/>
<feOffset dy="4"/>
<feGaussianBlur stdDeviation="2"/>
<feComposite in2="hardAlpha" operator="arithmetic" k2="-1" k3="1"/>
<feColorMatrix type="matrix" values="0 0 0 0 1 0 0 0 0 1 0 0 0 0 1 0 0 0 0.08 0"/>
<feBlend mode="normal" in2="shape" result="effect1_innerShadow_2454_32345"/>
</filter>
<clipPath id="clip0_2454_32345">
<rect width="40" height="40" fill="white"/>
</clipPath>
</defs>
</svg>
