<svg width="32" height="32" viewBox="0 0 32 32" fill="none" xmlns="http://www.w3.org/2000/svg">
<g clip-path="url(#clip0_2454_60253)">
<g filter="url(#filter0_di_2454_60253)">
<path d="M24.2 32H7.8C5.14903 32 3 29.851 3 27.2V4.8C3 2.14903 5.14903 0 7.8 0H16.471C17.7312 0 18.9408 0.495552 19.8387 1.37968L27.5677 8.98974C28.484 9.89196 29 11.1241 29 12.4101V27.2C29 29.851 26.851 32 24.2 32Z" fill="white"/>
<path d="M24.2 31.4H7.8C5.4804 31.4 3.6 29.5196 3.6 27.2V4.8C3.6 2.4804 5.4804 0.6 7.8 0.6H16.471C17.5737 0.6 18.6321 1.03361 19.4178 1.80722L27.1467 9.41728C27.9485 10.2067 28.4 11.2849 28.4 12.4101V27.2C28.4 29.5196 26.5196 31.4 24.2 31.4Z" stroke="#CBD5E1" stroke-width="1.2"/>
</g>
<path d="M18 1V7.8C18 9.56731 19.4327 11 21.2 11H28" stroke="#CBD5E1" stroke-width="1.2"/>
<g filter="url(#filter1_i_2454_60253)">
<mask id="path-4-inside-1_2454_60253" fill="white">
<path d="M0 17C0 15.3431 1.34315 14 3 14H21C22.6569 14 24 15.3431 24 17V25C24 26.6569 22.6569 28 21 28H3C1.34315 28 0 26.6569 0 25V17Z"/>
</mask>
<path d="M0 17C0 15.3431 1.34315 14 3 14H21C22.6569 14 24 15.3431 24 17V25C24 26.6569 22.6569 28 21 28H3C1.34315 28 0 26.6569 0 25V17Z" fill="#0DC1EA"/>
<path d="M-0.8 17C-0.8 14.9013 0.901318 13.2 3 13.2H21C23.0987 13.2 24.8 14.9013 24.8 17L23.2 17C23.2 15.785 22.215 14.8 21 14.8H3C1.78497 14.8 0.8 15.785 0.8 17L-0.8 17ZM24 28H0H24ZM3 28C0.901318 28 -0.8 26.2987 -0.8 24.2V17C-0.8 14.9013 0.901318 13.2 3 13.2L3 14.8C1.78497 14.8 0.8 15.785 0.8 17V25C0.8 26.6569 1.78497 28 3 28H3ZM21 13.2C23.0987 13.2 24.8 14.9013 24.8 17V24.2C24.8 26.2987 23.0987 28 21 28H21C22.215 28 23.2 26.6569 23.2 25V17C23.2 15.785 22.215 14.8 21 14.8L21 13.2Z" fill="black" fill-opacity="0.08" mask="url(#path-4-inside-1_2454_60253)"/>
<path d="M4.79063 17.6V24H3.63125V17.6H4.79063ZM6.22209 17.6H7.64084L9.54084 22.2375H9.61584L11.5158 17.6H12.9346V24H11.8221V19.6031H11.7627L9.99397 23.9812H9.16272L7.39397 19.5937H7.33459V24H6.22209V17.6ZM18.6606 19.6437C18.6085 19.475 18.5366 19.324 18.445 19.1906C18.3554 19.0552 18.2471 18.9396 18.12 18.8437C17.995 18.7479 17.8512 18.676 17.6887 18.6281C17.5262 18.5781 17.3491 18.5531 17.1575 18.5531C16.8137 18.5531 16.5075 18.6396 16.2387 18.8125C15.97 18.9854 15.7585 19.2396 15.6043 19.575C15.4523 19.9083 15.3762 20.3146 15.3762 20.7937C15.3762 21.2771 15.4523 21.6865 15.6043 22.0219C15.7564 22.3573 15.9679 22.6125 16.2387 22.7875C16.5096 22.9604 16.8241 23.0469 17.1825 23.0469C17.5075 23.0469 17.7887 22.9844 18.0262 22.8594C18.2658 22.7344 18.4502 22.5573 18.5793 22.3281C18.7085 22.0969 18.7731 21.826 18.7731 21.5156L19.0356 21.5562H17.2981V20.65H19.895V21.4187C19.895 21.9667 19.7783 22.4406 19.545 22.8406C19.3116 23.2406 18.9908 23.549 18.5825 23.7656C18.1741 23.9802 17.7054 24.0875 17.1762 24.0875C16.5866 24.0875 16.0689 23.9552 15.6231 23.6906C15.1793 23.424 14.8325 23.0458 14.5825 22.5562C14.3346 22.0646 14.2106 21.4812 14.2106 20.8062C14.2106 20.2896 14.2835 19.8281 14.4293 19.4219C14.5773 19.0156 14.7835 18.6708 15.0481 18.3875C15.3127 18.1021 15.6231 17.8854 15.9793 17.7375C16.3356 17.5875 16.7231 17.5125 17.1418 17.5125C17.496 17.5125 17.8262 17.5646 18.1325 17.6687C18.4387 17.7708 18.7106 17.9167 18.9481 18.1062C19.1877 18.2958 19.3846 18.5208 19.5387 18.7812C19.6929 19.0417 19.7939 19.3292 19.8418 19.6437H18.6606Z" fill="white"/>
</g>
</g>
<defs>
<filter id="filter0_di_2454_60253" x="1.4" y="-3.2" width="29.2" height="37.6" filterUnits="userSpaceOnUse" color-interpolation-filters="sRGB">
<feFlood flood-opacity="0" result="BackgroundImageFix"/>
<feColorMatrix in="SourceAlpha" type="matrix" values="0 0 0 0 0 0 0 0 0 0 0 0 0 0 0 0 0 0 127 0" result="hardAlpha"/>
<feOffset dy="0.8"/>
<feGaussianBlur stdDeviation="0.8"/>
<feComposite in2="hardAlpha" operator="out"/>
<feColorMatrix type="matrix" values="0 0 0 0 0.894118 0 0 0 0 0.898039 0 0 0 0 0.905882 0 0 0 0.24 0"/>
<feBlend mode="normal" in2="BackgroundImageFix" result="effect1_dropShadow_2454_60253"/>
<feBlend mode="normal" in="SourceGraphic" in2="effect1_dropShadow_2454_60253" result="shape"/>
<feColorMatrix in="SourceAlpha" type="matrix" values="0 0 0 0 0 0 0 0 0 0 0 0 0 0 0 0 0 0 127 0" result="hardAlpha"/>
<feOffset dy="-3.2"/>
<feGaussianBlur stdDeviation="1.6"/>
<feComposite in2="hardAlpha" operator="arithmetic" k2="-1" k3="1"/>
<feColorMatrix type="matrix" values="0 0 0 0 0.813571 0 0 0 0 0.82 0 0 0 0 0.826429 0 0 0 0.32 0"/>
<feBlend mode="normal" in2="shape" result="effect2_innerShadow_2454_60253"/>
</filter>
<filter id="filter1_i_2454_60253" x="0" y="14" width="24" height="17.2" filterUnits="userSpaceOnUse" color-interpolation-filters="sRGB">
<feFlood flood-opacity="0" result="BackgroundImageFix"/>
<feBlend mode="normal" in="SourceGraphic" in2="BackgroundImageFix" result="shape"/>
<feColorMatrix in="SourceAlpha" type="matrix" values="0 0 0 0 0 0 0 0 0 0 0 0 0 0 0 0 0 0 127 0" result="hardAlpha"/>
<feOffset dy="3.2"/>
<feGaussianBlur stdDeviation="1.6"/>
<feComposite in2="hardAlpha" operator="arithmetic" k2="-1" k3="1"/>
<feColorMatrix type="matrix" values="0 0 0 0 1 0 0 0 0 1 0 0 0 0 1 0 0 0 0.08 0"/>
<feBlend mode="normal" in2="shape" result="effect1_innerShadow_2454_60253"/>
</filter>
<clipPath id="clip0_2454_60253">
<rect width="32" height="32" fill="white"/>
</clipPath>
</defs>
</svg>
