<svg width="40" height="40" viewBox="0 0 40 40" fill="none" xmlns="http://www.w3.org/2000/svg">
<g clip-path="url(#clip0_1024_75635)">
<g filter="url(#filter0_di_1024_75635)">
<path d="M30 40H10C6.68629 40 4 37.3137 4 34V6C4 2.68629 6.68629 0 10 0H20.5147C22.106 0 23.6321 0.632142 24.7574 1.75736L34.2426 11.2426C35.3679 12.3679 36 13.894 36 15.4853V34C36 37.3137 33.3137 40 30 40Z" fill="white"/>
<path d="M30 39.25H10C7.10051 39.25 4.75 36.8995 4.75 34V6C4.75 3.10051 7.10051 0.75 10 0.75H20.5147C21.9071 0.75 23.2425 1.30312 24.227 2.28769L33.7123 11.773C34.6969 12.7575 35.25 14.0929 35.25 15.4853V34C35.25 36.8995 32.8995 39.25 30 39.25Z" stroke="#CBD5E1" stroke-width="1.5"/>
</g>
<path d="M23 1V9C23 11.2091 24.7909 13 27 13H35" stroke="#CBD5E1" stroke-width="1.5"/>
<g filter="url(#filter1_i_1024_75635)">
<mask id="path-4-inside-1_1024_75635" fill="white">
<path d="M0 22C0 19.7909 1.79086 18 4 18H13C15.2091 18 17 19.7909 17 22V30C17 32.2091 15.2091 34 13 34H4C1.79086 34 0 32.2091 0 30V22Z"/>
</mask>
<path d="M0 22C0 19.7909 1.79086 18 4 18H13C15.2091 18 17 19.7909 17 22V30C17 32.2091 15.2091 34 13 34H4C1.79086 34 0 32.2091 0 30V22Z" fill="#64748B"/>
<path d="M-1 22C-1 19.2386 1.23858 17 4 17H13C15.7614 17 18 19.2386 18 22H16C16 20.3431 14.6569 19 13 19H4C2.34315 19 1 20.3431 1 22H-1ZM17 34H0H17ZM4 34C1.23858 34 -1 31.7614 -1 29V22C-1 19.2386 1.23858 17 4 17V19C2.34315 19 1 20.3431 1 22V30C1 32.2091 2.34315 34 4 34ZM13 17C15.7614 17 18 19.2386 18 22V29C18 31.7614 15.7614 34 13 34C14.6569 34 16 32.2091 16 30V22C16 20.3431 14.6569 19 13 19V17Z" fill="black" fill-opacity="0.08" mask="url(#path-4-inside-1_1024_75635)"/>
<path d="M7.36328 26.0859V27.25H3.76172V26.0859H7.36328ZM12.7073 26.0859V27.25H9.10574V26.0859H12.7073Z" fill="white"/>
</g>
</g>
<defs>
<filter id="filter0_di_1024_75635" x="2" y="-4" width="36" height="47" filterUnits="userSpaceOnUse" color-interpolation-filters="sRGB">
<feFlood flood-opacity="0" result="BackgroundImageFix"/>
<feColorMatrix in="SourceAlpha" type="matrix" values="0 0 0 0 0 0 0 0 0 0 0 0 0 0 0 0 0 0 127 0" result="hardAlpha"/>
<feOffset dy="1"/>
<feGaussianBlur stdDeviation="1"/>
<feComposite in2="hardAlpha" operator="out"/>
<feColorMatrix type="matrix" values="0 0 0 0 0.894118 0 0 0 0 0.898039 0 0 0 0 0.905882 0 0 0 0.24 0"/>
<feBlend mode="normal" in2="BackgroundImageFix" result="effect1_dropShadow_1024_75635"/>
<feBlend mode="normal" in="SourceGraphic" in2="effect1_dropShadow_1024_75635" result="shape"/>
<feColorMatrix in="SourceAlpha" type="matrix" values="0 0 0 0 0 0 0 0 0 0 0 0 0 0 0 0 0 0 127 0" result="hardAlpha"/>
<feOffset dy="-4"/>
<feGaussianBlur stdDeviation="2"/>
<feComposite in2="hardAlpha" operator="arithmetic" k2="-1" k3="1"/>
<feColorMatrix type="matrix" values="0 0 0 0 0.813571 0 0 0 0 0.82 0 0 0 0 0.826429 0 0 0 0.32 0"/>
<feBlend mode="normal" in2="shape" result="effect2_innerShadow_1024_75635"/>
</filter>
<filter id="filter1_i_1024_75635" x="0" y="18" width="17" height="20" filterUnits="userSpaceOnUse" color-interpolation-filters="sRGB">
<feFlood flood-opacity="0" result="BackgroundImageFix"/>
<feBlend mode="normal" in="SourceGraphic" in2="BackgroundImageFix" result="shape"/>
<feColorMatrix in="SourceAlpha" type="matrix" values="0 0 0 0 0 0 0 0 0 0 0 0 0 0 0 0 0 0 127 0" result="hardAlpha"/>
<feOffset dy="4"/>
<feGaussianBlur stdDeviation="2"/>
<feComposite in2="hardAlpha" operator="arithmetic" k2="-1" k3="1"/>
<feColorMatrix type="matrix" values="0 0 0 0 1 0 0 0 0 1 0 0 0 0 1 0 0 0 0.08 0"/>
<feBlend mode="normal" in2="shape" result="effect1_innerShadow_1024_75635"/>
</filter>
<clipPath id="clip0_1024_75635">
<rect width="40" height="40" fill="white"/>
</clipPath>
</defs>
</svg>
