<svg width="32" height="32" viewBox="0 0 32 32" fill="none" xmlns="http://www.w3.org/2000/svg">
<g clip-path="url(#clip0_1024_75640)">
<g filter="url(#filter0_di_1024_75640)">
<path d="M24.2 32H7.8C5.14903 32 3 29.851 3 27.2V4.8C3 2.14903 5.14903 0 7.8 0H16.471C17.7312 0 18.9408 0.495552 19.8387 1.37968L27.5677 8.98974C28.484 9.89196 29 11.1241 29 12.4101V27.2C29 29.851 26.851 32 24.2 32Z" fill="white"/>
<path d="M24.2 31.4H7.8C5.4804 31.4 3.6 29.5196 3.6 27.2V4.8C3.6 2.4804 5.4804 0.6 7.8 0.6H16.471C17.5737 0.6 18.6321 1.03361 19.4178 1.80722L27.1467 9.41728C27.9485 10.2067 28.4 11.2849 28.4 12.4101V27.2C28.4 29.5196 26.5196 31.4 24.2 31.4Z" stroke="#CBD5E1" stroke-width="1.2"/>
</g>
<path d="M18 1V7.8C18 9.56731 19.4327 11 21.2 11H28" stroke="#CBD5E1" stroke-width="1.2"/>
<g filter="url(#filter1_i_1024_75640)">
<mask id="path-4-inside-1_1024_75640" fill="white">
<path d="M0 17C0 15.3431 1.34315 14 3 14H12C13.6569 14 15 15.3431 15 17V25C15 26.6569 13.6569 28 12 28H3C1.34315 28 0 26.6569 0 25V17Z"/>
</mask>
<path d="M0 17C0 15.3431 1.34315 14 3 14H12C13.6569 14 15 15.3431 15 17V25C15 26.6569 13.6569 28 12 28H3C1.34315 28 0 26.6569 0 25V17Z" fill="#64748B"/>
<path d="M-0.8 17C-0.8 14.9013 0.901318 13.2 3 13.2H12C14.0987 13.2 15.8 14.9013 15.8 17H14.2C14.2 15.785 13.215 14.8 12 14.8H3C1.78497 14.8 0.8 15.785 0.8 17H-0.8ZM15 28H0H15ZM3 28C0.901318 28 -0.8 26.2987 -0.8 24.2V17C-0.8 14.9013 0.901318 13.2 3 13.2V14.8C1.78497 14.8 0.8 15.785 0.8 17V25C0.8 26.6569 1.78497 28 3 28ZM12 13.2C14.0987 13.2 15.8 14.9013 15.8 17V24.2C15.8 26.2987 14.0987 28 12 28C13.215 28 14.2 26.6569 14.2 25V17C14.2 15.785 13.215 14.8 12 14.8V13.2Z" fill="black" fill-opacity="0.08" mask="url(#path-4-inside-1_1024_75640)"/>
<path d="M6.49063 20.8687V21.8H3.60938V20.8687H6.49063ZM10.7658 20.8687V21.8H7.88459V20.8687H10.7658Z" fill="white"/>
</g>
</g>
<defs>
<filter id="filter0_di_1024_75640" x="1.4" y="-3.2" width="29.2" height="37.6" filterUnits="userSpaceOnUse" color-interpolation-filters="sRGB">
<feFlood flood-opacity="0" result="BackgroundImageFix"/>
<feColorMatrix in="SourceAlpha" type="matrix" values="0 0 0 0 0 0 0 0 0 0 0 0 0 0 0 0 0 0 127 0" result="hardAlpha"/>
<feOffset dy="0.8"/>
<feGaussianBlur stdDeviation="0.8"/>
<feComposite in2="hardAlpha" operator="out"/>
<feColorMatrix type="matrix" values="0 0 0 0 0.894118 0 0 0 0 0.898039 0 0 0 0 0.905882 0 0 0 0.24 0"/>
<feBlend mode="normal" in2="BackgroundImageFix" result="effect1_dropShadow_1024_75640"/>
<feBlend mode="normal" in="SourceGraphic" in2="effect1_dropShadow_1024_75640" result="shape"/>
<feColorMatrix in="SourceAlpha" type="matrix" values="0 0 0 0 0 0 0 0 0 0 0 0 0 0 0 0 0 0 127 0" result="hardAlpha"/>
<feOffset dy="-3.2"/>
<feGaussianBlur stdDeviation="1.6"/>
<feComposite in2="hardAlpha" operator="arithmetic" k2="-1" k3="1"/>
<feColorMatrix type="matrix" values="0 0 0 0 0.813571 0 0 0 0 0.82 0 0 0 0 0.826429 0 0 0 0.32 0"/>
<feBlend mode="normal" in2="shape" result="effect2_innerShadow_1024_75640"/>
</filter>
<filter id="filter1_i_1024_75640" x="0" y="14" width="15" height="17.2" filterUnits="userSpaceOnUse" color-interpolation-filters="sRGB">
<feFlood flood-opacity="0" result="BackgroundImageFix"/>
<feBlend mode="normal" in="SourceGraphic" in2="BackgroundImageFix" result="shape"/>
<feColorMatrix in="SourceAlpha" type="matrix" values="0 0 0 0 0 0 0 0 0 0 0 0 0 0 0 0 0 0 127 0" result="hardAlpha"/>
<feOffset dy="3.2"/>
<feGaussianBlur stdDeviation="1.6"/>
<feComposite in2="hardAlpha" operator="arithmetic" k2="-1" k3="1"/>
<feColorMatrix type="matrix" values="0 0 0 0 1 0 0 0 0 1 0 0 0 0 1 0 0 0 0.08 0"/>
<feBlend mode="normal" in2="shape" result="effect1_innerShadow_1024_75640"/>
</filter>
<clipPath id="clip0_1024_75640">
<rect width="32" height="32" fill="white"/>
</clipPath>
</defs>
</svg>
