<?xml version="1.0" encoding="UTF-8"?>
<svg id="Layer_1" xmlns="http://www.w3.org/2000/svg" version="1.1" viewBox="0 0 207.21 207.21">
  <!-- Generator: Adobe Illustrator 29.0.1, SVG Export Plug-In . SVG Version: 2.1.0 Build 192)  -->
  <defs>
    <style>
      .st0 {
        fill: #fff;
        stroke: #0f4423;
        stroke-miterlimit: 10;
        stroke-width: 4px;
      }

      .st1 {
        fill: #0f4423;
      }
    </style>
  </defs>
  <circle class="st0" cx="103.6" cy="103.6" r="101.6"/>
  <path class="st1" d="M72.36,56.58c2.29-.49,3.17-.34,5.17.83,1.04.61,15.51,15.13,15.98,16.16,4.1,8.92-10.3,14.79-9.98,18.55.56,6.59,26.46,32.83,32.34,31.68,3.99-.78,8.17-13.05,17.06-10.36,1.16.35,16.85,15.88,17.36,16.98,2.96,6.4-11.28,19.48-17.23,20.26-21.14,2.78-50.79-23.11-62.36-39.25-6.82-9.51-19.24-31.55-11.99-42.71,1.45-2.23,11.33-11.65,13.64-12.14Z"/>
</svg>