<svg width="120" height="120" viewBox="0 0 120 120" fill="none" xmlns="http://www.w3.org/2000/svg">
<path fill-rule="evenodd" clip-rule="evenodd" d="M26.9752 60.1414V16.332C26.9752 15.8333 27.174 15.357 27.5246 15.0064C27.8771 14.6539 28.3534 14.457 28.8502 14.457H71.139L92.6002 38.2545V68.1664C92.6002 68.1664 92.6077 70.4445 92.4184 73.947L81.8602 70.1164C80.5984 69.6589 79.1865 69.9102 78.1609 70.7783C76.5296 72.1564 74.0602 74.2452 72.4759 75.5839C71.5196 76.392 70.2259 76.6695 69.024 76.3264C65.379 75.2839 57.8227 73.1258 57.8227 73.1258C57.8227 73.1258 64.8746 78.162 68.6396 80.8527C70.0046 81.8277 71.8515 81.777 73.1621 80.7289C74.8459 79.3808 77.1277 77.5564 78.6577 76.332C79.6909 75.507 81.0802 75.2858 82.3177 75.7489L92.0227 79.3883C91.2784 87.477 89.5684 98.0839 85.6515 104.669C85.3084 105.211 84.7121 105.539 84.0709 105.539C76.8952 105.545 34.2934 105.545 22.3852 105.545C21.7271 105.545 21.1177 105.2 20.7784 104.635C20.4409 104.071 20.4221 103.37 20.7315 102.79C26.5496 90.1564 26.9752 68.1664 26.9752 68.1664V65.7083L35.2027 62.6239C36.4402 62.1608 37.8296 62.382 38.8609 63.207C40.3927 64.4314 42.6746 66.2558 44.3584 67.6039C45.669 68.652 47.5159 68.7027 48.8809 67.7277C52.6459 65.037 59.6977 60.0008 59.6977 60.0008C59.6977 60.0008 52.1415 62.1589 48.4965 63.2014C47.2946 63.5445 45.999 63.267 45.0446 62.4589C43.4602 61.1202 40.9909 59.0314 39.3596 57.6533C38.334 56.7852 36.9221 56.5339 35.6602 56.9914L26.9752 60.1414Z" fill="#D5F2E7"/>
<path fill-rule="evenodd" clip-rule="evenodd" d="M91.0852 79.0371L92.0246 79.4121C91.2802 87.5009 89.5702 98.1171 85.6515 104.706C85.3084 105.248 84.7121 105.576 84.0709 105.576C76.8952 105.581 34.2934 105.581 22.3852 105.581C21.7271 105.581 21.1177 105.235 20.7784 104.67C20.4409 104.108 20.4221 103.406 20.7315 102.825L20.8046 102.664C43.8934 103.75 77.4221 99.7052 81.8377 97.9765C85.119 96.6921 88.9965 87.7296 91.0852 79.0371Z" fill="#79CFB1"/>
<path fill-rule="evenodd" clip-rule="evenodd" d="M92.6009 38.2545C86.9103 36.0064 80.8821 35.9427 74.6965 36.8989C74.1228 36.9889 73.5396 36.807 73.1178 36.4058C72.6978 36.0045 72.4859 35.4308 72.5478 34.8533C73.2265 27.927 72.5421 21.1508 71.1396 14.457C80.2109 21.1902 87.3753 29.1177 92.6009 38.2545Z" fill="#34987B"/>
<path fill-rule="evenodd" clip-rule="evenodd" d="M11.3962 44.5838L20.7712 55.59C21.4424 56.3794 22.6256 56.4732 23.4131 55.8019C24.2006 55.1307 24.2962 53.9475 23.6249 53.16L14.2499 42.1538C13.5787 41.3644 12.3956 41.2707 11.6062 41.9419C10.8187 42.6132 10.7249 43.7963 11.3962 44.5838Z" fill="#34987B"/>
<path fill-rule="evenodd" clip-rule="evenodd" d="M11.4974 60.9466L18.1518 62.7297C19.1511 62.9979 20.1805 62.4035 20.4486 61.4041C20.7168 60.4047 20.1224 59.3754 19.123 59.1072L12.4686 57.3241C11.4674 57.056 10.4399 57.6504 10.1718 58.6497C9.90364 59.6491 10.498 60.6785 11.4974 60.9466Z" fill="#34987B"/>
<path fill-rule="evenodd" clip-rule="evenodd" d="M10.6143 76.3675L23.1355 69.1375C24.0318 68.62 24.3393 67.4725 23.8218 66.5762C23.3043 65.68 22.1568 65.3725 21.2605 65.89L8.7393 73.12C7.84305 73.6375 7.53555 74.785 8.05305 75.6812C8.57055 76.5775 9.71805 76.885 10.6143 76.3675Z" fill="#34987B"/>
<path fill-rule="evenodd" clip-rule="evenodd" d="M108.604 96.0278L99.2286 85.0216C98.5574 84.2341 97.3743 84.1403 96.5868 84.8097C95.7993 85.4809 95.7036 86.6659 96.3749 87.4534L105.75 98.4597C106.421 99.2472 107.604 99.3428 108.394 98.6715C109.181 98.0003 109.275 96.8153 108.604 96.0278Z" fill="#34987B"/>
<path fill-rule="evenodd" clip-rule="evenodd" d="M108.503 79.6678L101.849 77.8847C100.849 77.6165 99.8198 78.2109 99.5517 79.2103C99.2835 80.2097 99.8779 81.239 100.877 81.5072L107.532 83.2903C108.533 83.5565 109.56 82.964 109.829 81.9628C110.097 80.9634 109.502 79.9359 108.503 79.6678Z" fill="#34987B"/>
<path fill-rule="evenodd" clip-rule="evenodd" d="M109.386 64.2454L96.8643 71.4736C95.968 71.9911 95.6605 73.1386 96.178 74.0348C96.6955 74.9311 97.843 75.2386 98.7393 74.7211L111.261 67.4929C112.157 66.9754 112.464 65.8279 111.947 64.9317C111.429 64.0354 110.282 63.7279 109.386 64.2454Z" fill="#34987B"/>
<path fill-rule="evenodd" clip-rule="evenodd" d="M37.2447 31.688L43.8747 38.318C44.606 39.0492 45.7947 39.0492 46.526 38.318C47.2572 37.5848 47.2572 36.398 46.526 35.6648L39.896 29.0367C39.1647 28.3055 37.976 28.3055 37.2447 29.0367C36.5135 29.768 36.5135 30.9567 37.2447 31.688Z" fill="#34987B"/>
<path fill-rule="evenodd" clip-rule="evenodd" d="M43.8747 29.0367L37.2447 35.6648C36.5135 36.398 36.5135 37.5848 37.2447 38.318C37.976 39.0492 39.1647 39.0492 39.896 38.318L46.526 31.688C47.2572 30.9567 47.2572 29.768 46.526 29.0367C45.7947 28.3055 44.606 28.3055 43.8747 29.0367Z" fill="#34987B"/>
<path fill-rule="evenodd" clip-rule="evenodd" d="M57.8697 31.688L64.4997 38.318C65.231 39.0492 66.4197 39.0492 67.151 38.318C67.8822 37.5848 67.8822 36.398 67.151 35.6648L60.521 29.0367C59.7897 28.3055 58.601 28.3055 57.8697 29.0367C57.1385 29.768 57.1385 30.9567 57.8697 31.688Z" fill="#34987B"/>
<path fill-rule="evenodd" clip-rule="evenodd" d="M64.4997 29.0367L57.8697 35.6648C57.1385 36.398 57.1385 37.5848 57.8697 38.318C58.601 39.0492 59.7897 39.0492 60.521 38.318L67.151 31.688C67.8822 30.9567 67.8822 29.768 67.151 29.0367C66.4197 28.3055 65.231 28.3055 64.4997 29.0367Z" fill="#34987B"/>
<path fill-rule="evenodd" clip-rule="evenodd" d="M42.071 49.517L44.7016 47.5464L47.321 49.5152C47.9885 50.0158 48.9054 50.0158 49.5729 49.5152L52.1979 47.5464L54.8229 49.5152C55.4885 50.0158 56.4054 50.0158 57.0729 49.5152L59.6979 47.5464L62.3229 49.5152C63.1497 50.1358 64.3272 49.9689 64.9479 49.1402C65.5685 48.3133 65.3997 47.1377 64.5729 46.5152L60.8247 43.7027C60.1572 43.2039 59.2404 43.2039 58.5747 43.7027L55.9479 45.6714L53.3229 43.7027C52.6572 43.2039 51.7404 43.2039 51.0729 43.7027L48.4479 45.6714L45.8304 43.7045C45.1647 43.2039 44.2479 43.202 43.5804 43.7027L39.8247 46.5152C38.996 47.1358 38.8272 48.3114 39.446 49.1402C40.0666 49.967 41.2422 50.1377 42.071 49.517Z" fill="#34987B"/>
</svg>
