<svg width="120" height="120" viewBox="0 0 120 120" fill="none" xmlns="http://www.w3.org/2000/svg">
<g clip-path="url(#clip0_4582_87559)">
<path d="M60 120C93.1371 120 120 93.1371 120 60C120 26.8629 93.1371 0 60 0C26.8629 0 0 26.8629 0 60C0 93.1371 26.8629 120 60 120Z" fill="#22C55E"/>
<path d="M48.1547 83.6348L30.8112 66.9182C27.2194 63.4559 27.1139 57.7377 30.5762 54.1459C34.0391 50.553 39.7573 50.4492 43.3491 53.9109L53.8261 64.0092L75.0477 39.4576C78.3104 35.6839 84.0149 35.2675 87.7887 38.5307C91.5635 41.7928 91.9782 47.4974 88.7161 51.2717L61.2584 83.0382C57.8754 86.9511 51.8913 87.2357 48.1547 83.6348Z" fill="white"/>
</g>
<defs>
<clipPath id="clip0_4582_87559">
<rect width="120" height="120" fill="white"/>
</clipPath>
</defs>
</svg>
