<svg width="120" height="120" viewBox="0 0 120 120" fill="none" xmlns="http://www.w3.org/2000/svg">
<path d="M107.998 78.0427V89.8595C107.998 91.2641 106.862 92.4007 105.457 92.4007H14.506C13.1017 92.4007 11.9648 91.2639 11.9648 89.8595V78.0427C11.9648 77.773 12.0068 77.5053 12.0928 77.2496L24.9604 38.1628C25.302 37.1199 26.275 36.4167 27.3738 36.4167H92.5896C93.6884 36.4167 94.6612 37.1199 95.003 38.1628L107.871 77.2494C107.956 77.5053 107.998 77.773 107.998 78.0427Z" fill="#F5FDFB"/>
<path d="M107.999 78.0427V89.8595C107.999 91.2641 106.862 92.4007 105.457 92.4007H90.1783C90.1263 74.3868 90.4041 44.6556 90.486 36.4167H92.5897C93.6886 36.4167 94.6614 37.1199 95.0031 38.1628L107.871 77.2494C107.957 77.5053 107.999 77.773 107.999 78.0427Z" fill="#D5F2E7"/>
<path d="M11.9648 78.0427V89.8595C11.9648 91.2641 13.1017 92.4007 14.506 92.4007H29.7851C29.837 74.3868 29.5593 44.6556 29.4774 36.4167H27.3738C26.275 36.4167 25.3022 37.1199 24.9604 38.1628L12.0928 77.2496C12.007 77.5053 11.9648 77.773 11.9648 78.0427Z" fill="#D5F2E7"/>
<path d="M98.3438 77.2487L90.5081 53.4479C90.165 52.4057 89.192 51.7016 88.0947 51.7016H31.8685C30.7714 51.7016 29.7982 52.4057 29.4551 53.4479L21.6196 77.2487C21.5351 77.5052 21.4922 77.7733 21.4922 78.0432V89.8602C21.4922 91.2634 22.6298 92.401 24.033 92.401H95.9306C97.3338 92.401 98.4714 91.2634 98.4714 89.8602V78.0432C98.4712 77.7733 98.4283 77.505 98.3438 77.2487Z" fill="#ABE4CF"/>
<path d="M108 80.4955V102.544C108 103.947 106.862 105.085 105.459 105.085H14.5056C13.1025 105.085 11.9648 103.947 11.9648 102.544V80.4955C11.9648 79.0924 13.1025 77.9548 14.5056 77.9548H33.265C34.2359 77.9548 35.1219 78.5081 35.5481 79.3806L39.2344 86.9283C39.6604 87.8007 40.5464 88.3541 41.5175 88.3541H78.4469C79.4178 88.3541 80.3038 87.8007 80.73 86.9283L84.4163 79.3806C84.8422 78.5081 85.7283 77.9548 86.6993 77.9548H105.459C106.862 77.9548 108 79.0924 108 80.4955Z" fill="#79CFB1"/>
<path d="M25.0907 99.6691H19.6076C18.7801 99.6691 18.1094 98.9982 18.1094 98.1708C18.1094 97.3435 18.7802 96.6726 19.6076 96.6726H25.0907C25.9183 96.6726 26.589 97.3435 26.589 98.1708C26.589 98.9982 25.9183 99.6691 25.0907 99.6691Z" fill="#D5F2E7"/>
<path d="M25.0907 94.9886H19.6076C18.7801 94.9886 18.1094 94.3178 18.1094 93.4902C18.1094 92.6626 18.7802 91.9919 19.6076 91.9919H25.0907C25.9183 91.9919 26.589 92.6628 26.589 93.4902C26.5892 94.3178 25.9183 94.9886 25.0907 94.9886Z" fill="#D5F2E7"/>
<path d="M59.8895 24.4802C59.8877 24.4802 59.886 24.4802 59.8841 24.4802C58.8988 24.4774 58.1027 23.6761 58.1055 22.691L58.1212 17.3786C58.124 16.3952 58.9223 15.6 59.905 15.6H59.9104C60.8957 15.6028 61.6919 16.4041 61.6891 17.3892L61.6734 22.7015C61.6706 23.685 60.8723 24.4802 59.8895 24.4802Z" fill="#ABE4CF"/>
<path d="M51.968 26.7445C51.3615 26.7445 50.7701 26.4351 50.4359 25.8771L47.6757 21.2688C47.1694 20.4234 47.4441 19.3279 48.2893 18.8217C49.1347 18.3152 50.2299 18.5901 50.7364 19.4353L53.4966 24.0435C54.0029 24.8889 53.7282 25.9844 52.883 26.4907C52.5959 26.6625 52.28 26.7445 51.968 26.7445Z" fill="#ABE4CF"/>
<path d="M67.7941 26.8172C67.4789 26.8172 67.1594 26.7335 66.8702 26.558C66.0281 26.0468 65.7597 24.9494 66.2709 24.1073L69.0585 19.5143C69.5697 18.6719 70.6668 18.4038 71.5092 18.915C72.3513 19.4262 72.6196 20.5235 72.1085 21.3656L69.3208 25.9587C68.9852 26.5115 68.3969 26.8172 67.7941 26.8172Z" fill="#ABE4CF"/>
</svg>
