<svg width="120" height="120" viewBox="0 0 120 120" fill="none" xmlns="http://www.w3.org/2000/svg">
<path d="M60 120C93.1371 120 120 93.1371 120 60C120 26.8629 93.1371 0 60 0C26.8629 0 0 26.8629 0 60C0 93.1371 26.8629 120 60 120Z" fill="#F04438"/>
<path d="M81.7038 91.6404C80.3976 91.6444 79.1035 91.3891 77.8965 90.8895C76.6896 90.3898 75.5938 89.6556 74.6726 88.7294L60.0007 74.0622L45.3288 88.7365C43.464 90.6013 40.9348 91.6489 38.2976 91.6489C35.6604 91.6489 33.1311 90.6013 31.2663 88.7365C29.4015 86.8717 28.3539 84.3424 28.3539 81.7052C28.3539 79.068 29.4015 76.5388 31.2663 74.674L45.9382 59.9997L31.264 45.3279C29.3992 43.4631 28.3516 40.9338 28.3516 38.2966C28.3516 35.6594 29.3992 33.1302 31.264 31.2654C33.1288 29.4006 35.658 28.3529 38.2953 28.3529C40.9325 28.3529 43.4617 29.4006 45.3265 31.2654L60.0007 45.9372L74.6726 31.263C75.596 30.3397 76.6921 29.6072 77.8986 29.1075C79.105 28.6078 80.398 28.3506 81.7038 28.3506C83.0097 28.3506 84.3027 28.6078 85.5091 29.1075C86.7156 29.6072 87.8117 30.3397 88.7351 31.263C89.6585 32.1864 90.3909 33.2826 90.8906 34.489C91.3903 35.6954 91.6475 36.9885 91.6475 38.2943C91.6475 39.6001 91.3903 40.8931 90.8906 42.0996C90.3909 43.306 89.6585 44.4022 88.7351 45.3255L74.0632 59.9997L88.7374 74.6716C90.1278 76.0619 91.0747 77.8333 91.4582 79.7617C91.8417 81.6902 91.6447 83.6891 90.892 85.5055C90.1393 87.322 88.8648 88.8744 87.2298 89.9664C85.5947 91.0584 83.6724 91.641 81.7062 91.6404H81.7038Z" fill="white"/>
</svg>
