<svg width="61" height="60" viewBox="0 0 61 60" fill="none" xmlns="http://www.w3.org/2000/svg">
<path d="M51.75 7.5H9.25C8.55964 7.5 8 8.05964 8 8.75V51.25C8 51.9404 8.55964 52.5 9.25 52.5H51.75C52.4404 52.5 53 51.9404 53 51.25V8.75C53 8.05964 52.4404 7.5 51.75 7.5Z" fill="#F3FAF8"/>
<path d="M53 8.75V15H31.75C31.5855 14.999 31.4224 15.0306 31.2701 15.0928C31.1178 15.155 30.9793 15.2466 30.8625 15.3625L26.2375 20H8V8.75C8 8.41848 8.1317 8.10054 8.36612 7.86612C8.60054 7.6317 8.91848 7.5 9.25 7.5H51.75C52.0815 7.5 52.3995 7.6317 52.6339 7.86612C52.8683 8.10054 53 8.41848 53 8.75Z" fill="#79CFB1"/>
<path d="M14.25 15C14.9404 15 15.5 14.4404 15.5 13.75C15.5 13.0596 14.9404 12.5 14.25 12.5C13.5596 12.5 13 13.0596 13 13.75C13 14.4404 13.5596 15 14.25 15Z" fill="#F3FAF8"/>
<path d="M19.25 15C19.9404 15 20.5 14.4404 20.5 13.75C20.5 13.0596 19.9404 12.5 19.25 12.5C18.5596 12.5 18 13.0596 18 13.75C18 14.4404 18.5596 15 19.25 15Z" fill="#F3FAF8"/>
<path d="M24.25 15C24.9404 15 25.5 14.4404 25.5 13.75C25.5 13.0596 24.9404 12.5 24.25 12.5C23.5596 12.5 23 13.0596 23 13.75C23 14.4404 23.5596 15 24.25 15Z" fill="#F3FAF8"/>
<path d="M17.3743 30.625C17.2097 30.6259 17.0467 30.5944 16.8944 30.5322C16.7421 30.47 16.6036 30.3783 16.4868 30.2625L14.6118 28.3875C14.3764 28.1521 14.2441 27.8329 14.2441 27.5C14.2441 27.1671 14.3764 26.8479 14.6118 26.6125C14.8471 26.3771 15.1664 26.2449 15.4993 26.2449C15.8321 26.2449 16.1514 26.3771 16.3868 26.6125L17.3743 27.6125L20.8618 24.1125C21.0971 23.8771 21.4164 23.7449 21.7493 23.7449C22.0821 23.7449 22.4014 23.8771 22.6368 24.1125C22.8721 24.3479 23.0044 24.6671 23.0044 25C23.0044 25.3329 22.8721 25.6521 22.6368 25.8875L18.2618 30.2625C18.145 30.3783 18.0064 30.47 17.8541 30.5322C17.7018 30.5944 17.5388 30.6259 17.3743 30.625Z" fill="#22C55E"/>
<path d="M17.3743 38.125C17.2097 38.1259 17.0467 38.0944 16.8944 38.0322C16.7421 37.97 16.6036 37.8783 16.4868 37.7625L14.6118 35.8875C14.3764 35.6521 14.2441 35.3329 14.2441 35C14.2441 34.6671 14.3764 34.3479 14.6118 34.1125C14.8471 33.8771 15.1664 33.7449 15.4993 33.7449C15.8321 33.7449 16.1514 33.8771 16.3868 34.1125L17.3743 35.1125L20.8618 31.6125C21.0971 31.3771 21.4164 31.2449 21.7493 31.2449C22.0821 31.2449 22.4014 31.3771 22.6368 31.6125C22.8721 31.8479 23.0044 32.1671 23.0044 32.5C23.0044 32.8329 22.8721 33.1521 22.6368 33.3875L18.2618 37.7625C18.145 37.8783 18.0064 37.97 17.8541 38.0322C17.7018 38.0944 17.5388 38.1259 17.3743 38.125Z" fill="#22C55E"/>
<path d="M17.3743 45.625C17.2097 45.6259 17.0467 45.5944 16.8944 45.5322C16.7421 45.47 16.6036 45.3783 16.4868 45.2625L14.6118 43.3875C14.3764 43.1521 14.2441 42.8329 14.2441 42.5C14.2441 42.1671 14.3764 41.8479 14.6118 41.6125C14.8471 41.3771 15.1664 41.2449 15.4993 41.2449C15.8321 41.2449 16.1514 41.3771 16.3868 41.6125L17.3743 42.6125L20.8618 39.1125C21.0971 38.8771 21.4164 38.7449 21.7493 38.7449C22.0821 38.7449 22.4014 38.8771 22.6368 39.1125C22.8721 39.3479 23.0044 39.6671 23.0044 40C23.0044 40.3329 22.8721 40.6521 22.6368 40.8875L18.2618 45.2625C18.145 45.3783 18.0064 45.47 17.8541 45.5322C17.7018 45.5944 17.5388 45.6259 17.3743 45.625Z" fill="#22C55E"/>
<path d="M45.5 28.75H26.75C26.4185 28.75 26.1005 28.6183 25.8661 28.3839C25.6317 28.1495 25.5 27.8315 25.5 27.5C25.5 27.1685 25.6317 26.8505 25.8661 26.6161C26.1005 26.3817 26.4185 26.25 26.75 26.25H45.5C45.8315 26.25 46.1495 26.3817 46.3839 26.6161C46.6183 26.8505 46.75 27.1685 46.75 27.5C46.75 27.8315 46.6183 28.1495 46.3839 28.3839C46.1495 28.6183 45.8315 28.75 45.5 28.75Z" fill="#ABE4CF"/>
<path d="M45.5 36.25H26.75C26.4185 36.25 26.1005 36.1183 25.8661 35.8839C25.6317 35.6495 25.5 35.3315 25.5 35C25.5 34.6685 25.6317 34.3505 25.8661 34.1161C26.1005 33.8817 26.4185 33.75 26.75 33.75H45.5C45.8315 33.75 46.1495 33.8817 46.3839 34.1161C46.6183 34.3505 46.75 34.6685 46.75 35C46.75 35.3315 46.6183 35.6495 46.3839 35.8839C46.1495 36.1183 45.8315 36.25 45.5 36.25Z" fill="#ABE4CF"/>
<path d="M45.5 43.75H26.75C26.4185 43.75 26.1005 43.6183 25.8661 43.3839C25.6317 43.1495 25.5 42.8315 25.5 42.5C25.5 42.1685 25.6317 41.8505 25.8661 41.6161C26.1005 41.3817 26.4185 41.25 26.75 41.25H45.5C45.8315 41.25 46.1495 41.3817 46.3839 41.6161C46.6183 41.8505 46.75 42.1685 46.75 42.5C46.75 42.8315 46.6183 43.1495 46.3839 43.3839C46.1495 43.6183 45.8315 43.75 45.5 43.75Z" fill="#ABE4CF"/>
</svg>
