<svg width="120" height="120" viewBox="0 0 120 120" fill="none" xmlns="http://www.w3.org/2000/svg">
<path d="M110.207 26.7215V105.554C110.207 108.58 107.752 111.035 104.727 111.035H15.4805C12.4552 111.035 10 108.58 10 105.554V26.7215H110.207Z" fill="#F3FAF8"/>
<path d="M110.201 26.7175V13.4804C110.201 10.4535 107.747 7.99994 104.721 7.99994H15.4844C12.4575 7.99994 10.0039 10.4537 10.0039 13.4804V26.7177L110.201 26.7175Z" fill="#236252"/>
<g opacity="0.08">
<path d="M110.207 13.4804V26.7215H104.727V13.4804C104.727 10.4551 102.271 7.99994 99.2461 7.99994H104.727C107.752 7.99974 110.207 10.4551 110.207 13.4804Z" fill="#0C2721"/>
</g>
<path d="M23.097 17.3531C23.097 19.0631 21.7159 20.4442 20.0169 20.4442C18.3069 20.4442 16.9258 19.0631 16.9258 17.3531C16.9258 15.6541 18.3069 14.2729 20.0169 14.2729C21.7159 14.2731 23.097 15.6543 23.097 17.3531Z" fill="#277A64"/>
<path d="M32.6244 17.3531C32.6244 19.0631 31.2433 20.4442 29.5442 20.4442C27.8342 20.4442 26.4531 19.0631 26.4531 17.3531C26.4531 15.6541 27.8342 14.2729 29.5442 14.2729C31.2433 14.2731 32.6244 15.6543 32.6244 17.3531Z" fill="#79CFB1"/>
<path d="M42.1556 17.3531C42.1556 19.063 40.7745 20.4442 39.0755 20.4442C37.3655 20.4442 35.9844 19.063 35.9844 17.3531C35.9844 15.654 37.3655 14.2729 39.0755 14.2729C40.7745 14.2731 42.1556 15.6542 42.1556 17.3531Z" fill="#D5F2E7"/>
<path d="M82.6016 76.2706H37.6061C34.9659 76.2706 33.4076 73.3104 34.9019 71.1339L57.4023 38.3634C58.7056 36.4655 61.5075 36.4655 62.8106 38.3636L85.3059 71.1341C86.8 73.3108 85.2416 76.2706 82.6016 76.2706Z" fill="#1E4339"/>
<path d="M58.1797 68.1685C58.1797 67.1213 59.0506 66.2613 60.0853 66.2613C61.2008 66.2613 62.0245 67.158 62.0245 68.1685C62.0245 69.2535 61.1679 70.1077 60.0853 70.1077C59.0843 70.1077 58.1797 69.2914 58.1797 68.1685Z" fill="#F5FDFB"/>
<path d="M58.8822 63.7288C58.8172 62.1801 59.1178 69.3394 58.2461 48.5817C58.2461 47.5435 59.0399 46.7457 60.0813 46.7457C61.1576 46.7457 61.8837 47.579 61.8837 48.5817C61.012 69.3392 61.3126 62.1799 61.2476 63.7288C61.2026 64.3096 60.8205 64.7525 60.0813 64.7525C59.3442 64.7525 58.9239 64.3106 58.8822 63.7288Z" fill="#F5FDFB"/>
<path d="M45.8743 99.5234V96.0077H37.9884C37.5739 96.0077 37.2204 95.8647 36.9281 95.5806C36.6358 95.2966 36.4883 94.9474 36.4883 94.5338V94.3014C36.4883 93.9395 36.5914 93.6292 36.7998 93.3703L44.917 83.0029C45.1872 82.6345 45.6746 82.3821 46.209 82.3821H46.7266C47.6538 82.3821 48.2268 83.0491 48.2268 83.8812V93.9132H50.1919C50.7929 93.9132 51.2523 94.397 51.2523 94.9736C51.2523 95.5673 50.7736 96.0077 50.1919 96.0077H48.2268V99.5234C48.2268 100.202 47.6728 100.687 47.0379 100.687C46.3885 100.687 45.8743 100.193 45.8743 99.5234ZM38.9963 93.913H45.8743V85.0447L38.9963 93.913Z" fill="#204F44"/>
<path d="M53.1875 91.5345C53.1875 86.545 55.1402 82.2526 60.194 82.2526C65.1957 82.2526 67.2004 86.5166 67.2004 91.5345C67.2004 96.5524 65.1959 100.816 60.194 100.816C55.1452 100.816 53.1875 96.5235 53.1875 91.5345ZM64.8479 91.5345C64.8479 87.9931 63.7198 84.4503 60.1938 84.4503C56.675 84.4503 55.5418 87.9852 55.5418 91.5345C55.5418 95.0643 56.6486 98.644 60.1938 98.644C63.7319 98.644 64.8479 95.0849 64.8479 91.5345Z" fill="#204F44"/>
<path d="M78.343 99.5234V96.0077H70.4572C70.0426 96.0077 69.6892 95.8647 69.3968 95.5806C69.1045 95.2966 68.957 94.9474 68.957 94.5338V94.3014C68.957 93.9395 69.0601 93.6292 69.2685 93.3703L77.3858 83.0029C77.6559 82.6345 78.1433 82.3821 78.6777 82.3821H79.1954C80.1226 82.3821 80.6955 83.0491 80.6955 83.8812V93.9132H82.6607C83.2617 93.9132 83.7211 94.397 83.7211 94.9736C83.7211 95.5673 83.2423 96.0077 82.6607 96.0077H80.6955V99.5234C80.6955 100.202 80.1416 100.687 79.5067 100.687C78.8573 100.687 78.343 100.193 78.343 99.5234ZM71.4651 93.913H78.343V85.0447L71.4651 93.913Z" fill="#204F44"/>
</svg>
