<svg width="60" height="60" viewBox="0 0 60 60" fill="none" xmlns="http://www.w3.org/2000/svg">
<path fill-rule="evenodd" clip-rule="evenodd" d="M39.6101 29.7161L29.666 39.6592C29.666 39.6592 33.2023 38.5548 38.2845 40.322C39.1395 40.6192 40.5701 39.1886 40.2729 38.3336C38.5057 33.2514 39.6101 29.7161 39.6101 29.7161Z" fill="#ABE4CF"/>
<path fill-rule="evenodd" clip-rule="evenodd" d="M12.9981 13.0462C19.0356 7.00966 28.8372 7.00966 34.8747 13.0462C40.9113 19.0837 40.9113 28.8853 34.8747 34.9228C28.8372 40.9593 19.0356 40.9593 12.9981 34.9228C6.96156 28.8853 6.96156 19.0837 12.9981 13.0462Z" fill="url(#paint0_linear_4281_56332)"/>
<path fill-rule="evenodd" clip-rule="evenodd" d="M32.8751 11.3569C33.5763 11.8547 34.2457 12.4182 34.8748 13.0463C40.9113 19.0838 40.9113 28.8854 34.8748 34.9229C28.8373 40.9594 19.0357 40.9594 12.9982 34.9229C12.6429 34.5666 12.3082 34.1982 11.9941 33.8185C17.846 35.7197 24.5341 34.3472 29.1804 29.701C34.136 24.7454 35.3679 17.4666 32.8751 11.3569Z" fill="#D5F2E7"/>
<path fill-rule="evenodd" clip-rule="evenodd" d="M11.6723 11.7206C18.441 4.95186 29.4313 4.95186 36.2001 11.7206C42.9688 18.4894 42.9688 29.4797 36.2001 36.2484C29.4313 43.0172 18.441 43.0172 11.6723 36.2484C4.90352 29.4797 4.90352 18.4894 11.6723 11.7206ZM13.6607 13.709C19.3316 8.03811 28.5407 8.03811 34.2116 13.709C39.8826 19.38 39.8826 28.589 34.2116 34.26C28.5407 39.9309 19.3316 39.9309 13.6607 34.26C7.98977 28.589 7.98977 19.38 13.6607 13.709Z" fill="#79CFB1"/>
<path fill-rule="evenodd" clip-rule="evenodd" d="M8.39762 31.697C5.18012 25.2105 6.27137 17.1217 11.6723 11.7208C16.7442 6.64891 24.1861 5.37766 30.4476 7.90703C30.4926 8.48172 30.5161 9.06391 30.5161 9.65172C30.5161 10.1055 30.502 10.5564 30.4748 11.0045C25.027 8.26141 18.2076 9.16329 13.6607 13.7092C8.84106 18.5289 8.11731 25.9042 11.4914 31.4917C10.5032 31.6267 9.4945 31.697 8.47075 31.697H8.39762Z" fill="#D5F2E7"/>
<path fill-rule="evenodd" clip-rule="evenodd" d="M37.5264 43.5405C35.8792 41.8933 35.8792 39.2224 37.5264 37.5743C39.1736 35.9271 41.8455 35.9271 43.4927 37.5743L57.0827 51.1643C57.4483 51.5299 56.4086 53.1639 54.7623 54.8102C53.1161 56.4564 51.482 57.4961 51.1164 57.1305L37.5264 43.5405Z" fill="#79CFB1"/>
<path fill-rule="evenodd" clip-rule="evenodd" d="M37.5264 43.5405C35.8792 41.8933 35.8792 39.2224 37.5264 37.5743C39.1736 35.9271 41.8455 35.9271 43.4927 37.5743L55.7927 49.8743C56.1583 50.2399 55.1186 51.8739 53.4723 53.5202C51.8261 55.1664 50.192 56.2061 49.8264 55.8405L37.5264 43.5405Z" fill="#D5F2E7"/>
<path fill-rule="evenodd" clip-rule="evenodd" d="M21.9508 21.0329C21.9292 20.1395 22.2648 19.487 22.7823 19.1045C23.5961 18.5045 24.812 18.5298 25.472 19.2732C25.7551 19.5929 25.9192 20.0448 25.9239 20.6167C25.9351 21.9882 25.292 22.7898 24.662 23.6195C23.8145 24.7379 22.9679 25.8873 22.8629 27.8063C22.8348 28.3238 23.2323 28.7654 23.7489 28.7935C24.2654 28.8217 24.7079 28.4251 24.7361 27.9085C24.8148 26.4507 25.5123 25.6013 26.1564 24.752C27.0189 23.6148 27.8148 22.4804 27.7989 20.6017C27.7895 19.4973 27.4211 18.6451 26.8736 18.0282C25.5948 16.5882 23.2464 16.4326 21.6695 17.5951C20.7245 18.2926 20.0373 19.4476 20.0758 21.077C20.0879 21.5945 20.5183 22.0042 21.0358 21.992C21.5523 21.9798 21.9629 21.5504 21.9508 21.0329Z" fill="#ABE4CF"/>
<path d="M23.7117 32.2755C24.3486 32.2755 24.8648 31.7592 24.8648 31.1224C24.8648 30.4855 24.3486 29.9692 23.7117 29.9692C23.0749 29.9692 22.5586 30.4855 22.5586 31.1224C22.5586 31.7592 23.0749 32.2755 23.7117 32.2755Z" fill="#ABE4CF"/>
<path fill-rule="evenodd" clip-rule="evenodd" d="M40.5832 7.96602L43.3957 3.27852C43.6619 2.83508 43.5185 2.25852 43.0741 1.99227C42.6307 1.72696 42.0541 1.87039 41.7879 2.31383L38.9754 7.00133C38.7091 7.44571 38.8535 8.02227 39.2969 8.28758C39.7413 8.55383 40.3169 8.41039 40.5832 7.96602Z" fill="#ABE4CF"/>
<path fill-rule="evenodd" clip-rule="evenodd" d="M45.018 11.055L55.3305 3.55499C55.7486 3.25031 55.8414 2.66343 55.5377 2.2453C55.233 1.82624 54.6461 1.73437 54.228 2.03812L43.9155 9.53812C43.4964 9.84281 43.4045 10.4297 43.7083 10.8478C44.013 11.2669 44.5998 11.3587 45.018 11.055Z" fill="#ABE4CF"/>
<path fill-rule="evenodd" clip-rule="evenodd" d="M46.5688 16.8311L54.0688 14.9561C54.5713 14.8305 54.8769 14.3214 54.7513 13.8189C54.6256 13.3174 54.1166 13.0117 53.6141 13.1374L46.1141 15.0124C45.6125 15.138 45.3069 15.647 45.4325 16.1495C45.5581 16.6511 46.0672 16.9567 46.5688 16.8311Z" fill="#ABE4CF"/>
<defs>
<linearGradient id="paint0_linear_4281_56332" x1="13.0928" y1="15.3" x2="34.7566" y2="35.039" gradientUnits="userSpaceOnUse">
<stop stop-color="white"/>
<stop offset="1" stop-color="#E9F3FC"/>
</linearGradient>
</defs>
</svg>
