<svg width="120" height="120" viewBox="0 0 120 120" fill="none" xmlns="http://www.w3.org/2000/svg">
<path d="M102.5 15H17.5C16.1193 15 15 16.1193 15 17.5V102.5C15 103.881 16.1193 105 17.5 105H102.5C103.881 105 105 103.881 105 102.5V17.5C105 16.1193 103.881 15 102.5 15Z" fill="#F3FAF8"/>
<path d="M105 17.5V30H62.5C62.171 29.9981 61.8448 30.0612 61.5402 30.1856C61.2356 30.31 60.9586 30.4933 60.725 30.725L51.475 40H15V17.5C15 16.837 15.2634 16.2011 15.7322 15.7322C16.2011 15.2634 16.837 15 17.5 15H102.5C103.163 15 103.799 15.2634 104.268 15.7322C104.737 16.2011 105 16.837 105 17.5Z" fill="#79CFB1"/>
<path d="M27.5 30C28.8807 30 30 28.8807 30 27.5C30 26.1193 28.8807 25 27.5 25C26.1193 25 25 26.1193 25 27.5C25 28.8807 26.1193 30 27.5 30Z" fill="#F3FAF8"/>
<path d="M37.5 30C38.8807 30 40 28.8807 40 27.5C40 26.1193 38.8807 25 37.5 25C36.1193 25 35 26.1193 35 27.5C35 28.8807 36.1193 30 37.5 30Z" fill="#F3FAF8"/>
<path d="M47.5 30C48.8807 30 50 28.8807 50 27.5C50 26.1193 48.8807 25 47.5 25C46.1193 25 45 26.1193 45 27.5C45 28.8807 46.1193 30 47.5 30Z" fill="#F3FAF8"/>
<path d="M33.7485 61.25C33.4195 61.2519 33.0933 61.1888 32.7887 61.0644C32.4841 60.94 32.2071 60.7567 31.9735 60.525L28.2235 56.775C27.7528 56.3042 27.4883 55.6658 27.4883 55C27.4883 54.3343 27.7528 53.6958 28.2235 53.225C28.6943 52.7542 29.3328 52.4898 29.9985 52.4898C30.6643 52.4898 31.3028 52.7542 31.7735 53.225L33.7485 55.225L40.7235 48.225C41.1943 47.7542 41.8328 47.4898 42.4985 47.4898C43.1643 47.4898 43.8027 47.7542 44.2735 48.225C44.7443 48.6958 45.0087 49.3343 45.0087 50C45.0087 50.6658 44.7443 51.3042 44.2735 51.775L35.5235 60.525C35.2899 60.7567 35.0129 60.94 34.7083 61.0644C34.4037 61.1888 34.0775 61.2519 33.7485 61.25Z" fill="#22C55E"/>
<path d="M33.7485 76.25C33.4195 76.2519 33.0933 76.1888 32.7887 76.0644C32.4841 75.94 32.2071 75.7567 31.9735 75.525L28.2235 71.775C27.7528 71.3042 27.4883 70.6658 27.4883 70C27.4883 69.3343 27.7528 68.6958 28.2235 68.225C28.6943 67.7542 29.3328 67.4898 29.9985 67.4898C30.6643 67.4898 31.3028 67.7542 31.7735 68.225L33.7485 70.225L40.7235 63.225C41.1943 62.7542 41.8328 62.4898 42.4985 62.4898C43.1643 62.4898 43.8027 62.7542 44.2735 63.225C44.7443 63.6958 45.0087 64.3343 45.0087 65C45.0087 65.6658 44.7443 66.3042 44.2735 66.775L35.5235 75.525C35.2899 75.7567 35.0129 75.94 34.7083 76.0644C34.4037 76.1888 34.0775 76.2519 33.7485 76.25Z" fill="#22C55E"/>
<path d="M33.7485 91.25C33.4195 91.2519 33.0933 91.1888 32.7887 91.0644C32.4841 90.94 32.2071 90.7567 31.9735 90.525L28.2235 86.775C27.7528 86.3042 27.4883 85.6658 27.4883 85C27.4883 84.3343 27.7528 83.6958 28.2235 83.225C28.6943 82.7542 29.3328 82.4898 29.9985 82.4898C30.6643 82.4898 31.3028 82.7542 31.7735 83.225L33.7485 85.225L40.7235 78.225C41.1943 77.7542 41.8328 77.4898 42.4985 77.4898C43.1643 77.4898 43.8027 77.7542 44.2735 78.225C44.7443 78.6958 45.0087 79.3343 45.0087 80C45.0087 80.6658 44.7443 81.3042 44.2735 81.775L35.5235 90.525C35.2899 90.7567 35.0129 90.94 34.7083 91.0644C34.4037 91.1888 34.0775 91.2519 33.7485 91.25Z" fill="#22C55E"/>
<path d="M90 57.5H52.5C51.837 57.5 51.2011 57.2366 50.7322 56.7678C50.2634 56.2989 50 55.663 50 55C50 54.337 50.2634 53.7011 50.7322 53.2322C51.2011 52.7634 51.837 52.5 52.5 52.5H90C90.663 52.5 91.2989 52.7634 91.7678 53.2322C92.2366 53.7011 92.5 54.337 92.5 55C92.5 55.663 92.2366 56.2989 91.7678 56.7678C91.2989 57.2366 90.663 57.5 90 57.5Z" fill="#ABE4CF"/>
<path d="M90 72.5H52.5C51.837 72.5 51.2011 72.2366 50.7322 71.7678C50.2634 71.2989 50 70.663 50 70C50 69.337 50.2634 68.7011 50.7322 68.2322C51.2011 67.7634 51.837 67.5 52.5 67.5H90C90.663 67.5 91.2989 67.7634 91.7678 68.2322C92.2366 68.7011 92.5 69.337 92.5 70C92.5 70.663 92.2366 71.2989 91.7678 71.7678C91.2989 72.2366 90.663 72.5 90 72.5Z" fill="#ABE4CF"/>
<path d="M90 87.5H52.5C51.837 87.5 51.2011 87.2366 50.7322 86.7678C50.2634 86.2989 50 85.663 50 85C50 84.337 50.2634 83.7011 50.7322 83.2322C51.2011 82.7634 51.837 82.5 52.5 82.5H90C90.663 82.5 91.2989 82.7634 91.7678 83.2322C92.2366 83.7011 92.5 84.337 92.5 85C92.5 85.663 92.2366 86.2989 91.7678 86.7678C91.2989 87.2366 90.663 87.5 90 87.5Z" fill="#ABE4CF"/>
</svg>
