<svg width="128" height="128" viewBox="0 0 128 128" fill="none" xmlns="http://www.w3.org/2000/svg">
<g filter="url(#filter0_b_887_50244)">
<path d="M45.375 72C31.0148 72 19.375 59.734 19.375 47.4142V17.5161C19.375 16.6805 20.1681 16 21.1422 16H69.6078C70.5819 16 71.375 16.6805 71.375 17.5161V47.4142C71.375 59.734 59.7352 72 45.375 72Z" fill="#277A64"/>
</g>
<g filter="url(#filter1_b_887_50244)">
<circle cx="73" cy="73" r="39" fill="#F3FAF8" fill-opacity="0.2"/>
<circle cx="73" cy="73" r="38" stroke="url(#paint0_linear_887_50244)" stroke-width="2"/>
</g>
<path d="M87.6154 49.1602H58.3846C55.9668 49.1602 54 51.1265 54 53.5436V65.233C54 67.6502 55.9668 69.6165 58.3846 69.6165H69.4718L71.9666 72.1107C72.252 72.3961 72.6261 72.5387 73 72.5387C73.3739 72.5387 73.7478 72.3961 74.0334 72.1107L76.5282 69.6165H87.6154C90.0332 69.6165 92 67.6502 92 65.233V53.5436C92 51.1265 90.0332 49.1602 87.6154 49.1602ZM67.4622 59.8748L66.5953 60.1565L67.1311 60.8936C67.6063 61.5472 67.4607 62.4603 66.8085 62.9341C66.1496 63.4118 65.2376 63.2603 64.7675 62.6117L64.2309 61.8732L63.6943 62.6117C63.2241 63.2603 62.3123 63.412 61.6533 62.9341C61.001 62.4603 60.8555 61.5472 61.3307 60.8936L61.8665 60.1565L60.9996 59.8748C60.2317 59.6251 59.8107 58.8005 60.0604 58.0341C60.3116 57.2663 61.1323 56.8454 61.9017 57.0951L62.7694 57.377V56.4657C62.7694 55.6582 63.4232 55.0046 64.231 55.0046C65.0389 55.0046 65.6926 55.6582 65.6926 56.4657V57.377L66.5604 57.0951C67.3283 56.8439 68.1518 57.2663 68.4017 58.0341C68.6511 58.8005 68.2301 59.6251 67.4622 59.8748ZM76.2313 59.8748L75.3644 60.1565L75.9002 60.8936C76.3754 61.5472 76.2298 62.4603 75.5776 62.9341C74.9188 63.4118 74.0068 63.2603 73.5366 62.6117L73 61.8732L72.4634 62.6117C71.9932 63.2603 71.0814 63.412 70.4224 62.9341C69.7702 62.4603 69.6246 61.5472 70.0998 60.8936L70.6356 60.1565L69.7687 59.8748C69.0008 59.6251 68.5798 58.8005 68.8295 58.0341C69.0793 57.2663 69.9057 56.8454 70.6708 57.0951L71.5386 57.377V56.4657C71.5386 55.6582 72.1923 55.0046 73.0002 55.0046C73.808 55.0046 74.4618 55.6582 74.4618 56.4657V57.377L75.3295 57.0951C76.0946 56.8439 76.9209 57.2663 77.1708 58.0341C77.4203 58.8005 76.9992 59.6251 76.2313 59.8748ZM85.0006 59.8748L84.1337 60.1565L84.6695 60.8936C85.1447 61.5472 84.9991 62.4603 84.3469 62.9341C83.688 63.4118 82.776 63.2603 82.3059 62.6117L81.7693 61.8732L81.2327 62.6117C80.7625 63.2603 79.8507 63.412 79.1917 62.9341C78.5394 62.4603 78.3939 61.5472 78.8691 60.8936L79.4049 60.1565L78.538 59.8748C77.7701 59.6251 77.3491 58.8005 77.5988 58.0341C77.8485 57.2663 78.6722 56.8454 79.4401 57.0951L80.3078 57.377V56.4657C80.3078 55.6582 80.9616 55.0046 81.7694 55.0046C82.5773 55.0046 83.231 55.6582 83.231 56.4657V57.377L84.0988 57.0951C84.8609 56.8439 85.6889 57.2663 85.9401 58.0341C86.1895 58.8005 85.7685 59.6251 85.0006 59.8748ZM61.3077 84.2282H59.8461C57.4282 84.2282 55.4614 86.1945 55.4614 88.6117V90.0728C55.4614 92.49 57.4282 94.4563 59.8461 94.4563H62.7691C63.577 94.4563 64.2307 93.8028 64.2307 92.9952V84.2282C64.2307 79.3938 68.1643 75.4613 73 75.4613C77.8357 75.4613 81.7693 79.3938 81.7693 84.2282V94.4565C81.7693 95.2627 81.1142 95.9176 80.3077 95.9176H74.4616C73.6537 95.9176 73 96.5712 73 97.3787C73 98.1862 73.6537 98.8398 74.4616 98.8398H80.3077C82.7255 98.8398 84.6923 96.8735 84.6923 94.4563H86.1539C88.5718 94.4563 90.5386 92.49 90.5386 90.0728V88.6117C90.5386 86.1945 88.5718 84.2282 86.1539 84.2282H84.6923C84.6923 77.7829 79.447 72.5387 73 72.5387C66.553 72.5387 61.3077 77.7827 61.3077 84.2282Z" fill="url(#paint1_linear_887_50244)"/>
<defs>
<filter id="filter0_b_887_50244" x="7.375" y="4" width="76" height="80" filterUnits="userSpaceOnUse" color-interpolation-filters="sRGB">
<feFlood flood-opacity="0" result="BackgroundImageFix"/>
<feGaussianBlur in="BackgroundImageFix" stdDeviation="6"/>
<feComposite in2="SourceAlpha" operator="in" result="effect1_backgroundBlur_887_50244"/>
<feBlend mode="normal" in="SourceGraphic" in2="effect1_backgroundBlur_887_50244" result="shape"/>
</filter>
<filter id="filter1_b_887_50244" x="22" y="22" width="102" height="102" filterUnits="userSpaceOnUse" color-interpolation-filters="sRGB">
<feFlood flood-opacity="0" result="BackgroundImageFix"/>
<feGaussianBlur in="BackgroundImageFix" stdDeviation="6"/>
<feComposite in2="SourceAlpha" operator="in" result="effect1_backgroundBlur_887_50244"/>
<feBlend mode="normal" in="SourceGraphic" in2="effect1_backgroundBlur_887_50244" result="shape"/>
</filter>
<linearGradient id="paint0_linear_887_50244" x1="34" y1="38.4571" x2="125.095" y2="94.9102" gradientUnits="userSpaceOnUse">
<stop stop-color="white" stop-opacity="0.31"/>
<stop offset="1" stop-color="#277A64" stop-opacity="0.3"/>
</linearGradient>
<linearGradient id="paint1_linear_887_50244" x1="73" y1="98.8398" x2="73" y2="49.1602" gradientUnits="userSpaceOnUse">
<stop stop-color="#ABE4CF"/>
<stop offset="1" stop-color="#277A64"/>
</linearGradient>
</defs>
</svg>
