<svg width="128" height="128" viewBox="0 0 128 128" fill="none" xmlns="http://www.w3.org/2000/svg">
<circle cx="45" cy="45" r="29" fill="#277A64"/>
<g filter="url(#filter0_b_887_50239)">
<circle cx="73" cy="73" r="39" fill="#F3FAF8" fill-opacity="0.2"/>
<circle cx="73" cy="73" r="38" stroke="url(#paint0_linear_887_50239)" stroke-width="2"/>
</g>
<path d="M68.1965 81.0742V82.533C68.1965 85.5234 70.6311 87.9553 73.625 87.9553C76.6189 87.9553 79.0535 85.5234 79.0535 82.533V81.0742C82.3775 79.1521 84.4822 75.558 84.4822 71.6887V66.2666H62.7678V71.6887C62.7678 75.558 64.8725 79.152 68.1965 81.0742ZM84.4822 54.0666C84.4822 51.8242 82.6559 50 80.4108 50H66.8393C64.5943 50 62.768 51.8242 62.768 54.0666V63.5553H84.4823V54.0666H84.4822ZM76.3393 59.4887H74.9822V60.8442C74.9822 61.5935 74.3752 62.1998 73.625 62.1998C72.8748 62.1998 72.2678 61.5935 72.2678 60.8442V59.4887H70.9107C70.1604 59.4887 69.5535 58.8824 69.5535 58.1332C69.5535 57.3841 70.1606 56.7777 70.9107 56.7777H72.2678V55.4222C72.2678 54.6729 72.8748 54.0668 73.625 54.0668C74.3752 54.0668 74.9822 54.6731 74.9822 55.4222V56.7777H76.3393C77.0896 56.7777 77.6965 57.3841 77.6965 58.1332C77.6965 58.8825 77.0894 59.4887 76.3393 59.4887ZM73.625 90.6663C69.6376 90.6663 66.3256 87.7845 65.6305 83.9995L65.482 84.0591V96.0884H81.7677V84.0593L81.6192 83.9998C80.9241 87.7847 77.6124 90.6663 73.625 90.6663ZM86.7246 86.0463L84.4822 85.1473V96.0884H91.2678C92.0179 96.0884 92.625 95.482 92.625 94.7329C92.625 90.8952 90.3096 87.4851 86.7246 86.0463ZM54.625 94.7329C54.625 95.4822 55.2321 96.0884 55.9822 96.0884H62.7678V85.1469L60.524 86.0463C56.9404 87.4851 54.625 90.8952 54.625 94.7329Z" fill="url(#paint1_linear_887_50239)"/>
<defs>
<filter id="filter0_b_887_50239" x="22" y="22" width="102" height="102" filterUnits="userSpaceOnUse" color-interpolation-filters="sRGB">
<feFlood flood-opacity="0" result="BackgroundImageFix"/>
<feGaussianBlur in="BackgroundImageFix" stdDeviation="6"/>
<feComposite in2="SourceAlpha" operator="in" result="effect1_backgroundBlur_887_50239"/>
<feBlend mode="normal" in="SourceGraphic" in2="effect1_backgroundBlur_887_50239" result="shape"/>
</filter>
<linearGradient id="paint0_linear_887_50239" x1="34" y1="38.4571" x2="125.095" y2="94.9102" gradientUnits="userSpaceOnUse">
<stop stop-color="white" stop-opacity="0.31"/>
<stop offset="1" stop-color="#277A64" stop-opacity="0.3"/>
</linearGradient>
<linearGradient id="paint1_linear_887_50239" x1="73.625" y1="96.0884" x2="73.625" y2="50" gradientUnits="userSpaceOnUse">
<stop stop-color="#ABE4CF"/>
<stop offset="1" stop-color="#277A64"/>
</linearGradient>
</defs>
</svg>
