<svg width="128" height="128" viewBox="0 0 128 128" fill="none" xmlns="http://www.w3.org/2000/svg">
<rect x="11.375" y="22" width="68" height="44" rx="2" fill="#277A64"/>
<g filter="url(#filter0_b_887_50249)">
<circle cx="73" cy="73" r="39" fill="#F3FAF8" fill-opacity="0.2"/>
<circle cx="73" cy="73" r="38" stroke="url(#paint0_linear_887_50249)" stroke-width="2"/>
</g>
<path d="M69.3379 61.3749C67.4015 63.3113 65.1254 66.0289 62.5775 69.4262C59.6049 73.316 57.3289 76.8149 57.2948 76.8489C56.9891 77.3244 57.04 77.9531 57.4477 78.3607L61.6942 82.6072L65.9407 78.3607C66.4163 77.8851 67.1636 77.8851 67.6392 78.3607C68.1148 78.8364 68.1148 79.5836 67.6392 80.0593L63.3927 84.3058L67.6392 88.5523C68.0469 88.9599 68.6754 89.0108 69.151 88.7051C69.185 88.6711 72.684 86.395 76.5738 83.4225C79.971 80.8746 82.6886 78.5986 84.6251 76.6621C87.2918 73.9953 89.2791 70.7511 90.5191 67.2688L78.731 55.4807C75.249 56.7209 72.0048 58.7081 69.3379 61.3749ZM81.2387 64.7317C81.5465 65.0395 81.7122 65.494 81.5677 65.9271L80.4976 69.1034L82.5019 71.7872C82.7737 72.1609 82.8247 72.6534 82.6208 73.061C82.417 73.4687 81.9923 73.7235 81.5167 73.7235L78.1706 73.6725L76.2343 76.4243C75.9625 76.798 75.5039 76.9847 75.0621 76.9169C74.6408 76.8325 74.2801 76.5495 74.0939 76.0844L73.0918 72.8741L69.8984 71.8889C69.4738 71.7361 69.151 71.3794 69.066 70.9207C68.9982 70.4791 69.185 70.0205 69.5587 69.7487L72.3103 67.8123L72.2593 64.4662C72.2593 63.9905 72.5142 63.5659 72.9219 63.362C73.3295 63.1582 73.822 63.2091 74.1787 63.464L76.8795 65.4854L80.0558 64.4153C80.4807 64.2624 80.9309 64.4238 81.2387 64.7317ZM59.1464 86.8536C58.677 86.3842 57.9172 86.3842 57.4478 86.8536L52.3521 91.9493C51.8826 92.4188 51.8826 93.1785 52.3521 93.6479C52.8215 94.1173 53.5812 94.1173 54.0506 93.6479L59.1464 88.5521C59.6159 88.0829 59.6159 87.3231 59.1464 86.8536ZM54.0506 86.8536L57.4478 83.4565C57.9172 82.9871 57.9172 82.2274 57.4478 81.758C56.9784 81.2885 56.2187 81.2885 55.7493 81.758L52.3522 85.155C51.8828 85.6244 51.8828 86.3842 52.3522 86.8536C52.8215 87.3231 53.5812 87.3231 54.0506 86.8536ZM62.5436 88.5523L59.1464 91.9495C58.677 92.4189 58.677 93.1786 59.1464 93.648C59.6158 94.1174 60.3755 94.1174 60.8449 93.648L64.242 90.2508C64.7114 89.7814 64.7114 89.0217 64.242 88.5523C63.7727 88.0829 63.013 88.0829 62.5436 88.5523ZM60.845 83.4565C60.3695 83.932 60.3694 84.6794 60.845 85.155C61.3207 85.6307 62.0681 85.6305 62.5436 85.155L63.3929 84.3058L61.6943 82.6072L60.845 83.4565ZM75.9391 67.7868L74.6934 66.8579L74.7133 68.4123C74.7183 68.807 74.5284 69.1794 74.2057 69.4075L72.9376 70.3056L74.4205 70.7668C74.8054 70.8862 75.0974 71.1871 75.211 71.5573L75.6738 73.0419L76.5711 71.7729C76.7992 71.4503 77.1717 71.2603 77.5664 71.2654L79.1207 71.2852L78.1918 70.0395C77.9546 69.7227 77.889 69.3105 78.0168 68.9357L78.5162 67.4627L77.0432 67.9621C76.6681 68.0896 76.2559 68.024 75.9391 67.7868ZM91.7587 55.2598C91.684 54.7307 91.2693 54.316 90.7402 54.2412C87.5831 53.7905 84.4039 53.985 81.3583 54.7109L91.2889 64.6415C92.015 61.5961 92.2096 58.4169 91.7587 55.2598ZM52.8215 76.9524L54.735 77.5903C54.7187 76.8783 54.8742 76.1586 55.2856 75.5333C55.2856 75.5333 57.3772 72.3477 60.18 68.6023C57.7748 68.8753 55.5335 70.1576 54.122 72.2746L52.2028 75.1459C51.9946 75.4569 51.944 75.8476 52.0652 76.2026C52.1879 76.5578 52.4666 76.8341 52.8215 76.9524ZM68.4114 91.2699L69.0476 93.1786C69.1657 93.5331 69.4419 93.812 69.7974 93.935C70.1523 94.0561 70.5429 94.0055 70.8541 93.7974L73.7254 91.8782C75.8423 90.4668 77.1244 88.2256 77.3976 85.8211C73.6484 88.6268 70.4511 90.7247 70.4245 90.7419C69.8205 91.1391 69.114 91.2879 68.4114 91.2699Z" fill="url(#paint1_linear_887_50249)"/>
<defs>
<filter id="filter0_b_887_50249" x="22" y="22" width="102" height="102" filterUnits="userSpaceOnUse" color-interpolation-filters="sRGB">
<feFlood flood-opacity="0" result="BackgroundImageFix"/>
<feGaussianBlur in="BackgroundImageFix" stdDeviation="6"/>
<feComposite in2="SourceAlpha" operator="in" result="effect1_backgroundBlur_887_50249"/>
<feBlend mode="normal" in="SourceGraphic" in2="effect1_backgroundBlur_887_50249" result="shape"/>
</filter>
<linearGradient id="paint0_linear_887_50249" x1="34" y1="38.4571" x2="125.095" y2="94.9102" gradientUnits="userSpaceOnUse">
<stop stop-color="white" stop-opacity="0.31"/>
<stop offset="1" stop-color="#277A64" stop-opacity="0.3"/>
</linearGradient>
<linearGradient id="paint1_linear_887_50249" x1="72" y1="94.0001" x2="72" y2="54" gradientUnits="userSpaceOnUse">
<stop stop-color="#ABE4CF"/>
<stop offset="1" stop-color="#277A64"/>
</linearGradient>
</defs>
</svg>
