<svg width="128" height="128" viewBox="0 0 128 128" fill="none" xmlns="http://www.w3.org/2000/svg">
<path d="M43.6429 9C44.4127 7.66667 46.3373 7.66667 47.1071 9L76.5519 60C77.3217 61.3333 76.3595 63 74.8199 63H15.9301C14.3905 63 13.4283 61.3333 14.1981 60L43.6429 9Z" fill="#277A64"/>
<g filter="url(#filter0_b_887_50254)">
<circle cx="73" cy="73" r="39" fill="#F3FAF8" fill-opacity="0.2"/>
<circle cx="73" cy="73" r="38" stroke="url(#paint0_linear_887_50254)" stroke-width="2"/>
</g>
<path d="M70.8263 61.6231V58.4981C70.8263 57.8509 71.351 57.3262 71.9982 57.3262C72.6454 57.3262 73.1702 57.8508 73.1702 58.4981V61.6231C73.1702 62.2703 72.6455 62.7951 71.9982 62.7951C71.3511 62.7951 70.8263 62.2704 70.8263 61.6231ZM65.1241 63.6926C65.3411 64.0686 65.735 64.2786 66.1399 64.2786C66.3388 64.2786 66.5402 64.228 66.7249 64.1214C67.2854 63.7978 67.4774 63.0812 67.1537 62.5206L65.5912 59.8143C65.2676 59.2537 64.5508 59.0617 63.9904 59.3854C63.4299 59.709 63.2378 60.4257 63.5615 60.9862L65.1241 63.6926ZM77.2716 64.1214C77.4561 64.228 77.6577 64.2786 77.8565 64.2786C78.2614 64.2786 78.6554 64.0684 78.8724 63.6926L80.435 60.9862C80.7585 60.4257 80.5666 59.709 80.0061 59.3854C79.4456 59.0617 78.7289 59.2537 78.4053 59.8143L76.8428 62.5206C76.5192 63.0812 76.7111 63.7978 77.2716 64.1214ZM74.4681 67.5874C74.3021 67.5874 74.136 67.5939 73.97 67.607C74.0458 67.6777 74.1206 67.7499 74.1941 67.8236L77.5363 71.1657C78.6024 72.2318 78.6024 73.9666 77.5363 75.0327C75.8609 76.7081 73.1348 76.7081 71.4596 75.0327L69.8359 73.409C68.768 72.3412 67.0366 72.3411 65.9688 73.409L65.1504 74.2274L57.9831 81.3949C57.3729 82.0051 57.3729 82.9943 57.9831 83.6045C58.5933 84.2147 59.5826 84.2147 60.1928 83.6045L66.5223 77.275C66.9686 76.8288 67.6955 76.7877 68.1621 77.2125C68.6604 77.666 68.674 78.4379 68.203 78.9088L63.5074 83.6044C62.8972 84.2146 62.8972 85.2039 63.5074 85.8141C64.1176 86.4243 65.1068 86.4243 65.717 85.8141L70.9651 80.566C71.4227 80.1082 72.1647 80.1082 72.6224 80.566C72.8511 80.7949 72.9655 81.0947 72.9655 81.3946C72.9655 81.6945 72.8511 81.9945 72.6224 82.2232L69.3528 85.4926C68.7446 86.1008 68.7243 87.1154 69.3078 87.7475C69.8911 88.3794 70.8661 88.399 71.4741 87.7908L75.3845 83.8804C75.8422 83.4228 76.5842 83.4228 77.0417 83.8804C77.4995 84.338 77.4995 85.08 77.0417 85.5377L75.1347 87.4447C74.5356 88.0438 74.4912 89.0199 75.0686 89.6398C75.6748 90.2907 76.6943 90.3043 77.3179 89.6808L88.1309 78.8678C88.3506 78.6481 88.6488 78.5247 88.9595 78.5247H90.8261C91.4733 78.5247 91.998 78 91.998 77.3527V68.7589C91.998 68.1118 91.4734 67.587 90.8261 67.587L74.4681 67.5874ZM75.8791 72.8229L72.5369 69.4808C72.0206 68.9645 71.4323 68.5462 70.7947 68.2355C70.7421 68.2151 70.6911 68.1911 70.6418 68.1634C69.8124 67.7859 68.9045 67.5874 67.9659 67.5874H53.17C52.5228 67.5874 51.998 68.112 51.998 68.7593V77.3531C51.998 78.0003 52.5227 78.5251 53.17 78.5251H55.0366C55.3475 78.5251 55.6455 78.6485 55.8652 78.8682L56.5301 79.5331L64.3115 71.7518C66.2915 69.7718 69.5131 69.7718 71.4931 71.7518L73.1168 73.3755C73.8783 74.137 75.1173 74.1371 75.8791 73.3755C76.0314 73.223 76.0314 72.9752 75.8791 72.8229Z" fill="url(#paint1_linear_887_50254)"/>
<defs>
<filter id="filter0_b_887_50254" x="22" y="22" width="102" height="102" filterUnits="userSpaceOnUse" color-interpolation-filters="sRGB">
<feFlood flood-opacity="0" result="BackgroundImageFix"/>
<feGaussianBlur in="BackgroundImageFix" stdDeviation="6"/>
<feComposite in2="SourceAlpha" operator="in" result="effect1_backgroundBlur_887_50254"/>
<feBlend mode="normal" in="SourceGraphic" in2="effect1_backgroundBlur_887_50254" result="shape"/>
</filter>
<linearGradient id="paint0_linear_887_50254" x1="34" y1="38.4571" x2="125.095" y2="94.9102" gradientUnits="userSpaceOnUse">
<stop stop-color="white" stop-opacity="0.31"/>
<stop offset="1" stop-color="#277A64" stop-opacity="0.3"/>
</linearGradient>
<linearGradient id="paint1_linear_887_50254" x1="71.998" y1="90.1384" x2="71.998" y2="57.3262" gradientUnits="userSpaceOnUse">
<stop stop-color="#ABE4CF"/>
<stop offset="1" stop-color="#277A64"/>
</linearGradient>
</defs>
</svg>
