<?xml version="1.0" encoding="utf-8"?>
<!-- Generator: Adobe Illustrator 24.3.0, SVG Export Plug-In . SVG Version: 6.00 Build 0)  -->
<svg version="1.1" id="레이어_1" xmlns="http://www.w3.org/2000/svg" xmlns:xlink="http://www.w3.org/1999/xlink" x="0px"
	 y="0px" viewBox="0 0 68.031 68.031" style="enable-background:new 0 0 68.031 68.031;" xml:space="preserve">
<g>
	<path d="M34.766,15.185c0-0.414-0.336-0.75-0.75-0.75s-0.75,0.336-0.75,0.75H34.766z"/>
	<path d="M34.016,34.016h-0.75c0,0.414,0.336,0.75,0.75,0.75V34.016z"/>
	<path d="M48.658,34.766c0.414,0,0.75-0.336,0.75-0.75s-0.336-0.75-0.75-0.75V34.766z"/>
	<path d="M34.766,6.814c0-0.414-0.336-0.75-0.75-0.75s-0.75,0.336-0.75,0.75H34.766z"/>
	<path d="M33.266,8.913c0,0.414,0.336,0.75,0.75,0.75s0.75-0.336,0.75-0.75H33.266z"/>
	<path d="M33.266,61.218c0,0.414,0.336,0.75,0.75,0.75s0.75-0.336,0.75-0.75H33.266z"/>
	<path d="M34.766,59.127c0-0.414-0.336-0.75-0.75-0.75s-0.75,0.336-0.75,0.75H34.766z"/>
	<path d="M61.217,34.766c0.415,0,0.75-0.336,0.75-0.75s-0.335-0.75-0.75-0.75V34.766z"/>
	<path d="M59.127,33.266c-0.414,0-0.75,0.336-0.75,0.75s0.336,0.75,0.75,0.75V33.266z"/>
	<path d="M6.814,33.266c-0.414,0-0.75,0.336-0.75,0.75s0.336,0.75,0.75,0.75V33.266z"/>
	<path d="M8.913,34.766c0.414,0,0.75-0.336,0.75-0.75s-0.336-0.75-0.75-0.75V34.766z"/>
	<path d="M53.781,15.312c0.293-0.293,0.293-0.768,0-1.061c-0.293-0.293-0.767-0.293-1.06,0L53.781,15.312z"/>
	<path d="M51.239,15.733c-0.293,0.292-0.293,0.767,0,1.06c0.293,0.293,0.768,0.293,1.061,0L51.239,15.733z"/>
	<path d="M14.252,52.72c-0.293,0.293-0.293,0.768,0,1.061c0.292,0.293,0.767,0.293,1.06,0L14.252,52.72z"/>
	<path d="M16.794,52.299c0.293-0.292,0.293-0.767,0-1.06c-0.293-0.293-0.768-0.293-1.061,0L16.794,52.299z"/>
	<path d="M52.721,53.781c0.293,0.293,0.767,0.293,1.06,0c0.293-0.293,0.293-0.768,0-1.061L52.721,53.781z"/>
	<path d="M52.3,51.239c-0.293-0.293-0.768-0.293-1.061,0c-0.293,0.293-0.293,0.768,0,1.06L52.3,51.239z"/>
	<path d="M15.312,14.251c-0.293-0.293-0.768-0.293-1.06,0c-0.293,0.293-0.293,0.768,0,1.061L15.312,14.251z"/>
	<path d="M15.733,16.793c0.293,0.293,0.768,0.293,1.061,0c0.293-0.293,0.293-0.768,0-1.06L15.733,16.793z"/>
	<path d="M64.649,34.016c0,16.918-13.715,30.633-30.633,30.633v1.5c17.746,0,32.133-14.387,32.133-32.133H64.649z"/>
	<path d="M34.016,64.649c-16.918,0-30.633-13.715-30.633-30.633h-1.5c0,17.746,14.386,32.133,32.133,32.133V64.649z"/>
	<path d="M3.383,34.016c0-16.918,13.715-30.633,30.633-30.633v-1.5c-17.747,0-32.133,14.387-32.133,32.133H3.383z"/>
	<path d="M34.016,3.383c16.918,0,30.633,13.715,30.633,30.633h1.5c0-17.746-14.387-32.133-32.133-32.133V3.383z"/>
	<rect x="33.266" y="15.185" width="1.5" height="18.831"/>
	<rect x="34.016" y="33.266" width="14.642" height="1.5"/>
	<rect x="33.266" y="6.814" width="1.5" height="2.099"/>
	<rect x="33.266" y="59.127" width="1.5" height="2.091"/>
	<rect x="59.127" y="33.266" width="2.09" height="1.5"/>
	<rect x="6.814" y="33.266" width="2.099" height="1.5"/>
	<rect x="51.462" y="14.772" transform="matrix(0.7071 -0.7071 0.7071 0.7071 4.4041 41.6765)" width="2.095" height="1.5"/>
	<rect x="14.475" y="51.76" transform="matrix(0.7071 -0.7071 0.7071 0.7071 -32.5831 26.3552)" width="2.095" height="1.5"/>
	<rect x="51.76" y="51.462" transform="matrix(0.7071 -0.7071 0.7071 0.7071 -21.75 52.5106)" width="1.5" height="2.095"/>
	<rect x="14.773" y="14.474" transform="matrix(0.7071 -0.7071 0.7071 0.7071 -6.4293 15.5226)" width="1.5" height="2.095"/>
</g>
</svg>
