<?xml version="1.0" encoding="utf-8"?>
<!-- Generator: Adobe Illustrator 24.3.0, SVG Export Plug-In . SVG Version: 6.00 Build 0)  -->
<svg version="1.1" id="레이어_1" xmlns="http://www.w3.org/2000/svg" xmlns:xlink="http://www.w3.org/1999/xlink" x="0px"
	 y="0px" viewBox="0 0 68.031 68.031" style="enable-background:new 0 0 68.031 68.031;" xml:space="preserve">
<g>
	<path d="M2.016,2.016v-0.75c-0.414,0-0.75,0.336-0.75,0.75H2.016z"/>
	<path d="M66.016,2.016h0.75c0-0.414-0.336-0.75-0.75-0.75V2.016z"/>
	<path d="M66.016,66.016v0.75c0.414,0,0.75-0.336,0.75-0.75H66.016z"/>
	<path d="M2.016,66.016h-0.75c0,0.414,0.336,0.75,0.75,0.75V66.016z"/>
	<rect x="2.016" y="1.266" width="64" height="1.5"/>
	<rect x="65.266" y="2.016" width="1.5" height="64"/>
	<rect x="2.016" y="65.266" width="64" height="1.5"/>
	<rect x="1.266" y="2.016" width="1.5" height="64"/>
	<path d="M19.927,15.349c0,2.529-2.05,4.579-4.579,4.579v1.5c3.358,0,6.079-2.722,6.079-6.079H19.927z"/>
	<path d="M15.348,19.928c-2.528,0-4.579-2.05-4.579-4.579h-1.5c0,3.357,2.722,6.079,6.079,6.079V19.928z"/>
	<path d="M10.769,15.349c0-2.529,2.051-4.579,4.579-4.579v-1.5c-3.357,0-6.079,2.722-6.079,6.079H10.769z"/>
	<path d="M15.348,10.77c2.529,0,4.579,2.05,4.579,4.579h1.5c0-3.357-2.721-6.079-6.079-6.079V10.77z"/>
	<path d="M38.589,15.349c0,2.529-2.05,4.579-4.579,4.579v1.5c3.357,0,6.079-2.722,6.079-6.079H38.589z"/>
	<path d="M34.01,19.928c-2.529,0-4.579-2.05-4.579-4.579h-1.5c0,3.357,2.722,6.079,6.079,6.079V19.928z"/>
	<path d="M29.431,15.349c0-2.529,2.05-4.579,4.579-4.579v-1.5c-3.357,0-6.079,2.722-6.079,6.079H29.431z"/>
	<path d="M34.01,10.77c2.529,0,4.579,2.05,4.579,4.579h1.5c0-3.357-2.722-6.079-6.079-6.079V10.77z"/>
	<path d="M57.262,15.349c0,2.529-2.05,4.579-4.579,4.579v1.5c3.357,0,6.079-2.722,6.079-6.079H57.262z"/>
	<path d="M52.683,19.928c-2.529,0-4.579-2.05-4.579-4.579h-1.5c0,3.357,2.721,6.079,6.079,6.079V19.928z"/>
	<path d="M48.104,15.349c0-2.529,2.05-4.579,4.579-4.579v-1.5c-3.358,0-6.079,2.722-6.079,6.079H48.104z"/>
	<path d="M52.683,10.77c2.529,0,4.579,2.05,4.579,4.579h1.5c0-3.357-2.722-6.079-6.079-6.079V10.77z"/>
	<path d="M19.927,34.011c0,2.529-2.05,4.579-4.579,4.579v1.5c3.358,0,6.079-2.722,6.079-6.079H19.927z"/>
	<path d="M15.348,38.59c-2.528,0-4.579-2.05-4.579-4.579h-1.5c0,3.357,2.722,6.079,6.079,6.079V38.59z"/>
	<path d="M10.769,34.011c0-2.529,2.051-4.579,4.579-4.579v-1.5c-3.357,0-6.079,2.721-6.079,6.079H10.769z"/>
	<path d="M15.348,29.432c2.529,0,4.579,2.05,4.579,4.579h1.5c0-3.358-2.721-6.079-6.079-6.079V29.432z"/>
	<path d="M38.589,34.011c0,2.529-2.05,4.579-4.579,4.579v1.5c3.357,0,6.079-2.722,6.079-6.079H38.589z"/>
	<path d="M34.01,38.59c-2.529,0-4.579-2.05-4.579-4.579h-1.5c0,3.357,2.722,6.079,6.079,6.079V38.59z"/>
	<path d="M29.431,34.011c0-2.529,2.05-4.579,4.579-4.579v-1.5c-3.357,0-6.079,2.721-6.079,6.079H29.431z"/>
	<path d="M34.01,29.432c2.529,0,4.579,2.05,4.579,4.579h1.5c0-3.358-2.722-6.079-6.079-6.079V29.432z"/>
	<path d="M57.262,34.011c0,2.529-2.05,4.579-4.579,4.579v1.5c3.357,0,6.079-2.722,6.079-6.079H57.262z"/>
	<path d="M52.683,38.59c-2.529,0-4.579-2.05-4.579-4.579h-1.5c0,3.357,2.721,6.079,6.079,6.079V38.59z"/>
	<path d="M48.104,34.011c0-2.529,2.05-4.579,4.579-4.579v-1.5c-3.358,0-6.079,2.721-6.079,6.079H48.104z"/>
	<path d="M52.683,29.432c2.529,0,4.579,2.05,4.579,4.579h1.5c0-3.358-2.722-6.079-6.079-6.079V29.432z"/>
	<path d="M19.927,52.683c0,2.529-2.05,4.579-4.579,4.579v1.5c3.358,0,6.079-2.722,6.079-6.079H19.927z"/>
	<path d="M15.348,57.262c-2.528,0-4.579-2.05-4.579-4.579h-1.5c0,3.357,2.722,6.079,6.079,6.079V57.262z"/>
	<path d="M10.769,52.683c0-2.529,2.051-4.579,4.579-4.579v-1.5c-3.357,0-6.079,2.722-6.079,6.079H10.769z"/>
	<path d="M15.348,48.104c2.529,0,4.579,2.05,4.579,4.579h1.5c0-3.357-2.721-6.079-6.079-6.079V48.104z"/>
	<path d="M38.589,52.683c0,2.529-2.05,4.579-4.579,4.579v1.5c3.357,0,6.079-2.722,6.079-6.079H38.589z"/>
	<path d="M34.01,57.262c-2.529,0-4.579-2.05-4.579-4.579h-1.5c0,3.357,2.722,6.079,6.079,6.079V57.262z"/>
	<path d="M29.431,52.683c0-2.529,2.05-4.579,4.579-4.579v-1.5c-3.357,0-6.079,2.722-6.079,6.079H29.431z"/>
	<path d="M34.01,48.104c2.529,0,4.579,2.05,4.579,4.579h1.5c0-3.357-2.722-6.079-6.079-6.079V48.104z"/>
	<path d="M57.262,52.683c0,2.529-2.05,4.579-4.579,4.579v1.5c3.357,0,6.079-2.722,6.079-6.079H57.262z"/>
	<path d="M52.683,57.262c-2.529,0-4.579-2.05-4.579-4.579h-1.5c0,3.357,2.721,6.079,6.079,6.079V57.262z"/>
	<path d="M48.104,52.683c0-2.529,2.05-4.579,4.579-4.579v-1.5c-3.358,0-6.079,2.722-6.079,6.079H48.104z"/>
	<path d="M52.683,48.104c2.529,0,4.579,2.05,4.579,4.579h1.5c0-3.357-2.722-6.079-6.079-6.079V48.104z"/>
</g>
</svg>
