<?xml version="1.0" encoding="utf-8"?>
<!-- Generator: Adobe Illustrator 24.3.0, SVG Export Plug-In . SVG Version: 6.00 Build 0)  -->
<svg version="1.1" id="레이어_1" xmlns="http://www.w3.org/2000/svg" xmlns:xlink="http://www.w3.org/1999/xlink" x="0px"
	 y="0px" viewBox="0 0 68.031 68.031" style="enable-background:new 0 0 68.031 68.031;" xml:space="preserve">
<style type="text/css">
	.st0{fill:none;stroke:#000000;stroke-width:1.5;stroke-linecap:round;stroke-linejoin:round;}
</style>
<g>
	<path d="M15.217,24.913v16.239h-2.395V27.983c-1.08,0.485-2.201,0.874-3.35,1.16L9.184,28.32c1.828-0.844,3.498-1.993,4.938-3.399
		L15.217,24.913z"/>
	<path d="M24.024,24.575c4.058,0,5.877,3.794,5.877,8.461c0,4.428-2.469,8.592-6.346,8.519c-3.877-0.074-5.885-3.934-5.885-8.494
		C17.67,28.501,20.098,24.575,24.024,24.575z M26.559,27.868c-0.502-1.391-1.375-2.107-2.609-2.107
		c-0.646-0.001-1.275,0.209-1.79,0.601c-0.515,0.391-0.886,0.941-1.058,1.564c-0.619,1.631-0.915,3.367-0.872,5.111
		c-0.036,1.746,0.222,3.485,0.765,5.144c0.527,1.424,1.399,2.132,2.634,2.132c0.645,0.002,1.273-0.208,1.788-0.597
		c0.515-0.39,0.887-0.937,1.06-1.559c0.616-1.643,0.912-3.389,0.872-5.144c0.043-1.74-0.225-3.473-0.79-5.119V27.868z"/>
	<path d="M37.786,24.575c4.058,0,5.877,3.794,5.877,8.461c0,4.428-2.469,8.592-6.346,8.519c-3.877-0.074-5.885-3.934-5.885-8.494
		C31.432,28.501,33.86,24.575,37.786,24.575z M40.321,27.868c-0.502-1.391-1.375-2.107-2.609-2.107
		c-0.646-0.001-1.275,0.209-1.79,0.601c-0.515,0.391-0.886,0.941-1.058,1.564c-0.619,1.631-0.915,3.367-0.872,5.111
		c-0.036,1.746,0.222,3.485,0.765,5.144c0.527,1.424,1.399,2.132,2.634,2.132c0.645,0.002,1.273-0.208,1.788-0.597
		c0.514-0.39,0.887-0.937,1.06-1.559c0.616-1.643,0.912-3.389,0.872-5.144c0.043-1.74-0.225-3.473-0.79-5.119V27.868z"/>
	<path d="M48.303,24.575c0.465-0.026,0.929,0.056,1.358,0.238c0.428,0.183,0.809,0.462,1.111,0.815
		c0.587,0.686,0.898,1.566,0.872,2.469c0.012,0.455-0.067,0.907-0.232,1.331c-0.165,0.424-0.414,0.81-0.73,1.137
		c-0.317,0.327-0.695,0.587-1.114,0.765c-0.418,0.178-0.868,0.271-1.323,0.273c-0.459,0.011-0.916-0.071-1.342-0.242
		c-0.426-0.171-0.813-0.428-1.137-0.754c-0.324-0.326-0.577-0.715-0.745-1.142c-0.168-0.427-0.247-0.885-0.233-1.344
		c-0.015-0.467,0.066-0.932,0.237-1.367c0.171-0.435,0.429-0.83,0.758-1.162c0.329-0.332,0.722-0.593,1.155-0.768
		C47.372,24.65,47.836,24.565,48.303,24.575L48.303,24.575z M56.583,24.946h1.761l-10.56,16.239H46.04L56.583,24.946z
		 M48.279,25.366c-1.054,0-1.646,1.21-1.646,2.716c0,1.506,0.609,2.691,1.646,2.691c1.037,0,1.556-1.16,1.556-2.716
		C49.834,26.501,49.332,25.366,48.279,25.366L48.279,25.366z M56.394,34.543c0.465-0.025,0.929,0.057,1.357,0.24
		c0.428,0.183,0.808,0.461,1.112,0.813c0.557,0.681,0.85,1.54,0.823,2.42c-0.01,0.677-0.22,1.336-0.605,1.894
		c-0.384,0.557-0.925,0.989-1.555,1.239c-0.629,0.25-1.319,0.308-1.981,0.166c-0.662-0.142-1.267-0.477-1.739-0.962
		c-0.472-0.486-0.789-1.1-0.912-1.766c-0.123-0.666-0.045-1.353,0.223-1.975s0.715-1.15,1.283-1.518
		c0.568-0.368,1.233-0.559,1.91-0.55H56.394z M56.394,35.366c-1.054,0-1.646,1.21-1.646,2.716c0,1.506,0.601,2.683,1.646,2.683
		c1.045,0,1.589-1.16,1.589-2.716c0-1.556-0.56-2.716-1.613-2.716L56.394,35.366z"/>
	<path class="st0" d="M64.648,34.016c0,16.918-13.715,30.633-30.633,30.633S3.383,50.934,3.383,34.016S17.098,3.383,34.016,3.383
		S64.648,17.098,64.648,34.016z"/>
</g>
</svg>
