<?xml version="1.0" encoding="utf-8"?>
<!-- Generator: Adobe Illustrator 24.3.0, SVG Export Plug-In . SVG Version: 6.00 Build 0)  -->
<svg version="1.1" id="레이어_1" xmlns="http://www.w3.org/2000/svg" xmlns:xlink="http://www.w3.org/1999/xlink" x="0px"
	 y="0px" viewBox="0 0 68.031 68.031" style="enable-background:new 0 0 68.031 68.031;" xml:space="preserve">
<path d="M49.024,17.634h-0.75c0,0.199,0.079,0.39,0.22,0.53L49.024,17.634z"/>
<path d="M49.024,8.736h0.75c0-0.414-0.336-0.75-0.75-0.75V8.736z"/>
<path d="M40.126,8.736l-0.53,0.53c0.141,0.141,0.331,0.22,0.53,0.22V8.736z"/>
<path d="M33.841,2.452l0.53-0.53c-0.293-0.293-0.768-0.293-1.061,0L33.841,2.452z"/>
<path d="M27.557,8.736v0.75c0.199,0,0.39-0.079,0.53-0.22L27.557,8.736z"/>
<path d="M18.659,8.736v-0.75c-0.414,0-0.75,0.336-0.75,0.75H18.659z"/>
<path d="M18.659,17.634l0.53,0.53c0.141-0.141,0.22-0.331,0.22-0.53H18.659z"/>
<path d="M12.375,23.918l-0.53-0.53c-0.141,0.141-0.22,0.331-0.22,0.53s0.079,0.39,0.22,0.53L12.375,23.918z"/>
<path d="M18.659,30.203h0.75c0-0.199-0.079-0.39-0.22-0.53L18.659,30.203z"/>
<path d="M18.659,39.101h-0.75c0,0.414,0.336,0.75,0.75,0.75V39.101z"/>
<path d="M27.557,39.101l0.53-0.53c-0.141-0.141-0.331-0.22-0.53-0.22V39.101z"/>
<path d="M33.841,45.385l-0.53,0.53c0.293,0.293,0.768,0.293,1.061,0L33.841,45.385z"/>
<path d="M40.126,39.101v-0.75c-0.199,0-0.39,0.079-0.53,0.22L40.126,39.101z"/>
<path d="M49.024,39.101v0.75c0.414,0,0.75-0.336,0.75-0.75H49.024z"/>
<path d="M49.024,30.203l-0.53-0.53c-0.141,0.141-0.22,0.331-0.22,0.53H49.024z"/>
<path d="M55.308,23.918l0.53,0.53c0.293-0.293,0.293-0.768,0-1.061L55.308,23.918z"/>
<path d="M45.89,43.127c0-0.414-0.336-0.75-0.75-0.75s-0.75,0.336-0.75,0.75H45.89z"/>
<path d="M45.14,65.723l-0.408,0.629c0.231,0.149,0.525,0.161,0.766,0.03c0.241-0.131,0.392-0.384,0.392-0.659H45.14z"/>
<path d="M33.842,58.398l0.408-0.629c-0.248-0.161-0.568-0.161-0.816,0L33.842,58.398z"/>
<path d="M22.544,65.723h-0.75c0,0.275,0.15,0.528,0.392,0.659c0.242,0.131,0.535,0.12,0.766-0.03L22.544,65.723z"/>
<path d="M23.294,43.127c0-0.414-0.336-0.75-0.75-0.75c-0.414,0-0.75,0.336-0.75,0.75H23.294z"/>
<path d="M28.576,61.332c0,0.414,0.336,0.75,0.75,0.75s0.75-0.336,0.75-0.75H28.576z"/>
<path d="M30.076,47.643c0-0.414-0.336-0.75-0.75-0.75s-0.75,0.336-0.75,0.75H30.076z"/>
<path d="M37.607,61.332c0,0.414,0.336,0.75,0.75,0.75s0.75-0.336,0.75-0.75H37.607z"/>
<path d="M39.107,47.643c0-0.414-0.336-0.75-0.75-0.75s-0.75,0.336-0.75,0.75H39.107z"/>
<rect x="48.274" y="8.736" width="1.5" height="8.898"/>
<rect x="40.126" y="7.986" width="8.898" height="1.5"/>
<rect x="36.234" y="1.15" transform="matrix(0.7071 -0.7071 0.7071 0.7071 6.8768 27.7899)" width="1.5" height="8.888"/>
<rect x="26.255" y="4.844" transform="matrix(0.7071 -0.7071 0.7071 0.7071 5.0359 23.3459)" width="8.888" height="1.5"/>
<rect x="18.659" y="7.986" width="8.898" height="1.5"/>
<rect x="17.909" y="8.736" width="1.5" height="8.898"/>
<rect x="11.073" y="20.026" transform="matrix(0.7071 -0.7071 0.7071 0.7071 -10.1462 17.0573)" width="8.888" height="1.5"/>
<rect x="14.767" y="22.617" transform="matrix(0.7071 -0.7071 0.7071 0.7071 -14.59 18.898)" width="1.5" height="8.888"/>
<rect x="17.909" y="30.203" width="1.5" height="8.898"/>
<rect x="18.659" y="38.351" width="8.898" height="1.5"/>
<rect x="29.949" y="37.799" transform="matrix(0.7071 -0.7071 0.7071 0.7071 -20.8787 34.0806)" width="1.5" height="8.888"/>
<rect x="32.54" y="41.493" transform="matrix(0.7071 -0.7071 0.7071 0.7071 -19.038 38.5236)" width="8.888" height="1.5"/>
<rect x="40.126" y="38.351" width="8.898" height="1.5"/>
<rect x="48.274" y="30.203" width="1.5" height="8.898"/>
<rect x="47.722" y="26.311" transform="matrix(0.7071 -0.7071 0.7071 0.7071 -3.8556 44.8131)" width="8.888" height="1.5"/>
<rect x="51.416" y="16.332" transform="matrix(0.7071 -0.7071 0.7071 0.7071 0.5878 42.9716)" width="1.5" height="8.888"/>
<rect x="44.39" y="43.127" width="1.5" height="22.596"/>
<rect x="38.741" y="55.329" transform="matrix(0.544 -0.8391 0.8391 0.544 -34.0665 61.4368)" width="1.5" height="13.464"/>
<rect x="21.461" y="61.311" transform="matrix(0.8391 -0.544 0.544 0.8391 -29.2238 25.3225)" width="13.464" height="1.5"/>
<rect x="21.794" y="43.127" width="1.5" height="22.596"/>
<path d="M41.002,23.918c0,3.955-3.206,7.161-7.161,7.161v1.5c4.783,0,8.661-3.878,8.661-8.661H41.002z"/>
<path d="M33.841,31.08c-3.955,0-7.161-3.206-7.161-7.161h-1.5c0,4.783,3.878,8.661,8.661,8.661V31.08z"/>
<path d="M26.68,23.918c0-3.955,3.206-7.161,7.161-7.161v-1.5c-4.783,0-8.661,3.878-8.661,8.661H26.68z"/>
<path d="M33.841,16.757c3.955,0,7.161,3.206,7.161,7.161h1.5c0-4.783-3.878-8.661-8.661-8.661V16.757z"/>
<rect x="28.576" y="47.643" width="1.5" height="13.689"/>
<rect x="37.607" y="47.643" width="1.5" height="13.689"/>
</svg>
