<?xml version="1.0" encoding="utf-8"?>
<!-- Generator: Adobe Illustrator 24.3.0, SVG Export Plug-In . SVG Version: 6.00 Build 0)  -->
<svg version="1.1" id="레이어_1" xmlns="http://www.w3.org/2000/svg" xmlns:xlink="http://www.w3.org/1999/xlink" x="0px"
	 y="0px" viewBox="0 0 68.031 68.031" style="enable-background:new 0 0 68.031 68.031;" xml:space="preserve">
<g>
	<path d="M9.318,49.262c0.217,0.353,0.679,0.463,1.031,0.246c0.353-0.217,0.463-0.679,0.247-1.032L9.318,49.262z"/>
	<polygon points="14.034,14.008 13.504,13.478 13.503,13.479 	"/>
	<path d="M48.843,9.925l0.309,0.683c0.338-0.153,0.513-0.53,0.413-0.886L48.843,9.925z"/>
	<path d="M58.696,18.768c-0.217-0.352-0.68-0.462-1.032-0.244c-0.353,0.218-0.462,0.68-0.244,1.032L58.696,18.768z"/>
	<polygon points="53.989,54.014 53.459,53.484 53.458,53.484 	"/>
	<path d="M19.18,58.098l-0.309-0.683c-0.338,0.153-0.513,0.529-0.413,0.886L19.18,58.098z"/>
	<path d="M42.918,11.784c-0.378,0.171-0.545,0.615-0.374,0.993c0.171,0.377,0.615,0.545,0.993,0.374L42.918,11.784z"/>
	<path d="M47.77,3.344c-0.112-0.399-0.526-0.631-0.925-0.519c-0.399,0.112-0.631,0.526-0.519,0.925L47.77,3.344z"/>
	<path d="M25.098,56.239c0.377-0.171,0.544-0.616,0.373-0.993c-0.171-0.377-0.616-0.544-0.993-0.373L25.098,56.239z"/>
	<path d="M20.253,64.688c0.113,0.399,0.527,0.631,0.925,0.519c0.399-0.112,0.632-0.526,0.519-0.925L20.253,64.688z"/>
	<path d="M10.596,48.476c-3.247-5.28-4.621-11.501-3.901-17.66l-1.489-0.174c-0.76,6.493,0.689,13.053,4.112,18.619L10.596,48.476z"
		/>
	<path d="M6.695,30.817c0.721-6.158,3.493-11.894,7.87-16.279l-1.062-1.06C8.888,18.102,5.965,24.15,5.206,30.643L6.695,30.817z"/>
	<path d="M14.565,14.538c4.378-4.383,10.104-7.16,16.253-7.881l-0.175-1.49c-6.484,0.761-12.523,3.689-17.139,8.311L14.565,14.538z"
		/>
	<path d="M30.818,6.657c6.148-0.721,12.36,0.655,17.631,3.906l0.787-1.277c-5.558-3.428-12.109-4.879-18.593-4.119L30.818,6.657z"/>
	<path d="M57.42,19.556c3.255,5.274,4.635,11.496,3.916,17.655l1.49,0.174c0.758-6.494-0.697-13.055-4.13-18.616L57.42,19.556z"/>
	<path d="M61.336,37.211c-0.719,6.159-3.495,11.894-7.877,16.273l1.06,1.061c4.622-4.619,7.549-10.666,8.307-17.16L61.336,37.211z"
		/>
	<path d="M53.458,53.484c-4.378,4.383-10.104,7.16-16.253,7.881l0.175,1.49c6.484-0.761,12.523-3.689,17.139-8.311L53.458,53.484z"
		/>
	<path d="M37.205,61.365c-6.148,0.721-12.36-0.655-17.631-3.906l-0.787,1.277c5.558,3.428,12.109,4.879,18.593,4.119L37.205,61.365z
		"/>
	<rect x="42.953" y="10.446" transform="matrix(0.911 -0.4125 0.4125 0.911 -0.5191 19.9874)" width="6.164" height="1.5"/>
	<rect x="47.196" y="3.423" transform="matrix(0.9626 -0.2709 0.2709 0.9626 -0.0318 13.2409)" width="1.5" height="6.626"/>
	<rect x="18.906" y="56.077" transform="matrix(0.9107 -0.413 0.413 0.9107 -21.5071 14.1527)" width="6.157" height="1.5"/>
	<rect x="19.328" y="57.974" transform="matrix(0.9627 -0.2706 0.2706 0.9627 -15.8355 7.7191)" width="1.5" height="6.634"/>
	<path d="M44.127,34.016c0,5.596-4.53,10.131-10.115,10.131v1.5c6.416,0,11.615-5.208,11.615-11.631H44.127z"/>
	<path d="M34.012,44.147c-5.585,0-10.115-4.535-10.115-10.131h-1.5c0,6.423,5.199,11.631,11.615,11.631V44.147z"/>
	<path d="M23.897,34.016c0-5.596,4.53-10.131,10.115-10.131v-1.5c-6.416,0-11.615,5.208-11.615,11.631H23.897z"/>
	<path d="M34.012,23.885c5.585,0,10.115,4.535,10.115,10.131h1.5c0-6.423-5.199-11.631-11.615-11.631V23.885z"/>
</g>
</svg>
