<?xml version="1.0" encoding="utf-8"?>
<!-- Generator: Adobe Illustrator 24.3.0, SVG Export Plug-In . SVG Version: 6.00 Build 0)  -->
<svg version="1.1" id="레이어_1" xmlns="http://www.w3.org/2000/svg" xmlns:xlink="http://www.w3.org/1999/xlink" x="0px"
	 y="0px" viewBox="0 0 68.031 68.031" style="enable-background:new 0 0 68.031 68.031;" xml:space="preserve">
<g>
	<path d="M14.141,50.065c0-0.414-0.336-0.75-0.75-0.75s-0.75,0.336-0.75,0.75H14.141z"/>
	<path d="M22.559,59.232v-0.75V59.232z"/>
	<path d="M32.476,50.065c0-0.414-0.336-0.75-0.75-0.75s-0.75,0.336-0.75,0.75H32.476z"/>
	<path d="M29.436,35.57h-0.75c0,0.29,0.167,0.553,0.428,0.678L29.436,35.57z"/>
	<path d="M29.436,8.817h0.75H29.436z"/>
	<path d="M15.68,35.57l0.322,0.678c0.262-0.124,0.428-0.388,0.428-0.678H15.68z"/>
	<path d="M61.509,36.319l0.749,0.027c0.001-0.009,0.001-0.018,0.001-0.027H61.509z"/>
	<path d="M54.64,22.563l0.617-0.426c-0.14-0.203-0.37-0.324-0.616-0.324c-0.246,0-0.477,0.12-0.617,0.323L54.64,22.563z"/>
	<path d="M47.762,36.319h-0.75c0,0.009,0,0.018,0.001,0.027L47.762,36.319z"/>
	<path d="M47.78,17.984l0.749,0.033c0.001-0.011,0.001-0.022,0.001-0.033H47.78z"/>
	<path d="M43.201,8.817l0.617-0.426c-0.14-0.203-0.37-0.324-0.617-0.324c-0.246,0-0.477,0.121-0.617,0.323L43.201,8.817z"/>
	<path d="M38.613,17.984h-0.75c0,0.011,0,0.022,0.001,0.033L38.613,17.984z"/>
	<path d="M15.681,12.646c-0.414,0-0.75,0.336-0.75,0.75c0,0.414,0.336,0.75,0.75,0.75V12.646z"/>
	<path d="M22.55,14.146c0.414,0,0.75-0.336,0.75-0.75c0-0.414-0.336-0.75-0.75-0.75V14.146z"/>
	<path d="M15.681,19.523c-0.414,0-0.75,0.336-0.75,0.75s0.336,0.75,0.75,0.75V19.523z"/>
	<path d="M20.26,21.023c0.415,0,0.75-0.336,0.75-0.75s-0.335-0.75-0.75-0.75V21.023z"/>
	<path d="M15.681,26.392c-0.414,0-0.75,0.336-0.75,0.75c0,0.414,0.336,0.75,0.75,0.75V26.392z"/>
	<path d="M22.55,27.892c0.414,0,0.75-0.336,0.75-0.75c0-0.414-0.336-0.75-0.75-0.75V27.892z"/>
	<path d="M12.641,50.065c0,2.63,1.045,5.153,2.905,7.013l1.061-1.061c-1.579-1.578-2.466-3.72-2.466-5.952H12.641z"/>
	<path d="M15.546,57.078c1.86,1.86,4.382,2.905,7.013,2.905v-1.5c-2.233,0-4.374-0.887-5.952-2.465L15.546,57.078z"/>
	<path d="M22.559,59.982c2.63,0,5.152-1.045,7.012-2.905l-1.06-1.061c-1.579,1.579-3.72,2.465-5.952,2.465V59.982z"/>
	<path d="M29.571,57.078c1.86-1.86,2.905-4.382,2.905-7.013h-1.5c0,2.232-0.887,4.373-2.465,5.952L29.571,57.078z"/>
	<rect x="28.686" y="8.817" width="1.5" height="26.754"/>
	<path d="M30.186,8.817c0-2.023-0.804-3.963-2.234-5.394l-1.061,1.061c1.149,1.149,1.795,2.708,1.795,4.333H30.186z"/>
	<path d="M27.952,3.423c-1.431-1.43-3.371-2.234-5.394-2.234v1.5c1.625,0,3.184,0.646,4.333,1.795L27.952,3.423z"/>
	<path d="M22.558,1.189c-2.023,0-3.963,0.804-5.394,2.234l1.061,1.061c1.149-1.149,2.708-1.795,4.333-1.795V1.189z"/>
	<path d="M17.164,3.423c-1.43,1.43-2.234,3.371-2.234,5.394h1.5c0-1.625,0.646-3.184,1.795-4.333L17.164,3.423z"/>
	<rect x="14.93" y="8.817" width="1.5" height="26.754"/>
	<path d="M15.359,34.893c-3.443,1.634-6.227,4.391-7.894,7.818l1.348,0.656c1.519-3.12,4.054-5.631,7.189-7.119L15.359,34.893z"/>
	<path d="M7.465,42.711c-1.668,3.426-2.12,7.318-1.282,11.036l1.463-0.33c-0.763-3.385-0.351-6.929,1.167-10.05L7.465,42.711z"/>
	<path d="M6.183,53.747c0.837,3.718,2.915,7.039,5.891,9.42l0.937-1.172c-2.71-2.167-4.602-5.192-5.365-8.578L6.183,53.747z"/>
	<path d="M12.074,63.166c2.976,2.38,6.673,3.677,10.484,3.677v-1.5c-3.47,0-6.837-1.181-9.547-3.348L12.074,63.166z"/>
	<path d="M22.558,66.843c3.811,0,7.508-1.297,10.484-3.677l-0.937-1.172c-2.71,2.167-6.077,3.348-9.547,3.348V66.843z"/>
	<path d="M33.042,63.166c2.976-2.38,5.054-5.702,5.892-9.42l-1.464-0.33c-0.763,3.385-2.655,6.41-5.365,8.578L33.042,63.166z"/>
	<path d="M38.934,53.747c0.837-3.717,0.385-7.609-1.283-11.036l-1.348,0.656c1.518,3.12,1.93,6.664,1.167,10.05L38.934,53.747z"/>
	<path d="M37.651,42.711c-1.667-3.426-4.451-6.184-7.893-7.818l-0.644,1.355c3.135,1.488,5.67,3.999,7.189,7.119L37.651,42.711z"/>
	<path d="M62.259,36.319c0-1.121-0.49-2.582-1.137-4.055c-0.659-1.504-1.533-3.132-2.399-4.625c-0.866-1.496-1.732-2.87-2.381-3.869
		c-0.324-0.5-0.595-0.907-0.784-1.189c-0.095-0.141-0.17-0.251-0.221-0.326c-0.026-0.038-0.045-0.066-0.059-0.086
		c-0.007-0.01-0.012-0.017-0.015-0.022c-0.002-0.002-0.003-0.004-0.004-0.006c-0.001-0.001-0.001-0.001-0.001-0.002
		c0,0-0.001,0-0.001,0c0,0,0,0-0.617,0.426c-0.617,0.426-0.617,0.426-0.617,0.426c0,0,0,0,0,0s0,0.001,0.001,0.001
		c0,0.001,0.002,0.003,0.003,0.005c0.003,0.004,0.008,0.011,0.014,0.021c0.013,0.018,0.032,0.046,0.056,0.082
		c0.05,0.073,0.123,0.18,0.216,0.318c0.186,0.277,0.452,0.677,0.771,1.169c0.64,0.985,1.491,2.337,2.341,3.805
		c0.852,1.47,1.696,3.044,2.324,4.475c0.641,1.462,1.01,2.672,1.01,3.453H62.259z"/>
	<path d="M54.64,22.563c-0.616-0.427-0.616-0.427-0.616-0.427c0,0-0.001,0-0.001,0.001c0,0,0,0.001-0.001,0.002
		c-0.001,0.001-0.002,0.003-0.004,0.006c-0.003,0.005-0.008,0.013-0.015,0.022c-0.014,0.02-0.033,0.048-0.059,0.086
		c-0.051,0.075-0.126,0.185-0.221,0.325c-0.19,0.282-0.461,0.687-0.786,1.186c-0.649,0.997-1.516,2.367-2.384,3.861
		c-0.867,1.491-1.742,3.118-2.403,4.624c-0.647,1.476-1.138,2.941-1.138,4.071h1.5c0-0.79,0.37-2.005,1.012-3.468
		c0.629-1.433,1.473-3.005,2.326-4.473c0.851-1.465,1.704-2.813,2.344-3.796c0.32-0.491,0.586-0.89,0.772-1.166
		c0.093-0.138,0.166-0.245,0.216-0.317c0.024-0.036,0.043-0.063,0.056-0.082c0.006-0.009,0.011-0.016,0.014-0.02
		c0.001-0.002,0.003-0.004,0.003-0.005c0.001,0,0.001-0.001,0.001-0.001c0,0,0,0,0,0C55.256,22.99,55.256,22.99,54.64,22.563z"/>
	<path d="M47.013,36.346c0.071,1.974,0.906,3.843,2.327,5.214l1.042-1.08c-1.142-1.101-1.813-2.603-1.87-4.189L47.013,36.346z"/>
	<path d="M49.34,41.56c1.422,1.371,3.32,2.137,5.296,2.137v-1.5c-1.587,0-3.112-0.616-4.254-1.717L49.34,41.56z"/>
	<path d="M54.636,43.697c1.975,0,3.873-0.766,5.295-2.137l-1.042-1.08c-1.142,1.102-2.667,1.717-4.253,1.717V43.697z"/>
	<path d="M59.931,41.56c1.421-1.371,2.256-3.24,2.327-5.214l-1.499-0.054c-0.057,1.586-0.727,3.087-1.87,4.189L59.931,41.56z"/>
	<path d="M48.53,17.984c0-0.803-0.347-1.819-0.779-2.802c-0.445-1.014-1.032-2.108-1.612-3.107c-0.58-1.002-1.16-1.921-1.593-2.59
		c-0.217-0.335-0.399-0.607-0.526-0.796c-0.063-0.095-0.113-0.169-0.148-0.219c-0.017-0.025-0.03-0.045-0.039-0.058
		c-0.005-0.007-0.008-0.012-0.011-0.015c-0.001-0.002-0.002-0.003-0.003-0.004c0,0,0-0.001,0-0.001c0,0-0.001,0-0.001,0
		c0,0,0,0-0.617,0.426s-0.617,0.426-0.617,0.426c0,0,0,0,0,0c0,0,0,0,0,0.001c0.001,0.001,0.001,0.002,0.002,0.003
		c0.002,0.003,0.006,0.007,0.01,0.013c0.008,0.012,0.02,0.03,0.037,0.054c0.032,0.048,0.081,0.119,0.142,0.211
		c0.124,0.183,0.3,0.449,0.512,0.776c0.425,0.655,0.99,1.552,1.555,2.525c0.565,0.976,1.122,2.016,1.536,2.958
		c0.427,0.973,0.652,1.737,0.652,2.2H48.53z"/>
	<path d="M43.201,8.817C42.584,8.39,42.584,8.39,42.584,8.39c0,0,0,0,0,0c0,0-0.001,0.001-0.001,0.001
		c-0.001,0.001-0.002,0.002-0.003,0.004c-0.002,0.003-0.006,0.009-0.01,0.015c-0.009,0.013-0.023,0.033-0.04,0.058
		c-0.034,0.05-0.085,0.124-0.148,0.219c-0.128,0.189-0.309,0.462-0.527,0.796c-0.434,0.668-1.015,1.588-1.597,2.59
		c-0.58,0.999-1.169,2.093-1.615,3.107c-0.432,0.984-0.78,1.999-0.78,2.803h1.5c0-0.463,0.226-1.226,0.653-2.199
		c0.415-0.942,0.973-1.982,1.539-2.958c0.566-0.974,1.132-1.871,1.558-2.525c0.212-0.327,0.389-0.593,0.513-0.776
		c0.062-0.092,0.11-0.163,0.143-0.211c0.016-0.024,0.029-0.042,0.037-0.054c0.004-0.006,0.007-0.01,0.009-0.013
		c0.001-0.001,0.002-0.003,0.002-0.003c0.001,0,0.001-0.001,0.001-0.001c0,0,0,0,0,0C43.818,9.243,43.818,9.243,43.201,8.817z"/>
	<path d="M37.864,18.017c0.061,1.373,0.649,2.67,1.642,3.621l1.037-1.084c-0.714-0.683-1.137-1.616-1.181-2.603L37.864,18.017z"/>
	<path d="M39.506,21.638c0.994,0.95,2.316,1.481,3.69,1.481v-1.5c-0.988,0-1.938-0.381-2.653-1.065L39.506,21.638z"/>
	<path d="M43.196,23.119c1.375,0,2.697-0.531,3.691-1.481l-1.037-1.084c-0.715,0.683-1.665,1.065-2.654,1.065V23.119z"/>
	<path d="M46.887,21.638c0.993-0.95,1.581-2.247,1.642-3.621l-1.498-0.066c-0.044,0.987-0.467,1.92-1.181,2.603L46.887,21.638z"/>
	<rect x="15.681" y="12.646" width="6.869" height="1.5"/>
	<rect x="15.681" y="19.523" width="4.579" height="1.5"/>
	<rect x="15.681" y="26.392" width="6.869" height="1.5"/>
</g>
</svg>
