<?xml version="1.0" encoding="utf-8"?>
<!-- Generator: Adobe Illustrator 24.1.2, SVG Export Plug-In . SVG Version: 6.00 Build 0)  -->
<svg version="1.1" id="레이어_1" xmlns="http://www.w3.org/2000/svg" xmlns:xlink="http://www.w3.org/1999/xlink" x="0px"
	 y="0px" viewBox="0 0 119 40" style="enable-background:new 0 0 119 40;" xml:space="preserve">
<style type="text/css">
	.st0{fill:#FFFFFF;}
</style>
<path class="st0" d="M59.088,0.966C38.93,0.811,18.715,4.573,0.797,13.602l0.383,0.724c8.962-4.233,18.581-6.95,28.332-8.782
	c19.556-3.592,39.598-3.592,59.154,0c9.75,1.832,19.375,4.549,28.331,8.782l0.383-0.724C99.461,4.573,79.251,0.811,59.088,0.966z"/>
<path class="st0" d="M4.864,32.464c-0.543,0-1-0.029-1.371-0.057v6.68H0.797V21.378c1.309-0.191,2.63-0.278,3.953-0.258
	c4.838,0,7.557,1.723,7.557,5.445C12.307,30.287,9.262,32.464,4.864,32.464z M4.692,22.246c-0.457,0-0.857,0.029-1.2,0.057v8.926
	c0.486,0,0.857,0.057,1.057,0.057c3.353,0,4.924-1.786,4.924-4.779C9.473,23.825,7.988,22.246,4.692,22.246z"/>
<path class="st0" d="M16.574,32.492c0.086,3.314,1.634,5.56,4.524,5.56c1.253,0.031,2.478-0.375,3.467-1.149l0.657,1.068
	c-1.315,1.027-2.946,1.555-4.61,1.493c-2.233,0-3.924-0.661-5.067-1.958c-1.17-1.398-1.781-3.183-1.714-5.008
	c0-3.854,2.605-7.024,6.443-7.024c3.633,0,5.438,2.418,5.438,5.904c0.001,0.365-0.028,0.73-0.086,1.091L16.574,32.492z
	 M22.96,31.344c0.039-0.239,0.059-0.481,0.057-0.724c0-2.217-0.8-4.055-2.856-4.055c-2.056,0-3.382,2.016-3.581,4.779H22.96z"/>
<path class="st0" d="M36.76,38.31c-0.886,0.783-2.031,1.203-3.21,1.177c-2.748,0-3.661-1.958-3.661-5.41v-7.024h-2.548v-1.149h2.548
	v-3.596h2.519v3.596h3.81v1.149h-3.81v6.68c0,2.872,0.343,4.377,1.862,4.377c0.691-0.045,1.351-0.309,1.885-0.752L36.76,38.31z"/>
<path class="st0" d="M49.098,22.705V29.5h1.028c2.205,0,3.896,0,5.072-0.115v1.608c-1.177-0.092-2.856-0.121-5.072-0.121h-1.028
	v8.236h-2.708V21.35h10.219v1.603c-1.741-0.167-3.489-0.244-5.238-0.23L49.098,22.705z"/>
<path class="st0" d="M63.869,25.497c4.096,0,6.557,2.562,6.557,6.967c0,4.089-3.033,7.024-6.557,7.024
	c-4.033,0-6.529-2.59-6.529-6.996C57.34,28.431,60.379,25.497,63.869,25.497z M66.759,28.317c-0.265-0.526-0.675-0.963-1.182-1.259
	c-0.507-0.296-1.088-0.437-1.674-0.407c-0.59-0.015-1.171,0.139-1.677,0.444c-0.506,0.305-0.915,0.749-1.179,1.279
	c-0.687,1.261-1.032,2.681-1,4.118c-0.041,1.446,0.273,2.88,0.914,4.176c0.288,0.509,0.706,0.932,1.211,1.224
	c0.505,0.292,1.079,0.443,1.661,0.437c0.583-0.006,1.153-0.168,1.652-0.47c0.499-0.302,0.909-0.733,1.187-1.248
	c0.695-1.268,1.042-2.699,1.005-4.147C67.735,31.024,67.418,29.595,66.759,28.317L66.759,28.317z"/>
<path class="st0" d="M81.234,27.714c-0.332-0.06-0.668-0.088-1.005-0.086c-2.285,0-3.604,1.442-3.604,4.319v7.139H74.02v-13.21
	h1.714l0.691,2.504c0.329-0.798,0.882-1.482,1.593-1.968c0.71-0.486,1.547-0.752,2.406-0.766c0.28,0.002,0.559,0.031,0.834,0.086
	L81.234,27.714z"/>
<path class="st0" d="M85.34,32.492c0.086,3.314,1.634,5.56,4.524,5.56c1.253,0.031,2.478-0.375,3.467-1.149l0.657,1.068
	c-1.314,1.027-2.946,1.556-4.61,1.493c-2.233,0-3.924-0.661-5.067-1.959c-1.17-1.398-1.781-3.183-1.714-5.008
	c0-3.854,2.605-7.024,6.443-7.024c3.639,0,5.438,2.418,5.438,5.904c0.001,0.365-0.028,0.73-0.086,1.091L85.34,32.492z
	 M91.727,31.344c0.039-0.239,0.059-0.481,0.057-0.724c0-2.217-0.8-4.055-2.856-4.055c-2.056,0-3.382,2.016-3.581,4.779H91.727z"/>
<path class="st0" d="M97.57,36.783c1.135,0.845,2.506,1.309,3.918,1.327c1.714,0,2.748-0.724,2.748-2.016
	c0-1.149-0.685-1.671-2.405-2.447l-1.713-0.781c-1.92-0.861-2.856-2.073-2.856-3.624c0-2.332,2.033-3.745,4.866-3.745
	c1.383-0.049,2.752,0.291,3.953,0.982l-0.571,1.292c-0.983-0.658-2.138-1.008-3.319-1.005c-1.634,0-2.725,0.689-2.725,1.815
	c0,1.005,0.572,1.522,2.034,2.211l2.09,0.982c1.977,0.919,2.856,2.073,2.856,3.682c0,2.539-2.062,4.021-4.838,4.021
	c-1.676,0.028-3.318-0.474-4.695-1.436L97.57,36.783z"/>
<path class="st0" d="M117.379,38.31c-0.883,0.783-2.027,1.203-3.204,1.177c-2.754,0-3.668-1.958-3.668-5.41v-7.024h-2.547v-1.149
	h2.547v-3.596h2.52v3.596h3.809v1.149h-3.809v6.68c0,2.872,0.342,4.377,1.862,4.377c0.693-0.046,1.354-0.309,1.89-0.752
	L117.379,38.31z"/>
</svg>
