<svg width="119" height="40" viewBox="0 0 119 40" fill="none" xmlns="http://www.w3.org/2000/svg">
<path d="M59.088 0.96602C38.9303 0.810945 18.7155 4.57295 0.796875 13.6018L1.17957 14.3255C10.1417 10.0925 19.7608 7.3758 29.5112 5.54361C49.0673 1.95194 69.1087 1.95194 88.6648 5.54361C98.4152 7.3758 108.04 10.0925 116.996 14.3255L117.379 13.6018C99.4605 4.57295 79.2514 0.810945 59.088 0.96602Z" fill="#0D4221"/>
<path d="M4.86383 32.4636C4.32118 32.4636 3.86424 32.4348 3.49296 32.4061V39.0858H0.796875V21.3785C2.10555 21.1872 3.42728 21.1007 4.74958 21.1201C9.58765 21.1201 12.3066 22.8431 12.3066 26.565C12.3066 30.2868 9.26207 32.4636 4.86383 32.4636ZM4.69247 22.2458C4.23551 22.2458 3.83568 22.2745 3.49296 22.3032V31.2287C3.97848 31.2287 4.34975 31.2861 4.54967 31.2861C7.90262 31.2861 9.47342 29.4999 9.47342 26.5075C9.47342 23.8253 7.9883 22.2458 4.69247 22.2458Z" fill="#0D4221"/>
<path d="M16.5739 32.4922C16.6596 35.8062 18.2075 38.0519 21.0978 38.0519C22.3508 38.0832 23.5759 37.6773 24.565 36.9032L25.2219 37.9715C23.9073 38.998 22.2755 39.5267 20.6123 39.4648C18.3789 39.4648 16.6881 38.8043 15.5457 37.5063C14.376 36.1086 13.7652 34.3234 13.8321 32.498C13.8321 28.644 16.4368 25.4736 20.2753 25.4736C23.9081 25.4736 25.7131 27.8917 25.7131 31.378C25.7141 31.7435 25.6855 32.1084 25.6274 32.4692L16.5739 32.4922ZM22.9599 31.3435C22.9994 31.1043 23.0186 30.8623 23.017 30.6198C23.017 28.4028 22.2174 26.5649 20.161 26.5649C18.1047 26.5649 16.7795 28.5809 16.5796 31.3435H22.9599Z" fill="#0D4221"/>
<path d="M36.7599 38.3103C35.8743 39.0933 34.7287 39.5135 33.5498 39.4877C30.8023 39.4877 29.8884 37.5292 29.8884 34.0773V27.053H27.3408V25.9043H29.8884V22.3088H32.4074V25.9043H36.2172V27.053H32.4074V33.7327C32.4074 36.6045 32.7501 38.1093 34.2695 38.1093C34.9608 38.0639 35.6204 37.8006 36.1544 37.3569L36.7599 38.3103Z" fill="#0D4221"/>
<path d="M49.0981 22.7051V29.4997H50.1263C52.3311 29.4997 54.0219 29.4997 55.1986 29.3848V30.993C54.0219 30.9011 52.3426 30.8724 50.1263 30.8724H49.0981V39.1086H46.3906V21.3496H56.6094V22.9521C54.8685 22.7851 53.1202 22.7084 51.3715 22.7223L49.0981 22.7051Z" fill="#0D4221"/>
<path d="M63.8686 25.4966C67.9641 25.4966 70.426 28.0582 70.426 32.4635C70.426 36.5529 67.3929 39.4878 63.8686 39.4878C59.836 39.4878 57.3398 36.8975 57.3398 32.4922C57.3398 28.4315 60.3786 25.4966 63.8686 25.4966ZM66.7589 28.3167C66.4943 27.7908 66.0836 27.3536 65.5766 27.0579C65.0696 26.7622 64.4882 26.6209 63.9029 26.651C63.3133 26.6361 62.7317 26.7902 62.2259 27.0953C61.7202 27.4004 61.3113 27.844 61.0469 28.3741C60.3601 29.6348 60.0154 31.0551 60.0473 32.4922C60.0059 33.9384 60.3198 35.3726 60.9612 36.6677C61.2493 37.1771 61.6675 37.5996 62.1727 37.8917C62.6778 38.1838 63.2514 38.3347 63.834 38.3288C64.4167 38.323 64.9872 38.1605 65.4864 37.8584C65.9856 37.5562 66.3954 37.1253 66.6732 36.6103C67.3685 35.3423 67.7155 33.911 67.6786 32.4635C67.7353 31.0244 67.4184 29.5952 66.7589 28.3167V28.3167Z" fill="#0D4221"/>
<path d="M81.2338 27.7137C80.902 27.654 80.5655 27.6252 80.2285 27.6275C77.9437 27.6275 76.6242 29.0691 76.6242 31.9466V39.0858H74.0195V25.8757H75.7331L76.4243 28.3799C76.7529 27.5817 77.3065 26.8976 78.017 26.4118C78.7274 25.9261 79.5636 25.6599 80.4227 25.646C80.7028 25.6477 80.9821 25.6765 81.2567 25.7321L81.2338 27.7137Z" fill="#0D4221"/>
<path d="M85.3404 32.4922C85.4261 35.8062 86.9741 38.0519 89.8644 38.0519C91.1174 38.0832 92.3425 37.6773 93.3316 36.9032L93.9885 37.9715C92.6744 38.9989 91.0423 39.5276 89.3789 39.4649C87.1455 39.4649 85.4547 38.8043 84.3123 37.5063C83.1426 36.1086 82.5318 34.3234 82.5987 32.498C82.5987 28.644 85.2034 25.4736 89.0419 25.4736C92.6805 25.4736 94.4797 27.8917 94.4797 31.378C94.4807 31.7435 94.4521 32.1084 94.3941 32.4692L85.3404 32.4922ZM91.7265 31.3435C91.766 31.1044 91.7851 30.8623 91.7836 30.6198C91.7836 28.4028 90.9839 26.5649 88.9276 26.5649C86.8713 26.5649 85.5461 28.5809 85.3462 31.3435H91.7265Z" fill="#0D4221"/>
<path d="M97.57 36.7827C98.7053 37.6275 100.076 38.0917 101.488 38.1094C103.202 38.1094 104.236 37.3857 104.236 36.0935C104.236 34.9447 103.551 34.4221 101.831 33.6467L100.118 32.8656C98.1984 32.0041 97.2616 30.7922 97.2616 29.2414C97.2616 26.9096 99.295 25.4966 102.128 25.4966C103.511 25.4473 104.88 25.7875 106.081 26.4788L105.51 27.7711C104.527 27.1131 103.372 26.7632 102.191 26.766C100.557 26.766 99.4664 27.4552 99.4664 28.5809C99.4664 29.586 100.038 30.1029 101.5 30.7922L103.59 31.7743C105.567 32.6933 106.446 33.8477 106.446 35.4559C106.446 37.9945 104.384 39.4764 101.608 39.4764C99.9323 39.5044 98.2898 39.0021 96.9131 38.0405L97.57 36.7827Z" fill="#0D4221"/>
<path d="M117.379 38.3103C116.496 39.0934 115.352 39.5137 114.175 39.4877C111.421 39.4877 110.507 37.5292 110.507 34.0773V27.053H107.96V25.9043H110.507V22.3088H113.027V25.9043H116.836V27.053H113.027V33.7327C113.027 36.6045 113.369 38.1093 114.889 38.1093C115.582 38.0632 116.243 37.8001 116.779 37.3569L117.379 38.3103Z" fill="#0D4221"/>
</svg>
